<svg xmlns="http://www.w3.org/2000/svg" width="1193.495" height="1404.417"><g fill="none" stroke="#6140ff" stroke-width="15" stroke-miterlimit="10"><path d="M902.7 286.1l23.42-24.73"/><path d="M781.64 117.08l-43-45.4"/><path d="M485.35 139.04l-42.5-44.87"/><path d="M690.4 213.37l-26.74-28.24"/><path d="M1072.6 789.07l38.16-40.3"/><path d="M904.05 736.4l-30.86 32.67"/><path d="M402.83 982.88l-44.2 46.67"/><path d="M158.06 595.27l-53.08 56.1"/><path d="M82.58 865.34L52.7 833.87"/><path d="M31.84 626.28l-26.4 27.8"/><path d="M437.96 1180.73l-16.82 17.83"/><path d="M201.72 1213.77l-14.97-15.8"/><path d="M100.17 1081.84l-42.3 44.58"/><path d="M49.44 387.15l-10-10.56"/><path d="M88.47 224.3l-23.5 24.78"/><path d="M242.74 36.7L212.86 5.16"/><path d="M1086.2 88.24l31.52-33.26"/><path d="M1160.44 350l27.6 29.2"/><path d="M1146.74 995.24l31.8-33.56"/><path d="M842.17 1151.9l61.3 64.72"/><path d="M598.05 991.12l21.58-22.77"/><path d="M1127.23 1207.55l43.14 45.55"/><path d="M988.64 1065.36l45.06-47.64"/><path d="M752.33 1399.26l-45.2-47.72"/><path d="M459.46 1331.24l-17.3 18.28"/><path d="M613.74 1211.67l6.88 7.27"/><path d="M805.05 1036.44v-2.02"/><path d="M711.3 801.43"/><path d="M894.9 531.44"/><path d="M797.25 323.25"/><path d="M508.3 263.47"/><path d="M150.9 834.47l-19.86-21.05"/><path d="M205.63 1057.05l-4.97-5.25"/><path d="M918.3 1368.32h6.2"/><path d="M939.8 956.06l-4.95-5.24"/><path d="M1086.65 490.4v-17.6"/><path d="M959.33 164.5l-6.18-6.5"/><path d="M611.75 131.54"/><path d="M719.12 935.46l-4.97-5.25"/></g></svg>