<svg xmlns="http://www.w3.org/2000/svg" width="1636.171" height="1071.36"><g transform="translate(1438.171) rotate(90)"><g fill="none" stroke="#fff28b" stroke-width="11.339" stroke-miterlimit="10"><path d="M345.68 394.62v62.1h61.22"/><path d="M345.68 456.73l-54.82 54.82"/></g><g fill="none" stroke="#fff28b" stroke-width="11.339" stroke-miterlimit="10"><path d="M435.23 132.03l-43.9-43.9-43.3 43.3"/><path d="M391.33 88.14V10.58"/></g><g fill="none" stroke="#fff28b" stroke-width="11.339" stroke-miterlimit="10"><path d="M743.88 665.44v47h-62.05"/><path d="M743.88 712.45l54.83 54.88"/></g><path fill="none" stroke="#00c691" stroke-width="11.339" stroke-miterlimit="10" d="M382.23 425.7h67.92v70.57L577.13 369.3"/><circle cx="11.458" cy="11.458" r="11.458" fill="#00c691" transform="translate(458.729 557.441)"/><circle cx="30.143" cy="30.143" r="30.143" fill="none" stroke="#fff28b" stroke-width="11.339" stroke-miterlimit="10" transform="translate(555.328 665.439)"/><circle cx="18.156" cy="18.156" r="18.156" fill="none" stroke="#00c691" stroke-width="11.339" stroke-miterlimit="10" transform="translate(260.771 647.635)"/><circle cx="18.156" cy="18.156" r="18.156" fill="none" stroke="#00c691" stroke-width="11.339" stroke-miterlimit="10" transform="translate(192.788 380.167)"/><circle cx="4.289" cy="4.289" r="4.289" fill="#fff28b" transform="translate(375.762 517.192)"/><circle cx="4.289" cy="4.289" r="4.289" fill="#fff28b" transform="translate(213.882 517.192)"/><circle cx="4.289" cy="4.289" r="4.289" fill="#fff" transform="translate(132.208 716.03)"/><circle cx="4.289" cy="4.289" r="4.289" fill="#fff28b" transform="translate(332.633 940.781)"/><circle cx="4.289" cy="4.289" r="4.289" fill="#fff" transform="translate(650.634 826.555)"/><circle cx="4.289" cy="4.289" r="4.289" fill="rgba(0,0,0,0)" transform="translate(546.102 1194.089)"/><circle cx="4.289" cy="4.289" r="4.289" fill="#fff" transform="translate(857.581 989.844)"/><circle cx="4.289" cy="4.289" r="4.289" fill="#fff28b" transform="translate(441.395 758.689)"/><circle cx="4.289" cy="4.289" r="4.289" fill="#fff28b" transform="translate(896.361 569.781)"/><circle cx="4.289" cy="4.289" r="4.289" fill="#fff" transform="translate(843.538 739.886)"/><circle cx="4.289" cy="4.289" r="4.289" fill="#fff" transform="translate(537.524 1429.593)"/><circle cx="4.289" cy="4.289" r="4.289" fill="#00c691" transform="translate(546.102 152.889)"/><circle cx="4.289" cy="4.289" r="4.289" fill="#fff" transform="translate(622.606 301.49)"/><circle cx="4.289" cy="4.289" r="4.289" fill="#00c691" transform="translate(421.535 268.467)"/><circle cx="4.289" cy="4.289" r="4.289" fill="#00c691" transform="translate(127.86 80.147)"/><circle cx="4.289" cy="4.289" r="4.289" fill="#00c691" transform="translate(454.439 360.953)"/><circle cx="4.289" cy="4.289" r="4.289" fill="#00c691" transform="translate(595.636 466.189)"/><circle cx="4.289" cy="4.289" r="4.289" fill="#fff28b" transform="translate(897.772 902.177)"/><circle cx="4.289" cy="4.289" r="4.289" fill="#00c691" transform="translate(414.601 1352.56)"/><circle cx="4.289" cy="4.289" r="4.289" fill="#00c691" transform="translate(516.782 807.752)"/><circle cx="4.289" cy="4.289" r="4.289" fill="#00c691" transform="translate(933.556 725.725)"/><circle cx="4.289" cy="4.289" r="4.289" fill="#00c691" transform="translate(659.741 598.572)"/><circle cx="4.289" cy="4.289" r="4.289" fill="#00c691" transform="translate(924.918 507.262)"/><circle cx="4.289" cy="4.289" r="4.289" fill="#00c691" transform="translate(159.237 307.953)"/><g fill="none" stroke="#00c691" stroke-width="11.339" stroke-miterlimit="10"><path d="M681.83 665.44h62.05V604.2"/><path d="M743.88 665.44l54.83 54.88"/></g><path fill="#00c691" d="M568.85 568.55l10.06 10.05-99.03 99.04-10.05-10.05z"/><path fill="none" stroke="#fff28b" stroke-width="11.339" stroke-miterlimit="10" d="M654.92 521.48l123.4-123.4L850 469.8l79.2-79.2"/><path fill="#fff28b" d="M57.4 767.68l51.36 102.6 54.77-54.77z"/><path fill="#fff28b" d="M330.52 185.38l-29.97 90.02h64.1z"/><path fill="none" stroke="#00c691" stroke-width="11.339" stroke-miterlimit="10" d="M330.52 236.5l-29.97 90.08h64.1z"/><path fill="none" stroke="#00c691" stroke-width="11.339" stroke-miterlimit="10" d="M806.13 1016.92l255.63-128-136.5-136.52z"/><path fill="none" stroke="#00c691" stroke-width="11.339" stroke-miterlimit="10" d="M185.5 120.28L33.08 272.76"/><path fill="none" stroke="#fff28b" stroke-width="11.339" stroke-miterlimit="10" d="M157.6 207.9L5.16 360.3"/><circle cx="5.465" cy="5.465" r="5.465" fill="#fff28b" transform="translate(238.855 179.918)"/><circle cx="5.465" cy="5.465" r="5.465" fill="#fff28b" transform="translate(958.704 82.556)"/><circle cx="5.465" cy="5.465" r="5.465" fill="#fff28b" transform="translate(681.834 114.814)"/><circle cx="5.465" cy="5.465" r="5.465" fill="#fff28b" transform="translate(765.8 285.919)"/><circle cx="44.01" cy="44.01" r="44.01" fill="#fff28b" transform="translate(723.2)"/><circle cx="173.01" cy="173.01" r="173.01" fill="#fff28b" transform="translate(148.2 -198)"/><circle cx="44.01" cy="44.01" r="44.01" fill="#00c691" transform="translate(788.657)"/><path fill="none" stroke="#00c691" stroke-width="11.339" stroke-miterlimit="10" d="M672.2 261.7l-58.82-58.8-65.75 65.74-74.98-74.9"/><path fill="none" stroke="#fff28b" stroke-width="11.339" stroke-miterlimit="10" d="M654.92 198.02l69.34 69.33 54.4-54.35 51.9 51.88"/><path fill="none" stroke="#fff28b" stroke-width="11.339" stroke-miterlimit="10" d="M724.26 267.35v79.5"/><circle cx="18.391" cy="18.391" r="18.391" fill="none" stroke="#00c691" stroke-width="11.339" stroke-miterlimit="10" transform="translate(825.088 328.46)"/><path fill="none" stroke="#00c691" stroke-width="11.339" stroke-miterlimit="10" d="M854.88 291.38h55.76v52.53"/><circle cx="10.106" cy="10.106" r="10.106" fill="none" stroke="#fff28b" stroke-width="11.339" stroke-miterlimit="10" transform="translate(197.959 359.19)"/><path fill="none" stroke="#00c691" stroke-width="11.339" stroke-miterlimit="10" d="M146.72 860.52L200.9 806l-68.75-28.57"/><path fill="none" stroke="#fff28b" stroke-width="11.339" stroke-miterlimit="10" d="M364.66 758.7v82.5h85.3v82.6h74.4v-39.78"/><circle cx="24.326" cy="24.326" r="24.326" fill="#00c691" transform="translate(340.33 734.363)"/><path fill="#00c691" d="M57.13 495.63l64.72 64.72-57.12 57.12z"/><path fill="none" stroke="#fff28b" stroke-width="11.339" stroke-miterlimit="10" d="M186.27 623.6h29.2v-43.65H144.3"/><path fill="none" stroke="#fff" stroke-width="11.339" stroke-miterlimit="10" d="M368.24 609.15l23.2 23.2-24.6 24.63"/><path fill="none" stroke="#fff" stroke-width="11.339" stroke-miterlimit="10" d="M267.18 1071.75l12.57 12.58 15.1-15.1"/><path fill="rgba(0,0,0,0)" stroke="#fff" stroke-width="11.339" stroke-miterlimit="10" d="M962.06 866.8l12.63 12.56 15.1-15.1"/><path fill="rgba(0,0,0,0)" stroke="#fff28b" stroke-width="11.339" stroke-miterlimit="10" d="M950.2 821.32l-17.2 4.65 5.54 20.63"/><path fill="none" stroke="#fff" stroke-width="11.339" stroke-miterlimit="10" d="M179.45 903.88l-12.63 12.57 15.1 15.1"/><path fill="rgba(0,0,0,0)" stroke="#fff" stroke-width="11.339" stroke-miterlimit="10" d="M488.34 1297.27l-24.26-24.33-27.27 27.27"/><path fill="rgba(0,0,0,0)" stroke="#fff" stroke-width="11.339" stroke-miterlimit="10" d="M524.36 107.35l29.9-29.85 13.88 13.87"/><path fill="none" stroke="#fff" stroke-width="11.339" stroke-miterlimit="10" d="M891.37 163.64l31.02-31.02 19.97 19.98"/><path fill="none" stroke="#00c691" stroke-width="11.339" stroke-miterlimit="10" d="M907.05 616.33V578.6l68.52 18.87 68.5 18.86-68.5 18.87-68.52 18.86z"/><circle cx="45.244" cy="45.244" r="45.244" fill="none" stroke="#00c691" stroke-width="11.339" stroke-miterlimit="10" transform="translate(969.692 191.259)"/><path fill="none" stroke="#fff" stroke-width="11.339" stroke-miterlimit="10" d="M955.97 509.16l82.97 24.56"/><path fill="none" stroke="#00c691" stroke-width="11.339" stroke-miterlimit="10" d="M750.88 170.63l19.1-19.1 21.9 21.98 29.33-29.3"/><path fill="none" stroke="#fff28b" stroke-width="11.339" stroke-miterlimit="10" d="M463.08 232.68l-36.73-36.72"/></g></svg>