<svg xmlns="http://www.w3.org/2000/svg" width="1049" height="1229"><defs><clipPath id="a"><path fill="#fff" d="M0 0h1049v1229H0z" data-name="Rectangle 230" transform="translate(0 928)"/></clipPath></defs><g clip-path="url(#a)" data-name="Mask Group 4" transform="translate(0 -928)"><g data-name="Group 1092"><path fill="none" stroke="#6140ff" stroke-miterlimit="10" stroke-width="6" d="M61.84 1125.7c-5.87 3.82-11.8 7.69-16.17 12.44-5.35 5.83-8.03 12.72-9.46 19.67-6.27 30.43 12.4 62.87 46.77 81.37s83.11 22.41 122.39 9.74c4.5-1.45 9-3.17 12.13-5.97 7.64-6.85 3.85-16.82-.32-25.07q-22.9-45.3-45.87-90.64c-5.15-10.12-10.56-20.6-21.07-28.34-33-24.23-64.65 11.42-88.4 26.8z" data-name="Path 2040"/><path fill="#6140ff" d="M116.32 1198.17a47.16 47.16 0 0020.68 7.27c7.76.7 16.18-1.08 21.13-5.4 5.61-4.86 5.88-11.7 5.94-17.95.07-11 0-22.42-6.65-32.3-12.53-18.64-42.14-21.25-55.52-2.42-11.74 16.59-4.9 38.63 14.42 50.8z" data-name="Path 2041"/><path fill="none" stroke="#ffee7a" stroke-miterlimit="10" stroke-width="6" d="M165.77 1015.15c.58-11.04-8.61-22.46-23.1-26.28-7.3-1.91-15.26-1.91-23.03-1.54-13.56.65-27.53 2.43-38.68 7.97-27.08 13.42-27.14 50.2 7.76 57.56 31.32 6.62 75.8-14.45 77.05-37.7z" data-name="Path 2042"/><path fill="none" stroke="#ffee7a" stroke-miterlimit="10" stroke-width="6" d="M267.21 969.16q-30.43 44.18-60.93 88.36c-9.85 14.3-19.96 29.4-18.92 45.3 2.15 31.88 47.17 54.48 56.24 85.7 7.63 26.33-12.2 52.99-37.45 72.98s-56.43 35.98-79.46 57.23a134.73 134.73 0 00-26.42 32.95c-11.42 20.32-17.87 44.36-43.25 56.71-29.62 14.4-70.33 5.69-104.7 12.96" data-name="Path 2043"/><path fill="none" stroke="#6140ff" stroke-miterlimit="10" stroke-width="6" d="M-35.56 1456.72c40.71-3.21 85.86 6.01 120.37-9.7 36.99-16.81 42.2-52.98 60.15-81.55 20.22-32.2 58.78-56.34 89.44-84.02s54.47-64.4 38.03-97.68c-8.15-16.6-25.38-30.06-35.75-46-17.74-27.4-13.44-60.45 5.35-87.43 18.86-27.03 50.82-48.47 86.5-64.64 8.88-4.06 18.2-7.83 28.45-9.42 20.88-3.26 42.8 3.17 59.17 12.96 54.15 32.39 54.67 93.49 101.84 131 23.35 18.6 58.9 32.58 64.84 57.18 9.27 38.26-60.28 67.44-57.01 106.17" data-name="Path 2044"/><path fill="none" stroke="#fff" stroke-miterlimit="10" stroke-width="6" d="M477.73 1270.91c11.16-15.1 22.44-30.52 26.75-47.34 4.24-16.83.46-35.56-15.6-48.2-10.1-7.91-24.26-13-33.07-21.66-14.35-14.12-10.7-33.37-10.3-50.8.45-20.04-4.64-40.69-19.97-57.51-15.33-16.78-42.08-29.08-70.13-28.1-28.44.98-52.9 14.72-71.7 30.01-19.57 15.94-36.08 36.12-32.55 57.18 4.43 26.52 38.23 45.2 53.36 69.63 18.2 29.36 7.3 64.31-14.74 92.32s-54.22 51.08-82.07 76.33c-27.8 25.26-52.2 54.44-54.15 86.55-.65 10.62 1.3 21.53 7.63 31.17 7.18 10.86 19.44 19.48 31.51 27.87q68.8 47.89 137.65 95.82" data-name="Path 2045"/><path fill="rgba(0,0,0,0)" stroke="#ffee7a" stroke-miterlimit="10" stroke-width="6" d="M436.57 1262.3c12.26-20.75 24.53-44.51 11.41-64.97-14.15-22.1-54.01-32.9-62.95-56.35-5.42-14.21 2.28-29.08 5.61-43.62s-.13-32.48-18.66-38.96c-12.85-4.47-28.25-1.68-41.75 1.68-16.44 4.06-33.01 9-45.4 17.71s-19.9 21.95-14.68 33.79c6.98 15.8 31.96 22.97 48.14 34.76 16.7 12.21 23.94 29.64 25.44 46.7 2.1 24.14-6.39 48.66-24 69.3-20.42 23.91-51.8 41.8-78.88 62.13-27 20.31-51.08 45.57-50.42 73.58.78 35.23 39.33 63.43 75.21 87.57 19.25 12.96 42.47 26.84 68.57 24.1" data-name="Path 2046"/><path fill="none" stroke="#6140ff" stroke-miterlimit="10" stroke-width="6" d="M323.19 1440.04c-14.16-13.7-20.68-31.27-17.88-48.19s14.81-32.95 33.01-43.95" data-name="Path 2047"/><path fill="none" stroke="#6140ff" stroke-miterlimit="10" stroke-width="6" d="M366.05 1236.06c4.04-5.41 8.8-10.68 15.65-14.31s16.12-5.45 24.14-3.26c11.22 3.03 16.25 12.53 16.77 21.1.72 11.7-5.29 24.2-18.66 30.9-39.66 19.9-53.1-14.12-37.9-34.43z" data-name="Path 2048"/><path fill="none" stroke="#f26941" stroke-miterlimit="10" stroke-width="6" d="M412.23 970c10.5 20.64 44.04 33.83 74.11 29.03 20.16-3.21 37-13.14 56.5-18.03s46.45-2.1 53.17 11.83c5.1 10.63-4.56 22.33-17.41 28.8s-28.45 9.42-42.6 14.36c-14.16 4.9-27.93 12.9-30.47 24-2.48 10.76 6.39 21.39 17.8 28.61s25.32 12.12 37.52 18.69c28.57 15.29 46.25 38.87 58.32 62.87 7.05 13.98 14.87 30.29 34.45 35.23 13.04 3.3 28.24.05 38.55-6.62a43.73 43.73 0 0018.6-26c.9-3.45 1.5-7.08 4.36-9.97 3.66-3.68 10.25-5.22 16.44-6.06 27.08-3.73 56.37 1.82 77.31 14.63 17.74 10.82 29.94 26.57 50.82 33.98 10.37 3.68 22.44 5.12 31.31 10.4a26.19 26.19 0 0112.72 27.95c-1.89 10.16-8.48 19.48-15 28.61-33.07 46.51-66.93 96.33-60.14 148.3.58 4.47 2.08 9.64 7.63 11.74 3.2 1.2 7.11 1.12 10.76.93 38.5-1.82 76.53-7.46 115.08-9.37 38.5-1.86 78.68.28 112.86 13.05" data-name="Path 2049"/><path fill="none" stroke="#f26941" stroke-miterlimit="10" stroke-width="6" d="M617.8 1265.5a836.42 836.42 0 01123.82-19.33c20.75-1.68 44.04-2.05 59.63 7.88 12.13 7.73 16.5 20.08 16.83 31.69.78 26.56-15.6 51.68-31.58 75.63-6.52 9.74-13.18 19.67-23.87 27.27-27.6 19.61-71.96 18.17-110.65 15.37" data-name="Path 2050"/><path fill="none" stroke="#f8f8f8" stroke-miterlimit="10" stroke-width="6" d="M630.58 1371.2c14.16 2.2 28.58 4.1 43.06 3.73 39.34-1.02 76.4-20.74 89.05-47.35 1.9-4 3.33-8.2 3.13-12.44-.45-9.93-9.85-18.83-21.6-24.14s-25.63-7.64-39.33-9.32c-9.72-1.21-19.7-2.14-29.42-.93s-19.31 4.75-24.4 10.76" data-name="Path 2051"/><path fill="none" stroke="#ffee7a" stroke-miterlimit="10" stroke-width="6" d="M660.14 1309.6a36.27 36.27 0 0122.11-3.08c3.26.56 6.6 1.72 8.22 3.82 1.57 2.1 1.18 4.66 1.18 7.04 0 3.4.78 7.04-1.44 10.06a17.59 17.59 0 01-4.37 3.73 19.77 19.77 0 01-6.85 3.45c-2.87.6-5.94.14-8.8.56-1.9.28-3.73.89-5.62.8a13.73 13.73 0 01-4.56-1.22 31.76 31.76 0 01-7.83-3.87c-8.29-6.34-.2-17.1 7.96-21.3z" data-name="Path 2052"/><path fill="none" stroke="#fff" stroke-miterlimit="10" stroke-width="6" d="M661.96 976.7c21.34 5.74 39.86 21.82 33.34 37.38-2.15 5.13-6.72 9.56-11.29 13.84-17.67 16.69-36.92 34.21-39.53 55.09-1.37 10.77 3.78 23.3 17.74 27.45 16.77 4.94 34.19-4.57 50.56-10.02a113.5 113.5 0 0135.69-5.55 44.45 44.45 0 0112.26 1.4 39.58 39.58 0 0111.94 6.34c18.79 13.6 32.36 30.48 49.84 44.93s40.97 27.12 67.72 27.63c6.07.1 12.4-.46 17.61-2.65a33.45 33.45 0 0011.03-7.97c12.79-13.14 19.3-28.99 32.1-42.13a14.6 14.6 0 015.41-3.87c5.55-2.05 12 .65 17.62 2.61a72.81 72.81 0 0039.86 1.63" data-name="Path 2053"/><path fill="none" stroke="#ffee7a" stroke-miterlimit="10" stroke-width="6" d="M1054.17 1172.12a116.62 116.62 0 01-33.4 13.05c-10.17 2.32-21.13 3.5-30.07 7.68-8.94 4.15-15.33 12.68-10.57 19.53 5.09 7.32 18.66 8.34 29.55 10.77 27.6 6.1 45.02 24.98 60.15 42.55" data-name="Path 2054"/><path fill="none" stroke="#ffee7a" stroke-miterlimit="10" stroke-width="6" d="M1051.7 1046.38c-17.56 12.2-44.3 17.15-67.92 12.63-12.13-2.33-23.1-6.9-33.92-11.42q-22.22-9.3-44.5-18.55c-12.32-5.12-24.98-10.48-33.66-18.54-8.67-8.11-12.46-19.72-5.48-28.57" data-name="Path 2055"/><path fill="none" stroke="#2de8f5" stroke-miterlimit="10" stroke-width="6" d="M915.35 1274.92c.52 33.28-25.58 63.71-34.06 96.42-2.67 10.21-3.06 21.86 6.46 29.74 9.33 7.69 25.05 9.18 39.27 9.83q29.07 1.33 58.26 1.07c26.1-.28 55.78-2.84 70.98-17.99" data-name="Path 2056"/><path fill="none" stroke="#fff" stroke-miterlimit="10" stroke-width="6" d="M1024.62 1332.38c2.94 6.86 5.87 14.36 2.22 21.02-1.9 3.54-5.48 6.48-9 9.37-7.7 6.25-15.33 12.49-23.03 18.73-4.37 3.55-8.87 7.13-14.74 9.23-5.35 1.91-11.42 2.38-17.36 2.84-9.46.75-19.57 1.45-28.05-1.67-13.18-4.8-17.55-16.69-17.94-27.27-.72-20.32 8.42-40.77 25.5-57.04 3.6-3.4 7.7-6.76 13.12-8.53 5.02-1.63 10.77-1.81 16.25-1.4 28.44 2.2 45.27 16.64 53.03 34.73z" data-name="Path 2057"/><path fill="none" stroke="#f26941" stroke-miterlimit="10" stroke-width="6" d="M931.96 1078.97c2.51 5.85 5.02 12.26 1.9 17.95-1.62 3.02-4.68 5.53-7.69 8-6.57 5.33-13.1 10.67-19.67 16-3.73 3.02-7.57 6.09-12.59 7.88-4.56 1.63-9.75 2.03-14.82 2.43-8.07.64-16.7 1.23-23.95-1.43-11.25-4.1-14.99-14.25-15.32-23.29-.61-17.35 7.19-34.82 21.78-48.71 3.07-2.9 6.58-5.77 11.2-7.28a36.66 36.66 0 0113.87-1.2c24.3 1.87 38.67 14.21 45.3 29.65z" data-name="Path 2102"/><path fill="none" stroke="#6140ff" stroke-miterlimit="10" stroke-width="6" d="M626.47 1421.58c14.42 5.69 31.9 4.62 48.28 5.22 28.25 1.03 55.71 7.46 80.9 16.5 19.7 7.09 38.81 16.22 50.49 29.6 12.98 14.86 15.27 33.13 16.24 50.6 1.63 30.77.2 62.18 12.72 91.58 7.18 16.92 18.99 33.05 21.34 50.62.72 5.12.52 10.53-2.8 15.1-6 8.34-20.17 11.55-32.82 14.02-45.6 8.95-94.86 21.02-119.39 49.87-8.54 10.07-13.37 21.48-21.07 31.88s-19.24 20.27-35.16 23.25" data-name="Path 2058"/><path fill="none" stroke="#fff" stroke-miterlimit="10" stroke-width="6" d="M644.28 1625.24c46.2 18.73 98.58 29.69 151.62 31.64 2.6.1 5.35.14 7.5-.93a7.55 7.55 0 003.39-3.87c7.96-17.2-7.9-34.8-14.22-52.33-5.55-15.43-3.66-31.88-9.79-47.21-8.22-20.46-30.27-37.24-37.05-57.98-2.68-8.1-2.94-16.68-7.9-24.18-6.59-10.02-20.74-16.64-35.62-19.72s-30.6-3.16-46.06-3.16" data-name="Path 2059"/><path fill="none" stroke="#f26941" stroke-miterlimit="10" stroke-width="6" d="M651.66 1469.59c21.4 10.02 37.18 25.95 43.32 43.66 4.82 13.89 4.89 30.15 19.76 39.75 7.11 4.66 16.64 6.9 24.86 10.54 13.7 6.05 23.68 16.21 27 27.5 1.18 4 1.5 8.3-.58 12.11-1.44 2.66-4.05 4.9-6.92 6.85-16.04 10.96-43.12 12.4-61.32 3.31-11.87-5.92-19.3-15.24-29.42-22.65s-25.57-13.04-38.75-8.8" data-name="Path 2060"/><path fill="none" stroke="#f26941" stroke-miterlimit="10" stroke-width="6" d="M329.12 1651.85c-2.09 8.9-11.15 16.03-19.96 22.56-11.22 8.25-22.77 16.5-36.73 22.23-13.96 5.78-30.66 8.9-46.32 6.24s-29.55-12.02-31.18-23.49c-.79-5.64 1.37-11.27 4.04-16.63 8.22-16.17 22.18-30.85 40.19-42.32 6.2-3.91 12.98-7.6 17.09-12.68 11.09-13.74-1.96-31.54-19.7-41.05s-39.8-14.36-57.08-24.24c-10.64-6.1-19.05-13.88-28.38-20.97s-20.16-13.7-33.27-16.4-28.9-.6-37.12 7.18c-7.76 7.4-6.98 17.62-5.1 26.75 8.43 39.85 31.98 79.36 22.39 119.07-3.13 13-9.85 25.5-13.5 38.45-8.1 28.61-1.37 58.16 5.48 86.96 2.21 9.46 4.76 19.39 13.17 26.84 10.05 8.95 26.62 12.68 42.54 14.54 40.7 4.76 82.26.38 123.04-4 10.96-1.17 22.5-2.52 31.25-7.46 8.41-4.75 12.85-12.16 17.87-18.97a144.84 144.84 0 0129.62-29.64" data-name="Path 2061"/><path fill="none" stroke="#6140ff" stroke-miterlimit="10" stroke-width="6" d="M237.99 1769.34c.52-5.73-3.27-11.56-9.66-14.96-6.26-3.36-14.35-4.34-22.12-4.29a26.33 26.33 0 00-9.26 1.3 11.35 11.35 0 00-7.3 11.23c.2 6.34 4.3 12.54 10.95 16.69 15 9.32 36.02 5.5 37.39-9.97z" data-name="Path 2062"/><path fill="none" stroke="#fff" stroke-miterlimit="10" stroke-width="6" d="M1037.34 1493.45c-6-13.47-13.3-28.1-30.27-35.33-12.91-5.45-28.83-5.45-43.84-5.08-20.55.51-41.23 1.35-61.2 4.8-4.3.75-8.67 1.63-12 3.63-7.23 4.3-7.62 11.93-8.21 18.65-1.37 16.03-7.05 31.83-16.57 46.32-11.48 17.48-29.03 34.72-25.97 53.92 3.4 21.34 30.86 36.03 45.35 54.85 9.32 12.12 13.17 26.38 10.96 40.13-1.24 7.45-4.38 14.96-11.1 20.69-7.82 6.66-19.63 10.16-30.92 13.42-29.29 8.34-58.97 16.45-85.4 28.76s-49.64 29.36-59.95 50.6c-6.46 13.33-7.7 27.74-13.9 41.16-6.46 13.93-18 26.33-29.49 38.54-1.17 1.26-2.67 2.65-4.76 2.8-2.35.14-4.3-1.3-5.74-2.61-4.05-3.64-8.16-7.23-12.2-10.86" data-name="Path 2063"/><path fill="#2de8f5" d="M753.2 1829.61c3.72.7 7.37-1.15 10.1-3.1 10.25-7.37 15.62-17.4 20.75-27.13 3.26-6.2 6.56-12.65 5.98-19.26a4.68 4.68 0 00-1.57-3.45 8.21 8.21 0 00-4.88-1.26c-4.3 0-8.31 1.54-11.97 3.18-12.61 5.66-24.8 13.85-29.06 24.34-2.62 6.27.18 24.7 10.64 26.68z" data-name="Path 2064"/><path fill="none" stroke="#f26941" stroke-miterlimit="10" stroke-width="6" d="M926.24 1570.25c9.14-6.25 18.53-12.82 22.77-21.3.78-1.5 1.44-3.17 3.26-4.1 3-1.54 7.18-.33 10.18 1.16 7.63 3.73 13.83 9 17.75 14.96 4.63 7.09 5.93 15 7.17 22.8l6.85 42.08c.78 4.75 1.44 9.92-2.22 13.93-4.17 4.57-12.91 6.06-20.42 4.94s-13.96-4.33-20.09-7.6c-11.42-6.01-22.5-12.49-31.12-20.55-7.24-6.8-16.24-18.18-14.8-27.22 1.43-8.29 12.71-13.65 20.67-19.1z" data-name="Path 2065"/><path fill="none" stroke="#6140ff" stroke-miterlimit="10" stroke-width="6" d="M917.9 1500.11c5.67-8.53 12.06-17.66 23.8-22 14.49-5.31 33.14-1.21 44.36 7.13s16.38 20.04 18.8 31.55c2.4 11.46 2.54 23.2 5.6 34.58 2.42 8.9 6.66 17.43 10.7 26 9.27 19.53 17.95 39.47 19.58 60.07 1.1 13.89-1.96 29.22-16.31 38.59-11.16 7.27-27.01 9.5-42.02 10.81-11.41.98-23.8 1.5-33.66-2.8-10.9-4.75-15.79-13.98-20.75-22.37a195.01 195.01 0 00-36-43.8c-8.88-8.16-22.32-16.97-27.01-26.94-4.31-9.18 3.2-16.03 8.67-24.24 15-22.03 29.49-44.35 44.23-66.58z" data-name="Path 2066"/><path fill="none" stroke="#ffee7a" stroke-miterlimit="10" stroke-width="6" d="M1073.42 1693.84c-10.96 11.14-27.47 18.78-43.52 26.1q-30.43 13.84-60.86 27.73c-13.38 6.1-26.88 12.26-41.75 16.17-19.05 5.03-39.86 6.3-58.26 12.4-31.77 10.53-51.28 33.7-65.5 56.58a311.08 311.08 0 00-17.94 33.09c-3 6.38-5.8 13-11.55 18.36-10.18 9.46-27.33 13.28-41.1 20.04" data-name="Path 2067"/><path fill="none" stroke="#2de8f5" stroke-miterlimit="10" stroke-width="6" d="M608.48 1984.46c9.59-3.08 19.57-6.43 25.76-12.44 10.05-9.8 7.12-23.5 1.57-34.96-9.59-19.71-25.64-37.75-46.51-52.33-13.31-9.28-33.73-17.39-49.45-10.35-7.12 3.22-11.29 8.8-15 14.26a403.69 403.69 0 00-22.7 37.38c-7.24 13.51-13.64 27.63-12.99 42.08.72 15.66 10.96 36.02 36.34 34.72 29.02-1.49 56.81-9.93 82.98-18.36z" data-name="Path 2068"/><path fill="none" stroke="#ffee7a" stroke-miterlimit="10" stroke-width="6" d="M546.3 1969.6a59.42 59.42 0 0011.15.27c7.05-.14 14.1.38 21.08-.28s14.09-2.7 18.13-6.8c3.85-3.87 4.37-8.9 3.72-13.6-2.74-18.18-25.18-34.26-50.75-34.96-5.1-.14-10.38.33-14.75 2.2-9.78 4.14-11.8 13.55-11.94 21.7-.26 11.8 4.05 28.3 23.36 31.46z" data-name="Path 2069"/><path fill="none" stroke="#6140ff" stroke-miterlimit="10" stroke-width="6" d="M431.55 1914.65c6.06-8.16 5.21-18.78-2.61-26.15s-22.25-10.81-34.58-7.97c-7.37 1.73-13.5 5.36-19.24 9.1-4.83 3.2-9.66 6.7-11.94 11.13a24.8 24.8 0 00-2.09 6.62c-2.67 12.25-2.22 34.62 22.7 31.78 16.77-1.86 39.86-13.98 47.76-24.51z" data-name="Path 2070"/><path fill="none" stroke="#6140ff" stroke-miterlimit="10" stroke-width="6" d="M330.3 1856.07c-7.9 10.67-27.01 13.42-41.5 19.66a64.43 64.43 0 00-29.16 24.61c-9.33 14.91-10.76 32.25-3.98 47.86 4.24 9.79 11.55 18.74 16.44 28.38 10.7 20.93 10.57 45.54 30.8 62.5 20.02 16.78 53.5 20.7 83.96 24.24 6.2.7 12.65 1.54 17.55 4.33 5.28 2.98 7.83 7.78 9.78 12.4 11.94 28.34 8.74 58.68 5.42 88.17" data-name="Path 2071"/><path fill="none" stroke="#f26941" stroke-miterlimit="10" stroke-width="6" d="M-85.66 1507.29c20.1 10.48 46.52 12.63 68.11 21.43 41.69 17.1 56.43 54.34 65.63 88.08 6.26 23.03 11.61 47.63-.78 69.4-6.66 11.65-17.94 21.62-25.58 32.94-11.48 17.01-14.28 36.35-14.09 55.23.26 35.46 15.4 75.78 60.02 91.2 29.42 10.16 66.87 7.55 92.12 22.46 9.39 5.55 16.11 13.1 21.79 20.79 19.3 26.05 28.83 55.13 43.44 82.72s35.95 54.94 71.11 70.32c14.88 6.53 31.7 10.63 46.26 17.62 36.4 17.52 52.58 53.83 37.05 83.19" data-name="Path 2072"/><path fill="none" stroke="#6140ff" stroke-miterlimit="10" stroke-width="6" d="M346.41 2164.9c-9.66-20.08-21.2-41.85-46.78-52.66-16.57-6.99-37.31-8.48-52.58-16.82-5.54-3.03-10.17-6.85-16.04-9.56-20.3-9.18-46.78-1.63-68.3 6.02-9.92 3.54-19.84 7.03-29.75 10.58-2.55.93-5.22 1.86-6.98 3.44-3.98 3.6-2.02 9.19 2.48 12.45s10.83 4.84 16.76 6.52c31.97 8.9 60.93 23.21 83.83 41.48" data-name="Path 2073"/><path fill="none" stroke="#6140ff" stroke-miterlimit="10" stroke-width="6" d="M-19.12 2007.71c13.77 9.23 34.52 9.93 53.37 10.16 39.8.47 79.78.89 119-3.82 3.12-.37 6.38-.84 8.8-2.23 3.06-1.77 4.17-4.76 4.83-7.55 2.93-13.8-3.92-27.97-14.88-39.52s-25.77-20.93-40.58-30.06c-10.24-6.34-20.61-12.63-31.96-17.9-21.14-9.83-45.28-16.03-66.28-25.96s-39.73-25.12-40.65-43.1" data-name="Path 2074"/><path fill="none" stroke="#f26941" stroke-miterlimit="10" stroke-width="6" d="M50.5 1973.74c6.9 7.88 19.43 13.42 32.42 13.1 4.82-.1 9.85-1.12 13.3-3.54a13.4 13.4 0 005.35-9.04c1.63-9.56-4.43-20.14-16.57-24.33-6.06-2.1-34.18-5.5-39.8-2-7.5 4.65 1.18 21.1 5.3 25.81z" data-name="Path 2075"/><path fill="none" stroke="#6140ff" stroke-miterlimit="10" stroke-width="6" d="M789.05 1918.33c32.23-29.45 64.97-59.65 82.07-94.98 3.26-6.76 6.2-14.03 13.3-19.06 12.33-8.71 31.97-7.88 49.2-9 78.28-5.12 133.2-59.7 209.01-74.6" data-name="Path 2076"/><path fill="#fff" stroke="#fff" stroke-miterlimit="10" stroke-width="6" d="M608.86 2161.09c15.46-12.5 16.12-30.8 15.6-47.5-.2-7.22-1.44-15.65-10.12-19.43a38.43 38.43 0 00-8.87-2.23c-10.18-1.77-20.42-3.55-30.86-3.64-10.44-.14-21.27 1.54-29.55 6.06-6.33 3.45-10.83 8.3-14.55 13.33-3.98 5.45-7.17 11.37-7.57 17.52-1.04 15.85 15.8 29.08 31.45 40.36" data-name="Path 2077"/><path fill="none" stroke="#f26941" stroke-miterlimit="10" stroke-width="6" d="M683.88 2171.24c-16.17-24.18-19.11-52.75-8.02-78.38a69.07 69.07 0 0124.27-30.15c9.4-6.48 21.07-10.96 32.55-15.43q43.06-16.85 84.68-35.46c12.2-5.46 24.46-11.1 34.32-18.55 9.39-7.09 16.37-15.61 22.83-24.19 8.02-10.53 15.53-21.44 18.85-33.18 3.85-13.89 1.7-28.43 6.98-42.08 5.55-14.26 19.57-26.7 37.84-33.7 18.27-6.94 40.58-8.34 60.28-3.68 17.48 4.1 32.23 12.54 46.58 20.79q29.06 16.7 58.13 33.5" data-name="Path 2078"/><path fill="none" stroke="#f26941" stroke-miterlimit="10" stroke-width="6" d="M1058.41 1930.77c-10.37.37-17.48-6.85-24.2-12.49-10.76-9.04-24.98-15.56-38.94-21.95-12.66-5.78-27.8-11.79-41.95-8.1a36.63 36.63 0 00-16.64 10.06c-19.63 19.8-17.68 46.37-27.92 69.49-15.6 35.27-58.26 60.35-98.83 83.32q-27.7 15.66-55.39 31.37c-13.5 7.64-28.12 16.68-29.68 28.94-.98 7.55 3.26 14.82 7.5 21.76q11.54 19.01 23.68 37.84" data-name="Path 2079"/><path fill="none" stroke="#ffee7a" stroke-miterlimit="10" stroke-width="6" d="M805.36 2174.04c-5.03-5.36-10.12-10.76-15.14-16.12-10.57-11.28-21.6-25.26-13.7-37.61 2.74-4.29 7.5-7.74 12.14-11.1q21.23-15.23 42.47-30.52c47.3-33.93 96.8-70.84 109.27-117.86 2.41-9.13 4.04-19.39 13.9-25.54 9.52-5.92 24.33-5.78 35.75-1.9s20.16 10.8 28.25 17.8c25.83 22.4 47.62 47.1 64.84 73.4" data-name="Path 2080"/><path fill="none" stroke="#fff" stroke-miterlimit="10" stroke-width="6" d="M1024.42 2172.64c-23.22-35.65-27.85-75.96-27.79-115.3 0-11.65.46-23.3 1.24-34.9.92-13.33 1.96-27.73-8.28-38.87a13.07 13.07 0 00-6.53-4.24c-3.52-.84-7.37.1-10.56 1.35-16.9 6.62-24.14 20.93-31.38 33.7a230.87 230.87 0 01-37.19 48.93c-16.63 16.68-36.6 31.74-51.4 49.26-14.82 17.57-24.27 38.77-17.1 58.58" data-name="Path 2081"/><path fill="none" stroke="#f26941" stroke-miterlimit="10" stroke-width="6" d="M885.73 2174.23c1.24-32.02 25.05-61 48.28-88.4 1.7-2 3.78-4.2 6.98-4.53 4.1-.42 7.3 2.38 9.45 4.94 7.57 8.8 13.83 18.41 15.73 28.66 1.1 6.1.65 12.3 1.7 18.41a74.81 74.81 0 004.56 14.54c2.87 7.41 5.68 14.82 8.55 22.23" data-name="Path 2082"/><path fill="none" stroke="#fff" stroke-miterlimit="10" stroke-width="6" d="M416.41 1693.93c.06-3.91.33-7.92 2.15-11.65 2.68-5.4 8.35-9.74 14.22-13.65 17.55-11.65 39.93-21.4 63.87-20.18 23.49 1.21 44.04 13.1 55.58 27.77s15.47 31.79 17.16 48.57c1.37 13.46.46 28.66-13.18 37.98-12.91 8.85-32.75 9.32-50.69 9.32-24.92-.05-53.75 3.68-68.82-13-16.05-17.67-20.55-44.6-20.29-65.16z" data-name="Path 2083"/><path fill="#ffee7a" d="M467.75 1732c8.74 7.56 22.64 11.52 36.34 11.47a15.45 15.45 0 004.7-.5 12.64 12.64 0 005.67-3.97c7.77-8.53 12.99-18.64 11.81-28.75-5.61-50.62-96.75-11.14-58.52 21.76z" data-name="Path 2084"/><path fill="none" stroke="#2de8f5" stroke-miterlimit="10" stroke-width="6" d="M687.4 1695.31c4.58 3.95 11.85 6.03 19.03 6a8.09 8.09 0 002.46-.27 6.62 6.62 0 002.97-2.07c4.06-4.47 6.8-9.76 6.18-15.05-2.94-26.5-50.65-5.83-30.64 11.4z" data-name="Path 2104"/><path fill="none" stroke="#6140ff" stroke-miterlimit="10" stroke-width="6" d="M404.34 1642.62c18.8-8.85 41.1-13.84 63.6-14.21 13.77-.23 27.8 1.21 41.3-.8a78.42 78.42 0 0049-27.5c10.7-13.23 15.72-28.37 19.5-43.43 2.36-9.18 4.5-18.87 12.6-26.19s24.27-11.09 34.44-5.22" data-name="Path 2085"/><path fill="none" stroke="#ffee7a" stroke-miterlimit="10" stroke-width="6" d="M610.43 1508.6c-26.62-4.1-56.24 7.08-66.48 25.11-8.16 14.35-4.9 31.41-15.72 44.83-6.72 8.3-18 14.12-29.69 18.83-41.49 16.73-91.85 21.9-138.3 14.26" data-name="Path 2086"/><path fill="none" stroke="#ffee7a" stroke-miterlimit="10" stroke-width="6" d="M421.37 1489.4c-7.24-9.84-16.96-18.7-23.42-28.8-15.79-24.8-8.8-56.07 16.96-76.16 13.24-10.3 30.47-17.48 47.43-24.51q38.06-15.8 76.07-31.6c4.5-1.87 9.32-3.82 14.54-3.64 5.1.14 9.66 2.33 13.38 4.85 19.44 13.28 19.37 35.42 14.28 54.3s-13.83 38.3-6.78 56.9c2.15 5.73 5.87 11.41 4.63 17.28-1.24 5.92-7.17 10.72-12.85 15.1q-30.63 23.7-61.2 47.4c-13.3 10.3-37.63 29.88-58.97 18.32-16.63-9.04-14.29-36.12-24.07-49.45z" data-name="Path 2087"/><path fill="none" stroke="#f8f8f8" stroke-miterlimit="10" stroke-width="6" d="M438.33 1458.63c-3.52-5.31-6.65-10.86-7.37-16.73-2.22-18.36 19.37-33.55 40.84-43.8a363.47 363.47 0 0134.96-14.5c3.6-1.3 7.57-2.56 11.55-2.1a11.89 11.89 0 0110.77 11.6c0 5.08-2.48 9.97-2.55 15.05-.13 12.63 14.68 23.5 14.48 36.08-.26 13.28-34.5 46.32-51.66 51.03-22.5 6.2-43.26-24.88-51.02-36.63z" data-name="Path 2088"/><path fill="none" stroke="#2de8f5" stroke-miterlimit="10" stroke-width="6" d="M401.8 1353.31c41.88-26.56 99.29-40.31 155.13-37.05 3.13.19 6.46.42 9.4-.37a17.98 17.98 0 005.08-2.38c6.14-3.87 10.64-9.09 12.8-14.73" data-name="Path 2089"/><path fill="none" stroke="#ffee7a" stroke-miterlimit="10" stroke-width="6" d="M518.18 1297.53c-14.09 2.05-28.18 4.14-42.2 6.2-15.53 2.28-31.97 4.89-43.59 12.58-4.7 3.12-8.48 6.99-13.9 9.5-6.06 2.85-13.57 3.64-20.8 3.92a153.38 153.38 0 01-54.28-7.92" data-name="Path 2090"/><path fill="none" stroke="#ffee7a" stroke-miterlimit="10" stroke-width="6" d="M585.64 1668.96c17.15 19.2 18.59 43.24 19.5 65.99.4 10.25.72 21.01-5.67 30.24-8.42 12.12-26.49 18.97-43.39 25.03-12.59 4.52-25.18 9-37.77 13.51-9.26 3.31-18.79 6.76-25.9 12.12s-11.61 13.19-8.67 20.32" data-name="Path 2091"/><path fill="none" stroke="#ffee7a" stroke-miterlimit="10" stroke-width="6" d="M386.8 1805.83c-5.49 2.56-6 8.71-2.16 12.54s10.7 5.59 17.29 5.87a22.3 22.3 0 006.13-.42c7.96-1.77 10.3-10.07 5.09-14.77-5.16-4.66-15.2-5.5-22.83-3.08" data-name="Path 2092"/><path fill="none" stroke="#fff" stroke-miterlimit="10" stroke-width="6" d="M578.07 1805.32c3.26-10.21 16.3-16.97 27.07-24.15 19.12-12.77 33.27-30.2 33.86-48.88.2-5.78-.91-11.56-1.96-17.3-3.32-17.52-6.65-35.08-12.91-52.14" data-name="Path 2093"/><path fill="none" stroke="#6140ff" stroke-miterlimit="10" stroke-width="6" d="M276.15 1619.74c-14.22 5.08-26.16 13.38-33.73 23.35-6.13 8.06-8.41 19.62 1.76 25.26 5.35 2.98 12.85 3.35 19.57 2.52 16.97-2.1 31.84-11.42 36.86-23.17" data-name="Path 2095"/><path fill="none" stroke="#ffee7a" stroke-miterlimit="10" stroke-width="6" d="M151.61 1588.66c-5.28-7.37-14.35-14.96-10.57-22.75 10.18-2.88 20.88 2.9 28.9 8.25 7.7 5.13 15.4 10.3 23.03 15.43 2.8 1.86 5.68 3.87 6.92 6.43 2.35 5.03-2.29 10.2-6.66 14.5-4.5 4.33-9.33 8.8-16.3 10.8-26.82 7.65-18.8-23.62-25.32-32.66z" data-name="Path 2096"/><path fill="none" stroke="#ffee7a" stroke-miterlimit="10" stroke-width="6" d="M153.12 1498.76c-7.12-9.7-23.1-13.93-37.9-16.73-12.99-2.47-27.27-4.38-39.34-.28s-18.99 13.28-23.36 22.28" data-name="Path 2097"/><path fill="none" stroke="#6140ff" stroke-miterlimit="10" stroke-width="6" d="M301.79 1485.94c12.07 1.73 24.66 1.17 36.8 2.85s24.59 6.29 28.96 14.54c5.15 9.69-3.07 20.74-14.49 27.17-13.5 7.6-35.03 10.16-47.1 1.4" data-name="Path 2098"/><path fill="none" stroke="#ffee7a" stroke-miterlimit="10" stroke-width="6" d="M373.42 1678.93c-7.9 12.25-7.5 27.07 1.1 39.1 4.64 6.48 11.62 12.25 14.03 19.34" data-name="Path 2099"/><path fill="none" stroke="#ffee7a" stroke-miterlimit="10" stroke-width="6" d="M378.9 1556.69v20.13c0 3.96.13 8.25 3.46 11.46 3.58 3.45 10.24 4.76 16.24 4.3s11.61-2.43 17.03-4.34c3.98-1.4 8.09-2.9 10.76-5.46a11.5 11.5 0 003.53-9.13c-.27-8.3-7.44-16.4-18.01-19.76-10.64-3.35-24.14-1.63-32.03 4.43" data-name="Path 2100"/><path fill="none" stroke="#ffee7a" stroke-miterlimit="10" stroke-width="6" d="M265.84 1425.82a207.45 207.45 0 01-5.41-37.23c-.59-10.67.85-23.02 13.05-29.22" data-name="Path 2101"/><path fill="none" stroke="#ffee7a" stroke-miterlimit="10" stroke-width="6.0024" d="M692.28 1077.94a287.32 287.32 0 0127.05-32.08c8.53-8.78 20.08-18.03 35.05-17.74" data-name="Path 2103"/><path fill="#f26941" d="M1008.8 1336.99c2.05 4.76 4.09 9.98 1.55 14.61-1.32 2.46-3.81 4.5-6.26 6.51-5.35 4.34-10.66 8.69-16.01 13.03-3.04 2.46-6.17 4.95-10.25 6.41-3.72 1.33-7.94 1.65-12.06 1.98-6.58.52-13.61 1-19.5-1.17-9.16-3.34-12.2-11.6-12.48-18.95-.5-14.13 5.85-28.35 17.74-39.66a24.28 24.28 0 019.11-5.93 29.85 29.85 0 0111.3-.97c19.77 1.52 31.47 11.57 36.87 24.14z" data-name="Path 2105"/><path fill="none" stroke="#2de8f5" stroke-miterlimit="10" stroke-width="6" d="M745.35 1846.33c6.03 1.12 11.95-1.86 16.36-5.01 16.59-11.94 25.3-28.18 33.59-43.93 5.28-10.03 10.61-20.47 9.69-31.17a7.58 7.58 0 00-2.56-5.59c-1.97-1.53-5.04-2.03-7.89-2.03-6.96 0-13.45 2.49-19.37 5.14-20.42 9.16-40.15 22.42-47.05 39.4-4.23 10.16.29 40 17.23 43.19z" data-name="Path 2106"/></g></g></svg>