<svg xmlns="http://www.w3.org/2000/svg" width="521.48" height="761.966"><path fill="#6140ff" d="M321.97 692.83c2.4-14.54 10.9-27.58 12.62-42.24.83-7.2 0-14.5 1.03-21.63.9-6.35 3.25-12.36 5.62-18.33 8.66-21.76 18.53-44.2 36.57-58.96 3.84-3.14 9.27-5.94 13.44-3.3a9.5 9.5 0 0 1 3.72 5.46c1.83 6.2-.05 12.8-.05 19.26s3.28 14.07 9.65 14.68c5.02.5 9.22-3.65 12.4-7.62 28.14-35.03 40.22-83 75.2-111.06 3.2-2.56 6.8-5 10.86-5.14 5.8-.22 10.86 4.48 13 9.9 2.15 5.42 2 11.45 1.8 17.27-.6 15.63-1.53 31.26-2.13 46.9a1160.16 1160.16 0 0 0 2.7 135.25"/><path fill="#6140ff" d="M294.73 0C280.98 2.9 267 6.06 254.75 13.02c-18.2 10.35-31.7 30-31.85 51.05-.12 21.06 14.98 42.1 35.54 45.77 18.65 3.34 37.25-6.93 56.17-6.28 16.97.6 32.66 9.98 44.7 22.06s21.08 26.78 30.68 40.92c4.42 6.5 11.25 13.78 18.66 11.32a13.48 13.48 0 0 0 6.78-5.84c6.53-10.08 4.92-23.7-.34-34.47-5.3-10.8-13.7-19.63-21.07-29.07-11.64-14.97-24.26-42.82-30.5-60.8"/><path fill="#6140ff" d="M518.2 86.8q-26.96 27.48-53.93 54.96c-15.87 16.17-32.64 34.16-35.13 56.77-.57 5.3-.3 10.9 2.2 15.63 4.18 7.96 13.85 11.7 22.78 11.25 8.9-.45 17.25-4.4 25.17-8.5a379.5 379.5 0 0 0 42.2-25.67"/><path fill="#aeffd6" d="M516.68 223.97a384.56 384.56 0 0 1-48.74 22.55c-23.57 8.95-51.1 15.26-73 2.7-14.08-8.06-23.12-22.5-32.73-35.65-9.57-13.14-21.46-26.26-37.34-29.43-16.23-3.2-32.67 4.92-45.62 15.3s-23.98 23.26-38 32.15c-8.5 5.37-17.88 9.14-26.54 14.18-8.7 5.07-16.9 11.74-21.1 20.9s-3.4 21.27 4.02 28.06c7.23 6.62 18.1 6.62 27.84 6.26q20.16-.8 40.34-1.6c6.66-.25 13.68-.42 19.57 2.74 9.1 4.9 12.76 16.92 10.4 27.05s-9.6 18.44-17.74 24.84-17.32 11.3-25.67 17.4c-6.27 4.6-12.45 10.58-13.4 18.34-.8 6.58 2.35 12.9 5.5 18.72 7.08 13.25 16.15 27.5 30.7 30.85 14.84 3.4 29.32-5.9 41.74-14.75 6.57-4.68 13.18-9.38 18.77-15.2 3.82-3.94 7.1-8.37 10.8-12.4 20.8-22.72 52.3-31.8 82.6-36.3 9.8-1.47 19.93-2.54 29.53-.08 14.94 3.8 29 15.94 43.84 11.73"/><path fill="#6140ff" d="M431.07 86.16a9.55 9.55 0 0 0-1.97 2.53 7.46 7.46 0 0 0-.7 2.7 11.5 11.5 0 0 0 3.76 9.53 11.28 11.28 0 0 0 9.87 2.48 7.37 7.37 0 0 0 3.52-1.76 9.08 9.08 0 0 0 2.27-4.63c.84-3.64.7-7.7-1.28-10.87-4.13-6.57-10.93-4.36-15.47.03z"/><path fill="#6140ff" d="M140.77 259.35a6.48 6.48 0 0 0-1.37 1.75 5 5 0 0 0-.5 1.87 8 8 0 0 0 2.62 6.6 7.76 7.76 0 0 0 6.83 1.73 5.2 5.2 0 0 0 2.43-1.24 6.2 6.2 0 0 0 1.57-3.2 10.03 10.03 0 0 0-.9-7.54c-2.8-4.55-7.52-3-10.68.03z"/><path fill="#6140ff" d="M309.42 566.24a6.47 6.47 0 0 0-1.37 1.75 5 5 0 0 0-.5 1.86 8 8 0 0 0 2.62 6.6 7.83 7.83 0 0 0 6.83 1.73 5.2 5.2 0 0 0 2.44-1.25 6.2 6.2 0 0 0 1.56-3.2 10.03 10.03 0 0 0-.9-7.54c-2.84-4.54-7.54-2.98-10.68.04z"/><path fill="#6140ff" d="M413.8 523.36a2.94 2.94 0 0 0-.68.88 2.5 2.5 0 0 0-.24.92 3.94 3.94 0 0 0 1.3 3.3 3.85 3.85 0 0 0 3.4.84 2.38 2.38 0 0 0 1.2-.6 3.04 3.04 0 0 0 .78-1.6 5.1 5.1 0 0 0-.44-3.8c-1.4-2.22-3.75-1.45-5.32.06z"/><path fill="#6140ff" d="M381.6 437.74a2.94 2.94 0 0 0-.66.88 2.5 2.5 0 0 0-.24.92 3.94 3.94 0 0 0 1.3 3.3 3.85 3.85 0 0 0 3.4.84 2.38 2.38 0 0 0 1.2-.6 3.04 3.04 0 0 0 .77-1.6 5.1 5.1 0 0 0-.43-3.8c-1.4-2.22-3.74-1.45-5.33.06z"/><path fill="#6140ff" d="M202.34 434.73a2.94 2.94 0 0 0-.68.88 2.5 2.5 0 0 0-.24.93 3.94 3.94 0 0 0 1.3 3.3 3.85 3.85 0 0 0 3.4.84 2.38 2.38 0 0 0 1.2-.6 3.04 3.04 0 0 0 .78-1.62 5.1 5.1 0 0 0-.44-3.77c-1.4-2.23-3.76-1.45-5.32.05z"/><path fill="#6140ff" d="M321.46 615.46a2.94 2.94 0 0 0-.67.87 2.5 2.5 0 0 0-.25.93 3.94 3.94 0 0 0 1.3 3.3 3.85 3.85 0 0 0 3.4.84 2.38 2.38 0 0 0 1.2-.6 3.04 3.04 0 0 0 .77-1.62 5.1 5.1 0 0 0-.43-3.77c-1.4-2.23-3.77-1.45-5.34.06z"/><path fill="#6140ff" d="M195.25 352.5a2.94 2.94 0 0 0-.68.87 2.5 2.5 0 0 0-.24.92 3.94 3.94 0 0 0 1.3 3.28 3.85 3.85 0 0 0 3.4.85 2.38 2.38 0 0 0 1.2-.6 3.04 3.04 0 0 0 .78-1.62 5.1 5.1 0 0 0-.42-3.76c-1.4-2.26-3.76-1.5-5.33.05z"/><path fill="#6140ff" d="M435.8 385.35a2.94 2.94 0 0 0-.67.88 2.5 2.5 0 0 0-.24.92 3.94 3.94 0 0 0 1.3 3.3 3.85 3.85 0 0 0 3.4.84 2.38 2.38 0 0 0 1.2-.62 3.04 3.04 0 0 0 .76-1.6 5.1 5.1 0 0 0-.43-3.78c-1.4-2.23-3.76-1.46-5.33.05z"/><path fill="#6140ff" d="M418.65 221.46a2.94 2.94 0 0 0-.68.88 2.5 2.5 0 0 0-.24.92 3.94 3.94 0 0 0 1.3 3.3 3.85 3.85 0 0 0 3.4.84 2.38 2.38 0 0 0 1.2-.6 3.04 3.04 0 0 0 .78-1.6 5.1 5.1 0 0 0-.43-3.8c-1.4-2.22-3.75-1.44-5.32.06z"/><path fill="#6140ff" d="M401.04 214.8a2.94 2.94 0 0 0-.68.87 2.5 2.5 0 0 0-.24.92 3.94 3.94 0 0 0 1.3 3.28 3.85 3.85 0 0 0 3.4.85 2.38 2.38 0 0 0 1.2-.6 3.04 3.04 0 0 0 .78-1.62 5.1 5.1 0 0 0-.44-3.76c-1.4-2.23-3.76-1.45-5.32.05z"/><path fill="#6140ff" d="M174 276.24a2.94 2.94 0 0 0-.68.87 2.5 2.5 0 0 0-.24.94 3.94 3.94 0 0 0 1.3 3.28 3.85 3.85 0 0 0 3.4.86 2.38 2.38 0 0 0 1.2-.6 3.04 3.04 0 0 0 .78-1.62 5.1 5.1 0 0 0-.44-3.77c-1.4-2.25-3.76-1.47-5.32.04z"/><path fill="#6140ff" d="M255.9 163.23a2.94 2.94 0 0 0-.67.88 2.5 2.5 0 0 0-.24.93 3.94 3.94 0 0 0 1.3 3.3 3.85 3.85 0 0 0 3.4.84 2.38 2.38 0 0 0 1.2-.6 3.04 3.04 0 0 0 .77-1.62 5.1 5.1 0 0 0-.43-3.77c-1.4-2.24-3.76-1.48-5.33.05z"/><path fill="#6140ff" d="M202.9 218.54a2.94 2.94 0 0 0-.67.88 2.5 2.5 0 0 0-.25.92 3.94 3.94 0 0 0 1.3 3.3 3.85 3.85 0 0 0 3.4.84 2.38 2.38 0 0 0 1.2-.6 3.04 3.04 0 0 0 .78-1.62 5.1 5.1 0 0 0-.43-3.77c-1.4-2.24-3.76-1.47-5.33.04z"/><path fill="#6140ff" d="M209.58 91.07a2.94 2.94 0 0 0-.67.88 2.5 2.5 0 0 0-.23.92 3.94 3.94 0 0 0 1.3 3.3 3.85 3.85 0 0 0 3.4.84 2.38 2.38 0 0 0 1.2-.6 3.04 3.04 0 0 0 .78-1.6 5.1 5.1 0 0 0-.44-3.78c-1.38-2.23-3.75-1.45-5.32.05z"/><path fill="#6140ff" d="M439.6 122.04a2.94 2.94 0 0 0-.7.87 2.5 2.5 0 0 0-.23.94 3.94 3.94 0 0 0 1.3 3.3 3.85 3.85 0 0 0 3.4.84 2.38 2.38 0 0 0 1.2-.6 3.04 3.04 0 0 0 .78-1.62 5.1 5.1 0 0 0-.43-3.77c-1.4-2.25-3.76-1.47-5.33.04z"/><path fill="#6140ff" d="M199.45 615.46a2.94 2.94 0 0 0-.68.87 2.5 2.5 0 0 0-.24.93 3.94 3.94 0 0 0 1.3 3.3 3.85 3.85 0 0 0 3.4.84 2.38 2.38 0 0 0 1.2-.6 3.04 3.04 0 0 0 .78-1.62 5.1 5.1 0 0 0-.42-3.77c-1.4-2.23-3.76-1.45-5.33.06z"/><path fill="#6140ff" d="M302.26 642.36a2.94 2.94 0 0 0-.68.87 2.5 2.5 0 0 0-.24.93 3.94 3.94 0 0 0 1.3 3.3 3.85 3.85 0 0 0 3.4.84 2.38 2.38 0 0 0 1.2-.6 3.03 3.03 0 0 0 .78-1.62 5.1 5.1 0 0 0-.44-3.77c-1.42-2.23-3.75-1.45-5.32.06z"/><path fill="#6140ff" d="M377.85 410.3a6.5 6.5 0 0 0-1.38 1.76 5 5 0 0 0-.48 1.88 8 8 0 0 0 2.6 6.6 7.76 7.76 0 0 0 6.82 1.72 5.2 5.2 0 0 0 2.44-1.24 6.2 6.2 0 0 0 1.57-3.2 10.03 10.03 0 0 0-.9-7.53c-2.82-4.6-7.55-3.04-10.68 0z"/><path fill="#6140ff" d="M164.22 418.52a8.7 8.7 0 0 0-1.8 2.3 7.13 7.13 0 0 0-.66 2.45 10.43 10.43 0 0 0 3.42 8.64 10.24 10.24 0 0 0 8.95 2.27 6.74 6.74 0 0 0 3.2-1.6 8.14 8.14 0 0 0 2.04-4.22c.75-3.3.63-6.98-1.16-9.88-3.68-5.97-9.86-3.95-13.98.05z"/><path fill="#fff" d="M369.38 602.44a8.7 8.7 0 0 0-1.8 2.28 7.13 7.13 0 0 0-.66 2.46 10.43 10.43 0 0 0 3.42 8.65 10.24 10.24 0 0 0 8.96 2.26 6.74 6.74 0 0 0 3.18-1.62 8.13 8.13 0 0 0 2.05-4.2c.75-3.32.63-7-1.16-9.9-3.7-5.93-9.86-3.9-14 .06z"/><path fill="#6140ff" d="M217.3 344.26a8.7 8.7 0 0 0-1.8 2.3 7.14 7.14 0 0 0-.66 2.45 10.43 10.43 0 0 0 3.43 8.65 10.24 10.24 0 0 0 8.95 2.26 6.73 6.73 0 0 0 3.2-1.6 8.14 8.14 0 0 0 2.04-4.2c.74-3.32.62-7-1.16-9.9-3.7-5.93-9.9-3.9-14 .06z"/><path fill="#6140ff" d="M275.64 155.76c1.1-4.26 1.36-8.8 3.04-12.88a19.16 19.16 0 0 1 8.47-9.5c1.7-.94 3.7-1.62 5.55-1.04 2.75.85 4.03 3.97 4.88 6.77 1 3.2 1.83 6.92-.05 9.67-1.1 1.58-2.92 2.53-4.06 4.1-1.83 2.5-1.52 5.93-2.46 8.9-1.96 6.23-9.18 9.2-15.65 9.4-12.03.34-1.03-10.32.3-15.4z"/><path fill="#aeffd6" d="M158.84 686.1a366.04 366.04 0 0 1 125.5-89.7c4.5-1.95 10.53-3.46 13.62.36a8.78 8.78 0 0 1 1.7 4.77c.88 8.9-4.93 16.9-10.43 23.9q-13.65 17.43-27.3 34.87c-8.44 10.76-16.95 21.6-27.3 30.46-9.8 8.4-21.1 14.92-32.84 20.23"/><path fill="#6140ff" d="M504.6 400.35a81.12 81.12 0 0 1-53.94 2.97c-7.43-2.2-14.86-5.5-22.55-4.65-12.85 1.44-21.85 14.4-24.07 27.24-.75 4.4-.9 9.1 1.15 13.1s6.8 6.7 10.96 5.24c4.15-1.48 7.7-6.72 11.7-4.87a5.4 5.4 0 0 1 2.8 4.2c.82 5.45-3.8 9.97-7.65 13.94a71.44 71.44 0 0 0-9.44 12.14c-2.5 4-4.6 8.4-4.73 13.1s2.24 9.73 6.56 11.5a12.73 12.73 0 0 0 7.13.42c9.3-1.77 16.3-9.47 21.67-17.3s10.08-16.53 17.68-22.2c4.6-3.46 10.04-5.58 15.4-7.67l35.46-13.9"/><path fill="#fff" d="M324.2 303.3c-2.38-15.7-12.56-31.15-27.78-35.17-4.22-1.12-9.12-1.55-11.9-4.96-3.48-4.2-1.43-11.22 3.1-14.24s10.55-2.8 15.74-1.17c12.33 3.9 21.47 14.95 26.04 27.14s5.1 25.52 4.92 38.56c-.1 6.9-3.28 55.27-15.56 49.4-7.36-3.5 1.32-19.84 2.63-25.05 2.8-11.2 4.55-22.92 2.8-34.5z"/><path fill="#fff" d="M287.92 384.7c-4.63 3.23-6.22 10.5-2.77 15.02s11.5 4.43 14.3-.5c1.46-2.57 1.4-5.7 1.3-8.63a5.3 5.3 0 0 0-.64-2.96 4.87 4.87 0 0 0-2.1-1.5 18.75 18.75 0 0 0-12.03-.93"/><path fill="#fff" d="M394.26 308.04c.07-4.04.77-8.3 3.45-11.32 4.57-5.14 13.57-4.14 18.22.92 19.62 21.5-22.36 51.34-21.66 10.4z"/><path fill="#fff" d="M330.9 52.37c.07-4.05.77-8.3 3.45-11.32 4.56-5.14 13.56-4.14 18.2.92 19.63 21.47-22.35 51.32-21.65 10.4z"/><path fill="#fff" d="M430.62 313.5c-.63 3.15-1.74 6.4-1 9.53 2.76 1.8 6.64.54 8.76-2s2.83-5.9 3.24-9.2c1-8.08.58-16.5-2.68-23.95-2.32-5.3-19.8-23.8-19.18-8 .2 5.4 6.03 9.53 8.25 14.25a31.36 31.36 0 0 1 2.62 19.36z"/><path fill="#fff" d="M376.3 340.44c2.5 4.33 6.16 7.84 9.73 11.3 1.7 1.65 3.83 3.43 6.15 3 2.6-.5 3.93-3.6 3.9-6.26-.04-7.06-5.95-12.7-7.57-19.55-1.1-4.7-.37-10.35-3.85-13.64a7.14 7.14 0 0 0-7.9-1.2c-7.97 3.97-3.8 20.6-.45 26.34z"/><path fill="#fff" d="M499.38 146.82A124.6 124.6 0 0 0 476.26 170c-2.2 2.9-4.4 6.28-4.05 9.93.5 4.68 5.32 8 9.98 8.08s9.02-2.37 12.64-5.34 6.76-6.53 10.54-9.28"/><path fill="#fff" d="M456.77 638.15c8.5-4.14 18.16-5 27.6-5.84 4.4-.38 9.24-.65 12.76 2.08 5.23 4.06 4.5 12 4.4 18.67-.06 6.8 1.12 13.8-1.02 20.23-3.73 11.22-16.18 16.92-27.76 18.84-11.1 1.85-47.78 4.05-47.4-12.63.32-14.62 19.32-35.46 31.42-41.35z"/><path fill="#fff" d="M274.63 615.46a2.94 2.94 0 0 0-.67.87 2.5 2.5 0 0 0-.25.93 3.94 3.94 0 0 0 1.3 3.3 3.85 3.85 0 0 0 3.4.84 2.38 2.38 0 0 0 1.22-.6 3.04 3.04 0 0 0 .77-1.62 5.1 5.1 0 0 0-.44-3.77c-1.42-2.23-3.76-1.45-5.33.06z"/><path fill="#fff" d="M245.22 644.26a2.94 2.94 0 0 0-.68.88 2.5 2.5 0 0 0-.24.92 3.94 3.94 0 0 0 1.3 3.3 3.85 3.85 0 0 0 3.4.84 2.38 2.38 0 0 0 1.2-.6 3.04 3.04 0 0 0 .78-1.6 5.1 5.1 0 0 0-.43-3.8c-1.4-2.23-3.76-1.47-5.33.06z"/><path fill="#fff" d="M209.58 651.76a2.94 2.94 0 0 0-.67.87 2.5 2.5 0 0 0-.23.93 3.94 3.94 0 0 0 1.3 3.28 3.85 3.85 0 0 0 3.4.85 2.38 2.38 0 0 0 1.2-.6 3.04 3.04 0 0 0 .78-1.62 5.1 5.1 0 0 0-.44-3.77c-1.38-2.23-3.75-1.45-5.32.06z"/><path fill="#fff" d="M248.67 276.24a2.94 2.94 0 0 0-.68.87 2.5 2.5 0 0 0-.25.94 3.94 3.94 0 0 0 1.3 3.28 3.85 3.85 0 0 0 3.4.86 2.38 2.38 0 0 0 1.2-.6 3.04 3.04 0 0 0 .78-1.62 5.1 5.1 0 0 0-.43-3.77c-1.4-2.25-3.76-1.47-5.33.04z"/><path fill="#fff" d="M331.84 238.36a2.94 2.94 0 0 0-.68.88 2.5 2.5 0 0 0-.24.92 3.94 3.94 0 0 0 1.3 3.3 3.85 3.85 0 0 0 3.4.84 2.38 2.38 0 0 0 1.2-.6 3.04 3.04 0 0 0 .78-1.62 5.1 5.1 0 0 0-.44-3.77c-1.4-2.23-3.75-1.47-5.32.06z"/><path fill="#fff" d="M435.8 433.36a2.95 2.95 0 0 0-.67.87 2.5 2.5 0 0 0-.24.93 3.94 3.94 0 0 0 1.3 3.3 3.85 3.85 0 0 0 3.4.84 2.38 2.38 0 0 0 1.2-.6 3.04 3.04 0 0 0 .76-1.62 5.1 5.1 0 0 0-.43-3.77c-1.4-2.23-3.76-1.45-5.33.06z"/><path fill="#fff" d="M428.42 412.6a2.94 2.94 0 0 0-.68.87 2.5 2.5 0 0 0-.24.92 3.94 3.94 0 0 0 1.3 3.28 3.85 3.85 0 0 0 3.4.85 2.38 2.38 0 0 0 1.2-.6 3.04 3.04 0 0 0 .78-1.62 5.1 5.1 0 0 0-.43-3.76c-1.4-2.23-3.76-1.45-5.33.05z"/><path fill="#fff" d="M464.5 430.68a2.94 2.94 0 0 0-.7.88 2.5 2.5 0 0 0-.23.92 3.94 3.94 0 0 0 1.3 3.3 3.85 3.85 0 0 0 3.4.84 2.38 2.38 0 0 0 1.2-.6 3.04 3.04 0 0 0 .78-1.62 5.1 5.1 0 0 0-.43-3.77c-1.4-2.24-3.74-1.46-5.33.05z"/><path fill="#fff" d="M452.7 560.15a2.94 2.94 0 0 0-.68.87 2.5 2.5 0 0 0-.24.93 3.94 3.94 0 0 0 1.3 3.28 3.85 3.85 0 0 0 3.4.86 2.38 2.38 0 0 0 1.2-.62 3.04 3.04 0 0 0 .77-1.6 5.1 5.1 0 0 0-.43-3.78c-1.42-2.24-3.76-1.46-5.33.05z"/><path fill="#fff" d="M431.87 598.5a2.95 2.95 0 0 0-.68.87 2.5 2.5 0 0 0-.25.92 3.94 3.94 0 0 0 1.3 3.28 3.85 3.85 0 0 0 3.4.85 2.4 2.4 0 0 0 1.2-.6 3.04 3.04 0 0 0 .78-1.62 5.1 5.1 0 0 0-.43-3.76c-1.4-2.24-3.76-1.46-5.33.05z"/><path fill="#fff" d="M472.67 527a2.93 2.93 0 0 0-.68.87 2.5 2.5 0 0 0-.25.92 3.94 3.94 0 0 0 1.3 3.28 3.85 3.85 0 0 0 3.4.85 2.38 2.38 0 0 0 1.2-.6 3.04 3.04 0 0 0 .78-1.6 5.1 5.1 0 0 0-.43-3.8c-1.4-2.25-3.76-1.47-5.33.06z"/><path fill="#fff" d="M265.1 399.13a2.94 2.94 0 0 0-.68.88 2.5 2.5 0 0 0-.24.93 3.94 3.94 0 0 0 1.3 3.3 3.85 3.85 0 0 0 3.4.84 2.38 2.38 0 0 0 1.2-.6 3.04 3.04 0 0 0 .78-1.6 5.1 5.1 0 0 0-.43-3.8c-1.4-2.23-3.76-1.45-5.33.06z"/><path fill="#fff" d="M461.04 309.66a2.94 2.94 0 0 0-.68.88 2.5 2.5 0 0 0-.24.92 3.94 3.94 0 0 0 1.3 3.3 3.85 3.85 0 0 0 3.4.84 2.38 2.38 0 0 0 1.2-.6 3.04 3.04 0 0 0 .78-1.6 5.1 5.1 0 0 0-.43-3.8c-1.4-2.22-3.74-1.44-5.33.06z"/><path fill="#fff" d="M259.1 76.05a2.94 2.94 0 0 0-.68.88 2.5 2.5 0 0 0-.24.92 3.94 3.94 0 0 0 1.3 3.3 3.85 3.85 0 0 0 3.4.84 2.38 2.38 0 0 0 1.2-.62 3.04 3.04 0 0 0 .77-1.6 5.1 5.1 0 0 0-.43-3.78c-1.4-2.23-3.76-1.46-5.33.05z"/><path fill="#fff" d="M373.46 283.76a2.94 2.94 0 0 0-.68.88 2.5 2.5 0 0 0-.24.92 3.94 3.94 0 0 0 1.3 3.3 3.85 3.85 0 0 0 3.4.84 2.38 2.38 0 0 0 1.2-.6 3.04 3.04 0 0 0 .78-1.62 5.1 5.1 0 0 0-.44-3.77c-1.4-2.23-3.75-1.45-5.32.06z"/><path fill="#fff" d="M449.24 207.63a2.94 2.94 0 0 0-.67.88 2.5 2.5 0 0 0-.25.93 3.94 3.94 0 0 0 1.3 3.3 3.85 3.85 0 0 0 3.4.84 2.38 2.38 0 0 0 1.2-.6 3.04 3.04 0 0 0 .78-1.6 5.1 5.1 0 0 0-.43-3.8c-1.42-2.22-3.76-1.44-5.33.06z"/><path fill="#fff" d="M358.7 108.19a2.95 2.95 0 0 0-.7.86 2.5 2.5 0 0 0-.23.93 3.94 3.94 0 0 0 1.3 3.27 3.85 3.85 0 0 0 3.4.85 2.38 2.38 0 0 0 1.2-.6 3.04 3.04 0 0 0 .78-1.6 5.1 5.1 0 0 0-.43-3.78c-1.4-2.24-3.76-1.46-5.33.05z"/><path fill="#fff" d="M385.1 131.68a2.94 2.94 0 0 0-.7.87 2.5 2.5 0 0 0-.23.93 3.94 3.94 0 0 0 1.3 3.3 3.85 3.85 0 0 0 3.4.84 2.38 2.38 0 0 0 1.2-.6 3.04 3.04 0 0 0 .78-1.62 5.1 5.1 0 0 0-.44-3.77c-1.4-2.24-3.75-1.46-5.3.05z"/><path fill="#fff" d="M293.02 81.82a2.94 2.94 0 0 0-.68.88 2.5 2.5 0 0 0-.24.92 3.94 3.94 0 0 0 1.3 3.3 3.85 3.85 0 0 0 3.4.84 2.38 2.38 0 0 0 1.2-.6 3.04 3.04 0 0 0 .78-1.62 5.1 5.1 0 0 0-.44-3.77c-1.42-2.23-3.75-1.46-5.32.05z"/><path fill="#fff" d="M265.1 626a2.94 2.94 0 0 0-.68.88 2.5 2.5 0 0 0-.24.92 3.94 3.94 0 0 0 1.3 3.3 3.85 3.85 0 0 0 3.4.84 2.38 2.38 0 0 0 1.2-.6 3.04 3.04 0 0 0 .78-1.62 5.1 5.1 0 0 0-.43-3.77c-1.4-2.24-3.76-1.46-5.33.05z"/><path fill="#fff" d="M259.36 613.9a2.94 2.94 0 0 0-.68.88 2.5 2.5 0 0 0-.24.92 3.94 3.94 0 0 0 1.3 3.3 3.85 3.85 0 0 0 3.4.84 2.38 2.38 0 0 0 1.2-.6 3.04 3.04 0 0 0 .78-1.62 5.1 5.1 0 0 0-.44-3.77c-1.4-2.24-3.75-1.46-5.32.05z"/><path fill="#6140ff" d="M49.36 389.63c11.37-4.4 22.6-9.6 33.8-14.48a292.57 292.57 0 0 1 56.23-18.2c6.16-1.32 13.04-2.25 18.2 2 5.56 4.56 7.24 13.85 5.97 21.86s-4.9 15.05-8.16 22.18c-5.52 12.1-10.17 25.06-11.5 38.8s1.04 28.4 8.25 39.1c8.92 13.27 23.98 18.62 38.1 17.9s27.64-6.7 40.9-12.6q46.75-20.8 93.47-41.6c9.64-4.3 20.6-8.54 29.82-3.04 8.35 4.97 15.48 17.92 19.1 27.96a32.62 32.62 0 0 1 2.2 13.73c-.7 7.73-5.32 14.14-10.5 18.77-30.72 27.46-67.03 46.82-101.5 66.18-32.53 18.26-66.5 35.28-95.9 60.46a170.5 170.5 0 0 0-50.15 72.65c-7.18 19.98-18.13 37.18-33.54 48.72-14.13 10.57-32.68 15.36-48.8 9.26-10.1-3.8-17.97-16.7-22.75-27.56-5.47-12.47-7.77-26.64-8.57-40.74-.85-15.27.23-31.47 7.4-44.07 9-15.9 26.48-24 32.24-42 5.25-16.4-1.32-34.58-7.75-50.35-13.28-32.37-26.7-65.06-33.6-100.18-2.68-13.7-4.15-29.1 1.97-41.07 6-11.8 15.08-14.26 25.42-17.07a202.63 202.63 0 0 0 19.64-6.6z"/><path fill="#fff" d="M291.93 492.4a18.68 18.68 0 0 1 6.64-1.6c2.3 0 4.72 1.1 5.7 3.17 1.65 3.5-1.3 7.33-4.2 9.86a95.33 95.33 0 0 1-40.93 21.1c-3.72.9-7.77 1.5-11.24-.06-14.34-6.45 4.5-15.78 9.74-18.28 11.13-5.4 22.73-9.82 34.3-14.2z"/><path fill="#6140ff" d="M119 296.8c3.44-1.3 6.95-2.6 10.62-2.57s7.57 1.75 9.16 5.1c2.62 5.57-2.13 11.73-6.72 15.78a152.6 152.6 0 0 1-65.54 33.8c-5.95 1.4-12.44 2.37-18-.12-22.94-10.33 7.22-25.25 15.6-29.27 17.8-8.63 36.38-15.68 54.88-22.7z"/><path fill="#fff" d="M189.1 539.6c-.07-3.36.17-7.25 2.85-9.25s6.73-.97 9.1 1.4 3.4 5.78 4.22 9.05c1.6 6.35 3.16 22.5-7.46 21.6-9.86-.8-8.58-16.27-8.7-22.8z"/><path fill="#fff" d="M51.58 629.56c2.6-.14 5.6-.07 7.2 1.85s.93 4.95-.85 6.75-4.35 2.66-6.84 3.35c-4.86 1.36-17.25 2.92-16.85-4.92.35-7.3 12.3-6.76 17.33-7.02z"/><path fill="#fff" d="M130.76 552.63c-1.3 2.77-2.8 5.57-3.2 8.62-.37 3.06.6 6.52 3.25 8.08a7.57 7.57 0 0 0 7.56-.44 18.64 18.64 0 0 0 5.45-5.73 70.44 70.44 0 0 0 11.3-49.47c-2.02-13.66-15.4-15.73-17-1.14-1.6 14.26-1 26.53-7.34 40.07z"/><path fill="#fff" d="M110.8 613.9a2.94 2.94 0 0 0-.67.88 2.5 2.5 0 0 0-.24.92 3.94 3.94 0 0 0 1.3 3.3 3.85 3.85 0 0 0 3.4.84 2.38 2.38 0 0 0 1.2-.6 3.04 3.04 0 0 0 .77-1.62 5.1 5.1 0 0 0-.44-3.77c-1.4-2.24-3.76-1.46-5.32.05z"/><path fill="#fff" d="M226.8 509.73a2.94 2.94 0 0 0-.7.87 2.5 2.5 0 0 0-.23.93 3.94 3.94 0 0 0 1.3 3.3 3.85 3.85 0 0 0 3.4.84 2.38 2.38 0 0 0 1.2-.6 3.04 3.04 0 0 0 .78-1.62 5.1 5.1 0 0 0-.44-3.77c-1.38-2.24-3.74-1.46-5.3.05z"/><path fill="#fff" d="M126.04 481.63a2.94 2.94 0 0 0-.68.87 2.5 2.5 0 0 0-.24.93 3.94 3.94 0 0 0 1.3 3.3 3.85 3.85 0 0 0 3.4.84 2.38 2.38 0 0 0 1.2-.6 3.04 3.04 0 0 0 .78-1.62 5.1 5.1 0 0 0-.44-3.77c-1.4-2.24-3.75-1.46-5.32.05z"/><path fill="#fff" d="M322.9 505.98a2.95 2.95 0 0 0-.67.88 2.5 2.5 0 0 0-.24.92 3.94 3.94 0 0 0 1.3 3.3 3.85 3.85 0 0 0 3.4.84 2.38 2.38 0 0 0 1.2-.6 3.04 3.04 0 0 0 .77-1.62 5.1 5.1 0 0 0-.43-3.77c-1.4-2.24-3.76-1.46-5.33.05z"/><path fill="#2de8f5" d="M83.2 416.27a8.7 8.7 0 0 0-1.82 2.3 7.13 7.13 0 0 0-.65 2.45 10.43 10.43 0 0 0 3.43 8.64 10.24 10.24 0 0 0 8.95 2.26 6.74 6.74 0 0 0 3.2-1.6 8.14 8.14 0 0 0 2.04-4.2c.75-3.32.63-7-1.15-9.9-3.7-5.96-9.88-3.94-14 .05z"/><path fill="#fff" d="M60.57 483.66a5.95 5.95 0 0 0-1.24 1.57 4.88 4.88 0 0 0-.45 1.68 7.14 7.14 0 0 0 2.35 5.93 7.02 7.02 0 0 0 6.13 1.56 4.62 4.62 0 0 0 2.18-1.1 5.58 5.58 0 0 0 1.4-2.9 9.15 9.15 0 0 0-.8-6.77c-2.5-4.1-6.75-2.7-9.57.03z"/><path fill="#fff" d="M63.03 428.7a2.52 2.52 0 0 0-.53.66 2.06 2.06 0 0 0-.2.7 3.02 3.02 0 0 0 1 2.5 2.96 2.96 0 0 0 2.6.67 1.95 1.95 0 0 0 .9-.47 2.35 2.35 0 0 0 .6-1.2 3.86 3.86 0 0 0-.33-2.87c-1.07-1.74-2.85-1.16-4.04 0z"/><path fill="#2de8f5" d="M110.1 398.1a2.65 2.65 0 0 0-.54.7 2.17 2.17 0 0 0-.2.74 3.18 3.18 0 0 0 1.05 2.64 3.13 3.13 0 0 0 2.74.7 2.06 2.06 0 0 0 .97-.5 2.48 2.48 0 0 0 .64-1.28 4.08 4.08 0 0 0-.36-3.02c-1.13-1.82-3-1.2-4.27 0z"/><path fill="#6140ff" d="M152.44 225.58c23.37-13.15 47.57-25.5 72.05-35.45 7.04-3.44 15.08-8.23 15.42-15.9.4-8.7-8.72-16.56-14.47-22.13-29.1-28.24-32.9-72.57-52.5-107.77-2.38-4.23-5-8.42-8.62-11.7-5.36-4.9-12.46-7.52-19.58-9.24-34.4-8.25-72.12 3.35-98.38 26.6C41 54.72 36 60.02 32.8 66.4c-9.1 18.1-1.53 39.9 8.6 57.5s23.02 34.74 24.93 54.82C68.3 199.34 58.3 218.97 53 239c-2.17 8.15-3.5 17-.26 24.8 5.57 13.45 18.83 12.94 28.9 5.57 13.64-9.94 28.26-18.8 42.73-27.47 9.22-5.5 18.58-10.97 28.07-16.32z"/><path fill="#fff" d="M104 147.64a5.22 5.22 0 0 0-.96 1.22 4.06 4.06 0 0 0-.34 1.32 5.46 5.46 0 0 0 1.84 4.6 5.57 5.57 0 0 0 4.77 1.2 3.6 3.6 0 0 0 1.7-.84 4.25 4.25 0 0 0 1.1-2.24 6.96 6.96 0 0 0-.64-5.26c-1.98-3.2-5.26-2.1-7.45 0z"/><path fill="#fff" d="M177.93 153.08a5.22 5.22 0 0 0-.97 1.2 4.06 4.06 0 0 0-.34 1.33 5.46 5.46 0 0 0 1.84 4.6 5.57 5.57 0 0 0 4.77 1.23 3.6 3.6 0 0 0 1.7-.86 4.25 4.25 0 0 0 1.08-2.24 6.96 6.96 0 0 0-.62-5.25c-1.95-3.2-5.26-2.12-7.45 0z"/><path fill="#81efea" d="M121.82 194.42a5.22 5.22 0 0 0-.97 1.22 4.06 4.06 0 0 0-.33 1.32 5.46 5.46 0 0 0 1.83 4.6 5.57 5.57 0 0 0 4.78 1.2 3.6 3.6 0 0 0 1.7-.84 4.25 4.25 0 0 0 1.07-2.24 6.97 6.97 0 0 0-.63-5.26c-1.98-3.2-5.26-2.1-7.45 0z"/><path fill="#fff" d="M144.6 163.7a5.2 5.2 0 0 0-.97 1.23 4.06 4.06 0 0 0-.34 1.3 5.46 5.46 0 0 0 1.83 4.6 5.57 5.57 0 0 0 4.77 1.23 3.6 3.6 0 0 0 1.7-.85 4.25 4.25 0 0 0 1.08-2.23 6.96 6.96 0 0 0-.63-5.26c-1.95-3.2-5.26-2.1-7.46 0z"/><path fill="#fff" d="M120.76 59.86c16.04 15.12 23.5 37.06 34.67 56.14a4.94 4.94 0 0 0 2.12 2.27c1.35.5 2.8-.27 4-1.03 3.07-1.9 6.38-4.06 7.5-7.5.88-2.75.16-5.72-.66-8.5-6.48-21.4-20.9-39.97-39.3-52.34a95.7 95.7 0 0 0-29.84-13.48c-3.4-.88-14.1-4.46-17.03-1.7-3.2 3-.82 6.64 2.3 8.66 4.96 3.22 13.72 3.34 19.4 6.04a64.74 64.74 0 0 1 16.83 11.44z"/><path fill="#81efea" d="M45.95 92.1a7.08 7.08 0 0 0-1.47 1.87 5.8 5.8 0 0 0-.53 2 8.5 8.5 0 0 0 2.8 7.04 8.35 8.35 0 0 0 7.3 1.86 5.5 5.5 0 0 0 2.6-1.3 6.63 6.63 0 0 0 1.66-3.44 10.88 10.88 0 0 0-.93-8.06c-3.02-4.86-8.05-3.2-11.42.04z"/><path fill="#81efea" d="M76.92 128.08c-16 15.14-38.67 21.66-58.56 31.9a4.98 4.98 92 0 0-2.4 2c-.56 1.3.2 2.75.92 3.95 1.83 3.07 3.93 6.37 7.4 7.58 2.77.97 5.83.37 8.7-.33a100.33 100.33 92 0 0 54.83-36.55 91.83 91.83 92 0 0 14.83-28.7c1-3.3 5.05-13.6 2.34-16.58-2.95-3.24-6.76-1.03-8.93 1.94-3.46 4.74-3.9 13.3-6.84 18.74a63.38 63.38 92 0 1-12.28 16.06z"/></svg>