<svg xmlns="http://www.w3.org/2000/svg" width="1636.171" height="1071.36" viewBox="0 0 1636.171 1071.36">
  <g id="Group_1086" data-name="Group 1086" transform="translate(1438.171 0) rotate(90)">
    <g id="Group_863" data-name="Group 863" transform="translate(290.856 394.622)">
      <path id="Path_2257" data-name="Path 2257" d="M0,0V62.108H61.226" transform="translate(54.822 0)" fill="none" stroke="#fff28b" stroke-miterlimit="10" stroke-width="11.339"/>
      <line id="Line_107" data-name="Line 107" x1="54.822" y2="54.822" transform="translate(0 62.108)" fill="none" stroke="#fff28b" stroke-miterlimit="10" stroke-width="11.339"/>
    </g>
    <g id="Group_865" data-name="Group 865" transform="translate(348.028 10.577)">
      <path id="Path_2259" data-name="Path 2259" d="M87.2,43.893,43.3,0,0,43.3" transform="translate(0 77.561)" fill="none" stroke="#fff28b" stroke-miterlimit="10" stroke-width="11.339"/>
      <line id="Line_109" data-name="Line 109" y1="77.561" transform="translate(43.305)" fill="none" stroke="#fff28b" stroke-miterlimit="10" stroke-width="11.339"/>
    </g>
    <g id="Group_866" data-name="Group 866" transform="translate(681.834 665.439)">
      <path id="Path_2260" data-name="Path 2260" d="M62.049,0V47.007H0" transform="translate(0 0)" fill="none" stroke="#fff28b" stroke-miterlimit="10" stroke-width="11.339"/>
      <line id="Line_110" data-name="Line 110" x2="54.822" y2="54.88" transform="translate(62.049 47.007)" fill="none" stroke="#fff28b" stroke-miterlimit="10" stroke-width="11.339"/>
    </g>
    <path id="Path_2261" data-name="Path 2261" d="M0,56.408H67.925v70.569L194.9,0" transform="translate(382.225 369.297)" fill="none" stroke="#00c691" stroke-miterlimit="10" stroke-width="11.339"/>
    <circle id="Ellipse_136" data-name="Ellipse 136" cx="11.458" cy="11.458" r="11.458" transform="translate(458.729 557.441)" fill="#00c691"/>
    <circle id="Ellipse_137" data-name="Ellipse 137" cx="30.143" cy="30.143" r="30.143" transform="translate(555.328 665.439)" fill="none" stroke="#fff28b" stroke-miterlimit="10" stroke-width="11.339"/>
    <circle id="Ellipse_138" data-name="Ellipse 138" cx="18.156" cy="18.156" r="18.156" transform="translate(260.771 647.635)" fill="none" stroke="#00c691" stroke-miterlimit="10" stroke-width="11.339"/>
    <circle id="Ellipse_139" data-name="Ellipse 139" cx="18.156" cy="18.156" r="18.156" transform="translate(192.788 380.167)" fill="none" stroke="#00c691" stroke-miterlimit="10" stroke-width="11.339"/>
    <circle id="Ellipse_140" data-name="Ellipse 140" cx="4.289" cy="4.289" r="4.289" transform="translate(375.762 517.192)" fill="#fff28b"/>
    <circle id="Ellipse_141" data-name="Ellipse 141" cx="4.289" cy="4.289" r="4.289" transform="translate(213.882 517.192)" fill="#fff28b"/>
    <circle id="Ellipse_142" data-name="Ellipse 142" cx="4.289" cy="4.289" r="4.289" transform="translate(132.208 716.03)" fill="#fff"/>
    <circle id="Ellipse_143" data-name="Ellipse 143" cx="4.289" cy="4.289" r="4.289" transform="translate(332.633 940.781)" fill="#fff28b"/>
    <circle id="Ellipse_144" data-name="Ellipse 144" cx="4.289" cy="4.289" r="4.289" transform="translate(650.634 826.555)" fill="#fff"/>
    <circle id="Ellipse_145" data-name="Ellipse 145" cx="4.289" cy="4.289" r="4.289" transform="translate(546.102 1194.089)" fill="rgba(0,0,0,0)"/>
    <circle id="Ellipse_146" data-name="Ellipse 146" cx="4.289" cy="4.289" r="4.289" transform="translate(857.581 989.844)" fill="#fff"/>
    <circle id="Ellipse_148" data-name="Ellipse 148" cx="4.289" cy="4.289" r="4.289" transform="translate(441.395 758.689)" fill="#fff28b"/>
    <circle id="Ellipse_150" data-name="Ellipse 150" cx="4.289" cy="4.289" r="4.289" transform="translate(896.361 569.781)" fill="#fff28b"/>
    <circle id="Ellipse_151" data-name="Ellipse 151" cx="4.289" cy="4.289" r="4.289" transform="translate(843.538 739.886)" fill="#fff"/>
    <circle id="Ellipse_152" data-name="Ellipse 152" cx="4.289" cy="4.289" r="4.289" transform="translate(537.524 1429.593)" fill="#fff"/>
    <circle id="Ellipse_153" data-name="Ellipse 153" cx="4.289" cy="4.289" r="4.289" transform="translate(546.102 152.889)" fill="#00c691"/>
    <circle id="Ellipse_154" data-name="Ellipse 154" cx="4.289" cy="4.289" r="4.289" transform="translate(622.606 301.49)" fill="#fff"/>
    <circle id="Ellipse_155" data-name="Ellipse 155" cx="4.289" cy="4.289" r="4.289" transform="translate(421.535 268.467)" fill="#00c691"/>
    <circle id="Ellipse_156" data-name="Ellipse 156" cx="4.289" cy="4.289" r="4.289" transform="translate(127.86 80.147)" fill="#00c691"/>
    <circle id="Ellipse_157" data-name="Ellipse 157" cx="4.289" cy="4.289" r="4.289" transform="translate(454.439 360.953)" fill="#00c691"/>
    <circle id="Ellipse_158" data-name="Ellipse 158" cx="4.289" cy="4.289" r="4.289" transform="translate(595.636 466.189)" fill="#00c691"/>
    <circle id="Ellipse_159" data-name="Ellipse 159" cx="4.289" cy="4.289" r="4.289" transform="translate(897.772 902.177)" fill="#fff28b"/>
    <circle id="Ellipse_162" data-name="Ellipse 162" cx="4.289" cy="4.289" r="4.289" transform="translate(414.601 1352.56)" fill="#00c691"/>
    <circle id="Ellipse_163" data-name="Ellipse 163" cx="4.289" cy="4.289" r="4.289" transform="translate(516.782 807.752)" fill="#00c691"/>
    <circle id="Ellipse_164" data-name="Ellipse 164" cx="4.289" cy="4.289" r="4.289" transform="translate(933.556 725.725)" fill="#00c691"/>
    <circle id="Ellipse_167" data-name="Ellipse 167" cx="4.289" cy="4.289" r="4.289" transform="translate(659.741 598.572)" fill="#00c691"/>
    <circle id="Ellipse_168" data-name="Ellipse 168" cx="4.289" cy="4.289" r="4.289" transform="translate(924.918 507.262)" fill="#00c691"/>
    <circle id="Ellipse_169" data-name="Ellipse 169" cx="4.289" cy="4.289" r="4.289" transform="translate(159.237 307.953)" fill="#00c691"/>
    <g id="Group_867" data-name="Group 867" transform="translate(681.834 604.213)">
      <path id="Path_2262" data-name="Path 2262" d="M0,61.226H62.049V0" fill="none" stroke="#00c691" stroke-miterlimit="10" stroke-width="11.339"/>
      <line id="Line_111" data-name="Line 111" x2="54.822" y2="54.88" transform="translate(62.049 61.226)" fill="none" stroke="#00c691" stroke-miterlimit="10" stroke-width="11.339"/>
    </g>
    <rect id="Rectangle_181" data-name="Rectangle 181" width="14.22" height="140.08" transform="translate(568.853 568.549) rotate(45)" fill="#00c691"/>
    <path id="Path_2263" data-name="Path 2263" d="M0,130.914,123.393,7.521l71.685,71.685L274.284,0" transform="translate(654.923 390.567)" fill="none" stroke="#fff28b" stroke-miterlimit="10" stroke-width="11.339"/>
    <path id="Path_2265" data-name="Path 2265" d="M0,0,51.355,102.592l54.763-54.763Z" transform="translate(57.409 767.679)" fill="#fff28b"/>
    <path id="Path_2266" data-name="Path 2266" d="M29.967,0,0,90.018H64.106Z" transform="translate(300.551 185.383)" fill="#fff28b"/>
    <path id="Path_2267" data-name="Path 2267" d="M29.967,0,0,90.077H64.106Z" transform="translate(300.551 236.503)" fill="none" stroke="#00c691" stroke-miterlimit="10" stroke-width="11.339"/>
    <path id="Path_2641" data-name="Path 2641" d="M90.26,0,0,271.31H193.085Z" transform="translate(869.948 1080.73) rotate(-135)" fill="none" stroke="#00c691" stroke-miterlimit="10" stroke-width="11.339"/>
    <line id="Line_112" data-name="Line 112" x1="152.419" y2="152.478" transform="translate(33.083 120.279)" fill="none" stroke="#00c691" stroke-miterlimit="10" stroke-width="11.339"/>
    <line id="Line_113" data-name="Line 113" x1="152.419" y2="152.419" transform="translate(5.172 207.887)" fill="none" stroke="#fff28b" stroke-miterlimit="10" stroke-width="11.339"/>
    <circle id="Ellipse_170" data-name="Ellipse 170" cx="5.465" cy="5.465" r="5.465" transform="translate(238.855 179.918)" fill="#fff28b"/>
    <circle id="Ellipse_171" data-name="Ellipse 171" cx="5.465" cy="5.465" r="5.465" transform="translate(958.704 82.556)" fill="#fff28b"/>
    <circle id="Ellipse_172" data-name="Ellipse 172" cx="5.465" cy="5.465" r="5.465" transform="translate(681.834 114.814)" fill="#fff28b"/>
    <circle id="Ellipse_173" data-name="Ellipse 173" cx="5.465" cy="5.465" r="5.465" transform="translate(765.8 285.919)" fill="#fff28b"/>
    <circle id="Ellipse_174" data-name="Ellipse 174" cx="44.01" cy="44.01" r="44.01" transform="translate(723.2 0)" fill="#fff28b"/>
    <circle id="Ellipse_287" data-name="Ellipse 287" cx="173.01" cy="173.01" r="173.01" transform="translate(148.2 -198)" fill="#fff28b"/>
    <circle id="Ellipse_175" data-name="Ellipse 175" cx="44.01" cy="44.01" r="44.01" transform="translate(788.657 0)" fill="#00c691"/>
    <path id="Path_2268" data-name="Path 2268" d="M199.544,67.983,140.726,9.166,74.976,74.917,0,0" transform="translate(472.654 193.727)" fill="none" stroke="#00c691" stroke-miterlimit="10" stroke-width="11.339"/>
    <path id="Path_2269" data-name="Path 2269" d="M0,0,69.335,69.335l54.41-54.351,51.883,51.884" transform="translate(654.923 198.016)" fill="none" stroke="#fff28b" stroke-miterlimit="10" stroke-width="11.339"/>
    <line id="Line_114" data-name="Line 114" y2="79.5" transform="translate(724.258 267.351)" fill="none" stroke="#fff28b" stroke-miterlimit="10" stroke-width="11.339"/>
    <circle id="Ellipse_176" data-name="Ellipse 176" cx="18.391" cy="18.391" r="18.391" transform="translate(825.088 328.46)" fill="none" stroke="#00c691" stroke-miterlimit="10" stroke-width="11.339"/>
    <path id="Path_2270" data-name="Path 2270" d="M0,0H55.762V52.53" transform="translate(854.878 291.383)" fill="none" stroke="#00c691" stroke-miterlimit="10" stroke-width="11.339"/>
    <circle id="Ellipse_177" data-name="Ellipse 177" cx="10.106" cy="10.106" r="10.106" transform="translate(197.959 359.19)" fill="none" stroke="#fff28b" stroke-miterlimit="10" stroke-width="11.339"/>
    <path id="Path_2271" data-name="Path 2271" d="M14.572,83.085,68.747,28.556,0,0" transform="translate(132.149 777.433)" fill="none" stroke="#00c691" stroke-miterlimit="10" stroke-width="11.339"/>
    <path id="Path_2272" data-name="Path 2272" d="M0,0V82.5H85.317v82.614h74.388V125.332" transform="translate(364.656 758.689)" fill="none" stroke="#fff28b" stroke-miterlimit="10" stroke-width="11.339"/>
    <circle id="Ellipse_179" data-name="Ellipse 179" cx="24.326" cy="24.326" r="24.326" transform="translate(340.33 734.363)" fill="#00c691"/>
    <path id="Path_2274" data-name="Path 2274" d="M0,0H91.546V80.793Z" transform="translate(57.129 495.628) rotate(45)" fill="#00c691"/>
    <path id="Path_2275" data-name="Path 2275" d="M41.954,43.657h29.2V0H0" transform="translate(144.312 579.946)" fill="none" stroke="#fff28b" stroke-miterlimit="10" stroke-width="11.339"/>
    <path id="Path_2278" data-name="Path 2278" d="M1.41,0,24.62,23.21,0,47.83" transform="translate(366.831 609.149)" fill="none" stroke="#fff" stroke-miterlimit="10" stroke-width="11.339"/>
    <path id="Path_2280" data-name="Path 2280" d="M0,2.526,12.574,15.1,27.675,0" transform="translate(267.176 1069.227)" fill="none" stroke="#fff" stroke-miterlimit="10" stroke-width="11.339"/>
    <path id="Path_2281" data-name="Path 2281" d="M0,2.526,12.633,15.1,27.734,0" transform="translate(962.061 864.264)" fill="rgba(0,0,0,0)" stroke="#fff" stroke-miterlimit="10" stroke-width="11.339"/>
    <path id="Path_2640" data-name="Path 2640" d="M0,2.526,12.633,15.1,27.734,0" transform="translate(952.402 822.579) rotate(120)" fill="rgba(0,0,0,0)" stroke="#fff28b" stroke-miterlimit="10" stroke-width="11.339"/>
    <path id="Path_2282" data-name="Path 2282" d="M12.633,0,0,12.574l15.1,15.1" transform="translate(166.817 903.881)" fill="none" stroke="#fff" stroke-miterlimit="10" stroke-width="11.339"/>
    <path id="Path_2284" data-name="Path 2284" d="M51.531,24.326,27.264,0,0,27.264" transform="translate(436.812 1272.943)" fill="rgba(0,0,0,0)" stroke="#fff" stroke-miterlimit="10" stroke-width="11.339"/>
    <path id="Path_2285" data-name="Path 2285" d="M0,29.849,29.908,0,43.775,13.867" transform="translate(524.362 77.502)" fill="rgba(0,0,0,0)" stroke="#fff" stroke-miterlimit="10" stroke-width="11.339"/>
    <path id="Path_2286" data-name="Path 2286" d="M0,31.024,31.025,0,51,19.978" transform="translate(891.367 132.618)" fill="none" stroke="#fff" stroke-miterlimit="10" stroke-width="11.339"/>
    <path id="Path_2290" data-name="Path 2290" d="M0,37.723V0L68.512,18.861l68.512,18.862L68.512,56.584,0,75.446Z" transform="translate(907.055 578.612)" fill="none" stroke="#00c691" stroke-miterlimit="10" stroke-width="11.339"/>
    <circle id="Ellipse_186" data-name="Ellipse 186" cx="45.244" cy="45.244" r="45.244" transform="translate(969.692 191.259)" fill="none" stroke="#00c691" stroke-miterlimit="10" stroke-width="11.339"/>
    <line id="Line_116" data-name="Line 116" x2="82.967" y2="24.561" transform="translate(955.97 509.157)" fill="none" stroke="#fff" stroke-miterlimit="10" stroke-width="11.339"/>
    <path id="Path_2295" data-name="Path 2295" d="M0,26.441l19.1-19.1L41.013,29.32,70.334,0" transform="translate(750.876 144.193)" fill="none" stroke="#00c691" stroke-miterlimit="10" stroke-width="11.339"/>
    <line id="Line_117" data-name="Line 117" x1="36.724" y1="36.724" transform="translate(426.353 195.959)" fill="none" stroke="#fff28b" stroke-miterlimit="10" stroke-width="11.339"/>
  </g>
</svg>
