<svg xmlns="http://www.w3.org/2000/svg" width="1401.23" height="1298.387"><g data-name="Group 1104"><path fill="#69debc" d="M373.3 203.46l163.64 43.88-43.87 163.64-163.65-43.88z" data-name="Rectangle 185"/><path fill="#6140ff" d="M373.3 203.46l119.76 207.52-163.64-43.88z" data-name="Path 2296"/><path fill="#5c3cf3" d="M601.76 155.12l50.57 87.62-69.1-18.53z" data-name="Path 2297"/><path fill="#5c3cf3" d="M670.65 115.32l50.6 87.68-69.14-18.54z" data-name="Path 2298"/><path fill="#6140ff" d="M586.84.23l50.6 87.67-69.14-18.53z" data-name="Path 2315"/><path fill="#69debc" d="M739.57 75.58l50.57 87.62-69.09-18.53z" data-name="Path 2299"/><path fill="#5c3cf3" d="M534.4 1088.84l50.56 87.61-69.1-18.52z" data-name="Path 2300"/><path fill="#69debc" d="M1106.05 426.74l-50.61-87.63 69.13 18.54z" data-name="Path 2301"/><path fill="#5c3cf3" d="M1178.04 385.23l-50.6-87.67 69.13 18.53z" data-name="Path 2302"/><path fill="#69debc" d="M817.23 361.06l-50.6-87.68 69.13 18.54z" data-name="Path 2303"/><path fill="#69debc" d="M655.48 1053.7l50.6 87.67-69.13-18.53z" data-name="Path 2304"/><path fill="#6140ff" d="M315.08 870.63l-50.63 87.65-18.51-69.14z" data-name="Path 2639"/><g data-name="Group 869"><path fill="#5c3cf3" d="M921.2 491.53a84.71 84.71 0 01-127.4 49.45 84.94 84.94 0 01-36.24-93.33z" data-name="Path 2305"/></g><g data-name="Group 870"><path fill="#6140ff" d="M765.28 663.02a84.71 84.71 0 01127.4-49.45 84.94 84.94 0 0136.24 93.33z" data-name="Path 2306"/></g><g data-name="Group 871"><path fill="#69debc" d="M733.86 780.2a84.71 84.71 0 01127.4-49.46 84.94 84.94 0 0136.24 93.34z" data-name="Path 2307"/></g><g data-name="Group 872"><path fill="#6140ff" d="M630.72 882.18a84.7 84.7 0 01127.4-49.45 84.94 84.94 0 0136.24 93.33z" data-name="Path 2308"/></g><g data-name="Group 873"><path fill="#69debc" d="M944.82 1217a84.7 84.7 0 01-127.41 49.46 84.94 84.94 0 01-36.24-93.33z" data-name="Path 2309"/></g><path fill="#69debc" d="M1316.3 597.46l-46.83 174.7-122.02-32.72-34.62 129.12-199-53.35 46.85-174.7 156.62-96.4z" data-name="Path 2310"/><path fill="#fff" d="M1401.31 164.13l-177.25-48.81 59.25 111.51z" data-name="Path 2312"/><path fill="#5c3cf3" d="M1077.44 966.39l73.29 126.99-126.99 73.29-73.29-127z" data-name="Rectangle 186"/><path fill="#69debc" d="M966.32 1068.45l49.73 86.16-86.16 49.72-49.73-86.15z" data-name="Rectangle 187"/><path fill="#69debc" d="M203.08 1087l-170.83 98.59 36.11-134.72z" data-name="Path 2314"/><path fill="#6140ff" d="M186.46 616.87L221 596.94l68.89 119.36-34.53 19.92z" data-name="Rectangle 189"/><path fill="#69debc" d="M392.52 744.24l34.79-20.07 37.34 64.7-34.79 20.08z" data-name="Rectangle 190"/><path fill="#69debc" d="M498.07 621.65l34.8-20.08 111.75 193.65-34.78 20.08z" data-name="Rectangle 191"/><path fill="#5c3cf3" d="M896.9 315.55l34.78-20.08 111.77 193.65-34.8 20.08z" data-name="Rectangle 192"/><path fill="#6140ff" d="M626.7 627.52l34.8-20.08 29.57 51.25-34.79 20.07z" data-name="Rectangle 193"/><path fill="#69debc" d="M858.3 389.73l34.8-20.08 29.57 51.24-34.8 20.08z" data-name="Rectangle 194"/><path fill="#69debc" d="M793.84 845.32l8.37-4.83 4.84 8.37-8.38 4.84z" data-name="Rectangle 195"/><path fill="#69debc" d="M179.84 391.17l8.37-4.83 4.84 8.37-8.38 4.84z" data-name="Rectangle 384"/><path fill="#6140ff" d="M875.18 932.06l8.38-4.83 4.83 8.37-8.37 4.84z" data-name="Rectangle 196"/><path fill="#6140ff" d="M290.08 1158l8.37-4.83 4.84 8.37-8.38 4.83z" data-name="Rectangle 382"/><path fill="#6140ff" d="M758.87 1127.8l8.38-4.82 4.83 8.37-8.37 4.83z" data-name="Rectangle 197"/><path fill="#69debc" d="M420.27 1116.8l8.37-4.82 4.84 8.37-8.38 4.83z" data-name="Rectangle 198"/><path fill="#69debc" d="M745.42 695.61l8.37-4.83 4.84 8.37-8.38 4.84z" data-name="Rectangle 199"/><path fill="#69debc" d="M724.04 863.34l8.37-4.83 4.84 8.37-8.38 4.84z" data-name="Rectangle 200"/><path fill="#69debc" d="M754.97 377.9l8.38-4.83 4.83 8.37-8.38 4.84z" data-name="Rectangle 201"/><path fill="#6140ff" d="M839.9 111.78l8.38-4.83 4.83 8.37-8.38 4.84z" data-name="Rectangle 202"/><path fill="#6140ff" d="M1084.7 480l8.38-4.83 4.83 8.37-8.37 4.83z" data-name="Rectangle 203"/><path fill="#69debc" d="M616.94 971.78l8.37-4.84 4.84 8.38-8.38 4.83z" data-name="Rectangle 204"/><path fill="#69debc" d="M-.12 882.67l8.37-4.83 4.84 8.37-8.38 4.84z" data-name="Rectangle 383"/><path fill="#69debc" d="M658.49 1203.31l8.37-4.83 4.84 8.37-8.38 4.84z" data-name="Rectangle 205"/><path fill="#69debc" d="M987.83 903.61l8.37-4.83 4.84 8.37-8.38 4.84z" data-name="Rectangle 206"/><path fill="#6140ff" d="M351.6 1018.63l8.37-4.84 4.83 8.38-8.37 4.83z" data-name="Rectangle 207"/><path fill="#69debc" d="M501 504.49l8.38-4.84 4.83 8.38-8.37 4.83z" data-name="Rectangle 208"/><path fill="#69debc" d="M533.7 94.45l8.38-4.83 4.84 8.37-8.38 4.83z" data-name="Rectangle 209"/><path fill="#69debc" d="M527.6 220.03l8.37-4.83 4.83 8.37-8.37 4.83z" data-name="Rectangle 210"/><path fill="#6140ff" d="M669.62 336.35l8.37-4.83 4.84 8.37-8.38 4.84z" data-name="Rectangle 211"/><path fill="#69debc" d="M814.86 205.17l8.38-4.83 4.83 8.37-8.37 4.84z" data-name="Rectangle 212"/><path fill="#fff" d="M1040.72 237.47l8.37-4.83 4.83 8.37-8.37 4.83z" data-name="Rectangle 213"/><path fill="#6140ff" d="M1128.32 173l8.37-4.84 4.84 8.38-8.38 4.83z" data-name="Rectangle 214"/><path fill="#6140ff" d="M403.15 1063.66l-11.6-20.08 76.46-44.12 11.59 20.08z" data-name="Rectangle 216"/><path fill="#69debc" d="M496.8 983.25l-11.59-20.08 76.46-44.12 11.59 20.08z" data-name="Rectangle 217"/><path fill="#5c3cf3" d="M782.1 1016.67l-11.6-20.08 61.33-35.4 11.6 20.08z" data-name="Rectangle 218"/><path fill="#69debc" d="M1010.55 972.18l-11.6-20.08 116.08-66.99 11.59 20.08z" data-name="Rectangle 219"/><path fill="#5c3cf3" d="M940.9 894.36l14.55 25.2-25.2 14.55-14.56-25.2z" data-name="Rectangle 220"/><path fill="#5c3cf3" d="M1112.84 868.56l156.67-96.39-122.05-32.72z" data-name="Path 2311"/><path fill="#69debc" d="M1151.5 457.78l8.37-4.83 4.83 8.38-8.37 4.83z" data-name="Rectangle 215"/></g></svg>