<svg xmlns="http://www.w3.org/2000/svg" width="1401.23" height="1298.387" viewBox="0 0 1401.23 1298.387">
  <g id="Group_1104" data-name="Group 1104" transform="matrix(0.966, 0.259, -0.259, 0.966, -621.357, -371.233)">
    <rect id="Rectangle_185" data-name="Rectangle 185" width="169.401" height="169.401" transform="translate(1109.42 297.468)" fill="#69debc"/>
    <path id="Path_2296" data-name="Path 2296" d="M147,640.9,316.4,810.3H147Z" transform="translate(962.42 -343.43)" fill="#6140ff"/>
    <path id="Path_2297" data-name="Path 2297" d="M351.6,313.5l71.522,71.521H351.6Z" transform="translate(965.947 -121.874)" fill="#5c3cf3"/>
    <path id="Path_2298" data-name="Path 2298" d="M468.5,196.5l71.569,71.57H468.5Z" transform="translate(905.273 -61.148)" fill="#5c3cf3"/>
    <path id="Path_2315" data-name="Path 2315" d="M468.5,196.5l71.569,71.57H468.5Z" transform="translate(794.525 -150.598)" fill="#6140ff"/>
    <path id="Path_2299" data-name="Path 2299" d="M585.5,79.6l71.522,71.521H585.5Z" transform="translate(844.547 -0.474)" fill="#69debc"/>
    <path id="Path_2300" data-name="Path 2300" d="M719,2224.6l71.522,71.522H719Z" transform="translate(775.258 -1113.774)" fill="#5c3cf3"/>
    <path id="Path_2301" data-name="Path 2301" d="M1433.17,510.221,1361.6,438.7h71.57Z" transform="translate(441.734 -186.854)" fill="#69debc"/>
    <path id="Path_2302" data-name="Path 2302" d="M1555.37,388.07,1483.8,316.5h71.569Z" transform="translate(378.31 -123.431)" fill="#5c3cf3"/>
    <path id="Path_2303" data-name="Path 2303" d="M817.87,533.77,746.3,462.2h71.57Z" transform="translate(761.089 -199.051)" fill="#69debc"/>
    <path id="Path_2304" data-name="Path 2304" d="M835.9,2107.6l71.57,71.569H835.9Z" transform="translate(766.205 -1062.064)" fill="#69debc"/>
    <path id="Path_2639" data-name="Path 2639" d="M835.9,2107.6l71.57,71.569H835.9Z" transform="translate(2633.233 -820.839) rotate(60)" fill="#6140ff"/>
    <g id="Group_869" data-name="Group 869" transform="translate(1543.76 433.799)">
      <path id="Path_2305" data-name="Path 2305" d="M712.3,817a84.7,84.7,0,0,1-110.24,80.756h0A84.926,84.926,0,0,1,542.9,817Z" transform="translate(-542.9 -817)" fill="#5c3cf3"/>
    </g>
    <g id="Group_870" data-name="Group 870" transform="translate(1606.979 555.102)">
      <path id="Path_2306" data-name="Path 2306" d="M542.9,1153.9a84.7,84.7,0,0,1,110.24-80.756h0A84.927,84.927,0,0,1,712.3,1153.9Z" transform="translate(-542.9 -1069.2)" fill="#6140ff"/>
    </g>
    <g id="Group_871" data-name="Group 871" transform="translate(1606.979 676.404)">
      <path id="Path_2307" data-name="Path 2307" d="M542.9,1406.1a84.7,84.7,0,0,1,110.24-80.756h0A84.926,84.926,0,0,1,712.3,1406.1Z" transform="translate(-542.9 -1321.4)" fill="#69debc"/>
    </g>
    <g id="Group_872" data-name="Group 872" transform="translate(1533.778 801.603)">
      <path id="Path_2308" data-name="Path 2308" d="M542.9,1666.4a84.695,84.695,0,0,1,110.24-80.756h0A84.925,84.925,0,0,1,712.3,1666.4Z" transform="translate(-542.9 -1581.7)" fill="#6140ff"/>
    </g>
    <g id="Group_873" data-name="Group 873" transform="translate(1754.42 1128.332)">
      <path id="Path_2309" data-name="Path 2309" d="M1429.3,2261a84.695,84.695,0,0,1-110.24,80.756h0A84.926,84.926,0,0,1,1259.9,2261Z" transform="translate(-1259.9 -2261)" fill="#69debc"/>
    </g>
    <path id="Path_2310" data-name="Path 2310" d="M1384.808,817V997.848H1258.5v133.664h-206V950.664L1178.8,817Z" transform="translate(737.363 -383.201)" fill="#69debc"/>
    <path id="Path_2312" data-name="Path 2312" d="M183.83,0,0,5.195,89.318,94.512Z" transform="matrix(0.999, 0.035, -0.035, 0.999, 1908.417, -13.141)" fill="#fff"/>
    <rect id="Rectangle_186" data-name="Rectangle 186" width="146.602" height="146.602" transform="translate(1987.009 851.953) rotate(45)" fill="#5c3cf3"/>
    <rect id="Rectangle_187" data-name="Rectangle 187" width="99.466" height="99.466" transform="translate(1906.124 979.293) rotate(45)" fill="#69debc"/>
    <path id="Path_2314" data-name="Path 2314" d="M125.2,2183.6l139.455,139.456H125.2Z" transform="translate(3357.407 1069.633) rotate(90)" fill="#69debc"/>
    <rect id="Rectangle_189" data-name="Rectangle 189" width="39.86" height="137.789" transform="translate(1036.029 745.106) rotate(-45)" fill="#6140ff"/>
    <rect id="Rectangle_190" data-name="Rectangle 190" width="40.162" height="74.696" transform="translate(1268.015 814.763) rotate(-45)" fill="#69debc"/>
    <rect id="Rectangle_191" data-name="Rectangle 191" width="40.162" height="223.559" transform="translate(1338.208 669.032) rotate(-45)" fill="#69debc"/>
    <rect id="Rectangle_192" data-name="Rectangle 192" width="40.162" height="223.559" transform="translate(1644.118 270.143) rotate(-45)" fill="#5c3cf3"/>
    <rect id="Rectangle_193" data-name="Rectangle 193" width="40.162" height="59.16" transform="translate(1463.957 641.395) rotate(-45)" fill="#6140ff"/>
    <rect id="Rectangle_194" data-name="Rectangle 194" width="40.162" height="59.16" transform="translate(1626.054 351.773) rotate(-45)" fill="#69debc"/>
    <rect id="Rectangle_195" data-name="Rectangle 195" width="9.668" height="9.668" transform="translate(1681.77 808.466) rotate(-45)" fill="#69debc"/>
    <rect id="Rectangle_384" data-name="Rectangle 384" width="9.668" height="9.668" transform="translate(971.187 528.85) rotate(-45)" fill="#69debc"/>
    <rect id="Rectangle_196" data-name="Rectangle 196" width="9.668" height="9.668" transform="translate(1782.79 871.174) rotate(-45)" fill="#6140ff"/>
    <rect id="Rectangle_382" data-name="Rectangle 382" width="9.668" height="9.668" transform="translate(1276.217 1240.882) rotate(-45)" fill="#6140ff"/>
    <rect id="Rectangle_197" data-name="Rectangle 197" width="9.668" height="9.668" transform="translate(1721.148 1090.336) rotate(-45)" fill="#6140ff"/>
    <rect id="Rectangle_198" data-name="Rectangle 198" width="9.668" height="9.668" transform="translate(1391.284 1167.391) rotate(-45)" fill="#69debc"/>
    <rect id="Rectangle_199" data-name="Rectangle 199" width="9.668" height="9.668" transform="translate(1596.239 676.419) rotate(-45)" fill="#69debc"/>
    <rect id="Rectangle_200" data-name="Rectangle 200" width="9.668" height="9.668" transform="translate(1619.025 843.942) rotate(-45)" fill="#69debc"/>
    <rect id="Rectangle_201" data-name="Rectangle 201" width="9.668" height="9.668" transform="translate(1523.198 367.108) rotate(-45)" fill="#69debc"/>
    <rect id="Rectangle_202" data-name="Rectangle 202" width="9.668" height="9.668" transform="translate(1536.312 88.107) rotate(-45)" fill="#6140ff"/>
    <rect id="Rectangle_203" data-name="Rectangle 203" width="9.668" height="9.668" transform="translate(1868.08 380.331) rotate(-45)" fill="#6140ff"/>
    <rect id="Rectangle_204" data-name="Rectangle 204" width="9.668" height="9.668" transform="translate(1543.667 976.398) rotate(-45)" fill="#69debc"/>
    <rect id="Rectangle_383" data-name="Rectangle 383" width="9.668" height="9.668" transform="translate(924.656 1050.122) rotate(-45)" fill="#69debc"/>
    <rect id="Rectangle_205" data-name="Rectangle 205" width="9.668" height="9.668" transform="translate(1643.749 1189.249) rotate(-45)" fill="#69debc"/>
    <rect id="Rectangle_206" data-name="Rectangle 206" width="9.668" height="9.668" transform="translate(1884.212 814.527) rotate(-45)" fill="#69debc"/>
    <rect id="Rectangle_207" data-name="Rectangle 207" width="9.668" height="9.668" transform="translate(1299.535 1090.353) rotate(-45)" fill="#6140ff"/>
    <rect id="Rectangle_208" data-name="Rectangle 208" width="9.668" height="9.668" transform="translate(1310.7 555.123) rotate(-45)" fill="#69debc"/>
    <rect id="Rectangle_209" data-name="Rectangle 209" width="9.668" height="9.668" transform="translate(1236.111 150.652) rotate(-45)" fill="#69debc"/>
    <rect id="Rectangle_210" data-name="Rectangle 210" width="9.668" height="9.668" transform="translate(1262.724 273.516) rotate(-45)" fill="#69debc"/>
    <rect id="Rectangle_211" data-name="Rectangle 211" width="9.668" height="9.668" transform="translate(1430.007 349.081) rotate(-45)" fill="#6140ff"/>
    <rect id="Rectangle_212" data-name="Rectangle 212" width="9.668" height="9.668" transform="translate(1536.314 184.783) rotate(-45)" fill="#69debc"/>
    <rect id="Rectangle_213" data-name="Rectangle 213" width="9.668" height="9.668" transform="translate(1762.798 157.493) rotate(-45)" fill="#fff"/>
    <rect id="Rectangle_214" data-name="Rectangle 214" width="9.668" height="9.668" transform="translate(1830.708 72.544) rotate(-45)" fill="#6140ff"/>
    <rect id="Rectangle_216" data-name="Rectangle 216" width="23.183" height="88.26" transform="translate(1360.987 1120.495) rotate(-135)" fill="#6140ff"/>
    <rect id="Rectangle_217" data-name="Rectangle 217" width="23.183" height="88.26" transform="translate(1430.617 1018.589) rotate(-135)" fill="#69debc"/>
    <rect id="Rectangle_218" data-name="Rectangle 218" width="23.183" height="70.8" transform="translate(1714.794 976.986) rotate(-135)" fill="#5c3cf3"/>
    <rect id="Rectangle_219" data-name="Rectangle 219" width="23.183" height="134.001" transform="translate(1923.909 874.869) rotate(-135)" fill="#69debc"/>
    <rect id="Rectangle_220" data-name="Rectangle 220" width="29.099" height="29.099" transform="translate(1836.494 817.746) rotate(45)" fill="#5c3cf3"/>
    <path id="Path_2311" data-name="Path 2311" d="M1480.8,1326.664,1607.153,1193H1480.8Z" transform="translate(515.066 -578.353)" fill="#5c3cf3"/>
    <rect id="Rectangle_215" data-name="Rectangle 215" width="9.668" height="9.668" transform="translate(1926.833 341.581) rotate(-45)" fill="#69debc"/>
  </g>
</svg>
