<svg xmlns="http://www.w3.org/2000/svg" width="1099" height="1127.847"><g transform="translate(0 3.5)"><path fill="#9df0fa" d="M549 772.35h204v352H549z"/><path fill="#9df0fa" d="M762 294.35h337v126H762z"/><g transform="translate(16.255 -899.012)"><path fill="none" stroke="#196fbc" stroke-width="7" stroke-miterlimit="10" d="M619.74 982.94H602.3" stroke-linecap="round"/><path fill="none" stroke="#196fbc" stroke-width="7" stroke-miterlimit="10" d="M814.77 1092.4H797.3" stroke-linecap="round"/><path fill="none" stroke="#196fbc" stroke-width="7" stroke-miterlimit="10" d="M605.78 1097.3v17.45" stroke-linecap="round"/><circle cx="8.918" cy="8.918" r="8.918" fill="none" stroke="#196fbc" stroke-width="7" stroke-miterlimit="10" transform="translate(819.055 1002.111)" stroke-linecap="round"/><circle cx="8.918" cy="8.918" r="8.918" fill="none" stroke="#196fbc" stroke-width="7" stroke-miterlimit="10" transform="translate(582.995 1038.719)" stroke-linecap="round"/><circle cx="8.918" cy="8.918" r="8.918" fill="none" stroke="#196fbc" stroke-width="7" stroke-miterlimit="10" transform="translate(891.172 1015.392) rotate(180)" stroke-linecap="round"/><circle cx="8.918" cy="8.918" r="8.918" fill="none" stroke="#196fbc" stroke-width="7" stroke-miterlimit="10" transform="translate(510.581 985.078)" stroke-linecap="round"/><path fill="#a2f4fc" d="M844.78 1155.8l-12.22 12.23a2 2 0 0 1-2.8-2.8l10.83-10.84-10.8-10.8a2 2 0 0 1 2.8-2.82l12.23 12.22a1.95 1.95 0 0 1 .58 1.43 2.1 2.1 0 0 1-.62 1.38zm0 0"/><path fill="#a2f4fc" d="M735.52 1644.55l-12.22 12.22a2 2 0 0 1-2.8-2.8l10.83-10.84-10.8-10.8a2 2 0 0 1 2.82-2.8l12.22 12.2a1.95 1.95 0 0 1 .58 1.44 2.1 2.1 0 0 1-.63 1.38zm0 0"/><g fill="#a2f4fc" transform="translate(772.369 1149.436)"><circle cx="3.656" cy="3.656" r="3.656" transform="translate(34.067)"/><circle cx="3.656" cy="3.656" r="3.656" transform="translate(17.033)"/><circle cx="3.656" cy="3.656" r="3.656"/></g><g fill="#a2f4fc" transform="translate(663.107 1638.175)"><circle cx="3.656" cy="3.656" r="3.656" transform="translate(34.067)"/><circle cx="3.656" cy="3.656" r="3.656" transform="translate(17.033)"/><circle cx="3.656" cy="3.656" r="3.656"/></g><g fill="#a2f4fc" transform="translate(778.243 1638.175)"><circle cx="3.656" cy="3.656" r="3.656" transform="translate(34.067)"/><circle cx="3.656" cy="3.656" r="3.656" transform="translate(17.033)"/><circle cx="3.656" cy="3.656" r="3.656"/></g><g fill="#a2f4fc" transform="translate(861.658 1638.175)"><circle cx="3.656" cy="3.656" r="3.656" transform="translate(34.067)"/><circle cx="3.656" cy="3.656" r="3.656" transform="translate(17.033)"/><circle cx="3.656" cy="3.656" r="3.656"/></g><circle cx="8.517" cy="8.517" r="8.517" fill="#fff" transform="translate(705.573 1016.603)"/><circle cx="8.517" cy="8.517" r="8.517" fill="#fff" transform="translate(736.251 1146.137)"/><circle cx="9.364" cy="9.364" r="9.364" fill="#fff" transform="translate(582.906 1154.654)"/><circle cx="8.918" cy="8.918" r="8.918" fill="none" stroke="#196fbc" stroke-width="7" stroke-miterlimit="10" transform="translate(582.995 1155.5)" stroke-linecap="round"/><path fill="none" stroke="#196fbc" stroke-width="7" d="M591.82 1057.1v98" stroke-linecap="round"/><path fill="none" stroke="#196fbc" stroke-width="7" stroke-miterlimit="10" d="M882.34 997.02v-98" stroke-linecap="round"/><circle cx="8.918" cy="8.918" r="8.918" fill="none" stroke="#196fbc" stroke-width="7" stroke-miterlimit="10" transform="translate(704.86 1016.603)" stroke-linecap="round"/><path fill="none" stroke="#196fbc" stroke-width="7" stroke-miterlimit="10" d="M528.77 994.04H712.4a1.3 1.3 0 0 1 1.3 1.3v20" stroke-linecap="round"/><circle cx="8.918" cy="8.918" r="8.918" fill="none" stroke="#196fbc" stroke-width="7" stroke-miterlimit="10" transform="translate(736.251 1145.78)" stroke-linecap="round"/><path fill="none" stroke="#196fbc" stroke-width="7" stroke-miterlimit="10" d="M745.17 1145.78v-62.2a2.78 2.78 0 0 1 2.76-2.77h77.32a2.78 2.78 0 0 0 2.77-2.75v-58.1" stroke-linecap="round"/><g transform="translate(371.941 1146.079) rotate(180)"><path fill="none" stroke="#196fbc" stroke-width="7" stroke-miterlimit="10" d="M78.52 90.3H61.04" stroke-linecap="round"/><circle cx="8.918" cy="8.918" r="8.918" fill="none" stroke="#196fbc" stroke-width="7" stroke-miterlimit="10" transform="translate(82.804)" stroke-linecap="round"/><path fill="#a2f4fc" d="M108.54 153.7L96.3 165.93a2.02 2.02 0 0 1-2.8 0 2.02 2.02 0 0 1 0-2.8l10.84-10.84-10.8-10.8a2.02 2.02 0 0 1 0-2.8 2.02 2.02 0 0 1 2.82 0l12.22 12.2a1.95 1.95 0 0 1 .58 1.44 2.1 2.1 0 0 1-.62 1.4zm0 0"/><g fill="#a2f4fc" transform="translate(36.118 147.326)"><circle cx="3.656" cy="3.656" r="3.656" transform="translate(34.067)"/><circle cx="3.656" cy="3.656" r="3.656" transform="translate(17.033)"/><circle cx="3.656" cy="3.656" r="3.656"/></g><circle cx="8.517" cy="8.517" r="8.517" fill="#fff" transform="translate(0 144.026)"/><circle cx="8.918" cy="8.918" r="8.918" fill="none" stroke="#196fbc" stroke-width="7" stroke-miterlimit="10" transform="translate(0 143.669)" stroke-linecap="round"/><path fill="none" stroke="#196fbc" stroke-width="7" stroke-miterlimit="10" d="M8.92 143.67v-62.2a2.78 2.78 0 0 1 2.76-2.77H89a2.78 2.78 0 0 0 2.77-2.76v-58.1" stroke-linecap="round"/></g><g transform="translate(379.656 1753.358)"><path fill="none" stroke="#196fbc" stroke-width="7" stroke-miterlimit="10" d="M22.88 58.6v17.43" stroke-linecap="round"/><circle cx="8.918" cy="8.918" r="8.918" fill="none" stroke="#196fbc" stroke-width="7" stroke-miterlimit="10" transform="translate(.089)" stroke-linecap="round"/><circle cx="9.364" cy="9.364" r="9.364" fill="#fff" transform="translate(0 115.934)"/><circle cx="8.918" cy="8.918" r="8.918" fill="none" stroke="#196fbc" stroke-width="7" stroke-miterlimit="10" transform="translate(.089 116.781)" stroke-linecap="round"/><path fill="none" stroke="#196fbc" stroke-width="7" stroke-miterlimit="10" d="M8.92 18.37v98" stroke-linecap="round"/></g><g fill="none" stroke="#196fbc" stroke-width="7" stroke-miterlimit="10" transform="translate(620.965 1724.39) rotate(180)" stroke-linecap="round"><path d="M22.8 36.27V53.7"/><circle cx="8.918" cy="8.918" r="8.918"/><circle cx="8.918" cy="8.918" r="8.918" transform="translate(0 116.781)"/><path d="M8.83 18.37v98"/></g><g fill="none" stroke="#196fbc" stroke-width="7" stroke-miterlimit="10" transform="translate(526.991 1641.453) rotate(-90)" stroke-linecap="round"><path d="M22.8 36.27V53.7"/><circle cx="8.918" cy="8.918" r="8.918"/><path d="M8.83 18.37V55.9"/></g><g transform="translate(629.996 1241.697)"><path fill="none" stroke="#196fbc" stroke-width="7" stroke-miterlimit="10" d="M68.37 135.74h-25.9a3.3 3.3 0 0 0-3.31 3.3v23.6a3.3 3.3 0 0 0 3.3 3.33h25.9a3.3 3.3 0 0 0 3.33-3.32v-23.6a3.3 3.3 0 0 0-3.33-3.3z" stroke-linecap="round"/><path fill="none" stroke="#196fbc" stroke-width="7" stroke-miterlimit="10" d="M63.7 147.45v7.4" stroke-linecap="round"/><path fill="none" stroke="#196fbc" stroke-width="7" stroke-miterlimit="10" d="M174.13 285.74H62.03" stroke-linecap="round"/><path fill="none" stroke="#196fbc" stroke-width="7" stroke-miterlimit="10" d="M311.1 285.74H198.98" stroke-linecap="round"/><circle cx="6.21" cy="6.21" r="6.21" fill="none" stroke="#196fbc" stroke-width="7" stroke-miterlimit="10" transform="translate(216.951 74.939)" stroke-linecap="round"/><path fill="none" stroke="#196fbc" stroke-width="7" stroke-miterlimit="10" d="M262.5 81.33h-21.3" stroke-linecap="round"/><circle cx="2.543" cy="2.543" r="2.543" fill="#385ffc" transform="translate(220.618 157.626)"/><circle cx="2.543" cy="2.543" r="2.543" fill="#385ffc" transform="translate(220.618 145.797)"/><circle cx="2.543" cy="2.543" r="2.543" fill="#385ffc" transform="translate(220.618 133.908)"/><path fill="none" stroke="#196fbc" stroke-width="7" stroke-miterlimit="10" d="M68.8 0h14.77a2.12 2.12 0 0 1 2.13 2.13v27.92a2.12 2.12 0 0 1-2.13 2.13H29.22a2.12 2.12 0 0 1-2.13-2.13v-4.8a2.12 2.12 0 0 0-2.14-2.12H2.13A2.12 2.12 0 0 1 0 21V10.6A2.65 2.65 0 0 1 2.66 7.9h24.37" stroke-linecap="round"/><path fill="none" stroke="#196fbc" stroke-width="7" stroke-miterlimit="10" d="M42 9.58h30.45" stroke-linecap="round"/><path fill="none" stroke="#196fbc" stroke-width="7" stroke-miterlimit="10" d="M42 20.3h30.45" stroke-linecap="round"/><path fill="none" stroke="#196fbc" stroke-width="7" stroke-miterlimit="10" d="M43.24 32.12V42.6a1.97 1.97 0 0 0 1.95 1.94H68a1.97 1.97 0 0 0 1.95-1.95v-9.9" stroke-linecap="round"/><path fill="none" stroke="#196fbc" stroke-width="7" stroke-miterlimit="10" d="M56.54 44.54v54.12" stroke-linecap="round"/><path fill="none" stroke="#196fbc" stroke-width="7" stroke-miterlimit="10" d="M45.66 117.82v-14.67a2.84 2.84 0 0 1 2.84-2.84h15.2a2.84 2.84 0 0 1 2.84 2.85v14.67" stroke-linecap="round"/><path fill="none" stroke="#196fbc" stroke-width="7" stroke-miterlimit="10" d="M34.42 135.8v-14.14a2.7 2.7 0 0 1 2.72-2.72H75.6a2.7 2.7 0 0 1 2.7 2.72v14.14" stroke-linecap="round"/><path fill="none" stroke="#196fbc" stroke-width="7" stroke-miterlimit="10" d="M23.72 135.8h63.64" stroke-linecap="round"/><path fill="none" stroke="#196fbc" stroke-width="7" stroke-miterlimit="10" d="M85.7 7.63h106.47v16.62H85.7" stroke-linecap="round"/><path fill="none" stroke="#196fbc" stroke-width="7" stroke-miterlimit="10" d="M218.02 0H194.6a2.37 2.37 0 0 0-2.37 2.37v26.26A2.37 2.37 0 0 0 194.6 31H218a2.37 2.37 0 0 0 2.36-2.37V2.37A2.37 2.37 0 0 0 218.02 0z" stroke-linecap="round"/><path fill="none" stroke="#196fbc" stroke-width="7" stroke-miterlimit="10" d="M233.87 7.33H222.7a2.3 2.3 0 0 0-2.32 2.3v11.2a2.3 2.3 0 0 0 2.3 2.3h11.2a2.3 2.3 0 0 0 2.3-2.3V9.62a2.4 2.4 0 0 0-2.3-2.3z" stroke-linecap="round"/><circle cx="14.566" cy="14.566" r="14.566" fill="#9df0fa" stroke="#196fbc" stroke-width="7" stroke-miterlimit="10" transform="translate(148.62 .93)" stroke-linecap="round"/><circle cx="2.543" cy="2.543" r="2.543" fill="#196fbc" transform="translate(160.347 12.717)"/><path fill="none" stroke="#196fbc" stroke-width="7" stroke-miterlimit="10" d="M155.02 55.24v-24.9" stroke-linecap="round"/><path fill="none" stroke="#196fbc" stroke-width="7" stroke-miterlimit="10" d="M170.22 55.24v-24.9" stroke-linecap="round"/><path fill="none" stroke="#196fbc" stroke-width="7" stroke-miterlimit="10" d="M186.55 68.8V55.23h-46.8v106.53" stroke-linecap="round"/><path fill="none" stroke="#196fbc" stroke-width="7" stroke-miterlimit="10" d="M157.5 74.4h12.43" stroke-linecap="round"/><path fill="none" stroke="#196fbc" stroke-width="7" stroke-miterlimit="10" d="M155.02 86.24h17.45" stroke-linecap="round"/><path fill="none" stroke="#196fbc" stroke-width="7" stroke-miterlimit="10" d="M157.5 98.06h12.43" stroke-linecap="round"/><path fill="none" stroke="#196fbc" stroke-width="7" stroke-miterlimit="10" d="M157.5 182.05h12.43" stroke-linecap="round"/><path fill="none" stroke="#196fbc" stroke-width="7" stroke-miterlimit="10" d="M155.02 193.88h17.45" stroke-linecap="round"/><path fill="none" stroke="#196fbc" stroke-width="7" stroke-miterlimit="10" d="M157.5 205.7h12.43" stroke-linecap="round"/><path fill="none" stroke="#196fbc" stroke-width="7" stroke-miterlimit="10" d="M168.4 143.13H157.9a1.84 1.84 0 0 1-1.83-1.83v-10.47a1.84 1.84 0 0 1 1.82-1.83h10.47a1.84 1.84 0 0 1 1.82 1.83v10.47a1.84 1.84 0 0 1-1.83 1.83z" stroke-linecap="round"/><path fill="none" stroke="#196fbc" stroke-width="7" stroke-miterlimit="10" d="M186.55 91.32v176.9" stroke-linecap="round"/><path fill="none" stroke="#196fbc" stroke-width="7" stroke-miterlimit="10" d="M225.4 284.02v-11.7a4.1 4.1 0 0 0-4.07-4.1H106.1a4.1 4.1 0 0 0-4.07 4.1V284" stroke-linecap="round"/><path fill="none" stroke="#196fbc" stroke-width="7" stroke-miterlimit="10" d="M87.36 284.02v-48.8a7.4 7.4 0 0 1 2.13-5.2l39.38-39.4a7.4 7.4 0 0 1 5.2-2.12h5.68" stroke-linecap="round"/><path fill="none" stroke="#196fbc" stroke-width="7" stroke-miterlimit="10" d="M238.95 284.02v-48.8a7.4 7.4 0 0 0-2.13-5.2l-39.4-39.4a7.4 7.4 0 0 0-5.2-2.12h-5.67" stroke-linecap="round"/><path fill="none" stroke="#196fbc" stroke-width="7" stroke-miterlimit="10" d="M139.76 180.34v86.77" stroke-linecap="round"/><path fill="none" stroke="#196fbc" stroke-width="7" stroke-miterlimit="10" d="M106.23 226.3l13.25-13.25" stroke-linecap="round"/><path fill="none" stroke="#196fbc" stroke-width="7" stroke-miterlimit="10" d="M207.13 213.05l13.25 13.25" stroke-linecap="round"/><path fill="none" stroke="#196fbc" stroke-width="7" stroke-miterlimit="10" d="M159.52 274.44h9.58" stroke-linecap="round"/></g><g fill="none" stroke="#196fbc" stroke-width="7" stroke-miterlimit="10" transform="translate(213.847 1575.118)" stroke-linecap="round"><path d="M24.67 12.34H137a9.73 9.73 0 0 1 9.74 9.75v78.7"/><circle cx="12.336" cy="12.336" r="12.336" transform="translate(134.403 100.803)"/><circle cx="12.336" cy="12.336" r="12.336"/><path d="M62.74 28.08h38.06"/><path d="M165.77 52.16v23.97"/></g><g transform="translate(729.276 1706.986)"><path fill="none" stroke="#196fbc" stroke-width="7" stroke-miterlimit="10" d="M287.33 0v9.7" stroke-linecap="round"/><path fill="none" stroke="#196fbc" stroke-width="7" stroke-miterlimit="10" d="M86.46 181.4H0" stroke-linecap="round"/><path fill="none" stroke="#196fbc" stroke-width="7" stroke-miterlimit="10" d="M268.4 181.4h-156" stroke-linecap="round"/><circle cx="8.15" cy="8.15" r="8.15" fill="none" stroke="#196fbc" stroke-width="7" stroke-miterlimit="10" transform="translate(212.898 85.221)" stroke-linecap="round"/><path fill="none" stroke="#196fbc" stroke-width="7" stroke-miterlimit="10" d="M265.2 92.83H249.4" stroke-linecap="round"/><circle cx="9.314" cy="9.314" r="9.314" fill="#fff" transform="translate(48.121 116.966)"/><circle cx="9.314" cy="9.314" r="9.314" fill="#fff" transform="translate(125.348 117.354)"/><g fill="none" stroke="#196fbc" stroke-width="7" stroke-miterlimit="10" transform="translate(25.846 14.669)" stroke-linecap="round"><path d="M137.92 24.06V1.56A1.56 1.56 0 0 0 136.37 0H4.67A1.56 1.56 0 0 0 3.1 1.55v72.18a1.56 1.56 0 0 1-1.55 1.56A1.56 1.56 0 0 0 0 76.83V89.5a1.56 1.56 0 0 0 1.55 1.54h.78a1.56 1.56 0 0 1 1.55 1.55v13.03a1.56 1.56 0 0 1-1.55 1.56h-.78A1.56 1.56 0 0 0 0 108.73v31.12a1.56 1.56 0 0 0 1.55 1.55H3.1a1.56 1.56 0 0 1 1.55 1.57v19.32a1.56 1.56 0 0 0 1.55 1.54h17.4a1.56 1.56 0 0 0 1.55-1.55v-13.43"/><path d="M14.67 0v41.3a1.72 1.72 0 0 1-1.7 1.7 1.72 1.72 0 0 0-1.72 1.7v87.17a1.58 1.58 0 0 1-.46 1.16l-.8.78a1.7 1.7 0 0 0-.45 1.17v11.26a1.72 1.72 0 0 0 1.7 1.7h37.18"/><path d="M11.33 132.5h118.83a1.9 1.9 0 0 1 1.86 1.85V146a1.9 1.9 0 0 1-1.86 1.86H60.62"/><path d="M128.53 132.5V43.77a.86.86 0 0 0-.85-.86.86.86 0 0 1-.86-.85V0"/><path d="M58.76 102.53v18.55"/><path d="M71.56 98.57v26.47"/><path d="M84.37 102.53v18.55"/><path d="M11.33 91.28h117.2"/><path d="M3.88 91.12h7.84"/><path d="M3.88 107.26h7.45"/><path d="M2.56 75.3h8.77"/><path d="M130.08 91.12h7.84"/><path d="M130.08 107.26h7.45"/><path d="M128.76 75.3h8.77"/><path d="M137.92 39.82v33.9a1.56 1.56 0 0 0 1.55 1.57 1.56 1.56 0 0 1 1.56 1.54V89.5a1.56 1.56 0 0 1-1.56 1.54h-.77a1.56 1.56 0 0 0-1.55 1.55v13.03a1.56 1.56 0 0 0 1.55 1.55h.77a1.56 1.56 0 0 1 1.56 1.56v31.12a1.56 1.56 0 0 1-1.56 1.55h-1.55a1.56 1.56 0 0 0-1.55 1.56v19.33a1.56 1.56 0 0 1-1.55 1.54h-17.4a1.56 1.56 0 0 1-1.54-1.55v-13.43"/><path d="M138.47 75.3h-8.77"/><path d="M11.72 54.4h75.36"/><path d="M99.73 54.4h28.8"/><path d="M12.73 43H126.9"/><path d="M24.53 43V0"/><path d="M116.27 43V0"/><path d="M24.53 27.16h91.35"/><path d="M52.16 1.4v24.37"/><path d="M70.7 1.4v24.37"/><path d="M89.26 1.4v24.37"/><circle cx="9.081" cy="9.081" r="9.081" transform="translate(22.819 102.529)"/><circle cx="9.081" cy="9.081" r="9.081" transform="translate(99.658 102.529)"/></g></g><g transform="translate(395.908 1863.069) rotate(90)"><path fill="none" stroke="#196fbc" stroke-width="7" stroke-miterlimit="10" d="M78.52 90.3H61.04" stroke-linecap="round"/><circle cx="8.918" cy="8.918" r="8.918" fill="none" stroke="#196fbc" stroke-width="7" stroke-miterlimit="10" transform="translate(82.804)" stroke-linecap="round"/><path fill="#a2f4fc" d="M108.54 153.7L96.3 165.93a2.02 2.02 0 0 1-2.8 0 2.02 2.02 0 0 1 0-2.8l10.84-10.84-10.8-10.8a2.02 2.02 0 0 1 0-2.8 2.02 2.02 0 0 1 2.82 0l12.22 12.2a1.95 1.95 0 0 1 .58 1.44 2.1 2.1 0 0 1-.62 1.4zm0 0"/><g fill="#a2f4fc" transform="translate(36.118 147.326)"><circle cx="3.656" cy="3.656" r="3.656" transform="translate(34.067)"/><circle cx="3.656" cy="3.656" r="3.656" transform="translate(17.033)"/><circle cx="3.656" cy="3.656" r="3.656"/></g><circle cx="8.517" cy="8.517" r="8.517" fill="#fff" transform="translate(0 144.026)"/><circle cx="8.918" cy="8.918" r="8.918" fill="none" stroke="#196fbc" stroke-width="7" stroke-miterlimit="10" transform="translate(0 143.669)" stroke-linecap="round"/><path fill="none" stroke="#196fbc" stroke-width="7" stroke-miterlimit="10" d="M8.92 143.67v-62.2a2.78 2.78 0 0 1 2.76-2.77H89a2.78 2.78 0 0 0 2.77-2.76v-58.1" stroke-linecap="round"/></g></g><path fill="#a0f2fb" d="M0 395.35h618v50H0z"/><circle cx="17.5" cy="17.5" r="17.5" fill="#196fbc" transform="translate(594 949.347)"/><circle cx="11" cy="11" r="11" fill="#a0f2fb" transform="translate(507 216.347)"/><path fill="#196fbc" d="M146 638.35h22v390h-22z"/><circle cx="28" cy="28" r="28" fill="#a0f2fb" transform="translate(37 918.347)"/></g></svg>