<svg id="Component_4_1" data-name="Component 4 – 1" xmlns="http://www.w3.org/2000/svg" width="521.48" height="761.966" viewBox="0 0 521.48 761.966">
  <path id="Path_2173" data-name="Path 2173" d="M1566.6,2134.642c2.389-14.534,10.906-27.583,12.619-42.238.845-7.182.024-14.485,1.038-21.618.917-6.354,3.257-12.367,5.622-18.332,8.662-21.764,18.53-44.186,36.577-58.963,3.836-3.14,9.265-5.94,13.439-3.311a9.509,9.509,0,0,1,3.716,5.478c1.834,6.184-.048,12.805-.048,19.257s3.281,14.072,9.651,14.68c5.019.487,9.217-3.652,12.4-7.62,28.133-35.032,40.221-83.016,75.205-111.061,3.185-2.556,6.78-4.991,10.857-5.137,5.791-.219,10.857,4.479,13,9.884,2.147,5.429,2,11.467,1.786,17.285-.6,15.629-1.52,31.259-2.123,46.912a1160.161,1160.161,0,0,0,2.678,135.235" transform="translate(-1244.631 -1441.813)" fill="#6140ff"/>
  <path id="Path_2175" data-name="Path 2175" d="M1227.825,0c-13.752,2.9-27.722,6.062-39.979,13.024-18.192,10.347-31.7,29.993-31.849,51.051-.12,21.058,14.983,42.092,35.54,45.768,18.651,3.335,37.253-6.938,56.169-6.281,16.962.584,32.645,9.981,44.684,22.056s21.087,26.779,30.69,40.924c4.415,6.5,11.243,13.779,18.651,11.32a13.478,13.478,0,0,0,6.78-5.843c6.538-10.079,4.922-23.688-.338-34.472-5.284-10.785-13.7-19.622-21.063-29.068-11.654-14.972-24.272-42.822-30.5-60.789" transform="translate(-933.096)" fill="#6140ff"/>
  <path id="Path_2176" data-name="Path 2176" d="M2099.059,356.6q-26.962,27.461-53.925,54.946c-15.876,16.165-32.645,34.156-35.13,56.772-.579,5.307-.29,10.906,2.2,15.629,4.174,7.961,13.849,11.71,22.776,11.247,8.9-.463,17.251-4.406,25.165-8.521a379.488,379.488,0,0,0,42.2-25.659" transform="translate(-1580.86 -269.786)" fill="#6140ff"/>
  <path id="Path_2177" data-name="Path 2177" d="M1349.638,794.019a384.561,384.561,0,0,1-48.738,22.543c-23.572,8.959-51.1,15.264-73.01,2.7-14.066-8.058-23.114-22.495-32.717-35.641-9.579-13.146-21.473-26.268-37.349-29.433-16.238-3.213-32.669,4.918-45.625,15.313s-23.983,23.249-38,32.135c-8.493,5.38-17.878,9.154-26.54,14.193-8.686,5.064-16.913,11.734-21.111,20.912s-3.378,21.253,4.029,28.045c7.238,6.622,18.1,6.622,27.843,6.257q20.158-.8,40.341-1.582c6.659-.268,13.68-.438,19.567,2.727,9.1,4.893,12.764,16.92,10.4,27.047s-9.6,18.453-17.734,24.856-17.323,11.3-25.672,17.407c-6.273,4.577-12.45,10.566-13.391,18.332-.8,6.573,2.34,12.9,5.477,18.721,7.094,13.244,16.166,27.485,30.714,30.845,14.838,3.408,29.315-5.891,41.741-14.753,6.563-4.674,13.173-9.373,18.771-15.191,3.812-3.944,7.093-8.375,10.809-12.416,20.774-22.714,52.284-31.794,82.588-36.3,9.8-1.461,19.929-2.532,29.532-.073,14.935,3.8,29,15.946,43.84,11.734" transform="translate(-832.96 -570.046)" fill="#aeffd6"/>
  <path id="Path_2178" data-name="Path 2178" d="M2010.226,340.965a9.553,9.553,0,0,0-1.979,2.532,7.464,7.464,0,0,0-.7,2.7,11.5,11.5,0,0,0,3.764,9.543,11.279,11.279,0,0,0,9.868,2.483,7.369,7.369,0,0,0,3.522-1.777,9.081,9.081,0,0,0,2.268-4.626c.844-3.652.7-7.717-1.279-10.882C2021.566,334.367,2014.762,336.583,2010.226,340.965Z" transform="translate(-1579.152 -254.809)" fill="#6140ff"/>
  <path id="Path_2179" data-name="Path 2179" d="M809.665,1056.345a6.484,6.484,0,0,0-1.375,1.753,5.008,5.008,0,0,0-.483,1.875,8,8,0,0,0,2.606,6.6,7.758,7.758,0,0,0,6.828,1.729,5.191,5.191,0,0,0,2.437-1.242,6.2,6.2,0,0,0,1.568-3.214,10.027,10.027,0,0,0-.893-7.523C817.53,1051.768,812.825,1053.326,809.665,1056.345Z" transform="translate(-668.893 -796.999)" fill="#6140ff"/>
  <path id="Path_2184" data-name="Path 2184" d="M1508.665,2316.945a6.475,6.475,0,0,0-1.375,1.752,5,5,0,0,0-.483,1.875,8,8,0,0,0,2.606,6.6,7.833,7.833,0,0,0,6.828,1.729,5.193,5.193,0,0,0,2.437-1.242,6.2,6.2,0,0,0,1.568-3.213,10.027,10.027,0,0,0-.893-7.523C1516.506,2312.368,1511.8,2313.926,1508.665,2316.945Z" transform="translate(-1199.242 -1750.709)" fill="#6140ff"/>
  <path id="Path_2185" data-name="Path 2185" d="M1944.261,2145.3a2.936,2.936,0,0,0-.676.876,2.5,2.5,0,0,0-.241.925,3.94,3.94,0,0,0,1.3,3.287,3.85,3.85,0,0,0,3.4.852,2.379,2.379,0,0,0,1.206-.609,3.035,3.035,0,0,0,.772-1.607,5.1,5.1,0,0,0-.434-3.773C1948.194,2143.015,1945.83,2143.793,1944.261,2145.3Z" transform="translate(-1530.464 -1621.938)" fill="#6140ff"/>
  <path id="Path_2186" data-name="Path 2186" d="M1810.861,1793.6a2.938,2.938,0,0,0-.676.877,2.5,2.5,0,0,0-.241.925,3.94,3.94,0,0,0,1.3,3.287,3.849,3.849,0,0,0,3.4.852,2.385,2.385,0,0,0,1.207-.609,3.04,3.04,0,0,0,.772-1.607,5.1,5.1,0,0,0-.434-3.773C1814.794,1791.315,1812.454,1792.094,1810.861,1793.6Z" transform="translate(-1429.249 -1355.859)" fill="#6140ff"/>
  <path id="Path_2187" data-name="Path 2187" d="M1010.662,1769.7a2.938,2.938,0,0,0-.676.876,2.5,2.5,0,0,0-.241.925,3.94,3.94,0,0,0,1.3,3.286,3.848,3.848,0,0,0,3.4.852,2.381,2.381,0,0,0,1.206-.609,3.038,3.038,0,0,0,.772-1.607,5.1,5.1,0,0,0-.434-3.773C1014.594,1767.415,1012.23,1768.194,1010.662,1769.7Z" transform="translate(-808.326 -1334.968)" fill="#6140ff"/>
  <path id="Path_2188" data-name="Path 2188" d="M1561.562,2523.6a2.936,2.936,0,0,0-.676.877,2.5,2.5,0,0,0-.241.925,3.939,3.939,0,0,0,1.3,3.287,3.848,3.848,0,0,0,3.4.852,2.381,2.381,0,0,0,1.206-.609,3.037,3.037,0,0,0,.772-1.607,5.1,5.1,0,0,0-.434-3.773C1565.494,2521.315,1563.13,2522.094,1561.562,2523.6Z" transform="translate(-1240.099 -1908.143)" fill="#6140ff"/>
  <path id="Path_2189" data-name="Path 2189" d="M1038.461,1443.347a2.936,2.936,0,0,0-.676.876,2.5,2.5,0,0,0-.241.925,3.939,3.939,0,0,0,1.3,3.286,3.847,3.847,0,0,0,3.4.852,2.38,2.38,0,0,0,1.206-.609,3.038,3.038,0,0,0,.772-1.607,5.1,5.1,0,0,0-.434-3.773C1042.394,1441.034,1040.03,1441.813,1038.461,1443.347Z" transform="translate(-843.21 -1090.858)" fill="#6140ff"/>
  <path id="Path_2190" data-name="Path 2190" d="M2035.462,1578.4a2.944,2.944,0,0,0-.676.876,2.505,2.505,0,0,0-.241.925,3.94,3.94,0,0,0,1.3,3.287,3.848,3.848,0,0,0,3.4.852,2.379,2.379,0,0,0,1.206-.609,3.035,3.035,0,0,0,.772-1.607,5.1,5.1,0,0,0-.434-3.774C2039.394,1576.115,2037.03,1576.894,2035.462,1578.4Z" transform="translate(-1599.659 -1193.049)" fill="#6140ff"/>
  <path id="Path_2191" data-name="Path 2191" d="M1964.361,905.2a2.94,2.94,0,0,0-.676.876,2.5,2.5,0,0,0-.241.925,3.94,3.94,0,0,0,1.3,3.287,3.849,3.849,0,0,0,3.4.852,2.381,2.381,0,0,0,1.206-.609,3.036,3.036,0,0,0,.772-1.607,5.1,5.1,0,0,0-.434-3.774C1968.27,902.915,1965.93,903.694,1964.361,905.2Z" transform="translate(-1545.714 -683.738)" fill="#6140ff"/>
  <path id="Path_2192" data-name="Path 2192" d="M1891.362,877.8a2.936,2.936,0,0,0-.676.876,2.5,2.5,0,0,0-.241.925,3.939,3.939,0,0,0,1.3,3.286,3.848,3.848,0,0,0,3.4.852,2.38,2.38,0,0,0,1.206-.609,3.037,3.037,0,0,0,.772-1.607,5.1,5.1,0,0,0-.434-3.773C1895.294,875.515,1892.93,876.294,1891.362,877.8Z" transform="translate(-1490.327 -663.009)" fill="#6140ff"/>
  <path id="Path_2193" data-name="Path 2193" d="M950.362,1130.2a2.939,2.939,0,0,0-.676.876,2.5,2.5,0,0,0-.241.925,3.94,3.94,0,0,0,1.3,3.286,3.848,3.848,0,0,0,3.4.852,2.383,2.383,0,0,0,1.207-.609,3.039,3.039,0,0,0,.772-1.607,5.1,5.1,0,0,0-.434-3.773C954.294,1127.915,951.93,1128.694,950.362,1130.2Z" transform="translate(-776.366 -853.963)" fill="#6140ff"/>
  <path id="Path_2194" data-name="Path 2194" d="M1289.862,665.978a2.943,2.943,0,0,0-.676.876,2.507,2.507,0,0,0-.241.925,3.939,3.939,0,0,0,1.3,3.286,3.848,3.848,0,0,0,3.4.852,2.382,2.382,0,0,0,1.207-.609,3.039,3.039,0,0,0,.772-1.607,5.1,5.1,0,0,0-.434-3.774C1293.794,663.69,1291.43,664.444,1289.862,665.978Z" transform="translate(-1033.953 -502.746)" fill="#6140ff"/>
  <path id="Path_2195" data-name="Path 2195" d="M1070.161,893.2a2.94,2.94,0,0,0-.675.876,2.5,2.5,0,0,0-.241.925,3.939,3.939,0,0,0,1.3,3.286,3.848,3.848,0,0,0,3.4.852,2.381,2.381,0,0,0,1.206-.609,3.037,3.037,0,0,0,.772-1.607,5.1,5.1,0,0,0-.434-3.773C1074.094,890.915,1071.73,891.694,1070.161,893.2Z" transform="translate(-867.261 -674.66)" fill="#6140ff"/>
  <path id="Path_2196" data-name="Path 2196" d="M1097.862,369.6a2.944,2.944,0,0,0-.676.876,2.507,2.507,0,0,0-.241.925,3.94,3.94,0,0,0,1.3,3.287,3.849,3.849,0,0,0,3.4.852,2.382,2.382,0,0,0,1.207-.609,3.038,3.038,0,0,0,.772-1.607,5.1,5.1,0,0,0-.434-3.773C1101.794,367.315,1099.43,368.094,1097.862,369.6Z" transform="translate(-888.278 -278.529)" fill="#6140ff"/>
  <path id="Path_2197" data-name="Path 2197" d="M2051.162,496.8a2.939,2.939,0,0,0-.676.876,2.489,2.489,0,0,0-.241.925,3.938,3.938,0,0,0,1.3,3.287,3.848,3.848,0,0,0,3.4.852,2.382,2.382,0,0,0,1.207-.609,3.037,3.037,0,0,0,.772-1.607,5.1,5.1,0,0,0-.434-3.773C2055.094,494.515,2052.73,495.294,2051.162,496.8Z" transform="translate(-1611.571 -374.763)" fill="#6140ff"/>
  <path id="Path_2198" data-name="Path 2198" d="M1055.862,2523.6a2.938,2.938,0,0,0-.676.877,2.5,2.5,0,0,0-.241.925,3.94,3.94,0,0,0,1.3,3.287,3.848,3.848,0,0,0,3.4.852,2.381,2.381,0,0,0,1.206-.609,3.038,3.038,0,0,0,.772-1.607,5.1,5.1,0,0,0-.434-3.773C1059.794,2521.315,1057.43,2522.094,1055.862,2523.6Z" transform="translate(-856.412 -1908.143)" fill="#6140ff"/>
  <path id="Path_2199" data-name="Path 2199" d="M1481.961,2634.1a2.942,2.942,0,0,0-.676.876,2.5,2.5,0,0,0-.241.925,3.939,3.939,0,0,0,1.3,3.286,3.848,3.848,0,0,0,3.4.852,2.379,2.379,0,0,0,1.206-.609,3.034,3.034,0,0,0,.772-1.607,5.1,5.1,0,0,0-.434-3.773C1485.87,2631.814,1483.53,2632.593,1481.961,2634.1Z" transform="translate(-1179.705 -1991.741)" fill="#6140ff"/>
  <path id="Path_2200" data-name="Path 2200" d="M1792.265,1676.388a6.486,6.486,0,0,0-1.375,1.753,5,5,0,0,0-.483,1.875,8,8,0,0,0,2.606,6.6,7.758,7.758,0,0,0,6.828,1.729,5.192,5.192,0,0,0,2.437-1.242,6.2,6.2,0,0,0,1.568-3.214,10.027,10.027,0,0,0-.893-7.522C1800.13,1671.787,1795.4,1673.345,1792.265,1676.388Z" transform="translate(-1414.417 -1266.081)" fill="#6140ff"/>
  <path id="Path_2201" data-name="Path 2201" d="M1057.336,1862a8.688,8.688,0,0,0-1.81,2.289,7.13,7.13,0,0,0-.651,2.459,10.427,10.427,0,0,0,3.426,8.642,10.239,10.239,0,0,0,8.951,2.264,6.737,6.737,0,0,0,3.185-1.607,8.137,8.137,0,0,0,2.051-4.211c.748-3.311.627-6.987-1.158-9.884C1067.638,1855.985,1061.462,1858.006,1057.336,1862Z" transform="translate(-893.119 -1443.482)" fill="#6140ff"/>
  <path id="Path_2202" data-name="Path 2202" d="M1755.236,2462.854a8.686,8.686,0,0,0-1.81,2.289,7.131,7.131,0,0,0-.651,2.458,10.427,10.427,0,0,0,3.426,8.643,10.239,10.239,0,0,0,8.951,2.264,6.736,6.736,0,0,0,3.185-1.607,8.135,8.135,0,0,0,2.051-4.211c.748-3.311.627-6.987-1.158-9.884C1765.538,2456.865,1759.362,2458.886,1755.236,2462.854Z" transform="translate(-1385.857 -1860.418)" fill="#fff"/>
  <path id="Path_2203" data-name="Path 2203" d="M1124.936,1402.354a8.687,8.687,0,0,0-1.81,2.288,7.136,7.136,0,0,0-.651,2.459,10.427,10.427,0,0,0,3.426,8.642,10.238,10.238,0,0,0,8.951,2.264,6.734,6.734,0,0,0,3.185-1.607,8.14,8.14,0,0,0,2.051-4.212c.748-3.311.627-6.987-1.158-9.884C1135.238,1396.365,1129.037,1398.386,1124.936,1402.354Z" transform="translate(-907.631 -1058.094)" fill="#6140ff"/>
  <path id="Path_2204" data-name="Path 2204" d="M1356.152,566.347c1.11-4.26,1.351-8.789,3.04-12.878a19.156,19.156,0,0,1,8.469-9.494c1.689-.949,3.692-1.631,5.549-1.047,2.751.852,4.029,3.968,4.874,6.768.989,3.189,1.834,6.914-.048,9.665-1.086,1.583-2.92,2.532-4.054,4.09-1.834,2.508-1.52,5.94-2.461,8.91-1.978,6.232-9.193,9.2-15.659,9.4C1343.823,582.1,1354.825,571.435,1356.152,566.347Z" transform="translate(-1080.508 -410.589)" fill="#6140ff"/>
  <path id="Path_2206" data-name="Path 2206" d="M890.5,2533.29a366.037,366.037,0,0,1,125.511-89.711c4.488-1.948,10.52-3.457,13.608.365a8.775,8.775,0,0,1,1.689,4.771c.893,8.886-4.922,16.9-10.423,23.906q-13.644,17.419-27.312,34.862c-8.421,10.76-16.938,21.594-27.288,30.456-9.8,8.4-21.112,14.923-32.838,20.23" transform="translate(-731.657 -1847.18)" fill="#aeffd6"/>
  <path id="Path_2207" data-name="Path 2207" d="M2005.672,1638.854a81.119,81.119,0,0,1-53.925,2.97c-7.431-2.191-14.863-5.5-22.559-4.65-12.86,1.436-21.859,14.388-24.079,27.242-.748,4.382-.893,9.1,1.158,13.073s6.8,6.719,10.954,5.258c4.15-1.485,7.7-6.719,11.7-4.869a5.41,5.41,0,0,1,2.8,4.188c.82,5.453-3.812,9.981-7.648,13.949a71.444,71.444,0,0,0-9.434,12.124c-2.485,3.992-4.608,8.4-4.729,13.1s2.244,9.738,6.563,11.491a12.727,12.727,0,0,0,7.142.438c9.289-1.777,16.286-9.47,21.667-17.309s10.085-16.53,17.685-22.2c4.609-3.457,10.037-5.575,15.393-7.668l35.467-13.876" transform="translate(-1501.082 -1238.504)" fill="#6140ff"/>
  <path id="Path_2212" data-name="Path 2212" d="M1445.569,1069.595c-2.365-15.7-12.546-31.161-27.771-35.178-4.222-1.12-9.12-1.558-11.9-4.966-3.474-4.212-1.424-11.223,3.113-14.242s10.544-2.8,15.731-1.169c12.329,3.9,21.473,14.948,26.034,27.144s5.115,25.513,4.922,38.562c-.1,6.89-3.281,55.263-15.562,49.4-7.359-3.506,1.327-19.841,2.63-25.051C1445.569,1092.868,1447.33,1081.158,1445.569,1069.595Z" transform="translate(-1121.38 -766.282)" fill="#fff"/>
  <path id="Path_2213" data-name="Path 2213" d="M1410.925,1579.965c-4.633,3.238-6.225,10.493-2.775,15.021s11.509,4.431,14.308-.511c1.448-2.556,1.4-5.672,1.3-8.618a5.3,5.3,0,0,0-.651-2.946,4.874,4.874,0,0,0-2.1-1.509,18.753,18.753,0,0,0-12.04-.925" transform="translate(-1123 -1195.268)" fill="#fff"/>
  <path id="Path_2215" data-name="Path 2215" d="M1866.173,1219.566c.073-4.041.772-8.3,3.45-11.32,4.56-5.137,13.56-4.139,18.216.925C1907.455,1230.667,1865.473,1260.514,1866.173,1219.566Z" transform="translate(-1471.918 -911.53)" fill="#fff"/>
  <path id="Path_2216" data-name="Path 2216" d="M1603.573,169.365c.072-4.041.772-8.3,3.45-11.32,4.56-5.137,13.56-4.139,18.216.925C1644.855,180.442,1602.873,210.289,1603.573,169.365Z" transform="translate(-1272.676 -117)" fill="#fff"/>
  <path id="Path_2217" data-name="Path 2217" d="M1982.706,1163.81c-.627,3.165-1.737,6.4-.99,9.543,2.751,1.8,6.635.536,8.758-2s2.823-5.916,3.233-9.2c1.013-8.083.579-16.506-2.678-23.955-2.316-5.283-19.809-23.809-19.181-8.01.217,5.4,6.032,9.543,8.252,14.266A31.36,31.36,0,0,1,1982.706,1163.81Z" transform="translate(-1552.09 -850.321)" fill="#fff"/>
  <path id="Path_2218" data-name="Path 2218" d="M1778.809,1314.389c2.509,4.333,6.153,7.839,9.723,11.3,1.713,1.656,3.836,3.433,6.153,2.995,2.606-.487,3.933-3.579,3.908-6.257-.048-7.06-5.959-12.684-7.576-19.549-1.11-4.7-.386-10.347-3.86-13.633a7.141,7.141,0,0,0-7.89-1.193C1771.281,1292.016,1775.455,1308.644,1778.809,1314.389Z" transform="translate(-1402.505 -973.951)" fill="#fff"/>
  <path id="Path_2219" data-name="Path 2219" d="M2216.344,603.1a124.587,124.587,0,0,0-23.115,23.176c-2.219,2.9-4.415,6.281-4.053,9.933.482,4.674,5.308,8.009,9.965,8.082s9.024-2.386,12.643-5.356,6.756-6.524,10.544-9.275" transform="translate(-1716.965 -456.276)" fill="#fff"/>
  <path id="Path_2220" data-name="Path 2220" d="M2026.5,2602.389c8.517-4.139,18.168-5.015,27.6-5.843,4.391-.39,9.241-.657,12.763,2.069,5.236,4.066,4.488,12,4.416,18.673-.072,6.792,1.11,13.8-1.037,20.231-3.74,11.223-16.19,16.919-27.771,18.843-11.1,1.85-47.773,4.041-47.386-12.635C1995.4,2629.119,2014.392,2608.28,2026.5,2602.389Z" transform="translate(-1569.735 -1964.238)" fill="#fff"/>
  <path id="Path_2221" data-name="Path 2221" d="M1367.462,2523.6a2.936,2.936,0,0,0-.676.877,2.5,2.5,0,0,0-.241.925,3.939,3.939,0,0,0,1.3,3.287,3.848,3.848,0,0,0,3.4.852,2.38,2.38,0,0,0,1.206-.609,3.037,3.037,0,0,0,.772-1.607,5.1,5.1,0,0,0-.434-3.773C1371.37,2521.315,1369.03,2522.094,1367.462,2523.6Z" transform="translate(-1092.831 -1908.143)" fill="#fff"/>
  <path id="Path_2225" data-name="Path 2225" d="M1245.562,2641.878a2.941,2.941,0,0,0-.676.876,2.5,2.5,0,0,0-.241.925,3.94,3.94,0,0,0,1.3,3.287,3.849,3.849,0,0,0,3.4.852,2.384,2.384,0,0,0,1.206-.608,3.042,3.042,0,0,0,.772-1.607,5.1,5.1,0,0,0-.434-3.773C1249.494,2639.59,1247.13,2640.344,1245.562,2641.878Z" transform="translate(-1000.342 -1997.617)" fill="#fff"/>
  <path id="Path_2226" data-name="Path 2226" d="M1097.862,2672.7a2.936,2.936,0,0,0-.676.876,2.51,2.51,0,0,0-.241.925,3.939,3.939,0,0,0,1.3,3.286,3.849,3.849,0,0,0,3.4.852,2.379,2.379,0,0,0,1.207-.609,3.037,3.037,0,0,0,.772-1.606,5.1,5.1,0,0,0-.434-3.774C1101.794,2670.415,1099.43,2671.194,1097.862,2672.7Z" transform="translate(-888.278 -2020.944)" fill="#fff"/>
  <path id="Path_2227" data-name="Path 2227" d="M1259.861,1130.2a2.941,2.941,0,0,0-.676.876,2.508,2.508,0,0,0-.241.925,3.939,3.939,0,0,0,1.3,3.286,3.849,3.849,0,0,0,3.4.852,2.383,2.383,0,0,0,1.207-.609,3.039,3.039,0,0,0,.772-1.607,5.1,5.1,0,0,0-.434-3.773C1263.794,1127.915,1261.43,1128.694,1259.861,1130.2Z" transform="translate(-1011.192 -853.963)" fill="#fff"/>
  <path id="Path_2228" data-name="Path 2228" d="M1604.562,974.578a2.942,2.942,0,0,0-.676.876,2.5,2.5,0,0,0-.241.925,3.939,3.939,0,0,0,1.3,3.286,3.848,3.848,0,0,0,3.4.852,2.383,2.383,0,0,0,1.206-.609,3.037,3.037,0,0,0,.772-1.607,5.1,5.1,0,0,0-.434-3.773C1608.494,972.29,1606.13,973.044,1604.562,974.578Z" transform="translate(-1272.724 -736.218)" fill="#fff"/>
  <path id="Path_2229" data-name="Path 2229" d="M2035.462,1775.6a2.947,2.947,0,0,0-.676.876,2.505,2.505,0,0,0-.241.925,3.94,3.94,0,0,0,1.3,3.287,3.848,3.848,0,0,0,3.4.852,2.381,2.381,0,0,0,1.206-.609,3.036,3.036,0,0,0,.772-1.607,5.1,5.1,0,0,0-.434-3.773C2039.394,1773.315,2037.03,1774.094,2035.462,1775.6Z" transform="translate(-1599.659 -1342.241)" fill="#fff"/>
  <path id="Path_2230" data-name="Path 2230" d="M2004.862,1690.3a2.936,2.936,0,0,0-.676.876,2.5,2.5,0,0,0-.241.925,3.939,3.939,0,0,0,1.3,3.286,3.848,3.848,0,0,0,3.4.852,2.381,2.381,0,0,0,1.207-.609,3.038,3.038,0,0,0,.772-1.607,5.1,5.1,0,0,0-.434-3.773C2008.794,1688.015,2006.43,1688.794,2004.862,1690.3Z" transform="translate(-1576.442 -1277.708)" fill="#fff"/>
  <path id="Path_2231" data-name="Path 2231" d="M2154.362,1764.6a2.937,2.937,0,0,0-.676.876,2.494,2.494,0,0,0-.241.925,3.94,3.94,0,0,0,1.3,3.287,3.848,3.848,0,0,0,3.4.852,2.381,2.381,0,0,0,1.206-.609,3.039,3.039,0,0,0,.772-1.607,5.1,5.1,0,0,0-.434-3.773C2158.294,1762.315,2155.954,1763.094,2154.362,1764.6Z" transform="translate(-1689.872 -1333.92)" fill="#fff"/>
  <path id="Path_2232" data-name="Path 2232" d="M2105.462,2296.4a2.943,2.943,0,0,0-.676.876,2.5,2.5,0,0,0-.241.925,3.939,3.939,0,0,0,1.3,3.287,3.848,3.848,0,0,0,3.4.852,2.383,2.383,0,0,0,1.207-.608,3.041,3.041,0,0,0,.772-1.607,5.1,5.1,0,0,0-.434-3.773C2109.37,2294.115,2107.03,2294.894,2105.462,2296.4Z" transform="translate(-1652.77 -1736.254)" fill="#fff"/>
  <path id="Path_2233" data-name="Path 2233" d="M2019.161,2453.9a2.948,2.948,0,0,0-.676.876,2.5,2.5,0,0,0-.241.925,3.94,3.94,0,0,0,1.3,3.287,3.848,3.848,0,0,0,3.4.852,2.387,2.387,0,0,0,1.207-.609,3.036,3.036,0,0,0,.772-1.607,5.1,5.1,0,0,0-.434-3.773C2023.094,2451.615,2020.73,2452.394,2019.161,2453.9Z" transform="translate(-1587.292 -1855.41)" fill="#fff"/>
  <path id="Path_2234" data-name="Path 2234" d="M2188.262,2160.147a2.933,2.933,0,0,0-.676.876,2.5,2.5,0,0,0-.241.925,3.938,3.938,0,0,0,1.3,3.287,3.847,3.847,0,0,0,3.4.852,2.383,2.383,0,0,0,1.207-.609,3.041,3.041,0,0,0,.772-1.607,5.1,5.1,0,0,0-.434-3.773C2192.194,2157.834,2189.83,2158.613,2188.262,2160.147Z" transform="translate(-1715.592 -1633.155)" fill="#fff"/>
  <path id="Path_2235" data-name="Path 2235" d="M1327.961,1635a2.94,2.94,0,0,0-.675.876,2.5,2.5,0,0,0-.241.925,3.94,3.94,0,0,0,1.3,3.287,3.848,3.848,0,0,0,3.4.852,2.382,2.382,0,0,0,1.206-.608,3.039,3.039,0,0,0,.772-1.607,5.1,5.1,0,0,0-.434-3.773C1331.894,1632.715,1329.53,1633.494,1327.961,1635Z" transform="translate(-1062.861 -1235.87)" fill="#fff"/>
  <path id="Path_2236" data-name="Path 2236" d="M2140.062,1267.5a2.937,2.937,0,0,0-.676.876,2.5,2.5,0,0,0-.241.925,3.939,3.939,0,0,0,1.3,3.286,3.849,3.849,0,0,0,3.4.852,2.379,2.379,0,0,0,1.206-.609,3.039,3.039,0,0,0,.772-1.607,5.1,5.1,0,0,0-.434-3.773C2143.994,1265.215,2141.654,1265.994,2140.062,1267.5Z" transform="translate(-1679.022 -957.837)" fill="#fff"/>
  <path id="Path_2237" data-name="Path 2237" d="M1303.062,307.9a2.939,2.939,0,0,0-.676.876,2.5,2.5,0,0,0-.241.925,3.939,3.939,0,0,0,1.3,3.287,3.848,3.848,0,0,0,3.4.852,2.381,2.381,0,0,0,1.206-.609,3.036,3.036,0,0,0,.772-1.607,5.1,5.1,0,0,0-.434-3.773C1306.994,305.615,1304.63,306.394,1303.062,307.9Z" transform="translate(-1043.969 -231.85)" fill="#fff"/>
  <path id="Path_2238" data-name="Path 2238" d="M1777.062,1161.1a2.939,2.939,0,0,0-.676.876,2.5,2.5,0,0,0-.241.925,3.94,3.94,0,0,0,1.3,3.286,3.848,3.848,0,0,0,3.4.852,2.38,2.38,0,0,0,1.206-.609,3.037,3.037,0,0,0,.772-1.607,5.1,5.1,0,0,0-.434-3.773C1780.994,1158.815,1778.63,1159.594,1777.062,1161.1Z" transform="translate(-1403.605 -877.34)" fill="#fff"/>
  <path id="Path_2239" data-name="Path 2239" d="M2091.162,848.4a2.939,2.939,0,0,0-.675.876,2.494,2.494,0,0,0-.241.925,3.939,3.939,0,0,0,1.3,3.286,3.848,3.848,0,0,0,3.4.852,2.385,2.385,0,0,0,1.207-.609,3.041,3.041,0,0,0,.772-1.607,5.1,5.1,0,0,0-.435-3.773C2095.07,846.115,2092.73,846.894,2091.162,848.4Z" transform="translate(-1641.921 -640.767)" fill="#fff"/>
  <path id="Path_2240" data-name="Path 2240" d="M1715.861,439.9a2.947,2.947,0,0,0-.676.876,2.5,2.5,0,0,0-.241.925,3.939,3.939,0,0,0,1.3,3.286,3.848,3.848,0,0,0,3.4.852,2.382,2.382,0,0,0,1.207-.609,3.037,3.037,0,0,0,.772-1.607,5.1,5.1,0,0,0-.434-3.773C1719.794,437.615,1717.43,438.394,1715.861,439.9Z" transform="translate(-1357.171 -331.715)" fill="#fff"/>
  <path id="Path_2241" data-name="Path 2241" d="M1825.261,536.4a2.942,2.942,0,0,0-.676.876,2.5,2.5,0,0,0-.241.925,3.939,3.939,0,0,0,1.3,3.286,3.849,3.849,0,0,0,3.4.852,2.382,2.382,0,0,0,1.207-.609,3.038,3.038,0,0,0,.772-1.607,5.1,5.1,0,0,0-.434-3.773C1829.17,534.115,1826.83,534.894,1825.261,536.4Z" transform="translate(-1440.175 -404.722)" fill="#fff"/>
  <path id="Path_2242" data-name="Path 2242" d="M1443.661,331.6a2.941,2.941,0,0,0-.676.876,2.5,2.5,0,0,0-.241.925,3.939,3.939,0,0,0,1.3,3.287,3.849,3.849,0,0,0,3.4.852,2.381,2.381,0,0,0,1.206-.609,3.037,3.037,0,0,0,.772-1.607,5.1,5.1,0,0,0-.434-3.773C1447.57,329.315,1445.23,330.094,1443.661,331.6Z" transform="translate(-1150.645 -249.78)" fill="#fff"/>
  <path id="Path_2244" data-name="Path 2244" d="M1327.961,2566.9a2.94,2.94,0,0,0-.675.876,2.505,2.505,0,0,0-.241.925,3.94,3.94,0,0,0,1.3,3.287,3.849,3.849,0,0,0,3.4.852,2.382,2.382,0,0,0,1.206-.609,3.038,3.038,0,0,0,.772-1.607,5.1,5.1,0,0,0-.434-3.774C1331.894,2564.615,1329.53,2565.394,1327.961,2566.9Z" transform="translate(-1062.861 -1940.9)" fill="#fff"/>
  <path id="Path_2245" data-name="Path 2245" d="M1304.161,2517.2a2.94,2.94,0,0,0-.676.876,2.5,2.5,0,0,0-.241.925,3.939,3.939,0,0,0,1.3,3.286,3.849,3.849,0,0,0,3.4.852,2.38,2.38,0,0,0,1.206-.609,3.036,3.036,0,0,0,.772-1.607,5.1,5.1,0,0,0-.434-3.773C1308.094,2514.915,1305.73,2515.693,1304.161,2517.2Z" transform="translate(-1044.803 -1903.3)" fill="#fff"/>
  <path id="Path_2246" data-name="Path 2246" d="M49.359,33.752c11.37-4.41,22.611-9.6,33.8-14.481a292.569,292.569,0,0,1,56.231-18.2c6.176-1.314,13.05-2.252,18.218,2,5.556,4.566,7.236,13.855,5.969,21.862s-4.91,15.044-8.166,22.175c-5.53,12.1-10.181,25.052-11.5,38.782s1.034,28.4,8.243,39.126c8.915,13.261,23.981,18.609,38.09,17.89s27.65-6.693,40.907-12.6Q277.9,109.518,324.62,88.7c9.639-4.285,20.6-8.538,29.821-3.034,8.347,4.973,15.479,17.921,19.1,27.961a32.622,32.622,0,0,1,2.2,13.73c-.7,7.725-5.323,14.137-10.492,18.766-30.725,27.46-67.032,46.82-101.5,66.18-32.534,18.265-66.516,35.279-95.9,60.456a170.493,170.493,0,0,0-50.158,72.654C110.525,365.4,99.568,382.6,84.167,394.144,70.032,404.716,51.478,409.5,35.353,403.4c-10.078-3.784-17.96-16.7-22.74-27.554C7.134,363.369,4.834,349.2,4.033,335.1c-.853-15.263.233-31.464,7.391-44.068,9.019-15.919,26.487-24.02,32.25-42,5.246-16.42-1.318-34.591-7.752-50.354C22.639,166.3,9.227,133.616,2.328,98.493c-2.687-13.7-4.16-29.087,1.964-41.065,6-11.791,15.091-14.262,25.428-17.077A202.633,202.633,0,0,0,49.359,33.752Z" transform="translate(-0.003 355.876)" fill="#6140ff"/>
  <path id="Path_2209" data-name="Path 2209" d="M1287.044,2017.6a18.679,18.679,0,0,1,6.635-1.607c2.292.024,4.729,1.1,5.718,3.189,1.641,3.481-1.327,7.328-4.2,9.86a95.327,95.327,0,0,1-40.944,21.107c-3.716.876-7.769,1.485-11.243-.073-14.332-6.451,4.512-15.776,9.748-18.283C1263.882,2026.394,1275.487,2021.987,1287.044,2017.6Z" transform="translate(-995.114 -1525.207)" fill="#fff"/>
  <path id="Path_2255" data-name="Path 2255" d="M1316.664,2018.57c3.437-1.286,6.952-2.611,10.621-2.572s7.57,1.753,9.153,5.1c2.626,5.573-2.124,11.73-6.72,15.783a152.593,152.593,0,0,1-65.54,33.786c-5.948,1.4-12.436,2.377-18-.117-22.941-10.327,7.222-25.252,15.6-29.266C1279.588,2032.638,1298.164,2025.585,1316.664,2018.57Z" transform="translate(-1197.661 -1721.769)" fill="#6140ff"/>
  <path id="Path_2210" data-name="Path 2210" d="M1015.867,2184.457c-.072-3.359.169-7.254,2.847-9.251s6.731-.974,9.1,1.412,3.4,5.77,4.222,9.032c1.617,6.354,3.161,22.494-7.455,21.618C1014.709,2206.465,1015.988,2190.981,1015.867,2184.457Z" transform="translate(-826.768 -1644.854)" fill="#fff"/>
  <path id="Path_2252" data-name="Path 2252" d="M.007,7.952C-.044,5.362.136,2.359,2.112.819S7.077.064,8.819,1.9s2.505,4.446,3.108,6.96c1.188,4.9,2.317,17.338-5.511,16.668C-.86,24.917.092,12.981.007,7.952Z" transform="matrix(0.035, 0.999, -0.999, 0.035, 59.524, 629.275)" fill="#fff"/>
  <path id="Path_2211" data-name="Path 2211" d="M763.831,2114.233c-1.3,2.775-2.8,5.575-3.185,8.618-.386,3.067.6,6.524,3.233,8.082a7.572,7.572,0,0,0,7.552-.438,18.637,18.637,0,0,0,5.453-5.721,70.438,70.438,0,0,0,11.292-49.469c-2.027-13.657-15.393-15.727-17.01-1.144C769.574,2088.428,770.177,2100.7,763.831,2114.233Z" transform="translate(-633.073 -1561.606)" fill="#fff"/>
  <path id="Path_2222" data-name="Path 2222" d="M688.462,2517.2a2.941,2.941,0,0,0-.676.876,2.5,2.5,0,0,0-.241.925,3.939,3.939,0,0,0,1.3,3.286,3.849,3.849,0,0,0,3.4.852,2.38,2.38,0,0,0,1.206-.609,3.035,3.035,0,0,0,.772-1.607,5.1,5.1,0,0,0-.434-3.773C692.394,2514.915,690.03,2515.693,688.462,2517.2Z" transform="translate(-577.656 -1903.3)" fill="#fff"/>
  <path id="Path_2224" data-name="Path 2224" d="M1169.161,2089.3a2.935,2.935,0,0,0-.676.876,2.5,2.5,0,0,0-.241.925,3.939,3.939,0,0,0,1.3,3.286,3.848,3.848,0,0,0,3.4.852,2.38,2.38,0,0,0,1.206-.609,3.038,3.038,0,0,0,.772-1.607,5.1,5.1,0,0,0-.434-3.773C1173.094,2087.015,1170.73,2087.794,1169.161,2089.3Z" transform="translate(-942.375 -1579.572)" fill="#fff"/>
  <path id="Path_2243" data-name="Path 2243" d="M794.461,1953.1a2.939,2.939,0,0,0-.676.876,2.5,2.5,0,0,0-.241.925,3.94,3.94,0,0,0,1.3,3.287,3.849,3.849,0,0,0,3.4.852,2.383,2.383,0,0,0,1.206-.609,3.038,3.038,0,0,0,.772-1.607,5.1,5.1,0,0,0-.434-3.773C798.394,1950.815,796.03,1951.594,794.461,1953.1Z" transform="translate(-668.424 -1471.471)" fill="#fff"/>
  <path id="Path_2223" data-name="Path 2223" d="M1567.562,2073.9a2.946,2.946,0,0,0-.676.877,2.506,2.506,0,0,0-.241.925,3.939,3.939,0,0,0,1.3,3.286,3.848,3.848,0,0,0,3.4.852,2.383,2.383,0,0,0,1.206-.608,3.039,3.039,0,0,0,.772-1.607,5.1,5.1,0,0,0-.434-3.773C1571.494,2071.615,1569.13,2072.394,1567.562,2073.9Z" transform="translate(-1244.651 -1567.921)" fill="#fff"/>
  <path id="Path_2247" data-name="Path 2247" d="M1057.336,1862a8.688,8.688,0,0,0-1.81,2.289,7.13,7.13,0,0,0-.651,2.459,10.427,10.427,0,0,0,3.426,8.642,10.239,10.239,0,0,0,8.951,2.264,6.737,6.737,0,0,0,3.185-1.607,8.137,8.137,0,0,0,2.051-4.211c.748-3.311.627-6.987-1.158-9.884C1067.638,1855.985,1061.462,1858.006,1057.336,1862Z" transform="translate(-974.144 -1445.729)" fill="#2de8f5"/>
  <path id="Path_2251" data-name="Path 2251" d="M1056.548,1860.8a5.945,5.945,0,0,0-1.24,1.568,4.882,4.882,0,0,0-.447,1.684,7.144,7.144,0,0,0,2.347,5.921,7.016,7.016,0,0,0,6.133,1.551,4.617,4.617,0,0,0,2.182-1.1,5.575,5.575,0,0,0,1.4-2.885,9.147,9.147,0,0,0-.794-6.772C1063.607,1856.683,1059.375,1858.067,1056.548,1860.8Z" transform="translate(-995.98 -1377.139)" fill="#fff"/>
  <path id="Path_2253" data-name="Path 2253" d="M1055.558,1859.3a2.518,2.518,0,0,0-.523.662,2.062,2.062,0,0,0-.188.711,3.015,3.015,0,0,0,.991,2.5,2.96,2.96,0,0,0,2.588.655,1.946,1.946,0,0,0,.921-.465,2.352,2.352,0,0,0,.593-1.218,3.861,3.861,0,0,0-.335-2.858C1058.537,1857.56,1056.751,1858.144,1055.558,1859.3Z" transform="translate(-992.532 -1430.599)" fill="#fff"/>
  <path id="Path_2250" data-name="Path 2250" d="M1055.6,1859.36a2.648,2.648,0,0,0-.552.7,2.175,2.175,0,0,0-.2.75,3.183,3.183,0,0,0,1.046,2.638,3.126,3.126,0,0,0,2.732.691,2.056,2.056,0,0,0,.972-.49,2.485,2.485,0,0,0,.626-1.286,4.076,4.076,0,0,0-.354-3.017C1058.743,1857.524,1056.858,1858.141,1055.6,1859.36Z" transform="translate(-945.488 -1461.266)" fill="#2de8f5"/>
  <path id="Path_2256" data-name="Path 2256" d="M123.711,204.826c23.372-13.145,47.57-25.484,72.051-35.45,7.043-3.431,15.091-8.225,15.427-15.9.387-8.7-8.719-16.552-14.472-22.128-29.1-28.234-32.891-72.565-52.5-107.763-2.373-4.239-5-8.427-8.616-11.707-5.366-4.895-12.46-7.519-19.58-9.235C81.611-5.6,43.9,6,17.634,29.241c-5.366,4.743-10.37,10.042-13.569,16.4-9.106,18.116-1.522,39.916,8.59,57.5S35.692,137.887,37.6,157.971c1.961,20.614-8.023,40.244-13.337,60.278-2.167,8.15-3.508,17.006-.258,24.8,5.572,13.448,18.832,12.944,28.918,5.576,13.621-9.941,28.248-18.8,42.72-27.477C104.854,215.65,114.218,210.175,123.711,204.826Z" transform="translate(28.731 20.75)" fill="#6140ff"/>
  <path id="Path_2180" data-name="Path 2180" d="M751.925,581.753a5.218,5.218,0,0,0-.965,1.217,4.061,4.061,0,0,0-.338,1.315,5.461,5.461,0,0,0,1.834,4.6,5.567,5.567,0,0,0,4.777,1.217,3.6,3.6,0,0,0,1.689-.852,4.248,4.248,0,0,0,1.086-2.24,6.965,6.965,0,0,0-.627-5.258C757.4,578.564,754.12,579.635,751.925,581.753Z" transform="translate(-647.92 -434.109)" fill="#fff"/>
  <path id="Path_2181" data-name="Path 2181" d="M846.325,624.853a5.216,5.216,0,0,0-.965,1.217,4.061,4.061,0,0,0-.338,1.315,5.461,5.461,0,0,0,1.834,4.6,5.568,5.568,0,0,0,4.777,1.217,3.605,3.605,0,0,0,1.689-.852,4.248,4.248,0,0,0,1.086-2.24,6.965,6.965,0,0,0-.627-5.258C851.826,621.664,848.52,622.735,846.325,624.853Z" transform="translate(-668.4 -471.775)" fill="#fff"/>
  <path id="Path_2182" data-name="Path 2182" d="M751.925,706.953a5.219,5.219,0,0,0-.965,1.217,4.059,4.059,0,0,0-.338,1.315,5.461,5.461,0,0,0,1.834,4.6,5.568,5.568,0,0,0,4.777,1.217,3.6,3.6,0,0,0,1.689-.852,4.248,4.248,0,0,0,1.086-2.24,6.966,6.966,0,0,0-.627-5.259C757.4,703.764,754.12,704.835,751.925,706.953Z" transform="translate(-630.106 -512.53)" fill="#81efea"/>
  <path id="Path_2183" data-name="Path 2183" d="M846.325,728.523a5.214,5.214,0,0,0-.965,1.217,4.061,4.061,0,0,0-.338,1.315,5.461,5.461,0,0,0,1.834,4.6,5.567,5.567,0,0,0,4.777,1.217,3.6,3.6,0,0,0,1.689-.852,4.248,4.248,0,0,0,1.086-2.24,6.965,6.965,0,0,0-.627-5.258C851.826,725.309,848.52,726.4,846.325,728.523Z" transform="translate(-701.73 -564.813)" fill="#fff"/>
  <path id="Path_2214" data-name="Path 2214" d="M704.34,401.571c16.045,15.118,23.5,37.053,34.671,56.139a4.942,4.942,0,0,0,2.123,2.264c1.351.511,2.8-.268,4.005-1.022,3.064-1.9,6.37-4.066,7.479-7.5.893-2.751.169-5.721-.651-8.5-6.466-21.4-20.894-39.974-39.279-52.341a95.7,95.7,0,0,0-29.846-13.487c-3.4-.876-14.09-4.455-17.034-1.7-3.209,2.994-.82,6.646,2.292,8.667,4.97,3.214,13.729,3.335,19.4,6.037A64.736,64.736,0,0,1,704.34,401.571Z" transform="translate(-583.582 -341.708)" fill="#fff"/>
  <path id="Path_2248" data-name="Path 2248" d="M1056.873,1861.3a7.078,7.078,0,0,0-1.475,1.865,5.81,5.81,0,0,0-.531,2,8.5,8.5,0,0,0,2.792,7.044,8.345,8.345,0,0,0,7.3,1.845,5.491,5.491,0,0,0,2.6-1.31,6.633,6.633,0,0,0,1.671-3.433,10.883,10.883,0,0,0-.944-8.056C1065.27,1856.395,1060.236,1858.042,1056.873,1861.3Z" transform="translate(-1010.921 -1769.195)" fill="#81efea"/>
  <path id="Path_2249" data-name="Path 2249" d="M39.2,27.8C54.9,43.272,62.21,65.7,73.152,85.226a4.979,4.979,0,0,0,2.078,2.316c1.322.524,2.737-.272,3.917-1.042,3-1.939,6.227-4.152,7.31-7.66.871-2.812.161-5.849-.644-8.687a100.369,100.369,0,0,0-38.46-53.543A91.869,91.869,0,0,0,18.15,2.8C14.822,1.9,4.365-1.769,1.488,1.042-1.648,4.1.691,7.836,3.737,9.9c4.864,3.289,13.43,3.42,18.978,6.187A63.4,63.4,0,0,1,39.2,27.8Z" transform="matrix(-0.035, 0.999, -0.999, -0.035, 106.061, 89.894)" fill="#81efea"/>
</svg>
