<svg id="Component_15_1" data-name="Component 15 – 1" xmlns="http://www.w3.org/2000/svg" width="519.005" height="293.883" viewBox="0 0 519.005 293.883">
  <path id="Path_2644" data-name="Path 2644" d="M510.86,69.153H49.811A28.977,28.977,0,0,0,20.833,98.131V276.746a28.977,28.977,0,0,0,28.978,28.975H233.2l45.213,51.272a17.843,17.843,0,0,0,26.768,0L350.4,305.721H510.86a28.976,28.976,0,0,0,28.978-28.975V98.131A28.977,28.977,0,0,0,510.86,69.153Z" transform="translate(-20.833 -69.153)" fill="#f26941"/>
  <path id="Path_2645" data-name="Path 2645" d="M122.375,96.131c-17.635,0-26.148,15.356-26.148,15.356S87.715,96.131,70.08,96.131,38,110.326,41.939,132.57C46.8,160.048,96.227,197.1,96.227,197.1s49.423-37.048,54.288-64.525C154.454,110.326,140.008,96.131,122.375,96.131Z" transform="translate(10.118 -28.329)" fill="#fff"/>
  <g id="Group_1087" data-name="Group 1087" transform="translate(198.11 55.203)">
    <g id="Group_1086" data-name="Group 1086" transform="translate(0)">
      <path id="Path_2646" data-name="Path 2646" d="M120.741,133.447q8.388-10.066,21.078-10.066,25.673,0,26.037,29.832v50.546H146.778V153.8q0-6.786-2.915-10.03t-9.7-3.245q-9.266,0-13.421,7.145v56.09H99.66V91.727h21.081Z" transform="translate(-99.66 -90.196)" fill="#fff"/>
      <path id="Path_2647" data-name="Path 2647" d="M152.887,105.782l.659,8.824q8.384-10.284,22.682-10.284,15.245,0,20.933,12.036,8.316-12.033,23.7-12.036,12.836,0,19.108,7.477t6.276,22.5v50.4H225.1V134.373q0-6.71-2.624-9.809t-9.264-3.1q-9.481,0-13.127,9.043l.07,54.193H179.073V134.446q0-6.854-2.7-9.92t-9.191-3.061q-8.969,0-12.983,7.439v55.8H133.121V105.782Z" transform="translate(-49.026 -71.137)" fill="#fff"/>
      <path id="Path_2648" data-name="Path 2648" d="M193.941,204.681V141.224H182.2V125.763h11.744v-6.71q0-13.274,7.62-20.606T222.9,91.118a49.306,49.306,0,0,1,10.724,1.458l-.221,16.338a26.9,26.9,0,0,0-6.416-.656q-11.89,0-11.89,11.159v6.346h15.68v15.461h-15.68v63.457Z" transform="translate(25.238 -91.118)" fill="#fff"/>
    </g>
  </g>
  <path id="Path_2649" data-name="Path 2649" d="M105.334,163.282h117.2l-97.09,22.8Z" transform="translate(107.036 73.286)" fill="#94000f"/>
</svg>
