<svg xmlns="http://www.w3.org/2000/svg" width="257.776" height="141.847"><g><g><g><g><path fill="#1d9e9e" d="M254.83 124.57a46.6 46.6 0 0 0-.52-4.7 7.48 7.48 0 0 1-.1 2.43 1.47 1.47 0 0 1-.34.54s0 0-.02.02a6.36 6.36 0 0 1-3.2 1.1c-.24.03-.5.05-.73.08-1.88.2-4.45.42-7.7.58-.3.02-.6.03-.9.05h-.37q-2.23.1-4.47.17h-.48q-1.96.05-3.93.06c-.4 0-.78 0-1.18 0q-1.6 0-3.2-.02-.86 0-1.75-.02-1.5-.03-2.98-.07c-.5-.03-1-.04-1.52-.06q-1.5-.05-3-.12-1.23-.05-2.5-.1-.9-.06-1.84-.1c-1-.07-2.04-.13-3.1-.2h-.08q-6.6-.44-14.22-1.22-1.35-.14-2.7-.3c-.65-.06-1.3-.14-1.97-.22q-1.68-.2-3.37-.4c-.38-.04-.76-.1-1.14-.14q-1.8-.23-3.57-.47l-.65-.08q-2.04-.3-4.08-.6l-1-.14q-2.04-.3-4.07-.6l-.77-.13q-1.73-.28-3.45-.56l-1.18-.2q-1.98-.34-3.95-.68l-1.13-.2q-1.56-.3-3.12-.58l-1.34-.25q-2.02-.38-4.04-.77l-.7-.14q-1.78-.35-3.55-.7-.65-.14-1.3-.27-1.63-.35-3.27-.7l-.9-.2q-4.46-.94-8.9-1.96l-.78-.18q-4.4-1.02-8.8-2.1c-.08-.02-.17-.05-.26-.07q-4.46-1.1-8.9-2.28l-.85-.22q-4.2-1.1-8.4-2.28l-.78-.22q-3.83-1.07-7.65-2.18c-.7-.2-1.4-.4-2.1-.62q-3.23-.95-6.46-1.93-1.52-.47-3.07-.95-3.23-1-6.45-2.03l-1.64-.54q-4.1-1.33-8.17-2.7l-.1-.04q-3.27-1.1-6.52-2.27l-.92-.33q-3.07-1.1-6.13-2.23c-.3-.13-.62-.24-.93-.36-.65-.24-1.3-.5-1.95-.75q-2.08-.8-4.05-1.57c-.04 0-.1-.03-.13-.05l-.52-.2c-.05 0-.1-.03-.14-.05q-3.32-1.32-6.34-2.58l-.04-.02-.28-.12-.08-.02q-2.17-.92-4.2-1.8l-.03-.02-.36-.16-.3-.14c-.06-.02-.1-.05-.17-.07-1.35-.6-2.65-1.2-3.9-1.78l-.06-.03c-.3-.14-.57-.28-.85-.4l-.06-.04q-2.03-.95-3.88-1.86c-.06-.03-.1-.06-.17-.08l-.33-.18c-1.57-.78-3.05-1.54-4.45-2.28l-.05-.02-.26-.14a116 116 0 0 1-11.98-7.26l-.03-.02-.1-.07-.1-.06q-.74-.54-1.42-1.04l-.04-.03c-.13-.1-.26-.2-.38-.3h-.03q-.6-.47-1.15-.9l-.05-.05-.04-.03-.15-.12c-.1-.07-.2-.15-.3-.23l-.04-.04c-.43-.36-.84-.7-1.22-1.04l-.03-.02-.1-.1-.14-.12-.02-.02v-.02q-.82-.72-1.46-1.36H6.2l-.02-.03-.04-.04q-.3-.3-.6-.6l-.03-.04-.27-.3c-.1-.12-.22-.24-.32-.36l-.02-.03c-.16-.18-.3-.35-.42-.5q-.2-.25-.37-.47l-.04-.03-.04-.06c-.04-.04-.08-.08-.1-.13l-.04-.05A11.45 11.45 0 0 1 3 58.08a.43.43 0 0 1-.05-.16l.46 4.1a.43.43 0 0 0 .04.14c.06.1.14.24.22.38v.02c.13.2.28.44.47.7l.06.1c.15.2.32.42.5.66.3.35.6.73 1 1.14.06.08.14.17.22.25.25.27.52.54.8.83q.26.25.5.5c.26.22.52.47.8.72.1.1.22.2.32.28q.47.4 1 .85l.08.08.04.03c.64.55 1.35 1.1 2.14 1.7.12.1.23.17.35.26q.8.6 1.7 1.24c.27 3.34.3 6.97-.47 8.8-1 2.38 4.54.48 9.15-3.4.16.1.33.18.5.27s.32.18.5.28q1.6.88 3.37 1.8c.28.16.55.3.82.44q1.64.84 3.43 1.72l.66.32q1.75.85 3.65 1.73l.14.07.06.03q2.77 1.28 5.84 2.62c.2.07.37.14.55.22 1.73.75 3.53 1.5 5.42 2.3.32.12.64.25.96.38q2.5 1.02 5.2 2.07c.2.08.42.17.64.25Q56.9 92.9 59.9 94c.07.03.15.06.23.1s.14.04.2.07q3.8 1.4 7.94 2.84c.28.1.55.2.83.3q3.62 1.26 7.5 2.55l1.37.45q3.6 1.2 7.45 2.4c.4.13.82.26 1.23.4.44.12.88.26 1.33.4q3.3 1.03 6.52 2c.06.02.12.04.17.06l.08.02.2.06q4.56 1.37 8.98 2.63l.67.2q4.38 1.25 8.63 2.4l.94.25q4.62 1.25 9.1 2.4l.14.02q4.67 1.2 9.16 2.25c.12.02.25.05.38.1.22.04.44.1.66.14q1.72.4 3.4.8l1 .23q2.15.5 4.25.95c.44.1.88.2 1.3.3q1.56.32 3.1.65c.5.1 1 .2 1.5.32q1.94.4 3.87.8l.96.18q1.82.36 3.6.7l1.38.27q1.92.37 3.8.72l.48.08c1.45.27 2.87.52 4.28.76l1.05.2c1.46.24 2.9.48 4.3.7l.1.03.28.04q2 .33 3.98.63l1.03.15q1.98.3 3.9.58c.5.06.98.13 1.46.2q1.6.22 3.15.42 1.04.14 2.1.27 1.24.16 2.46.3t2.45.3q1.3.15 2.6.3c.62.05 1.24.12 1.87.2 1.1.1 2.18.2 3.25.3.5.06 1 .1 1.5.15 1.23.1 2.45.22 3.65.32.38.02.75.05 1.13.08 1.36.1 2.7.2 4 .3.18 0 .36.02.55.03l.42.03q2.14.14 4.18.25l.88.04q2.1.1 4.08.18l.63.02q2.4.08 4.6.12h.3q2.45.05 4.7.06h1.52a168.4 168.4 0 0 0 17.62-.85l.34-.04.33-.02h.1l.1-.02h.06a5.77 5.77 0 0 0 3.12-1.1h.02l.02-.02a1.02 1.02 0 0 0 .34-.5v-.03a4.22 4.22 0 0 0 .17-1.83z"/><path fill="#8066fc" d="M156.3 131.85c.03-.28.03-.57.04-.85a6.3 6.3 0 0 0 .58-.57 7.3 7.3 0 0 0 .58-.74 4.87 4.87 0 0 0 .75-1.65 4.32 4.32 0 0 1-1.44.77c-.16.05-.34.1-.5.13a18.54 18.54 0 0 0-.9-4.77 18.16 18.16 0 0 1-.05 4.9s0 0-.02 0l.02.03c-.04.27-.07.54-.1.8-.15.77-.3 1.53-.5 2.28l-.24.7c-.12.4-3.5 9.75-24.35 4.35l-.08-.02c-8.13-1.58-17-3.66-20.7-4.95.87-.5 1.73-1 2.57-1.54a9.95 9.95 0 0 0 1.23.34 11.25 11.25 0 0 0 1.4.17 7.5 7.5 0 0 0 2.7-.27 6.82 6.82 0 0 1-2.3-1.02 9.65 9.65 0 0 1-.86-.66 28.93 28.93 0 0 0 5.67-5.3 28.48 28.48 0 0 1-6.53 4.43c-.3.16-.57.3-.86.45q-2 .95-4.08 1.7c-1.06.38-2.16.72-3.23 1-3.6.85-14.37 2.44-20.43-6.85l-.54-.83-.97.2c-2.84.52-10.9 1.32-13.9-1.28a3.06 3.06 0 0 1-1.08-2.14c-.08-.72-.08-.93-.16-1.87l-1.02-.25c-.1-.02-8.8-2.1-12.22-9.3-1.83-3.87-1.85-8.56-.08-14q.45-1.35 1.04-2.77c.36-.87.76-1.75 1.2-2.65l.14-.26.02-.28c0-.1.86-9.93 6.62-10.22h.22c1 .78 2 1.56 3 2.3 1.17.85 2.36 1.67 3.6 2.4a2.98 2.98 0 0 0-.23.43 4 4 0 0 0 .18 3.13c.05-.53.1-1.02.16-1.5a6.06 6.06 0 0 1 .34-1.36 3.03 3.03 0 0 1 .73-1.1 4.77 4.77 0 0 1 1.24-.77 2.4 2.4 0 0 0-1.57.3 2.48 2.48 0 0 0-.78.76c-1.04-.98-2-2.02-2.9-3.1-.9-1.03-1.75-2.1-2.6-3.18.04-2.04.7-17.97 14.55-19.52l1.1-.12c.6.16 1.23.34 1.84.54a31.76 31.76 0 0 1 3.3 1.27 24.2 24.2 0 0 1 3.1 1.7 15.44 15.44 0 0 1 2.7 2.36 15.7 15.7 0 0 0-2.36-2.78 25.1 25.1 0 0 0-2.9-2.26 33.2 33.2 0 0 0-3.22-1.84c-.75-.37-1.5-.72-2.27-1.04.03-1.87.47-7.68 4.62-11.8 3.5-3.45 8.82-4.95 15.8-4.47l.6.04.45-.36c.07-.06 6.7-5.26 20.1-4.6-.85 1.24-1.67 2.48-2.46 3.75a51.33 51.33 0 0 0-3.4 6.2 3.34 3.34 0 0 0-.6-.24 4.46 4.46 0 0 0-1.88 0 4.6 4.6 0 0 0-1.68.67c.6-.06 1.18-.1 1.74-.1a6.74 6.74 0 0 1 1.64.15 3.45 3.45 0 0 1 1.4.7 5.2 5.2 0 0 1 1.05 1.3 2.87 2.87 0 0 0-.64-1.72 2.9 2.9 0 0 0-1.03-.77 51.05 51.05 0 0 1 4.28-5.55c1.26-1.46 2.58-2.87 3.9-4.25h.1l.46-.37a15.7 15.7 0 0 1 18.87 0 36.73 36.73 0 0 0-3.68 1.76 30.66 30.66 0 0 0-5.3 3.7 21.55 21.55 0 0 0-4.2 4.93 17 17 0 0 0-2.1 5.4 13.64 13.64 0 0 0-4.07-.42 10.17 10.17 0 0 0-4.62 1.35 9.6 9.6 0 0 0-3.36 3.38 15.06 15.06 0 0 0-1.7 4.23 30.35 30.35 0 0 0-3.9 2.15 27.1 27.1 0 0 0-3.64 2.82 17.84 17.84 0 0 0-2.96 3.5 13.57 13.57 0 0 0-1.05 2.03 11.72 11.72 0 0 0-.63 2.2 11.53 11.53 0 0 1 1.8-4.15 17.63 17.63 0 0 1 3.04-3.35 26.76 26.76 0 0 1 3.68-2.64 29.77 29.77 0 0 1 4.03-2.04l.15-.05.04-.14a14.52 14.52 0 0 1 1.8-4.1 8.7 8.7 0 0 1 3.17-2.97 9.12 9.12 0 0 1 4.2-1.04 12.42 12.42 0 0 1 4.28.7l.72.26.15-.76a15.6 15.6 0 0 1 2.27-5.5 19.9 19.9 0 0 1 4.04-4.42 28.77 28.77 0 0 1 5.1-3.28 32.48 32.48 0 0 1 5.05-2.08l.34-.07c.08 0 7.4-1.37 8.76 2.05l.48 1.2 1.25-.3c.1-.03 9.78-2.28 12.24 2.2l.48.88 1-.12c.52-.05 12.66-1.44 14.4 8.3l.03.16c-1.4.92-2.78 1.86-4.13 2.83a51.46 51.46 0 0 0-5.5 4.46 50.86 50.86 0 0 1 6.07-3.52c1.95-.98 3.93-1.9 5.92-2.76a10.1 10.1 0 0 1 6.3 2.33c2.74 2.33 4.26 6.26 4.52 11.67l.04.77.65.4a16.1 16.1 0 0 1 6.5 10.33 17.76 17.76 0 0 1 0 5.7q-.07.57-.2 1.14c0 .1-.03.22-.06.33-.1.44-.2.88-.34 1.33-4.5-1.96-9.6-4.02-14.1-5.75q-7.1-2.74-14.32-5.2c-4.8-1.65-9.64-3.2-14.5-4.72s-9.7-2.93-14.6-4.35l-.46-.14-.42.3-13 9.74q-6.52 4.87-13 9.8l-1.87 1.42 2.33.5a16.48 16.48 0 0 1 5.42 2.3 11.3 11.3 0 0 1 3.9 4.2 9.6 9.6 0 0 1 .95 2.72 11.76 11.76 0 0 1 .22 2.92 19.76 19.76 0 0 1-1.23 5.9l-.54 1.5 1.57-.2a31.53 31.53 0 0 1 6.1-.12 25.96 25.96 0 0 1 6 1.16 17.13 17.13 0 0 1 5.3 2.8 14.1 14.1 0 0 1 3.8 4.63l.23.47.5-.12a8.63 8.63 0 0 1 2.14-.2 6.5 6.5 0 0 1 2.1.38 4.24 4.24 0 0 1 1.7 1.18 5.13 5.13 0 0 1 1 1.86l.1.3.26.04s11.8 5.02 14.6 5.83a23.84 23.84 0 0 1-19.25 7.75z"/><path fill="#00c691" d="M63.63 77.55s-.18-19.42 15.86-21.2a19.87 19.87 0 0 1 .6-5.42c-27.97-4.48-45.4-4.85-50.97-4.82a5.77 5.77 0 0 0-3 .76c-1.73 1.23-5.03 3.6-6.58 5.63a2.5 2.5 0 0 1-1.4.64c-5.06 1-10.95 2.84-13.75 3.7-1.06.3-1.62.82-1.4 1.24 1.57 2.9 10.08 14.2 52.68 30.43.3-2.35 1.84-10.65 7.95-10.95z"/><path fill="#abf5f5" d="M79.5 56.34s-.04-.53 0-1.4c-26.54-4.38-44.6-6.1-44.6-6.1a8.37 8.37 0 0 0-5.54.92 23.76 23.76 0 0 0-3.13 2.9 1.6 1.6 0 0 0 .88 2.64c11.97 2.13 25.7 5.07 40.34 8.5a15.67 15.67 0 0 1 12.05-7.46z"/><path fill="#6140ff" d="M70.35 113.6s-19.66-.37-9-22.18c-.16-3.35.14-7.48 2.58-8.87 3.9-2.22 8.33 5.48 20.12 9.4 11.28 3.76 23.6 2.16 31.93 1.07 1.92-.25 3.5-.5 4.6-.7 0 0 13-1.88 4.56 17.7 0 0 20.38-4.58 25.44 8.55 0 0 5.54-1.88 7.25 2.65 0 0 10.02 4.3 13.65 3.84a21.47 21.47 0 0 1-18.15 2.9s2.3 17.2-43.47.65c0 0-16.37 3.05-24.08-7.2 0 0-8.47 3.6-13.02 0 0 0-5.86-3.25-2.4-7.8z"/><path fill="#a795ff" d="M83.52 53.53s1.24-11.25 16.14-10.7c0 0 8.26-6.58 18.67-6.4l-5.83 11.53s-14.8 4.38-17.8 13.9c0 0-7.28-8.38-11.18-8.33z"/><path fill="#a795ff" d="M118.28 45.65s9.14-17.9 22.6-11.66c0 0-11.43 4.7-13.26 14.36 0 0-4.96-2.76-9.34-2.7z"/><path fill="#01e0a4" d="M162.76 70.3q-3.47-1.03-7.1-2.1-4.1-1.18-8.08-2.28L121.63 85.5s16 2.97 9.97 19.44c0 0 16.32-2.3 21.9 9.15 0 0 6.15-1.5 7.54 3.72 53.37 9.68 80.76 7.25 89.6 6.14 1.87-.23 3.4-.9 3.56-1.63 1.12-4.98-1.08-24.85-91.44-52.02z"/><path fill="#abf5f5" d="M147.93 69.25q-1.78-.46-3.56-.9L129.45 79.6c60.44 16.36 116.67 33.83 116.67 33.83-12.77-15.97-62.5-34.9-98.2-44.18z"/><path d="M169.42 71.58c-2.9-.95-5.12-1.56-5.65-1.72q-3.47-1.05-7.1-2.1-4.1-1.2-8.08-2.3l-25.96 19.6s16 2.96 9.97 19.43a8.67 8.67 0 0 1 6.5-.05c7.5-16.63 19-29.14 30.32-32.87z" opacity=".29"/><path fill="#a795ff" d="M105.18 72.67s2.22-10.18 11.5-10.8c0 0 3.3-12.93 13.87-8.34 0 0 10.3-22.8 25.2-13.02 0 0 11.6-4.55 12.5 3.08 0 0 13.2-2.35 15.38 5.56l-9 6.2s-18.87-10.93-69.45 17.33z"/><path fill="#a795ff" d="M176.66 58.64l12-5.8s8.3 1.82 8.85 13.72c0 0 7.12 4.72 6.4 15.6 0 0-14.08-22.35-27.24-23.53z"/><path d="M257.77 124.72v-.07c0-.36-.02-.7-.06-1.03l-.45-4.1c-.73-6.53-6.64-13.5-17.57-20.7-7.83-5.17-18.15-10.4-30.87-15.63a20.9 20.9 0 0 0 .1-7.23 19.14 19.14 0 0 0-7.2-11.87c-.4-5.9-2.28-10.3-5.54-13.05a13.08 13.08 0 0 0-7.96-3.02c-2.26-8.33-11.17-9.9-16.46-9.54-3.34-4.47-10.97-3.6-13.87-3.07-2.53-3.7-8.7-3.14-10.8-2.83-10.83-8.43-20.7-2.62-23-1.02-13.54-1.03-21.08 3.46-23 4.82-7.64-.43-13.55 1.38-17.58 5.38a17.65 17.65 0 0 0-3.95 6.05c-26.3-4.17-43.25-4.68-49.9-4.68h-.5a8.53 8.53 0 0 0-4.7 1.3 38.58 38.58 0 0 0-6.87 5.8c-4.8.94-10.36 2.63-13.33 3.54l-.7.2a4.74 4.74 0 0 0-3.27 2.58 3.4 3.4 0 0 0-.25 1.68l.46 4.1a3.36 3.36 0 0 0 .36 1.2 15.1 15.1 0 0 0 1.32 2q.25.32.56.7a31.15 31.15 0 0 0 2.32 2.45q.47.46 1 .95a59.17 59.17 0 0 0 4.8 3.84c.24 4.26-.2 5.7-.34 6.05a3.56 3.56 0 0 0 3.4 5.15c2.43 0 5.94-1.84 8.75-3.88a255.02 255.02 0 0 0 29.28 13.32c-2.07 6.24-2.02 11.73.18 16.35 3.3 6.92 10.37 9.72 13.12 10.57a6.02 6.02 0 0 0 2.07 3.9c4 3.47 12.44 2.56 15.42 2.1 7.63 10.64 20.68 7.96 23.8 7.13 4 2.07 18.28 4.98 22.94 5.9a48.9 48.9 0 0 0 12.13 1.75c10.3 0 14.05-4.78 15.25-7 7.56.2 14.75-3.92 19.5-7.45.3.05.63.1.94.14l.18.03.16.02q1.23.18 2.45.35l.6.1.34.04c.6.07 1.2.16 1.8.24l.8.1.28.05 1.6.2 1.14.15.34.04.5.05.25.04h.2q1.68.22 3.33.42h.08l.1.02c1.14.13 2.27.26 3.38.38l.83.1h.07q1.38.14 2.74.28l.25.02.36.04q1.6.16 3.15.3h.1l.15.02.35.03.27.04c.63.05 1.25.1 1.87.16l.93.07q.92.08 1.83.15l.28.02.57.04q1.1.08 2.18.15h.17l.23.03c.84.05 1.66.1 2.48.15h.07l.1.02.42.02.28.02c.47.02.93.05 1.4.07l.77.04h.16l1.28.07.92.04 1.25.05.9.03 1.2.04h.23l.3.02h.36l.97.03.93.02.95.02h.9l.92.02H235.27l.72-.03h.74l.66-.03.72-.02.64-.02.7-.02h.6l.68-.04.58-.02h.12l.17-.02h.22l.14-.02.55-.02.64-.04.5-.02.62-.04h.07l.4-.02.58-.04h.14l.32-.03h.13l.27-.03h.15l.08-.02.35-.02.54-.04.12-.02.25-.02.42-.04h.08l.13-.02.24-.02.33-.03h.2l.3-.04h.06c.34-.03.64-.06.93-.1h.24c.3-.04.6-.07.86-.1h.08c.12-.03.23-.04.34-.06.12 0 .24-.03.36-.05l.04-.02h.06l.07-.03h.04l.23-.05c.1-.02.2-.04.3-.07h.04l.04-.02.2-.03c.05 0 .1-.03.14-.04.08-.02.16-.05.24-.08.2-.06.4-.12.58-.2.08-.02.16-.05.23-.08s.14-.06.2-.1c.1-.04.2-.08.3-.13s.16-.08.24-.12.17-.1.26-.14l.06-.04c.05-.03.1-.05.13-.08.1-.08.23-.16.35-.25.07-.04.14-.1.2-.16l.04-.02.06-.06c.1-.08.2-.18.28-.27s.18-.2.26-.3c.05-.07.1-.13.13-.2l.04-.04.07-.1a3.72 3.72 0 0 0 .22-.4 3.5 3.5 0 0 0 .2-.47c.02-.1.05-.2.08-.32.04-.18.07-.35.1-.54v-.1l.02-.06c0-.1.02-.2.03-.28v-.06c.02-.15.03-.27.04-.4s0-.26.02-.4v-.06c0-.13 0-.23 0-.35zM22.37 77.28c-3.22 2.7-6.9 4.45-8.47 4.45-.7 0-.98-.33-.68-1.05.78-1.84.75-5.46.5-8.8-.18-.12-.34-.24-.5-.35a57.63 57.63 0 0 1-5.2-4.1q-.5-.45-.93-.87A27.72 27.72 0 0 1 5 64.36c-.18-.22-.34-.42-.5-.6a12.28 12.28 0 0 1-1.04-1.6.43.43 0 0 1-.05-.14l-.44-4.1a.4.4 0 0 0 .04.16c-.22-.43.33-.93 1.4-1.26 2.8-.85 8.7-2.7 13.74-3.7a2.5 2.5 0 0 0 1.4-.63c1.56-2.05 4.86-4.42 6.6-5.64a5.77 5.77 0 0 1 3-.75h.48c5.95 0 22.67.45 49 4.6a22.72 22.72 0 0 0-.6 4.36 16.95 16.95 0 0 0-12 8.3c-2.13-.44-4.26-.88-6.4-1.3l6.18 1.7a30.47 30.47 0 0 0-3.6 12.5c-6.53 1.43-7.84 10.64-8.04 12.45-.44.9-.83 1.8-1.2 2.67A241.9 241.9 0 0 1 22.38 77.3zm133.94 54.55c.02-.28.03-.57.04-.85a6.3 6.3 0 0 0 .57-.57 7.3 7.3 0 0 0 .6-.74 4.88 4.88 0 0 0 .75-1.65 4.32 4.32 0 0 1-1.44.77c-.16.05-.34.1-.5.13a18.54 18.54 0 0 0-.9-4.77 18.16 18.16 0 0 1-.05 4.9s0 0-.02 0l.02.03c-.04.27-.07.54-.1.8-.15.77-.3 1.53-.5 2.28l-.24.7c-.13.4-3.5 9.75-24.35 4.35l-.08-.02c-8.13-1.58-17.02-3.66-20.7-4.95.87-.5 1.73-1 2.57-1.54a9.94 9.94 0 0 0 1.23.34 11.26 11.26 0 0 0 1.4.17 7.5 7.5 0 0 0 2.7-.27 6.83 6.83 0 0 1-2.3-1.02 9.66 9.66 0 0 1-.86-.66 28.93 28.93 0 0 0 5.67-5.3 28.48 28.48 0 0 1-6.53 4.44c-.3.15-.58.3-.87.45q-2 .94-4.07 1.7c-1.06.37-2.16.7-3.23 1-3.6.84-14.37 2.43-20.43-6.86l-.54-.82-.97.18c-2.84.53-10.9 1.33-13.9-1.27a3.06 3.06 0 0 1-1.07-2.14c-.08-.73-.1-.93-.17-1.88l-1-.24c-.1-.02-8.8-2.1-12.23-9.3-1.84-3.88-1.86-8.57-.08-14q.43-1.36 1.03-2.77c.36-.87.76-1.75 1.2-2.65l.13-.26.03-.28c0-.1.84-9.94 6.6-10.23h.22c1 .8 2 1.57 3 2.32 1.18.85 2.37 1.66 3.6 2.38a2.98 2.98 0 0 0-.22.44 4 4 0 0 0 .2 3.13c.03-.52.08-1.02.15-1.5a6.06 6.06 0 0 1 .33-1.36 3.03 3.03 0 0 1 .73-1.1 4.77 4.77 0 0 1 1.25-.76 2.4 2.4 0 0 0-1.58.3 2.47 2.47 0 0 0-.78.76c-1.03-.98-2-2.02-2.9-3.1-.9-1.04-1.75-2.1-2.58-3.18.02-2.05.68-17.98 14.54-19.52l1.1-.12c.6.16 1.23.34 1.84.53a31.77 31.77 0 0 1 3.3 1.3 24.2 24.2 0 0 1 3.1 1.7 15.44 15.44 0 0 1 2.7 2.36 15.7 15.7 0 0 0-2.35-2.78 25.1 25.1 0 0 0-2.9-2.26 33.2 33.2 0 0 0-3.23-1.84c-.74-.38-1.5-.72-2.26-1.04.03-1.87.46-7.7 4.62-11.8 3.5-3.45 8.82-4.95 15.8-4.47l.6.03.44-.36c.07-.06 6.7-5.27 20.1-4.6-.84 1.23-1.66 2.47-2.46 3.74a51.34 51.34 0 0 0-3.38 6.2 3.35 3.35 0 0 0-.62-.22 4.47 4.47 0 0 0-1.87 0 4.6 4.6 0 0 0-1.7.66c.6-.05 1.18-.1 1.75-.1a6.74 6.74 0 0 1 1.64.16 3.45 3.45 0 0 1 1.4.68 5.2 5.2 0 0 1 1.04 1.33 2.87 2.87 0 0 0-.64-1.74 2.9 2.9 0 0 0-1.02-.77 51.04 51.04 0 0 1 4.28-5.56c1.26-1.45 2.57-2.86 3.9-4.24h.1l.45-.37a15.7 15.7 0 0 1 18.88-.02 36.74 36.74 0 0 0-3.68 1.8 30.66 30.66 0 0 0-5.3 3.7 21.55 21.55 0 0 0-4.2 4.93 17 17 0 0 0-2.1 5.4 13.64 13.64 0 0 0-4.06-.42 10.17 10.17 0 0 0-4.63 1.34 9.6 9.6 0 0 0-3.35 3.4 15.06 15.06 0 0 0-1.7 4.22 30.35 30.35 0 0 0-3.9 2.15 27.1 27.1 0 0 0-3.64 2.82 17.84 17.84 0 0 0-2.96 3.5 13.57 13.57 0 0 0-1.05 2.03 11.72 11.72 0 0 0-.63 2.2 11.53 11.53 0 0 1 1.8-4.15 17.63 17.63 0 0 1 3.04-3.35 26.76 26.76 0 0 1 3.7-2.64 29.78 29.78 0 0 1 4-2.04l.15-.05.05-.14a14.52 14.52 0 0 1 1.8-4.1 8.7 8.7 0 0 1 3.18-2.97 9.12 9.12 0 0 1 4.2-1.04 12.42 12.42 0 0 1 4.27.7l.73.26.15-.76a15.6 15.6 0 0 1 2.27-5.5 19.9 19.9 0 0 1 4.05-4.42 28.77 28.77 0 0 1 5.08-3.28 32.48 32.48 0 0 1 5.07-2.08l.35-.07c.07 0 7.4-1.37 8.76 2.05l.48 1.2 1.25-.3c.1-.03 9.8-2.28 12.25 2.2l.48.88 1-.12c.5-.05 12.66-1.44 14.4 8.3l.03.16c-1.4.92-2.8 1.86-4.15 2.83a51.46 51.46 0 0 0-5.5 4.46 50.87 50.87 0 0 1 6.08-3.52c1.94-.98 3.93-1.9 5.92-2.76a10.1 10.1 0 0 1 6.3 2.33c2.74 2.33 4.26 6.26 4.52 11.67l.03.77.66.4a16.1 16.1 0 0 1 6.5 10.33 17.77 17.77 0 0 1 0 5.7c-.05.38-.12.76-.2 1.13-.02.1-.04.22-.06.32-.1.45-.08.44-.2.9-4.5-1.97-9.73-3.58-14.24-5.3q-7.1-2.75-14.32-5.2c-4.8-1.67-9.64-3.22-14.48-4.74s-9.73-2.93-14.6-4.35l-.48-.14-.4.3-13.03 9.74q-6.5 4.88-12.98 9.8l-1.88 1.42 2.33.5a16.48 16.48 0 0 1 5.42 2.3 11.3 11.3 0 0 1 3.9 4.22 9.6 9.6 0 0 1 .95 2.7 11.75 11.75 0 0 1 .22 2.93 19.76 19.76 0 0 1-1.23 5.9l-.54 1.5 1.57-.2a31.53 31.53 0 0 1 6.1-.1 25.97 25.97 0 0 1 6 1.14 17.13 17.13 0 0 1 5.3 2.8 14.1 14.1 0 0 1 3.8 4.63l.24.47.5-.12a8.63 8.63 0 0 1 2.14-.2 6.5 6.5 0 0 1 2.1.38 4.24 4.24 0 0 1 1.7 1.18 5.12 5.12 0 0 1 1 1.86l.1.3.27.04 7.42 3.26a66.04 66.04 0 0 1 6.6 3.12 23.35 23.35 0 0 1-18.7 7.2zm98.5-6.75c0 .1 0 .22 0 .32s-.02.2-.03.3-.02.18-.03.27c0 0 0 .04 0 .06-.03.12-.05.25-.08.36a.53.53 0 0 1-.02.06.6.6 0 0 1-.03.1.9.9 0 0 1-.04.08l-.02.02v.02c-.02 0-.03.03-.05.05a1.03 1.03 0 0 1-.1.1c-.02.03-.06.06-.1.1-.04.04-.08.07-.12.1s-.1.08-.17.12l-.03.02-.05.02c-.06.03-.1.06-.16.1-.04 0-.1.03-.13.05-.07.04-.15.07-.23.1-.03.02-.07.04-.1.06s-.08.02-.12.03c-.15.07-.32.12-.5.17-.04.02-.08.03-.12.05h-.08l-.2.06c-.08.02-.16.05-.24.06l-.2.04h-.08l-.06.03c-.1 0-.18.03-.27.04l-.26.04h-.06c-.25.04-.53.07-.82.1l-.23.02c-.3.03-.58.06-.9.1h-.09l-.38.03-.42.03-.36.03-.5.04-.38.03-.52.04c-.14 0-.28.02-.43.03l-.42.03h-.12l-.44.04c-.2 0-.37.02-.57.03l-.46.03-.6.04-.5.02-.63.02-.54.03-.35.02h-.28l-.57.03-.67.03-.6.02-.7.03-.62.02h-.7l-.67.03h-.28l-.47.02h-.7l-.77.02h-.73c-.26 0-.53 0-.8 0H230.32c-.2 0-.38 0-.57 0-.3 0-.6 0-.9 0h-1.74l-.9-.03-.93-.02-.92-.02-.97-.03h-.36c-.17 0-.34-.02-.5-.02l-1.22-.04-.87-.02c-.4-.02-.82-.04-1.24-.05l-.92-.04-1.27-.07c-.3-.02-.6-.03-.92-.05l-1.37-.07-.7-.03h-.16q-1.2-.08-2.46-.16l-.4-.02q-1.06-.07-2.15-.15l-.84-.07c-.6-.04-1.2-.1-1.82-.14l-.94-.07q-.92-.08-1.86-.16l-.6-.06c-.1 0-.17-.02-.26-.03q-1.54-.13-3.14-.3l-.6-.05q-1.34-.13-2.72-.28l-.9-.1c-1.1-.12-2.22-.24-3.36-.38l-.17-.03c-1.1-.13-2.2-.26-3.3-.4-.16-.02-.3-.03-.46-.05l-.83-.1-1.1-.16q-.8-.1-1.6-.2l-1.1-.16c-.58-.08-1.18-.16-1.78-.24-.3-.05-.63-.1-.94-.14-.34-.05-2.25-.42-2.6-.47-2.9-1.27-7.26-3.37-8.64-3.95l-7.88-3.2a5.58 5.58 0 0 0-1-2 5.15 5.15 0 0 0-2.06-1.55 7.67 7.67 0 0 0-2.47-.55 10.1 10.1 0 0 0-2 .08 15.42 15.42 0 0 0-3.78-4.8 18.64 18.64 0 0 0-5.74-3.2 27.74 27.74 0 0 0-6.37-1.4 32 32 0 0 0-5.02-.12 20.53 20.53 0 0 0 .96-5.06 13.07 13.07 0 0 0-1.3-6.7 13.38 13.38 0 0 0-4.6-5.03 18.3 18.3 0 0 0-2.97-1.6c-.35-.14-.7-.28-1.05-.4 1.87-1.4 3.74-2.83 5.6-4.24l33.9 9.02 17.3 4.63c5.8 1.46 11.55 3.1 17.35 4.57-11.32-3.85-22.7-7.5-34.2-10.87q-4.28-1.3-8.6-2.5l-8.62-2.48q-7.43-2.06-14.9-4.06c1.14-.86 2.28-1.7 3.4-2.56l12.55-9.54 6.83 1.88 7.3 2.08c4.9 1.38 9.73 2.86 14.58 4.33q7.27 2.24 14.5 4.62c4.8 1.6 10.24 3.56 15 5.3.7.28 1.42.56 2.1.85 38.85 16.06 45.6 28.1 46.2 33.8v-.04l.47 4.1c.03.28.04.56.05.82 0 .02 0 .04 0 .07 0 .08 0 .16 0 .25z"/><path d="M96.3 79.18a8.15 8.15 0 0 0-1.46.56 9.5 9.5 0 0 0-1.3.85c-.1.07-.18.15-.27.23a3.57 3.57 0 0 0-.78-1.28 3.9 3.9 0 0 0-1.46-1 4.45 4.45 0 0 0-1.73-.34 3.8 3.8 0 0 0-1.67.4 9.52 9.52 0 0 1 3.12.62 5.77 5.77 0 0 1 1.35.75 10.25 10.25 0 0 1 1.08.93 8.63 8.63 0 0 0-2.77 4.86 16 16 0 0 1 1.57-2.52A11.4 11.4 0 0 1 94 81.17a9.13 9.13 0 0 1 2.47-1.44 14.57 14.57 0 0 1 2.86-.8 7.83 7.83 0 0 0-3.04.25z"/><path fill="#abf5f5" d="M245.48 119.3a42.82 42.82 0 0 1-6.6 1.1q-3.33.33-6.67.42c-4.44.16-8.88.06-13.3-.17-4.44-.25-8.86-.63-13.26-1.2a129.68 129.68 0 0 1-13.13-2.26c4.47-.23 8.9-.17 13.32-.05s8.83.3 13.23.55 8.8.52 13.2.83l6.6.44c2.2.14 4.4.28 6.63.33z"/></g><g><path d="M71.44 35.92a6.1 6.1 0 0 1-2.12.72 4.44 4.44 0 0 1-1.88-.1 2.6 2.6 0 0 1-1.34-.9 2.34 2.34 0 0 1-.47-1.57q.1-1.17 1.95-1.64a14.9 14.9 0 0 0 1.87-.6 2.03 2.03 0 0 0 .75-.52q1.3-1.28 1.2-1.97c-.07-.34-.43-.6-1.08-.77a8.46 8.46 0 0 0-.87-.2 4.7 4.7 0 0 1-.83-.22 6.82 6.82 0 0 1-2.58-.98 4.1 4.1 0 0 1-1.6-2 8.7 8.7 0 0 1-.6-2.2 6.47 6.47 0 0 1 1.2-4.57 12.7 12.7 0 0 1 1.82-2.13 9.8 9.8 0 0 1 3.46-1.8 2.83 2.83 0 0 1 1.22-.1q.57.08 1.16.2a1.37 1.37 0 0 1 1.1 1.32 1.42 1.42 0 0 1-.18.77 1.5 1.5 0 0 1-.56.58 1.22 1.22 0 0 1 .2.95 3.2 3.2 0 0 1-1.37 1.5 5.63 5.63 0 0 0-2.28 1.36q-.53.74.3 1.92a1.2 1.2 0 0 0 .64.4q.46.15 1.04.28c.4.1.8.2 1.26.33a5.3 5.3 0 0 1 1.28.57q2.17 1.36 2.1 4.66a7.12 7.12 0 0 1-2.03 4.68 9.06 9.06 0 0 1-2.76 2.02z"/><path d="M80.14 11.7l.02.06s0 .02.02.02 0 0 .02.02l.02.04h.02l.27.3q.48.55.38 4.43a14.9 14.9 0 0 0 .77 6.08q.78 1.33 1.5-3.2.58-3.5.85-7.56c0-.37.03-.74.05-1.13a2.96 2.96 0 0 1 .24-1.05 1.63 1.63 0 0 1 1.6-1.1 1.94 1.94 0 0 1 .62-.9 1.88 1.88 0 0 1 .88-.4 1.5 1.5 0 0 1 .9.12 1.35 1.35 0 0 1 .66.73 7.17 7.17 0 0 1 .35 2.28q.12 1.86.2 3.4t.23 3.35q.33 4.27.96 7.92a1.6 1.6 0 0 1-.17 1.4 3.27 3.27 0 0 1-1.08 1.12 2.92 2.92 0 0 1-1.38.47 1.17 1.17 0 0 1-1.25-.8q-.1-.24-.2-.47.33.73-.6 1.7l-.47.5a5.24 5.24 0 0 1-3.34 1.05 5.38 5.38 0 0 1-1.76-.35 3.2 3.2 0 0 1-1.4-1 12.92 12.92 0 0 1-2.2-6.65 30.9 30.9 0 0 1-.2-3.8q.02-1.88.04-2.72c.02-.57.03-.96.05-1.18s.05-.44.08-.65a4.52 4.52 0 0 1 .27-1.27l.17-.35a.23.23 0 0 1 .07-.08.4.4 0 0 0 .1-.1 1.27 1.27 0 0 1 .32-.3l.28-.18.14-.05a1.54 1.54 0 0 1 1.2-.17c0 .02.03.02.06 0l.24.1.1.04.1.06s0 .02 0 .02.02 0 .03.02h.03v.05a.02.02 0 0 1 .04.02v.02a.06.06 0 0 0 .07 0v.02c.02.02.03.02.03.02a0 0 0 0 1 .02 0c0 .02 0 .02.04.03v.03a.07.07 0 0 0 .05.05zm6.24 14.57l-.03-.07a.4.4 0 0 0 .05.2.14.14 0 0 1 0-.1z"/><path d="M97.52 24.04a1.58 1.58 0 0 1-1.1 1.5 3.63 3.63 0 0 1-2.22.34q-1.25-.17-1.35-1.08-.5-1.3-.18-6.16.48-7.3 1.98-10.78a3.77 3.77 0 0 1 .77-1.23 7.16 7.16 0 0 1 .86-.66q.5-.34 1.05-.66a16.6 16.6 0 0 1 2.14-1.05 3.72 3.72 0 0 1 1.98-.27 3.05 3.05 0 0 1 1.62.75 4.14 4.14 0 0 1 1.06 1.57 7.7 7.7 0 0 1 .5 2.1 9.92 9.92 0 0 1-.07 2.38 10.3 10.3 0 0 1-.65 2.4 7.5 7.5 0 0 1-3 3.76l.34.33c.28.25.6.52 1 .8s.76.6 1.15.9.74.62 1.07.94a5.34 5.34 0 0 1 .8.95 1.26 1.26 0 0 1-.13 1.78q-.63.66-1.13.55a2.47 2.47 0 0 1-.43-.18 1.48 1.48 0 0 0-.6-.15 1.74 1.74 0 0 1-2.24-.13 8.1 8.1 0 0 1-1-1.07q-.4-.5-.66-.86a7.14 7.14 0 0 0-1.34-1.22q-.08.7-.14 1.74-.07 1.32-.2 2.75zm1-14.6q-.18 1.1-.23 1.54-.12.87-.25 1.9c.04.36.07.6.08.75l.23-.4.34-.3c.23-.22.45-.43.64-.6a2.7 2.7 0 0 0 .5-.64 4.5 4.5 0 0 0 .44-1.98 1.45 1.45 0 0 1-.04-.48 2.05 2.05 0 0 0-.02-.5.6.6 0 0 0-.6-.6q-.48.1-.95 1.08c-.06.14-.12.2-.16.22z"/><path d="M109.93 20.73a2.12 2.12 0 0 1-1.27 1.75 2.4 2.4 0 0 1-2.05.14 1.38 1.38 0 0 1-.9-1.62q.05-1.36.4-4.4t.46-4.26q.28-3.05.32-4.02a20.7 20.7 0 0 1 .5-3.1 3.53 3.53 0 0 1 .4-.87 4.3 4.3 0 0 1 .66-.67A4.75 4.75 0 0 1 109.5 3a7.5 7.5 0 0 1 1.16-.44q.6-.17 1.23-.32a7.86 7.86 0 0 0 1.35-.5 2.95 2.95 0 0 0 .54-.13c.14-.05.3-.1.45-.15a2.8 2.8 0 0 1 1.1-.08 1.42 1.42 0 0 1 .9.44 1.76 1.76 0 0 1 .43.9 3.4 3.4 0 0 1 0 1.2 5.05 5.05 0 0 1-.4 1.28 4.84 4.84 0 0 1-1.86 2.13 5.3 5.3 0 0 1-1.26.53 1.14 1.14 0 0 1-.56 0 .53.53 0 0 1-.2-.1c-.02-.03-.07.04-.14.2a2.07 2.07 0 0 0-.17.73 1.88 1.88 0 0 1-.12.6 4.14 4.14 0 0 0-.2.73 2.8 2.8 0 0 1-.34.94c-.16.26-.25.42-.27.47l2.02-.58a1.28 1.28 0 0 1 .87.05 1.4 1.4 0 0 1 .63.5 1.14 1.14 0 0 1 .2.67.74.74 0 0 1-.32.6 1.1 1.1 0 0 0-.4.43 2.82 2.82 0 0 0-.1.37 2.2 2.2 0 0 1-.12.36.97.97 0 0 1-.4.38 10.34 10.34 0 0 1-2.77 1.1q-.06.37-.17.88t-.23 1.07q-.32 1.68-.34 2.02c0 .23-.02.4-.02.56a4.42 4.42 0 0 1-.1.93z"/><path d="M135.2.6h.1a5.37 5.37 0 0 1 1.05.78 9.27 9.27 0 0 1 .83.9 4.22 4.22 0 0 1 .6 1.04q.98 2.16-1.42 4.94a11.04 11.04 0 0 1-2.3 2 2.6 2.6 0 0 0 .64.34 6.6 6.6 0 0 1 .86.38 1.52 1.52 0 0 1 .74 1.1 4.2 4.2 0 0 1-.03 1.84 7.76 7.76 0 0 1-2.5 4.1 7.2 7.2 0 0 1-5.45 1.83 1.4 1.4 0 0 1-.57-.06c-.08-.05-.15-.1-.2-.12a.76.76 0 0 0-.3-.06 2.83 2.83 0 0 1-1.34.63 2.9 2.9 0 0 1-1.43-.08 2.5 2.5 0 0 1-1.16-.78 2.3 2.3 0 0 1-.5-1.5 3.25 3.25 0 0 1 .2-.97 1.66 1.66 0 0 1-.07-.52 61.4 61.4 0 0 1 1.33-6.6 24.4 24.4 0 0 1 2.94-6.94 6.25 6.25 0 0 1 3.76-2.62 5.82 5.82 0 0 1 4.24.35zm-6.92 16.77a1.18 1.18 0 0 1 .48-.04 1.45 1.45 0 0 0 .5-.03 4.55 4.55 0 0 0 1.8-.9 2.33 2.33 0 0 0 .76-1.48c.02-.47-.06-.77-.24-.9a1.12 1.12 0 0 0-.7-.2 4.12 4.12 0 0 0-.98.17 5.38 5.38 0 0 1-1.03.17v.05q-.1.48-.2.84t-.2.7a13.27 13.27 0 0 0-.3 1.62zm4.07-12.47q-.72-.07-1.52 1.16a6.13 6.13 0 0 0-.74 2.33q.48-.24.97-.4a9.07 9.07 0 0 0 .9-.38 3.45 3.45 0 0 0 1.46-1.13q.5-.65.3-1.07a2.48 2.48 0 0 0-.94-.66.52.52 0 0 1-.45.13z"/><path d="M140.67 18.9a1.58 1.58 0 0 1-1.58 1.02 3.62 3.62 0 0 1-2.18-.48q-1.1-.6-.88-1.5 0-1.38 2.02-5.8 3.04-6.66 5.7-9.38a3.8 3.8 0 0 1 1.15-.87 7.27 7.27 0 0 1 1.05-.33c.4-.1.8-.17 1.22-.24a16.4 16.4 0 0 1 2.37-.23 3.72 3.72 0 0 1 1.95.45 3.05 3.05 0 0 1 1.24 1.28 4.15 4.15 0 0 1 .42 1.85 7.68 7.68 0 0 1-.28 2.14 9.82 9.82 0 0 1-.9 2.2 10.3 10.3 0 0 1-1.47 2.02 7.5 7.5 0 0 1-4.14 2.43l.2.43q.26.5.64 1.1t.76 1.25q.38.64.68 1.26a5.35 5.35 0 0 1 .4 1.18 1.26 1.26 0 0 1-.75 1.62q-.84.4-1.26.1a2.53 2.53 0 0 1-.35-.32 1.48 1.48 0 0 0-.5-.35 1.74 1.74 0 0 1-2.06-.92 8.1 8.1 0 0 1-.56-1.35c-.12-.4-.22-.76-.3-1.04a7.22 7.22 0 0 0-.82-1.6q-.32.62-.75 1.58-.52 1.2-1.14 2.5zm6.12-13.28q-.55.97-.76 1.35l-.9 1.7c-.1.35-.15.6-.2.73l.37-.3.43-.15c.3-.13.57-.25.82-.35a2.7 2.7 0 0 0 .68-.4 4.52 4.52 0 0 0 1.12-1.7 1.4 1.4 0 0 1 .13-.46 2.1 2.1 0 0 0 .16-.46.6.6 0 0 0-.36-.77q-.47-.1-1.26.67c-.1.1-.18.15-.23.15z"/><path d="M166.25 7.05a1.92 1.92 0 0 1 .7 1.46q-1.07 2.5-2.05 4.96t-1.73 4.1q-.76 1.64-1.1 2.47t-.68 1.64l-.26.45c-.07.17-.14.32-.2.46s-.14.3-.2.45a2.27 2.27 0 0 1-1.94.32 2.84 2.84 0 0 1-1.73-1.05c-.23-.28-.17-.74.18-1.4a5.34 5.34 0 0 0 .4-1.03c.13-.44.25-.8.35-1.08v-.06a5.27 5.27 0 0 0-1.4.36q-.64.28-.8.35a1.03 1.03 0 0 1-.4.07 3.45 3.45 0 0 1-.45 0 1.26 1.26 0 0 0-.63 0q-1.9 2.07-3.04 2.1a3.04 3.04 0 0 1-1.37-.22 1.5 1.5 0 0 1-.86-1.05q-.58-.87 1.27-3.7 1-1.5 2.66-3.53t3.12-3.5a30.32 30.32 0 0 1 6.4-5.02q.47-.1 1.04-.2a2.68 2.68 0 0 1 1.06-.03 3.58 3.58 0 0 1 1 .36 2.68 2.68 0 0 1 .8.63 1.14 1.14 0 0 1-.13 1.7zm-6.4 4.9q-.8 1.28-1.56 2.33t-1.33 1.85l1.84.36q.55-1.44 1.12-2.84t1.13-2.8zm-1.7 4.48a4.6 4.6 0 0 0 .65.1c-.2-.05-.4-.08-.56-.1s-.2-.02-.1 0z"/><path d="M177.25 11.1q-1.67 2.16-3.04 3.9t-2.5 3.17q-1.15 1.45-2.13 2.68t-1.84 2.35a2.75 2.75 0 0 1-2.2 1.55 4.2 4.2 0 0 1-1.82-.28 4.16 4.16 0 0 1-1.4-.75 1.15 1.15 0 0 1-.4-.84 1.77 1.77 0 0 1 .35-.97q.35-.5 1.07-1.37t1.88-2.37q1.16-1.5 2.4-3.02a53.96 53.96 0 0 1 4.56-5.17 2.36 2.36 0 0 1 .97-.6 2.95 2.95 0 0 1 .76-.07 4.44 4.44 0 0 0 .66-.02 1.3 1.3 0 0 0 .72-.5 1.32 1.32 0 0 1 1.05-.46 1.7 1.7 0 0 1 1.08.36 1.36 1.36 0 0 1 .5 1 2 2 0 0 1-.65 1.43z"/><path d="M175.78 17.9q1.14-1.2 1.8-1.83t1.23-1.12a11.5 11.5 0 0 1 1.2-.9 8.5 8.5 0 0 1 1.25-.66 3.83 3.83 0 0 1 1.22-.34 1.95 1.95 0 0 1 1.07.2 1.98 1.98 0 0 1 .82.9q-.24 2.55-.4 3.37a28.47 28.47 0 0 1-1.07 3.22q.43-.4.94-.8t1.04-.85a13.57 13.57 0 0 0 1.9-1.7 4.1 4.1 0 0 1 3.07-1.23 4.03 4.03 0 0 1 2.57.82 1.02 1.02 0 0 1 .44.66.56.56 0 0 1-.3.58.87.87 0 0 0-.4.5c-.06.2-.14.4-.23.67a3.54 3.54 0 0 1-1.22 1.56 17.9 17.9 0 0 0-1.77 1.44q-1 .9-2.06 1.92t-2.18 2.1q-1.1 1.05-2.07 1.9-2.18 1.94-2.9 1.9a5.28 5.28 0 0 1-1.48-.04 6.2 6.2 0 0 1-1.37-.7q-.53-.33-.23-1.9a15.62 15.62 0 0 1 .63-2.27 18.93 18.93 0 0 0 .82-2.74 36.47 36.47 0 0 1-2.97 2.85 7.22 7.22 0 0 1-1.02.7q-.3.14-.73.4a2.2 2.2 0 0 1-1.9.44 2.67 2.67 0 0 1-1.65-.72.72.72 0 0 1 .03-1.2 54.83 54.83 0 0 1 5.93-7.1z"/></g></g></g></g></svg>