<svg xmlns="http://www.w3.org/2000/svg" width="215" height="146.771"><g><g transform="translate(-21.674 -51.991) translate(21.674 51.991)"><path fill="#bef7ff" d="M203.2 105.9v-.16c0-.3.15-3.07 3.34-8.2 2.16-3.46 3.05-10.18-1.75-14.25-2.5-2.14-1.44-5.3-.5-8.1 1.53-4.55 2.97-8.84-4.4-12.86-1.8-.97-24 .07-30.8.38a.83.83 0 0 1-.86-.97c.05-.28.1-.55.16-.77.07-.42.22-.8.3-1.23.9-5.15 5.65-20.73 5.87-21.83.8-3.2 1.04-7.32.35-15.67a42.54 42.54 0 0 0-1.37-8.36 10.96 10.96 0 0 1-.4 1.38 4.95 4.95 0 0 1-1.1 1.87 5.67 5.67 0 0 1-1.96 1.2c-.02.04-.02.06-.03.1a4.96 4.96 0 0 1-1.1 1.86 7.04 7.04 0 0 1-3.7 1.68 20.73 20.73 0 0 1-3.6.3c-.88 0-1.76-.03-2.64-.1v.07a1 1 0 0 0-.37.2 1.58 1.58 0 0 0-.45 1.5 1.38 1.38 0 0 0 1 .94c.4.18.8.36 1.18.52a17.96 17.96 0 0 0 2.37.75 19.48 19.48 0 0 0 5.07.55 20.27 20.27 0 0 1-5.2 1.03 19.97 19.97 0 0 1-2.74 0c-.36-.04-.7-.08-1.06-.13a1.93 1.93 0 0 0-1.67.12.84.84 0 0 0-.3.64c.15.06.3.13.44.2a17.94 17.94 0 0 0 2.35.74 33.38 33.38 0 0 0 6.37.7 20.44 20.44 0 0 1-7.8 1.88c-.26 0-.5 0-.77 0-.1.4-.2.78-.33 1.16.23.04-.16 1.85-.62 1.9-2.77 7.7-8.17 14.37-13.58 19.57a87.86 87.86 0 0 1-18.68 15.1v-.02c-.3.18-.6.34-.9.5q-1.26.65-2.56 1.17c-1.72.7-4.5 2.45-4.82 2.02-.37-.48 4.54-4.7 6-5.72.07-.44.15-.88.23-1.35.9-5.15 5.46-20.45 5.64-21.72.8-3.2 1.04-7.3.35-15.66a42.46 42.46 0 0 0-1.38-8.36 10.8 10.8 0 0 1-.38 1.4 4.97 4.97 0 0 1-1.1 1.86 5.67 5.67 0 0 1-2 1.2c0 .04 0 .06 0 .1a4.97 4.97 0 0 1-1.1 1.86 7.03 7.03 0 0 1-3.7 1.67 20.65 20.65 0 0 1-3.6.3c-.9 0-1.77-.03-2.65-.1l-.03.16a.97.97 0 0 0-.28.15 1.6 1.6 0 0 0-.46 1.5 1.43 1.43 0 0 0 1.12 1c.33.15.66.3.98.43a18.07 18.07 0 0 0 2.36.76 19.46 19.46 0 0 0 5.08.55 20.24 20.24 0 0 1-5.2 1.04 19.98 19.98 0 0 1-2.75 0c-.5-.05-1-.1-1.52-.18a1.5 1.5 0 0 0-1.12.22.84.84 0 0 0-.3.62c.12.05.24.1.36.16a17.92 17.92 0 0 0 2.37.75 33.36 33.36 0 0 0 6.38.72 20.22 20.22 0 0 1-5.07 1.58 20.02 20.02 0 0 1-2.72.3c-.26 0-.52 0-.77 0-.1.4-.2.77-.33 1.15.24.04-.16 1.85-.62 1.9-2.73 7.5-8.02 14.02-13.38 19.17A89.38 89.38 0 0 1 78.85 75.1h.02a18.1 18.1 0 0 1-2.72 1.83 23.04 23.04 0 0 1-2.8 1.35c-1.9.77-5.45 2.15-5.72 1.72-.25-.28 5.07-4.68 6.66-5.84.07-.48.16-.97.25-1.5.9-5.15 5.16-20.27 5.65-21.73 1.27-5.54 1.04-7.32.36-15.66a42.46 42.46 0 0 0-1.37-8.36 10.77 10.77 0 0 1-.4 1.4 4.97 4.97 0 0 1-1.1 1.87 5.67 5.67 0 0 1-1.97 1.2c0 .03-.02.06-.03.08a4.97 4.97 0 0 1-1.1 1.87A7.04 7.04 0 0 1 70.9 35a20.74 20.74 0 0 1-3.6.3c-1 0-2-.04-2.98-.12a.92.92 0 0 0-.25.14 1.6 1.6 0 0 0-.46 1.5 1.33 1.33 0 0 0 .9.9 15.2 15.2 0 0 0 1.5.7 17.92 17.92 0 0 0 2.38.76 19.47 19.47 0 0 0 5.08.55 20.27 20.27 0 0 1-5.2 1.03 19.97 19.97 0 0 1-2.75 0c-.5-.04-.98-.1-1.5-.17a1.84 1.84 0 0 0-1.55.13.84.84 0 0 0-.3.53c.26.1.5.22.77.32a17.96 17.96 0 0 0 2.36.75 33.36 33.36 0 0 0 6.37.72 20.24 20.24 0 0 1-5.07 1.58 20.02 20.02 0 0 1-2.72.28c-.27.02-.52.02-.78.02-.1.4-.24.77-.35 1.15.24.04-.16 1.85-.62 1.9-2.73 7.5-8.02 14.06-13.4 19.22a87.13 87.13 0 0 1-13.63 11.76 38.84 38.84 0 0 1-4.18 3.2 7.1 7.1 0 0 1-1.7.6c-1.1.2-2.16.38-3.2.55a16.55 16.55 0 0 1 2.33 3.17 36.03 36.03 0 0 1 3.3 8.28 68.83 68.83 0 0 1 2.2 17.53 74.81 74.81 0 0 1-.58 8.85 55.68 55.68 0 0 1-1.83 8.7 34 34 0 0 1-3.56 8.17 15.6 15.6 0 0 1-2.9 3.47c7-.97 33.07-4.4 49.14-4.07 5.47.1 10.92.64 16.7 1.2 13.86 1.33 29.58 2.85 50.5-1.17l.17-.03h.16c6.88.1 44.27-1.5 50.2-5.06.2-.12.37-.23.55-.35a10.9 10.9 0 0 0 1.15-4.85c.1-1.6.22-3.13 1.24-4.3a11.68 11.68 0 0 1 2-1.65c.12-.1.25-.18.37-.27a4.05 4.05 0 0 1 .72-1.23 11.68 11.68 0 0 1 2-1.65c.33-.24.67-.5 1.02-.76 1.6-2.32 2.76-5.78 2.33-11.4z"/><path fill="#e3e1e1" d="M19.55 103.63c.75 0 1.83 1.8 1.83 4.6s-1.08 4.58-1.83 4.58H8.1a4.17 4.17 0 0 0 .6-1.4 21.1 21.1 0 0 0 0-6.5 4.6 4.6 0 0 0-.46-1.27z"/><path fill="#e3e1e1" d="M8.23 124.3a4.4 4.4 0 0 0 .47-1.24 21.1 21.1 0 0 0 0-6.5 4.38 4.38 0 0 0-.58-1.45h11.43c.75 0 1.84 1.8 1.84 4.6s-1.1 4.6-1.85 4.6z"/><path fill="#e3e1e1" d="M6.34 126.38a1.44 1.44 0 0 1-1.12-.54 3.88 3.88 0 0 1-.8-1.3 7 7 0 0 1-.38-3.08 11.35 11.35 0 0 1 .66-2.98c.34-.9 1-1.83 1.64-1.82a1.34 1.34 0 0 1 .96.55 6.02 6.02 0 0 1 .8 1.23 6.56 6.56 0 0 1 0 6.07c-.43.88-1.03 1.8-1.77 1.88z"/><path fill="#e3e1e1" d="M4.04 108.15a11.35 11.35 0 0 1 .66-2.98c.34-.9 1-1.83 1.64-1.82a1.34 1.34 0 0 1 .96.55 6.05 6.05 0 0 1 .8 1.22 6.56 6.56 0 0 1 .02 6.07c-.46.87-1.06 1.8-1.78 1.87a1.44 1.44 0 0 1-1.12-.54 3.9 3.9 0 0 1-.8-1.3 7 7 0 0 1-.38-3.08z"/><path fill="#6140ff" d="M160.35 5.33l.85-1.4a2.94 2.94 0 0 1 .6-.53 3.2 3.2 0 0 1 1.02-.14 10.26 10.26 0 0 1 1.47.02 6.33 6.33 0 0 1 4.8 2.55 9.29 9.29 0 0 1 1.48 5.4 12.64 12.64 0 0 1-.34 2.82 7.84 7.84 0 0 1-.43 1.3 2.5 2.5 0 0 1-.56.9 4.45 4.45 0 0 1-2.24.78c-.2.03-.42.03-.63.05l-.88.05c-.46 0-.9 0-1.37-.02-.98-.04-1.97-.15-2.96-.3-.18 0-.36-.05-.54-.08l-.93-.15-.3-.05c-.14-1.8-.48-7.83.95-11.2z"/><path fill="#6140ff" d="M114.02 11.4l.85-1.4a2.97 2.97 0 0 1 .6-.52 3.22 3.22 0 0 1 1.02-.15 10.26 10.26 0 0 1 1.46.03 6.33 6.33 0 0 1 4.82 2.54 9.29 9.29 0 0 1 1.47 5.4 12.64 12.64 0 0 1-.34 2.83 7.85 7.85 0 0 1-.42 1.3 2.5 2.5 0 0 1-.57.9 4.45 4.45 0 0 1-2.23.78c-.2.04-.42.04-.63.05l-.88.06c-.45.02-.9 0-1.36 0-.98-.06-1.97-.17-2.96-.3-.18-.03-.36-.07-.54-.1l-.93-.14-.3-.06c-.14-1.8-.48-7.83.95-11.2z"/><path fill="#6140ff" d="M66.8 17.33l.86-1.4a2.94 2.94 0 0 1 .6-.53 3.22 3.22 0 0 1 1.02-.14 10.27 10.27 0 0 1 1.48.02 6.33 6.33 0 0 1 4.8 2.55 9.3 9.3 0 0 1 1.5 5.4 12.7 12.7 0 0 1-.36 2.83 7.94 7.94 0 0 1-.43 1.3 2.5 2.5 0 0 1-.57.9 4.46 4.46 0 0 1-2.24.77c-.2.03-.42.03-.63.05l-.88.05c-.45 0-.9 0-1.36-.02-1-.04-1.98-.14-2.97-.28-.18-.03-.36-.06-.54-.1l-.94-.14-.3-.06c-.13-1.8-.48-7.83.95-11.2z"/><path fill="#69debc" d="M37.73 139.66s2.56-.06 4.9-12.58c0 0 17.03 9.56 30.74 6.86s28.8 1.52 28.8 1.52 28.4 1.88 34.38-1.52 32.03-3.62 32.03-3.62 4.33 3.73-16.83 5.84-24.32 3.45-24.32 3.45-25.1 1.47-31.93-1.16-34.22 0-34.22 0z"/><path fill="#abfbfb" d="M78.92 34.68c.3 0 2.37 7.8.1 17.43-1.2 5.16-2.6 6.4-3.5 12.64-.57 3.93-.48 6.64-1.28 6.78-1.07.2-2.82-4.32-3.75-7.6-1.97-6.94-3.02-18.07 1.5-20.47 1.7-.9 2.9.08 4.58-1.17 2.98-2.24 2.07-7.6 2.34-7.6z"/><path fill="#abfbfb" d="M125.98 25.27c.32 0 2.37 7.8.12 17.43-1.2 5.15-2.6 6.4-3.5 12.63-.58 3.93-.5 6.65-1.3 6.8-1.07.17-2.8-4.34-3.74-7.6-1.97-6.96-3-18.1 1.52-20.48 1.68-.9 2.9.08 4.56-1.17 2.98-2.25 2.08-7.6 2.34-7.6z"/><path fill="#abfbfb" d="M172.83 16.48c.32 0 2.38 7.8.12 17.43-1.2 5.16-2.6 6.4-3.5 12.64-.58 3.93-.5 6.65-1.3 6.8-1.07.17-2.8-4.34-3.74-7.6-1.95-6.96-3-18.1 1.53-20.48 1.7-.9 2.9.08 4.56-1.17 2.98-2.25 2.08-7.62 2.33-7.62z"/><path fill="#69debc" d="M83.35 76.28c-.6-2.5 7.74-3.6 15.9-12.63 2.14-2.36 5.98-8.32 7.2-8.2.86.1.42 1.54 1.02 4.1 2.08 8.87 5.57 10.58 4.74 13.23-2.1 6.72-28.05 6.87-28.85 3.5z"/><path fill="#69debc" d="M133.25 67.96c-.7-2.46 7.6-3.92 15.38-13.28 2.03-2.44 5.63-8.56 6.83-8.48.88.05.5 1.52 1.2 4.06 2.44 8.77 6 10.33 5.28 13-1.83 6.8-27.75 8.03-28.7 4.7z"/><path fill="#69debc" d="M59.22 63.3c-.76-2.53-.42-4-1.3-4.04-1.2-.05-4.66 6.15-6.63 8.64-5.5 6.93-11.34 9.7-13.85 11.62l-.03.02a4.13 4.13 0 0 0-1.07 1.1 12.15 12.15 0 0 1-8.56 3.5c5.27 3.28 6.9 16.9 6.9 16.9a18.83 18.83 0 0 0 1.03-3 19.3 19.3 0 0 1 7.8-10.84 53.33 53.33 0 0 1 14.98-6.37c3.33-1.14 5.83-2.7 6.3-4.66.67-2.7-2.93-4.17-5.58-12.88z"/><path fill="#fff" d="M10.55 108.72a1.3 1.3 0 0 1 1.17-1.2c2.36-.2 6.72-.27 7.8.1 1.03.38.93 4.53-.64 4.4-2.68-.25-7.23.5-8.23-.53-.42-.44-.17-1.85-.1-2.78z"/><path fill="#fff" d="M10.55 121.97a1.3 1.3 0 0 1 1.17-1.2c2.36-.2 6.72-.27 7.8.1 1.03.38.93 4.53-.64 4.4-2.68-.26-7.23.5-8.23-.53-.42-.43-.17-1.84-.1-2.77z"/><ellipse cx="1.187" cy="2.462" fill="#fff" rx="1.187" ry="2.462" transform="translate(4.792 107.246)"/><ellipse cx="1.187" cy="2.462" fill="#fff" rx="1.187" ry="2.462" transform="translate(4.792 120.491)"/><path fill="#961caf" d="M17.83 126.67h1.02c1.4 0 2.56-2.4 2.56-5.33s-1.13-5.32-2.55-5.32c1.4 0 2.56-2.38 2.56-5.32s-1.13-5.32-2.55-5.32h-1.4c.74-2.06 1.63-3.2 2.37-3.2 1.57 0 3.86 5.2 3.86 13.37s-2.3 13.38-3.86 13.38c-.6 0-1.34-.8-2-2.26z"/><path fill="#6140ff" d="M20.14 129.9c2.67 0 4.84-6.42 4.84-14.35s-2.17-14.36-4.84-14.36c-1.33 0-2.53 1.6-3.4 4.18H15.5c.83-6.72 2.46-11.2 4-12.8l.23 3.43.43-3.95a1.27 1.27 0 0 1 .4-.12l.16 3.5.3-3.45a1.56 1.56 0 0 1 .36.17l.22 6.17.44-5.58c2.13 2.5 4.4 10.53 4.4 22.32 0 11.83-2.28 19.88-4.43 22.35l-.25-4.67-.53 5.34a1.25 1.25 0 0 1-.23.08l-.4-2.64-.48 2.56c-1.55-.82-3.33-4.87-4.35-11.4h1.3c.85 2.03 1.9 3.25 3.07 3.25z"/><path fill="#6140ff" d="M17.45 129.72a15.38 15.38 0 0 0 2 5.74c.5.76.82 1.12 1.55 1 1.88-.33 3.77-7.78 3.3-7.82-.78-.05-.62 2.5-2.55 3.26a3.38 3.38 0 0 1-2.43-.05c-1.1-.5-1.87-3.1-1.87-2.13z"/><path fill="#2df5f5" d="M22.58 143l-.26-3.1-.44 3.53-.05.03-.26-4.04-.36 3.44a3.3 3.3 0 0 1-2.04-1.05c-2.5-2.4-4.52-7.9-5.63-14.75v-.38h.97c1.14 7.46 3.35 12.53 5.9 12.53 3.7 0 6.72-10.8 6.72-24.14s-3-24.13-6.72-24.13c-2.76 0-5.12 5.95-6.16 14.45h-1v-.47c1.25-9.55 4.15-16.27 7-17.47l.23 1.47.32-1.64a2.2 2.2 0 0 1 .32-.05l.15 2.13.25-2.28c.12.03.25.05.37.1l.07.02a4.05 4.05 0 0 1 .68.34 6.45 6.45 0 0 1 1.63 1.54 14.52 14.52 0 0 1 1.84 3.38 40.13 40.13 0 0 1 2.1 7.5 76.27 76.27 0 0 1 1 7.8c.2 2.6.32 5.23.3 7.85a75.03 75.03 0 0 1-.35 7.84 65.8 65.8 0 0 1-1.14 7.75 37.15 37.15 0 0 1-2.33 7.42 14.46 14.46 0 0 1-1.97 3.3 7.72 7.72 0 0 1-1.15 1.12z"/><path fill="#219b95" d="M16.27 135.72c.3.96 1.28 4.67 2.95 5.93a3.2 3.2 0 0 0 2.4.7c2.6-.22 4.97-5.35 4.3-5.38-1.07-.03-2.22 2.8-3.75 3.25a4.22 4.22 0 0 1-2.54-.26c-1.6-.9-3.36-4.9-3.36-4.24z"/><g><path fill="#6140ff" d="M163.88 15.67s4.53 1.52 5.5-.73 1.15-10.7-3.8-9.85c-2.4.4-1.7 10.57-1.7 10.57z"/></g><g><path fill="#6140ff" d="M116.92 22.2s4.52 1.53 5.48-.72 1.16-10.7-3.8-9.85c-2.38.4-1.68 10.58-1.68 10.58z"/></g><g><path fill="#6140ff" d="M69.54 27.26s4.52 1.52 5.48-.73 1.17-10.7-3.8-9.85c-2.38.4-1.68 10.58-1.68 10.58z"/></g><g><path d="M162.7 10.96a21.8 21.8 0 0 0-.24-3.42 21.82 21.82 0 0 0-.25 3.42 21.6 21.6 0 0 0 .26 3.43 21.6 21.6 0 0 0 .24-3.44z"/><path d="M116.55 17.04a21.82 21.82 0 0 0-.24-3.43 21.94 21.94 0 0 0-.23 3.44 21.6 21.6 0 0 0 .24 3.42 21.6 21.6 0 0 0 .25-3.42z"/><path d="M69.53 22.96a21.93 21.93 0 0 0-.24-3.42 22.05 22.05 0 0 0-.25 3.42 21.6 21.6 0 0 0 .24 3.42 21.7 21.7 0 0 0 .23-3.42z"/><path d="M210.1 78.28c-.3-.26.5-2.6.78-3.5 1.52-4.5 3.17-13.94-6.3-17.7-1.86-.74-23.07-.4-28.1-.47.87-4.85 1.92-10.1 3.35-13.73 2.2-5.6 3.3-9.12 2.24-22.1-.6-7.27-1.83-11.63-4.12-14.6l-.1-.14c-.17-.2-.3-.38-.46-.54-2.92-3.36-7.65-5.2-14.06-5.5-.1 0-.18 0-.26 0a5.22 5.22 0 0 0-3.86 1.66c-3.13 3.2-3.6 10.64-3.47 16.35-.1.83-.22 1.7-.34 2.6q-.26 2.04-.58 4.4a3.28 3.28 0 0 0-1.24 2.42 3.63 3.63 0 0 0 .35 1.98 3.54 3.54 0 0 0-1.3 1.8 3.7 3.7 0 0 0-.16 1.97 2.3 2.3 0 0 0 .63 1.16c-3.78 11.75-15.05 21.37-21.68 26.2l-.6.1a67.55 67.55 0 0 1 2.87-11.24c2.2-5.6 3.3-9.13 2.24-22.12-.6-7.28-1.84-11.64-4.13-14.6l-.1-.12c-.15-.2-.3-.38-.45-.55-2.9-3.35-7.64-5.2-14.05-5.47-.1 0-.17 0-.26 0a5.22 5.22 0 0 0-3.86 1.64c-3.12 3.2-3.6 10.65-3.46 16.36-.12.82-.23 1.67-.35 2.58q-.26 2.06-.58 4.4a3.28 3.28 0 0 0-1.26 2.44 3.63 3.63 0 0 0 .36 1.98 3.54 3.54 0 0 0-1.3 1.8 3.7 3.7 0 0 0-.17 1.97 2.3 2.3 0 0 0 .62 1.15c-3.95 12.15-16 22-23.06 26.93l-.26.04a70.77 70.77 0 0 1 3.04-12.07c2.2-5.6 3.3-9.12 2.24-22.1-.6-7.28-1.83-11.65-4.12-14.6l-.1-.14c-.16-.2-.3-.37-.46-.54-2.9-3.35-7.64-5.2-14.05-5.47-.1 0-.2-.02-.27-.02a5.2 5.2 0 0 0-3.86 1.65c-3.13 3.2-3.62 10.65-3.47 16.36-.1.8-.22 1.66-.34 2.57q-.27 2.05-.6 4.4a3.28 3.28 0 0 0-1.23 2.43 3.63 3.63 0 0 0 .35 1.98 3.54 3.54 0 0 0-1.3 1.8 3.7 3.7 0 0 0-.17 1.97 2.28 2.28 0 0 0 .63 1.16C54.9 62.7 36.83 74.37 32.77 76.83c-4.53.85-7.9 1.5-9.7 1.84-5.58.3-9.9 7.6-11.92 20.15h-5.5C2.3 98.8 0 102.6 0 108.05a13.4 13.4 0 0 0 1.36 6.24 14 14 0 0 0-1.05 5.6c0 5.42 2.33 9.22 5.65 9.22h5.7c1.47 7.15 3.85 12.6 6.74 15.36a7.43 7.43 0 0 0 5.18 2.3c.08 0 .15 0 .22 0h.11l1.75-.23c.3-.04 29.2-4.25 47.4-4.25.74 0 1.47 0 2.2.02 5.23.1 10.54.62 16.15 1.17a235.34 235.34 0 0 0 23.53 1.43 144.17 144.17 0 0 0 27.27-2.6c.28 0 .74 0 1.35 0 5.77 0 43.17-1.4 50.17-5.6 6.2-3.7 6.53-8.6 6.74-11.54a9.18 9.18 0 0 1 .23-1.82 12.44 12.44 0 0 1 1.23-.96c3.13-2.26 8.96-6.45 8.1-18.64.06-.47.48-2.46 2.65-5.94 2.93-4.72 4.06-13.88-2.57-19.52zM160.84 5.72l.4 4.74.5-6.25a3.16 3.16 0 0 1 .64-.55 3.45 3.45 0 0 1 1.1-.15 11.02 11.02 0 0 1 1.6.02 6.8 6.8 0 0 1 5.16 2.74 9.97 9.97 0 0 1 1.6 5.78 13.57 13.57 0 0 1-.38 3.05 8.42 8.42 0 0 1-.46 1.4 2.68 2.68 0 0 1-.63.97 4.78 4.78 0 0 1-2.4.83c-.22.02-.45.03-.68.04l-.5-5.6-.45 5.66c-.48 0-.97 0-1.46-.03-1.06-.05-2.13-.16-3.2-.3-.18-.04-.38-.07-.57-.1l-.53-6.05-.47 5.9-.3-.07c-.17-1.94-.54-8.42 1-12.03zm-46.15 6.52l.42 4.74.5-6.25a3.2 3.2 0 0 1 .63-.55 3.46 3.46 0 0 1 1.1-.16 11.02 11.02 0 0 1 1.6.02 6.8 6.8 0 0 1 5.16 2.74 9.97 9.97 0 0 1 1.57 5.78 13.57 13.57 0 0 1-.36 3.06 8.52 8.52 0 0 1-.45 1.4 2.7 2.7 0 0 1-.62.97 4.78 4.78 0 0 1-2.4.82c-.22.02-.45.03-.68.04l-.5-5.6-.44 5.66c-.47 0-.96 0-1.45-.02-1.05-.06-2.12-.17-3.18-.32-.2-.03-.4-.06-.58-.1l-.54-6.03-.47 5.88-.32-.06c-.16-1.95-.53-8.42 1-12.03zm-47 6.36l.4 4.74.5-6.25a3.16 3.16 0 0 1 .63-.57 3.46 3.46 0 0 1 1.12-.15 11.03 11.03 0 0 1 1.58.02 6.8 6.8 0 0 1 5.17 2.74 9.98 9.98 0 0 1 1.58 5.78 13.63 13.63 0 0 1-.37 3.05 8.52 8.52 0 0 1-.45 1.4 2.7 2.7 0 0 1-.62.98 4.8 4.8 0 0 1-2.4.83c-.2.02-.44.03-.67.04l-.5-5.6-.44 5.66c-.5 0-.98 0-1.47-.02-1.05-.06-2.12-.17-3.18-.32-.2-.03-.4-.06-.58-.1l-.53-6.03-.47 5.9-.3-.07c-.17-1.94-.54-8.42 1-12.03zm-46.7 84.5c.8.02 1.98 1.94 1.98 4.94s-1.17 4.93-1.97 4.93H8.7a4.48 4.48 0 0 0 .64-1.53 18.54 18.54 0 0 0 .37-3.7 14.43 14.43 0 0 0-.35-3.26 4.95 4.95 0 0 0-.5-1.37zm1.05 25.56c2.87 0 5.2-6.9 5.2-15.4s-2.33-15.42-5.2-15.42c-1.43 0-2.72 1.7-3.66 4.5h-1.32c.9-7.23 2.64-12.04 4.28-13.76l.26 3.7.45-4.26a1.35 1.35 0 0 1 .42-.13l.18 3.76.33-3.7a1.68 1.68 0 0 1 .38.17l.24 6.63.47-6c2.3 2.68 4.72 11.3 4.72 23.97 0 12.7-2.46 21.34-4.76 24l-.3-5.03-.55 5.73a1.34 1.34 0 0 1-.26.08l-.42-2.82-.5 2.73c-1.68-.86-3.6-5.2-4.68-12.22h1.4c.9 2.18 2.05 3.48 3.3 3.48zm-2.14-3.48H21c1.5 0 2.74-2.55 2.74-5.7s-1.23-5.72-2.75-5.72c1.5 0 2.74-2.56 2.74-5.72s-1.23-5.7-2.75-5.7h-1.5c.8-2.22 1.74-3.46 2.53-3.46 1.7 0 4.15 5.6 4.15 14.37s-2.45 14.37-4.15 14.37c-.66 0-1.43-.87-2.14-2.44zM4.33 107.96a12.2 12.2 0 0 1 .7-3.2c.37-.96 1.1-1.96 1.77-1.95a1.44 1.44 0 0 1 1.04.6 6.5 6.5 0 0 1 .86 1.3 7.5 7.5 0 0 1 .56 3.33 6.94 6.94 0 0 1-.54 3.2c-.5.94-1.13 1.95-1.9 2.02a1.55 1.55 0 0 1-1.2-.58 4.18 4.18 0 0 1-.87-1.4 7.5 7.5 0 0 1-.4-3.3zm2.47 16.92a1.54 1.54 0 0 1-1.2-.6 4.17 4.17 0 0 1-.85-1.37 7.5 7.5 0 0 1-.4-3.3 12.18 12.18 0 0 1 .7-3.2c.36-.97 1.08-1.96 1.76-1.96a1.44 1.44 0 0 1 1.04.6 6.47 6.47 0 0 1 .86 1.3 7.56 7.56 0 0 1 .64 3.32 7 7 0 0 1-.62 3.2c-.5.94-1.13 1.95-1.9 2zm2.03-.48a4.73 4.73 0 0 0 .5-1.32 15.57 15.57 0 0 0 .54-3.34 18.07 18.07 0 0 0-.52-3.63 4.7 4.7 0 0 0-.64-1.56H21c.8 0 1.96 1.92 1.96 4.93S21.8 124.4 21 124.4zm16.13 18.3l-.28-3.3-.47 3.8-.05.02-.27-4.34-.4 3.7a3.52 3.52 0 0 1-2.2-1.14c-2.7-2.58-4.84-8.5-6.03-15.84v-.4h1.04c1.22 8 3.6 13.44 6.32 13.44 4 0 7.22-11.6 7.22-25.9S26.6 86.8 22.62 86.8c-2.96 0-5.5 6.38-6.6 15.5h-1.08v-.5c1.34-10.26 4.45-17.47 7.5-18.77l.26 1.58.34-1.76a2.34 2.34 0 0 1 .35-.05l.15 2.28.27-2.45c.13.03.27.05.4.1.03 0 .06.02.1.03a4.27 4.27 0 0 1 .72.36 6.93 6.93 0 0 1 1.75 1.65 15.6 15.6 0 0 1 1.97 3.62A43 43 0 0 1 31 96.48a81.88 81.88 0 0 1 1.1 8.36c.22 2.8.34 5.62.32 8.44a80.55 80.55 0 0 1-.38 8.4 70.65 70.65 0 0 1-1.22 8.32 39.95 39.95 0 0 1-2.5 7.97 15.48 15.48 0 0 1-2.12 3.55 8.3 8.3 0 0 1-1.24 1.2zm184.17-47.13c-3.15 5.07-3.3 7.8-3.3 8.1V103.82c.78 10.03-3.5 13.12-6.34 15.16a11.53 11.53 0 0 0-2 1.64c-1 1.15-1.1 2.65-1.2 4.24-.2 2.65-.4 5.66-4.73 8.25-5.87 3.53-42.78 5.12-49.57 5h-.17l-.16.04c-20.66 3.98-36.18 2.48-49.87 1.15-5.7-.55-11.08-1.08-16.48-1.2-15.86-.3-41.6 3.08-48.5 4.04a15.42 15.42 0 0 0 2.85-3.43 33.66 33.66 0 0 0 3.52-8.08 55.14 55.14 0 0 0 1.8-8.6 74.12 74.12 0 0 0 .55-8.75 68.17 68.17 0 0 0-2.17-17.34 35.67 35.67 0 0 0-3.25-8.2 15.42 15.42 0 0 0-2.7-3.53 7.6 7.6 0 0 0-1.86-1.27 4.73 4.73 0 0 0-.55-.2v-.2c2.76-.5 5.75-.97 9.03-1.6a7 7 0 0 0 1.66-.56 38.4 38.4 0 0 0 4.15-3.17c7.73-5.44 20.94-16.5 24.6-30.54.24 0 .5 0 .76 0a19.76 19.76 0 0 0 2.7-.3 19.97 19.97 0 0 0 5-1.56 19.18 19.18 0 0 1-5.04 0 18 18 0 0 1-2.4-.5l-.24-.06a1.82 1.82 0 0 1-1.57-.6.88.88 0 0 1 .17-1.12 1.8 1.8 0 0 1 1.54-.15c.5.08.98.13 1.48.17a19.68 19.68 0 0 0 2.7 0 19.98 19.98 0 0 0 5.14-1 19.2 19.2 0 0 1-5-.56 17.66 17.66 0 0 1-2.35-.74 14.98 14.98 0 0 1-1.5-.7 1.32 1.32 0 0 1-.87-.9 1.57 1.57 0 0 1 .45-1.48 1.02 1.02 0 0 1 .6-.2c.15-1.03.28-2 .4-2.94 0-.12.03-.22.04-.33h.07q.86.1 1.7.18c1.16.1 2.3.15 3.47.14a20.44 20.44 0 0 0 3.54-.3 6.94 6.94 0 0 0 3.67-1.66 4.92 4.92 0 0 0 1.08-1.84 10.7 10.7 0 0 0 .47-1.8 15.7 15.7 0 0 0 .22-3.54 12.9 12.9 0 0 0-1.3-5.1c3 1.63 4.7 5.54 5.4 14.2.8 9.6.33 13.55-.76 16.97a8.9 8.9 0 0 1-1.1.92 3.55 3.55 0 0 1-2.26.8 4.1 4.1 0 0 0 2.48.7c-.1.28-.2.56-.33.84-1.85 4.7-3.07 11.68-3.96 16.77-.1.58-.2 1.12-.28 1.65a20.2 20.2 0 0 1-2 2.13c-1.35 1.26-4.8 3.18-4.55 3.48.27.43 3.8-.94 5.66-1.7a22.57 22.57 0 0 0 2.76-1.33 17.88 17.88 0 0 0 2.67-1.8l-.02-.02c5.96-3.73 24.03-16.25 28.4-33.07.25 0 .5 0 .76 0a19.6 19.6 0 0 0 2.7-.3 19.94 19.94 0 0 0 5.02-1.55 19.13 19.13 0 0 1-5.05 0 17.75 17.75 0 0 1-2.4-.5 1.7 1.7 0 0 1-1.4-.6.88.88 0 0 1 .16-1.12 1.48 1.48 0 0 1 1.12-.22c.5.1 1 .14 1.5.18a19.7 19.7 0 0 0 2.7 0 19.95 19.95 0 0 0 5.14-1 19.2 19.2 0 0 1-5.02-.56 17.82 17.82 0 0 1-2.34-.74c-.32-.13-.64-.27-.96-.42a1.42 1.42 0 0 1-1.1-.98 1.57 1.57 0 0 1 .44-1.5.96.96 0 0 1 .27-.14c.14-1.1.28-2.2.42-3.2 0-.1.02-.2.04-.3h.06q.86.1 1.7.17c1.15.1 2.3.17 3.46.16a20.46 20.46 0 0 0 3.55-.3 6.93 6.93 0 0 0 3.65-1.66 4.92 4.92 0 0 0 1.1-1.85 10.8 10.8 0 0 0 .46-1.78 15.65 15.65 0 0 0 .2-3.56 12.9 12.9 0 0 0-1.28-5.1c2.98 1.65 4.68 5.55 5.4 14.23.8 9.58.32 13.54-.77 16.96a8.88 8.88 0 0 1-1.1.9 3.56 3.56 0 0 1-2.26.8 4.08 4.08 0 0 0 2.5.7c-.12.28-.23.56-.34.85-1.86 4.7-3.08 11.66-3.97 16.75q-.18 1.07-.35 2.03c-.58.55-1.2 1.1-1.82 1.6-1.37 1.1-4.36 2.87-3.97 3.35.3.43 3.04-1.3 4.75-2 .85-.34 1.7-.72 2.52-1.15.3-.16.6-.32.9-.48 1.04-.6 24.64-14.4 29.72-34.17.25 0 .5 0 .76 0a19.76 19.76 0 0 0 2.7-.3 19.97 19.97 0 0 0 5-1.56 19.18 19.18 0 0 1-5.05 0 17.8 17.8 0 0 1-2.4-.5c-.06 0-.12-.03-.2-.05a1.62 1.62 0 0 1-1.28-.6.88.88 0 0 1 .17-1.12 1.9 1.9 0 0 1 1.64-.1c.35.03.7.08 1.04.1a19.68 19.68 0 0 0 2.7 0 19.98 19.98 0 0 0 5.15-1 19.2 19.2 0 0 1-5.02-.55 17.7 17.7 0 0 1-2.32-.74c-.4-.16-.78-.34-1.16-.52a1.36 1.36 0 0 1-1-.94 1.57 1.57 0 0 1 .46-1.5.97.97 0 0 1 .36-.17c.15-1.08.28-2.12.4-3.1.03-.1.04-.22.05-.33h.06q.85.1 1.7.2c1.15.1 2.3.14 3.46.13a20.33 20.33 0 0 0 3.54-.3 6.93 6.93 0 0 0 3.66-1.65 4.9 4.9 0 0 0 1.08-1.85 10.7 10.7 0 0 0 .47-1.8 15.6 15.6 0 0 0 .22-3.54 12.9 12.9 0 0 0-1.3-5.12c2.98 1.64 4.68 5.55 5.4 14.22.78 9.6.32 13.54-.77 16.96a8.9 8.9 0 0 1-1.1.92 3.55 3.55 0 0 1-2.26.8 4.08 4.08 0 0 0 2.5.7c-.12.28-.23.56-.34.84-1.86 4.7-3.3 11.77-4.18 16.86-.08.44-.22.8-.3 1.22-.05.22-.1.5-.15.76a.82.82 0 0 0 .84.96c6.7-.3 28.65-1.34 30.42-.37 7.27 3.97 5.85 8.2 4.34 12.7-.93 2.77-1.98 5.92.5 8.02 4.73 4.03 3.86 10.67 1.73 14.1z"/></g></g><g><g><path d="M72 102.03a5.77 5.77 0 0 1-1.84 3.2q-1.5 1.25-3.02 2.46a.97.97 0 0 0 .7.64l1.07.38q2.72 1.5 2.9 3.8a5.1 5.1 0 0 1-1 3.38 10.8 10.8 0 0 1-2.6 2.48l-2.9 1.96a1.6 1.6 0 0 1-.8.28 1.46 1.46 0 0 1-1.5-.74q-.1-2.63-.24-5.23a45.37 45.37 0 0 1-.02-5.17 1.23 1.23 0 0 1-.73-.96.72.72 0 0 1 .2-.53 4.6 4.6 0 0 1 .6-.57 66.03 66.03 0 0 0-.46-8.76 2.45 2.45 0 0 1-2.03-1.17.58.58 0 0 1 .1-.38.9.9 0 0 0 .1-.42 2.63 2.63 0 0 1 1.56-.64 22.2 22.2 0 0 1 2.9.2 7.9 7.9 0 0 1 2.46.67q3.5 1.5 4.2 3.12a3.7 3.7 0 0 1 .38 1.98zm-3.04-1.35q-.24-1.14-2-1.65a5.85 5.85 0 0 1-.8-.35 1.22 1.22 0 0 0-.66-.2.8.8 0 0 0-.27.08q0 .53.05 1.13.06.8.32 2.73.22 1.77.26 2.77a1.32 1.32 0 0 0 .63-.37c.27-.24.43-.37.47-.4a4.23 4.23 0 0 0 1.55-1.6 3.04 3.04 0 0 0 .43-2.15zm-.06 12.3a3.7 3.7 0 0 0 0-.65 2.53 2.53 0 0 0-.7-1.6 6.9 6.9 0 0 0-2.08-.65 1.2 1.2 0 0 0-.47.13c.04.2.07.44.08.7a17.78 17.78 0 0 1-.02 2.02 17.7 17.7 0 0 0-.02 2.06 6.1 6.1 0 0 0 .38 1.8 4.94 4.94 0 0 1 1.1-1 4.6 4.6 0 0 0 1.05-.95 4.04 4.04 0 0 0 .7-1.84z"/><path d="M76.66 99.47q.12.9.2 1.87.15 2.12.02 6.43t.03 6.5q.06.8.15 1.6a1.13 1.13 0 0 1-1.16.92c-.9 0-1.42-.34-1.56-1.06a20.17 20.17 0 0 1-.3-2.3 57.3 57.3 0 0 1 .07-6.38 56.67 56.67 0 0 0 .07-6.34c-.03-.54-.1-1.07-.17-1.6a1.1 1.1 0 0 1 1.02-.66 2.37 2.37 0 0 1 1.2.26.4.4 0 0 1 .2-.1c.05 0 .1.1.1.3a1.35 1.35 0 0 0 .04.43.2.2 0 0 0 .1.12z"/><path d="M86.74 95.7c.04.56-.3.94-1.05 1.14a3.74 3.74 0 0 0-1.77.8 13.3 13.3 0 0 0-2.82 9.76 15.27 15.27 0 0 0 1.26 5.13q.86 1.94 1.22 2.54a5.13 5.13 0 0 0 2.06 2.06c.32.12.65.23.97.33a.86.86 0 0 1 .56.75 1.42 1.42 0 0 1-.26.94.68.68 0 0 1-.68.36 6.4 6.4 0 0 1-1.28-.3 10.9 10.9 0 0 1-3.5-3.5q-.5-.7-1-1.42a7.05 7.05 0 0 1-.8-1.4 39.18 39.18 0 0 1-.8-4 18.58 18.58 0 0 1-.3-2.1 14.27 14.27 0 0 1 2.55-9.64 5.22 5.22 0 0 1 3.74-2.53 2.63 2.63 0 0 1 1.63.43c.16.1.25.3.27.67z"/><path d="M96.48 95.34a68.27 68.27 0 0 1-2.55 9.42q-2.28 6.8-2.88 9.34a4.25 4.25 0 0 0-.07 1.26 13.07 13.07 0 0 1 .1 1.3 1.05 1.05 0 0 1-1.08 1.2 1.68 1.68 0 0 1-1.17-.3c-.42-.24-.64-.52-.64-.84a17.74 17.74 0 0 1 .77-5.3q.8-2.57 1.58-5.14a65.27 65.27 0 0 0-4.4-8.4.6.6 0 0 1-.12-.3.83.83 0 0 1 .35-.68 1.28 1.28 0 0 1 .74-.35q.07 0 1.22.26a22.56 22.56 0 0 1 1.84 2.95q.83 1.54 1.63 3.08.5-1.9 1-3.8a16.93 16.93 0 0 1 1.33-3.68.92.92 0 0 1 .84-.5 2 2 0 0 1 1.5.5z"/><path d="M106.2 94.3q.06.84-1.05 1.14a3.74 3.74 0 0 0-1.76.8 13.3 13.3 0 0 0-2.83 9.77 15.27 15.27 0 0 0 1.25 5.13q.86 1.95 1.22 2.55a5.14 5.14 0 0 0 2.06 2.05q.5.18.97.34a.86.86 0 0 1 .55.74 1.4 1.4 0 0 1-.26.94.68.68 0 0 1-.68.37 6.44 6.44 0 0 1-1.28-.3 10.9 10.9 0 0 1-3.5-3.5q-.5-.68-1-1.4a7.08 7.08 0 0 1-.8-1.4 39.53 39.53 0 0 1-.8-4 18.83 18.83 0 0 1-.3-2.12 14.27 14.27 0 0 1 2.55-9.63 5.22 5.22 0 0 1 3.75-2.53 2.62 2.62 0 0 1 1.63.42c.16.08.25.3.27.66z"/><path d="M115.85 108.9q-.06.04-3.47 2.87a21.62 21.62 0 0 1-3.55 2.5.83.83 0 0 1-.37.12 1.03 1.03 0 0 1-.85-.52q-.6-.7-.64-.74-.26-2.74-.2-7.7.08-5.24-.08-7.56-.12-1.6-.34-3a1.4 1.4 0 0 1 1-.47c.8-.05 1.27.2 1.43.78q.28 2.56.34 7.7t.3 7.67a15.46 15.46 0 0 0 2.2-1.47 21.66 21.66 0 0 1 2.1-1.57 4.07 4.07 0 0 0 .55-.1 4.04 4.04 0 0 1 .57-.1.96.96 0 0 1 .94.45 1 1 0 0 1 .1 1.15z"/><path d="M126.6 96.07a33.77 33.77 0 0 1-3.32 1.34 33.98 33.98 0 0 0-3.32 1.34 16.2 16.2 0 0 0-.15 3.66 3.3 3.3 0 0 0 1.18.1 10.56 10.56 0 0 0 1.45-.26 10.86 10.86 0 0 1 1.46-.27 2.9 2.9 0 0 1 1.52.27 2.22 2.22 0 0 1 .5.78.38.38 0 0 1-.2.36 3.8 3.8 0 0 0-.4.47.7.7 0 0 1-.6.3 13.3 13.3 0 0 1-2.4.35 6.98 6.98 0 0 0-2.32.55 15.6 15.6 0 0 0-.33 3.7 3.4 3.4 0 0 0 .36 1.42q1.54.92 5.15.5a.85.85 0 0 0 .5-.27.82.82 0 0 1 .47-.26q.85-.26 1.25 1.23a1.25 1.25 0 0 1-.1.93.93.93 0 0 1-.74.5 23.4 23.4 0 0 1-6.6-.12 3.3 3.3 0 0 1-1.67-.85 2.8 2.8 0 0 1-.94-1.63 21.2 21.2 0 0 1-.35-4.87q-.9-.53-.85-1.1c0-.2.16-.37.45-.55s.45-.35.48-.52.04-1.17.03-3q-1.76-.2-1.8-1.17a1.68 1.68 0 0 1 1-1.53q.96-.48 1.93-.96a14.84 14.84 0 0 1 2.83-1.26q1.5-.5 3-1a1.92 1.92 0 0 1 .37-.05 4.05 4.05 0 0 1 2.02.5c.02.08.1.23.2.46a1.74 1.74 0 0 1 .15.5.48.48 0 0 1-.2.4z"/><path d="M146 96.72a5.76 5.76 0 0 1-1.85 3.2q-1.5 1.25-3.03 2.45a.97.97 0 0 0 .7.66l1.07.38q2.7 1.5 2.87 3.82a5.1 5.1 0 0 1-.98 3.37 10.82 10.82 0 0 1-2.63 2.47l-2.87 1.96a1.6 1.6 0 0 1-.8.28 1.46 1.46 0 0 1-1.5-.73q-.13-2.63-.25-5.23a45.62 45.62 0 0 1-.03-5.18 1.23 1.23 0 0 1-.72-.95.71.71 0 0 1 .2-.52 4.67 4.67 0 0 1 .6-.56 66.2 66.2 0 0 0-.48-8.76 2.46 2.46 0 0 1-2.03-1.17.58.58 0 0 1 .08-.4.88.88 0 0 0 .1-.4 2.63 2.63 0 0 1 1.56-.66 22.08 22.08 0 0 1 2.9.2 7.9 7.9 0 0 1 2.47.67q3.5 1.52 4.22 3.14a3.7 3.7 0 0 1 .37 1.98zm-3.06-1.35q-.24-1.15-2-1.65a5.66 5.66 0 0 1-.8-.35 1.22 1.22 0 0 0-.65-.2.8.8 0 0 0-.28.08c0 .35.02.73.05 1.12.03.55.14 1.46.32 2.75q.2 1.77.25 2.77a1.32 1.32 0 0 0 .63-.4c.28-.22.44-.36.48-.38a4.23 4.23 0 0 0 1.55-1.6 3.04 3.04 0 0 0 .44-2.15zm-.05 12.3a3.7 3.7 0 0 0 0-.65 2.53 2.53 0 0 0-.7-1.62 6.88 6.88 0 0 0-2.1-.63 1.16 1.16 0 0 0-.46.13 6.85 6.85 0 0 1 .08.68 17.97 17.97 0 0 1-.02 2.03 17.72 17.72 0 0 0-.03 2.07 6.13 6.13 0 0 0 .38 1.8 4.92 4.92 0 0 1 1.1-1.02 4.62 4.62 0 0 0 1.05-.93 4.04 4.04 0 0 0 .7-1.84z"/><path d="M158.35 102.7q-1.54 4.3-4.86 5.32a3.66 3.66 0 0 1-.8.15 5.1 5.1 0 0 1-3.75-1.68 4.82 4.82 0 0 1-1.46-3.32 10.9 10.9 0 0 1 1-5.07 7.56 7.56 0 0 1 1.3-2.03 2.73 2.73 0 0 1 1.78-1.1 1.43 1.43 0 0 1 .97.3 8.65 8.65 0 0 0 2.4.84 3.54 3.54 0 0 1 2.26 1.54 8.1 8.1 0 0 1 1.36 3.52 3.67 3.67 0 0 1-.2 1.55zm-2.64-1.75q-.37-2.26-1.4-2.63a.8.8 0 0 0-.28-.04c-.26.02-.55.25-.9.7a3.02 3.02 0 0 1-.9.9c-.15.08-.36.03-.64-.14a1.43 1.43 0 0 0-.55-.24.2.2 0 0 0-.15.07 3.62 3.62 0 0 0-.9 3 4.03 4.03 0 0 0 .8 2.22q.96 1.2 1.56 1.17a3.5 3.5 0 0 0 2.53-1.9 4.32 4.32 0 0 0 .84-3.12z"/><path d="M168.98 105.1q-.06.03-3.47 2.86a21.64 21.64 0 0 1-3.55 2.5.82.82 0 0 1-.36.12 1.03 1.03 0 0 1-.87-.5c-.4-.48-.62-.72-.65-.74q-.26-2.75-.2-7.7.1-5.25-.08-7.56-.1-1.6-.34-3a1.4 1.4 0 0 1 1-.48q1.2-.08 1.44.78.28 2.55.33 7.68t.3 7.7a15.4 15.4 0 0 0 2.2-1.5 21.56 21.56 0 0 1 2.1-1.56 4 4 0 0 0 .55-.1 4.25 4.25 0 0 1 .57-.1.96.96 0 0 1 .94.44 1 1 0 0 1 .08 1.15z"/><path d="M184.46 88.05a1.57 1.57 0 0 1-.97 1.4q-2 .64-6.98 1.8-.06 7.83.3 13.02.15 1.97.35 3.87a2.8 2.8 0 0 1 0 .9.57.57 0 0 1-.6.52 1.94 1.94 0 0 1-1.54-.66 2.87 2.87 0 0 1-.78-1.6q-.14-1.14-.24-2.42-.13-2.06-.17-6.55-.03-4.3-.22-6.55a11.47 11.47 0 0 0-2.32.33 19.44 19.44 0 0 1-2.36.43 3.75 3.75 0 0 1-2.56-.64c-.3-.54-.43-.8-.43-.83a.75.75 0 0 1 .18-.5 21.3 21.3 0 0 1 4.06-.92 11.42 11.42 0 0 0 4-1.3 7.7 7.7 0 0 0 2.5.2 10.4 10.4 0 0 0 2.67-.53 16.22 16.22 0 0 0 1.88-.58 5.25 5.25 0 0 1 1.87-.32q.56-.04.5.43.85-.06.9.5z"/><path d="M187 88.44q.04.62-.83 1.16a.66.66 0 0 1-.53.07c-.3-.06-.45-.1-.48-.1a.54.54 0 0 0-.36.22 5.63 5.63 0 0 0-1.4 4.23 4.96 4.96 0 0 0 .4 1.67q.16.33 2.73 4.67a11.92 11.92 0 0 1 1.87 4.98 7 7 0 0 1-.6 3.37 5.12 5.12 0 0 1-1.32 1.48 2.88 2.88 0 0 1-1.57.77 1.52 1.52 0 0 1-.53-.05q-.97-.34-1-.97a1.52 1.52 0 0 1 .4-.94.85.85 0 0 1 .57-.22.68.68 0 0 0 .6-.42 6.5 6.5 0 0 0 .45-2.85q-.15-2.02-2.44-5.74a14.48 14.48 0 0 1-2.46-6.02 7.5 7.5 0 0 1 .5-3.46 5.14 5.14 0 0 1 2.23-2.64 3.25 3.25 0 0 1 1.38-.44 2.54 2.54 0 0 1 2.03.57 1.03 1.03 0 0 1 .37.67z"/></g></g></g></svg>