<svg id="Component_8_1" data-name="Component 8 – 1" xmlns="http://www.w3.org/2000/svg" width="85.947" height="85.947" viewBox="0 0 85.947 85.947">
  <ellipse id="Ellipse_197" data-name="Ellipse 197" cx="42.974" cy="42.973" rx="42.974" ry="42.973" fill="#a2f4fc"/>
  <g id="intrmodl_logo_negative" transform="translate(21.542 18.78)">
    <g id="Group_322" data-name="Group 322" transform="translate(0)">
      <path id="Path_225" data-name="Path 225" d="M386.3,245.509l13.009-7.409,12.3,7.094-12.3,7.882Z" transform="translate(-370.134 -238.1)" fill="#196fbc"/>
      <path id="Path_226" data-name="Path 226" d="M410.2,259.482l12.3-7.882v15.87l-12.3,6.989Z" transform="translate(-381.025 -244.506)" fill="#196fbc"/>
      <path id="Path_227" data-name="Path 227" d="M356.6,263.441l12.3-7.041,12.3,7.146L369.01,270.64Z" transform="translate(-356.6 -246.784)" fill="#196fbc"/>
      <path id="Path_228" data-name="Path 228" d="M356.6,269.8l12.41,7.2V291.87l-12.41-7.147Z" transform="translate(-356.6 -253.142)" fill="#196fbc"/>
      <path id="Path_229" data-name="Path 229" d="M386.2,287.6l12.954,7.514v14.924L386.2,302.524Z" transform="translate(-370.089 -261.589)" fill="#196fbc"/>
      <path id="Path_230" data-name="Path 230" d="M410,310.512l12.519-7.252V288.6L410,295.589Z" transform="translate(-380.934 -262.063)" fill="#196fbc"/>
    </g>
  </g>
</svg>
