<svg xmlns="http://www.w3.org/2000/svg" width="519.005" height="293.883"><path fill="#f26941" d="M490.03 0H28.98A28.98 28.98 0 0 0 0 28.98v178.6a28.98 28.98 0 0 0 28.98 29h183.4l45.2 51.26a17.84 17.84 0 0 0 26.77 0l45.22-51.27h160.46A28.98 28.98 0 0 0 519 207.6V28.97A28.98 28.98 0 0 0 490.03 0z"/><path fill="#fff" d="M132.5 67.8c-17.64 0-26.16 15.36-26.16 15.36S97.84 67.8 80.2 67.8 48.12 82 52.06 104.24c4.86 27.48 54.28 64.53 54.28 64.53s49.43-37.05 54.3-64.52c3.93-22.25-10.5-36.45-28.15-36.45z"/><g><g fill="#fff"><path d="M219.2 98.45q8.38-10.06 21.07-10.06 25.67 0 26.04 29.82v50.55h-21.07V118.8q0-6.78-2.92-10.02t-9.7-3.25q-9.25 0-13.4 7.15v56.1h-21.1V56.72h21.1z"/><path d="M301.97 89.85l.66 8.82Q311 88.4 325.3 88.4q15.26 0 20.95 12.02 8.3-12.03 23.7-12.03 12.83 0 19.1 7.46t6.28 22.5v50.4h-21.15v-50.32q0-6.7-2.62-9.8t-9.26-3.1q-9.5 0-13.13 9.03l.07 54.2h-21.08V118.5q0-6.84-2.7-9.9t-9.2-3.07q-8.96 0-12.98 7.44v55.8H282.2V89.85z"/><path d="M417.3 168.77V105.3h-11.75V89.86h11.74v-6.7q0-13.3 7.6-20.62t21.35-7.33a49.3 49.3 0 0 1 10.72 1.46L456.75 73a26.9 26.9 0 0 0-6.4-.66q-11.9 0-11.9 11.16v6.35h15.68v15.46h-15.68v63.47z"/></g></g><path fill="#94000f" d="M212.37 236.57h117.2l-97.1 22.8z"/></svg>