<svg xmlns="http://www.w3.org/2000/svg" xmlns:xlink="http://www.w3.org/1999/xlink" width="533.46" height="533.459" viewBox="0 0 533.46 533.459">
  <defs>
    <filter id="Ellipse_343" x="0" y="0" width="533.46" height="533.459" filterUnits="userSpaceOnUse">
      <feOffset dy="10" input="SourceAlpha"/>
      <feGaussianBlur stdDeviation="21.5" result="blur"/>
      <feFlood flood-color="#223478" flood-opacity="0.129"/>
      <feComposite operator="in" in2="blur"/>
      <feComposite in="SourceGraphic"/>
    </filter>
  </defs>
  <g id="Component_15_1" data-name="Component 15 – 1" transform="translate(64.5 54.5)">
    <g transform="matrix(1, 0, 0, 1, -64.5, -54.5)" filter="url(#Ellipse_343)">
      <ellipse id="Ellipse_343-2" data-name="Ellipse 343" cx="202.23" cy="202.229" rx="202.23" ry="202.229" transform="translate(64.5 54.5)" fill="#fff"/>
    </g>
    <g id="intrmodl_logo_negative" transform="translate(101.375 88.379)">
      <g id="Group_322" data-name="Group 322" transform="translate(0)">
        <path id="Path_225" data-name="Path 225" d="M386.3,272.967,447.518,238.1l57.89,33.384-57.89,37.093Z" transform="translate(-310.225 -238.1)" fill="#196fbc"/>
        <path id="Path_226" data-name="Path 226" d="M410.2,288.693,468.089,251.6v74.681L410.2,359.17Z" transform="translate(-272.906 -218.216)" fill="#196fbc"/>
        <path id="Path_227" data-name="Path 227" d="M356.6,289.536,414.489,256.4l57.888,33.631L415,323.415Z" transform="translate(-356.6 -211.146)" fill="#196fbc"/>
        <path id="Path_228" data-name="Path 228" d="M356.6,269.8,415,303.678V373.66l-58.4-33.631Z" transform="translate(-356.6 -191.41)" fill="#196fbc"/>
        <path id="Path_229" data-name="Path 229" d="M386.2,287.6l60.963,35.362v70.23L386.2,357.83Z" transform="translate(-310.381 -165.193)" fill="#196fbc"/>
        <path id="Path_230" data-name="Path 230" d="M410,391.719l58.914-34.126V288.6L410,321.489Z" transform="translate(-273.218 -163.72)" fill="#196fbc"/>
      </g>
    </g>
  </g>
</svg>
