<svg xmlns="http://www.w3.org/2000/svg" width="879.07" height="711.822"><path fill="#30f2d4" d="M649.05 46.4s-48.15 118.54-23.43 136.77c23.76 17.52 137.42-40.13 137.42-40.13S690 212.7 702.34 230.3s176.4 21.44 176.4 21.44-178.1 27.56-182.9 89.92c-3.9 51.08 71.25 76.47 71.25 76.47s-77.4-8.26-95.9 20.78c-30.4 47.7 112.3 150.02 112.3 150.02s-168.75-85.2-187.28-40.24c-15.36 37.27 10.9 76.17 10.9 76.17s-40-67.75-81.47-45.9C461.4 612.84 457 679.7 457 679.7s-26.2-123.43-69.6-121.26c-50.52 2.53-118.97 153.4-118.97 153.4s40.87-159.95 23.14-162.14c-12.8-1.6-68.7 86.1-68.7 86.1s33.27-97.97 10.23-116.73-130.6 25.56-130.6 25.56 129.06-59.95 100.87-90.9S6.2 491.87 6.2 491.87 185 418.72 189.6 385.35c6.62-47.9-114.93-65.55-114.93-65.55s100.3 26.7 129-46.6c19.94-50.9-86.76-180.7-86.76-180.7s98.76 72.3 135.24 47.6c28.86-19.52 32.66-86.9 32.66-86.9l-.16-.27s30.8 60.18 56.12 53.42c8.62-2.3 25.02-6.05 53.53-94.32 0 0 15.54 114.68 53 117.44 54.1 3.98 76.58-86.13 76.58-86.13s5.75 65.92 43.7 71.9c32.36 5.07 81.77-69.15 81.77-69.15"/><g fill="#fff"><path d="M713.6 450.63c12.04 1.2 23.94 3.12 35.8 5.24q17.75 3.22 35.34 7.22 17.6 3.98 35 8.72c11.62 3.2 23.17 6.6 34.57 10.73-12.05-1.2-23.94-3.1-35.8-5.23q-17.76-3.23-35.34-7.24t-35-8.74c-11.62-3.2-23.17-6.6-34.57-10.72z"/><path d="M704.58 464.7c11.3 4.32 22.3 9.28 33.18 14.42q16.3 7.76 32.23 16.23 15.93 8.44 31.5 17.57c10.37 6.13 20.63 12.45 30.55 19.4-11.32-4.3-22.3-9.26-33.2-14.4q-16.3-7.77-32.22-16.24-15.92-8.46-31.5-17.6c-10.36-6.12-20.62-12.44-30.55-19.38z"/></g><g fill="#fff"><path d="M663.95 112.28c6.4-10.3 13.35-20.13 20.47-29.83q10.72-14.53 22.06-28.56 11.32-14.05 23.25-27.6c7.98-9 16.14-17.88 24.86-26.3-6.4 10.3-13.36 20.14-20.48 29.84Q723.4 44.37 712.05 58.4T688.8 85.96c-8 9.02-16.14 17.9-24.85 26.3z"/><path d="M672.62 126.57c8.86-8.25 18.15-15.93 27.56-23.43q14.15-11.23 28.76-21.8T758.6 60.8c10.06-6.62 20.25-13.05 30.87-18.9-8.86 8.27-18.15 15.95-27.56 23.45q-14.13 11.23-28.76 21.8-14.6 10.57-29.66 20.53c-10.07 6.6-20.26 13.04-30.86 18.9z"/></g><g fill="#fff"><path d="M178.17 586.26c-5.92 10.57-12.42 20.72-19.1 30.74q-10.05 15-20.73 29.52-10.68 14.55-21.98 28.62c-7.57 9.36-15.3 18.6-23.63 27.4 5.92-10.57 12.4-20.72 19.1-30.74q10.04-15 20.73-29.52t22-28.6c7.56-9.37 15.3-18.6 23.6-27.42z"/><path d="M168.87 572.38c-8.48 8.65-17.4 16.75-26.48 24.67q-13.63 11.85-27.74 23.08T85.96 642c-9.75 7.06-19.64 13.95-29.98 20.27 8.48-8.66 17.4-16.75 26.47-24.68q13.6-11.86 27.74-23.08 14.1-11.22 28.7-21.86c9.75-7.06 19.63-13.95 29.97-20.28z"/></g><g fill="#fff"><path d="M141.66 247.4c-12.1-.83-24.05-2.36-35.96-4.1q-17.85-2.67-35.56-6.13-17.7-3.43-35.26-7.63c-11.7-2.83-23.36-5.88-34.88-9.63 12.1.83 24.04 2.37 35.95 4.12q17.86 2.66 35.56 6.12 17.72 3.45 35.27 7.64c11.7 2.83 23.36 5.88 34.9 9.63z"/><path d="M150.22 233.06c-11.45-3.97-22.58-8.57-33.62-13.38q-16.54-7.24-32.73-15.2-16.2-7.94-32.04-16.6c-10.55-5.8-21-11.78-31.14-18.42 11.44 3.96 22.57 8.57 33.6 13.37q16.55 7.24 32.73 15.2t32.04 16.6c10.55 5.8 21 11.8 31.15 18.43z"/></g><g fill="#fff"><path d="M406.07 75.86c1.53 5.23 3.2 10.44 5.14 15.58a140 140 0 0 0 6.65 15.16 77.88 77.88 0 0 0 9.17 14.2 42.73 42.73 0 0 0 6.25 6.2 29.1 29.1 0 0 0 8 4.57 22.3 22.3 0 0 0 4.62 1.16 20.43 20.43 0 0 0 2.3.2c.73.03 1.46.08 2.18.08a48.65 48.65 0 0 0 8.7-.66 49.97 49.97 0 0 0 16.28-5.85 64.85 64.85 0 0 0 13.5-10.33 92.1 92.1 0 0 0 10.76-12.78c1.6-2.27 3.1-4.6 4.52-6.95s2.8-4.74 4.04-7.2q3.8-7.3 6.85-14.9c2-5.06 3.82-10.2 5.38-15.4a151.54 151.54 0 0 0 3.93-15.78c-.88 2.56-1.8 5.1-2.8 7.6q-1.44 3.8-3.02 7.5c-2.1 4.96-4.3 9.85-6.73 14.63-2.37 4.8-4.95 9.5-7.73 14.02a142.16 142.16 0 0 1-9 13.08q-2.43 3.12-5.06 6.02-2.62 2.9-5.5 5.54a74.14 74.14 0 0 1-5.97 4.9 53.8 53.8 0 0 1-6.45 4.04 48.16 48.16 0 0 1-6.9 3.05 42.97 42.97 0 0 1-7.23 1.8 42.05 42.05 0 0 1-7.44.54c-.62-.02-1.24-.07-1.87-.1a14.46 14.46 0 0 1-1.7-.15 16.65 16.65 0 0 1-3.2-.8c-4.24-1.52-8.04-4.8-11.3-8.6a75.53 75.53 0 0 1-8.6-12.8 194.34 194.34 0 0 1-12.43-29.27c-3.48-10.12-6.53-20.43-9.25-30.85-2.78-10.4-5.24-20.9-7.55-31.48.78 10.8 2.33 21.54 4.18 32.23a321.43 321.43 0 0 0 7.32 31.78z"/><path d="M525.3 62.1c.32 2.1.73 4.2 1.17 6.26a98.25 98.25 0 0 0 8.45 24.28 64.15 64.15 0 0 0 7.2 11.06 45.16 45.16 0 0 0 9.98 9.12 36.5 36.5 0 0 0 12.7 5.32c1.14.2 2.25.43 3.5.55a25.16 25.16 0 0 0 3.62.06 30.76 30.76 0 0 0 6.93-1.17 51.15 51.15 0 0 0 12.2-5.5 91.54 91.54 0 0 0 10.56-7.55 163.03 163.03 0 0 0 18.22-17.83c5.62-6.32 10.83-12.95 15.76-19.75 2.5-3.4 4.87-6.86 7.18-10.37 2.1-3.17 4.1-6.4 6.04-9.68-2.46 5.24-4.78 10.56-7 15.9-2.35 5.57-4.52 11.2-6.68 16.86s-4.13 11.35-6.07 17.1q-1.45 4.3-2.82 8.62-1.35 4.34-2.6 8.7a234.9 234.9 0 0 0-7.68 35.78c-.36 3.06-.62 6.16-.73 9.28a66.17 66.17 0 0 0 .3 9.5 35.18 35.18 0 0 0 2.35 9.74 19.95 19.95 0 0 0 2.77 4.7 15.6 15.6 0 0 0 4.38 3.8 24.93 24.93 0 0 0 10.1 2.87 53.94 53.94 0 0 0 9.64-.07 117.55 117.55 0 0 0 18.3-3.28 281.8 281.8 0 0 0 34.67-11.53q4.22-1.7 8.4-3.46 4.2-1.78 8.34-3.62c5.52-2.47 11-5.06 16.43-7.68 10.85-5.33 21.6-10.88 32-17.04-22.32 9.24-44.6 18.33-67.24 26.26a353.5 353.5 0 0 1-34.23 10.3q-4.3 1.02-8.64 1.78c-2.9.5-5.78.92-8.64 1.15a50.95 50.95 0 0 1-8.4.05 18.13 18.13 0 0 1-7.2-1.9 8.57 8.57 0 0 1-2.43-2.1 13.28 13.28 0 0 1-1.82-3.03 28.46 28.46 0 0 1-1.93-7.76 81.9 81.9 0 0 1 .08-17.3c.55-5.85 1.45-11.73 2.55-17.58 1.07-5.86 2.37-11.7 3.74-17.52q1.04-4.37 2.17-8.72 1.1-4.37 2.3-8.7c1.57-5.8 3.3-11.56 4.98-17.34 3.4-11.4 7-22.73 10.77-34.04.15-.25.3-.5.46-.74-.1.15-.23.3-.36.46l.04-.14c-.02.06-.04.12-.07.17a425.3 425.3 0 0 1-32.6 37.1 183.06 183.06 0 0 1-18.5 16.34 88.68 88.68 0 0 1-10.1 6.68 45.66 45.66 0 0 1-10.73 4.52 25.6 25.6 0 0 1-5.44.82 18 18 0 0 1-2.64-.1 25.92 25.92 0 0 1-2.7-.5 31.44 31.44 0 0 1-10.27-4.42 41.67 41.67 0 0 1-8.6-7.63 66.6 66.6 0 0 1-6.86-9.68 124.04 124.04 0 0 1-9.97-22.3 229.1 229.1 0 0 1-6.8-24.05 98.94 98.94 0 0 0 .64 12.64q.36 3.16.85 6.3z"/><path d="M712.3 194.96a117.9 117.9 0 0 0-10.13 15.5 46.15 46.15 0 0 0-3.74 8.97 22.25 22.25 0 0 0-.86 5.25 12.88 12.88 0 0 0 1.14 6.02 10.77 10.77 0 0 0 .85 1.46c.18.24.37.5.56.72.2.2.38.42.58.62a14.28 14.28 0 0 0 2.32 1.86 28.38 28.38 0 0 0 4.58 2.37 71.5 71.5 0 0 0 9.02 2.98c6 1.6 12 2.7 18 3.7 12.02 1.94 24.04 3.22 36.07 4.26 6.02.5 12.04.93 18.06 1.32 6.02.35 12.04.7 18.06.94 24.08.98 48.18 1.37 72.27.66-24-2.02-48-3.8-71.93-5.95-5.98-.55-11.96-1.07-17.93-1.67q-8.95-.84-17.9-1.82c-11.9-1.3-23.8-2.77-35.53-4.74-5.86-.98-11.7-2.12-17.33-3.6a65.18 65.18 0 0 1-8.1-2.64 22.1 22.1 0 0 1-3.45-1.74 7.54 7.54 0 0 1-1.22-.94l-.2-.2c-.05-.06-.08-.1-.14-.17a4 4 0 0 1-.28-.47 5.96 5.96 0 0 1-.52-2.77 15.64 15.64 0 0 1 .56-3.63 42.16 42.16 0 0 1 3.02-7.73 123.72 123.72 0 0 1 9.1-14.98c3.37-4.88 6.97-9.63 10.65-14.34 3.7-4.68 7.46-9.35 11.34-13.93l5.83-6.86q2.93-3.44 5.9-6.82 2.95-3.4 5.96-6.78l6-6.77c-9.3 7.73-18.07 16.02-26.57 24.6a288.4 288.4 0 0 0-24.02 27.33z"/><path d="M838.75 257.75c-6.68 1.3-13.33 2.77-19.97 4.3s-13.23 3.3-19.8 5.1a367.17 367.17 0 0 0-38.9 13.03A203.16 203.16 0 0 0 723.3 299c-2.9 1.92-5.7 4.03-8.44 6.2a93.44 93.44 0 0 0-7.85 7.14 68.2 68.2 0 0 0-6.82 8.33 45.1 45.1 0 0 0-5.1 9.7 38.87 38.87 0 0 0-2.4 10.84 51.6 51.6 0 0 0 .42 10.83 52.26 52.26 0 0 0 2.64 10.46 59.4 59.4 0 0 0 4.64 9.62 67.72 67.72 0 0 0 6.12 8.63 78.85 78.85 0 0 0 7.18 7.62 115 115 0 0 0 16.43 12.6q4.36 2.77 8.9 5.2c3 1.62 6.07 3.16 9.18 4.56a144.23 144.23 0 0 0 19.1 7.24q-4.7-1.98-9.24-4.26-4.55-2.24-8.96-4.72a164.5 164.5 0 0 1-17-10.9 113.4 113.4 0 0 1-15.12-13.03 74 74 0 0 1-11.74-15.7 50.03 50.03 0 0 1-5.87-18.14 47.53 47.53 0 0 1-.12-9.5 32.27 32.27 0 0 1 2.2-8.9 40.13 40.13 0 0 1 4.46-8.2 61.27 61.27 0 0 1 6.15-7.34 91.88 91.88 0 0 1 7.25-6.5c2.57-2.03 5.2-4 7.97-5.8a166.58 166.58 0 0 1 17.2-10.04c5.94-3.07 12.04-5.85 18.2-8.47s12.46-5.05 18.8-7.37c3.15-1.16 6.33-2.27 9.52-3.37s6.37-2.16 9.6-3.2c6.4-2.08 12.9-4 19.37-5.9s13.02-3.72 19.57-5.44c13.08-3.5 26.27-6.67 39.53-9.65-13.53 1.43-26.95 3.7-40.32 6.25z"/><path d="M729.67 415.4c-12.6.35-25.35 1.53-37.7 5.56a51.55 51.55 0 0 0-17.5 9.28 35.45 35.45 0 0 0-3.7 3.65 26.73 26.73 0 0 0-3 4.3 30.3 30.3 0 0 0-3.66 9.84 34.98 34.98 0 0 0-.28 10.3 53.67 53.67 0 0 0 2.08 9.85 80.72 80.72 0 0 0 3.58 9.16c1.4 2.94 2.87 5.83 4.52 8.6a189.5 189.5 0 0 0 23 30.48q6.37 7.03 13.12 13.66 3.38 3.32 6.82 6.55 3.47 3.2 7 6.36c4.7 4.2 9.43 8.33 14.3 12.3s9.76 7.9 14.73 11.74c10 7.6 20.16 14.98 30.75 21.72-9.65-8-19.2-16.1-28.52-24.42-4.68-4.14-9.33-8.3-13.9-12.55s-9.12-8.5-13.57-12.87c-8.88-8.72-17.55-17.65-25.66-27-4.05-4.67-8-9.43-11.66-14.37a152.18 152.18 0 0 1-10.2-15.22c-1.57-2.6-2.95-5.3-4.26-8a74.34 74.34 0 0 1-3.3-8.28 46.5 46.5 0 0 1-1.92-8.48 29.23 29.23 0 0 1 .1-8.4 23.52 23.52 0 0 1 2.65-7.72 24.6 24.6 0 0 1 5.16-6.48 38.4 38.4 0 0 1 7.07-5 58.78 58.78 0 0 1 8.12-3.75 106.77 106.77 0 0 1 17.65-4.8 179.78 179.78 0 0 1 18.4-2.5c6.17-.6 12.4-.9 18.64-1.08q4.7-.13 9.38-.1c3.13-.02 6.26.04 9.4.14-6.2-1-12.46-1.62-18.73-2.04s-12.57-.54-18.88-.45z"/><path d="M720.35 557.46c-10.87-4.58-21.9-8.82-33.1-12.63q-8.4-2.86-16.97-5.3c-5.7-1.6-11.48-3.08-17.32-4.32a167.34 167.34 0 0 0-17.76-2.8 86.13 86.13 0 0 0-18.33-.05 44.7 44.7 0 0 0-9.28 2.12 25.87 25.87 0 0 0-8.67 4.96 20.67 20.67 0 0 0-3.4 3.9l-.7 1.1c-.1.17-.22.35-.32.54l-.27.58-.55 1.16-.26.6-.2.54-.77 2.17c-.12.38-.26.74-.37 1.1l-.32 1.1-.65 2.22c-.2.75-.34 1.5-.52 2.24a66.97 66.97 0 0 0-1.4 9.07 69.9 69.9 0 0 0-.12 9.1c.04 1.53.22 3.03.34 4.54.08.75.2 1.5.28 2.24s.2 1.5.33 2.24l.4 2.23.44 2.2c.15.74.32 1.47.5 2.2s.35 1.45.55 2.17a102.6 102.6 0 0 0 6.22 16.73c.26.55.57 1.06.84 1.6q-3.63-5.38-7.73-10.45c-6.18-7.45-13.1-14.47-21.34-20.04a59.84 59.84 0 0 0-13.4-6.9 42.14 42.14 0 0 0-15.2-2.56 39.67 39.67 0 0 0-15.23 3.5c-1.17.56-2.36 1.14-3.4 1.74l-3.22 1.78-1.6.9-1.58.97-3.13 1.95a123.3 123.3 0 0 0-40.12 42.35c-1.18 2.14-2.37 4.27-3.43 6.48-1.12 2.16-2.1 4.4-3.07 6.63a135.45 135.45 0 0 0-4.95 13.7 128.35 128.35 0 0 0-3.34 14.13 89.33 89.33 0 0 0-1.44 14.36c.4-2.37.9-4.7 1.5-7.03.54-2.32 1.18-4.6 1.86-6.9 1.38-4.54 2.92-9.03 4.72-13.4a146.3 146.3 0 0 1 12.94-25.05 131.93 131.93 0 0 1 39.22-39.25L520 586l1.48-.92 1.52-.85c2.02-1.12 4.1-2.37 6.02-3.27a33.3 33.3 0 0 1 12.5-3.14 37.12 37.12 0 0 1 13 1.77 58.58 58.58 0 0 1 12.35 5.64 93.5 93.5 0 0 1 11.35 8.08 128.03 128.03 0 0 1 10.4 9.56c3.35 3.34 6.5 6.9 9.6 10.5 1.56 1.82 3.06 3.67 4.54 5.55 1.5 1.86 2.94 3.77 4.35 5.7-1.42-2.56-2.7-5.2-3.88-7.88q-1.8-4-3.27-8.13c-.98-2.75-1.9-5.5-2.67-8.3s-1.44-5.62-1.97-8.45a82.65 82.65 0 0 1-1.56-17.1l.05-2.13.13-2.13.07-1.05.1-1.05.25-2.1a66.45 66.45 0 0 1 1.7-8.3c.18-.66.34-1.34.55-2l.68-2 .33-1c.13-.34.27-.65.4-.98l.78-1.95.2-.48.2-.42.43-.82.22-.4c.07-.14.16-.26.25-.4l.5-.73a14.3 14.3 0 0 1 2.5-2.64 20.1 20.1 0 0 1 6.66-3.52 37.54 37.54 0 0 1 7.9-1.6 82.65 82.65 0 0 1 16.84.34 165.38 165.38 0 0 1 17.02 2.8c5.65 1.18 11.28 2.58 16.88 4.12 5.6 1.52 11.2 3.2 16.76 4.95 11.12 3.5 22.15 7.36 33.14 11.4 5.5 2.03 10.97 4.1 16.44 6.2s10.93 4.25 16.37 6.44c10.9 4.32 21.75 8.83 32.62 13.35-10.17-5.95-20.65-11.34-31.2-16.57-10.6-5.15-21.3-10.1-32.17-14.67z"/><path d="M447.65 637.14q-3.1-10.44-6.82-20.7t-8.45-20.22c-1.58-3.3-3.24-6.6-5.04-9.82s-3.75-6.37-5.86-9.44c-4.23-6.1-9.16-12-15.62-16.53a32.22 32.22 0 0 0-10.93-5.05 26.15 26.15 0 0 0-6.18-.7 31.02 31.02 0 0 0-6.08.63 42.86 42.86 0 0 0-11.06 4.05 70.46 70.46 0 0 0-9.62 6.1 126.92 126.92 0 0 0-16.43 15.06q-7.5 8.14-14.1 16.9-6.63 8.74-12.63 17.88c-4.03 6.06-7.84 12.26-11.55 18.5-3.7 6.26-7.3 12.56-10.73 18.95s-6.78 12.83-10 19.3c-6.4 13.02-12.5 26.16-17.87 39.6 6.8-12.77 13.72-25.44 20.95-37.94q5.37-9.4 10.98-18.65c3.75-6.15 7.5-12.3 11.4-18.33 7.85-12.06 15.96-23.94 24.8-35.16 4.43-5.6 9.03-11.07 13.9-16.2a122.44 122.44 0 0 1 15.56-14.15 64.19 64.19 0 0 1 8.63-5.52 36.24 36.24 0 0 1 9.22-3.44 24.6 24.6 0 0 1 4.67-.56 18.86 18.86 0 0 1 4.56.47 26.02 26.02 0 0 1 8.67 3.9c5.5 3.67 10.16 8.95 14.3 14.57 2.06 2.83 3.98 5.8 5.8 8.8s3.6 6.14 5.24 9.3c3.32 6.3 6.28 12.83 9.1 19.44s5.4 13.3 7.83 20.08c4.93 13.54 9.25 27.32 13.2 41.25-1.18-7.16-2.68-14.25-4.32-21.3s-3.52-14.08-5.53-21.06z"/><path d="M294.43 610.4c2.1-11.45 3.95-22.96 5-34.7.24-2.93.43-5.88.5-8.86a72.28 72.28 0 0 0-.23-9.14 30 30 0 0 0-.88-4.86 14.47 14.47 0 0 0-1-2.66 8.33 8.33 0 0 0-2.3-2.88 6.47 6.47 0 0 0-2.1-1.08 6.63 6.63 0 0 0-1.18-.23c-.38-.03-.77-.04-1.15-.03a8.72 8.72 0 0 0-1.82.38 9.8 9.8 0 0 0-1.46.58 21.8 21.8 0 0 0-4.27 2.83 68.22 68.22 0 0 0-6.6 6.34c-2.03 2.18-3.93 4.44-5.8 6.7-3.74 4.54-7.25 9.2-10.68 13.92-6.84 9.43-13.24 19.14-19.48 28.92-6.18 9.84-12.23 19.75-17.83 29.93 6.93-9.32 13.75-18.7 20.7-27.94 6.9-9.3 13.9-18.5 21.08-27.5 3.6-4.5 7.24-8.96 11-13.25q2.83-3.22 5.77-6.25a60.6 60.6 0 0 1 6.05-5.56 16.32 16.32 0 0 1 2.98-1.92 3.06 3.06 0 0 1 .6-.23 2.55 2.55 0 0 1 .22.38 7.63 7.63 0 0 1 .5 1.4 22.9 22.9 0 0 1 .6 3.7 69.3 69.3 0 0 1 .16 8.22c-.1 2.8-.3 5.63-.53 8.46-.48 5.68-1.18 11.37-1.98 17.07-.76 5.7-1.66 11.38-2.6 17.07-1.84 11.38-3.9 22.75-6 34.12-4.2 22.75-8.72 45.46-12.92 68.3 7.1-22.1 13.1-44.54 18.43-67.14q3.97-16.95 7.2-34.1z"/><path d="M242.05 573.8c1-5.33 1.86-10.7 2.43-16.13a114.4 114.4 0 0 0 .66-16.5 63.7 63.7 0 0 0-.86-8.42 37.95 37.95 0 0 0-2.4-8.5 21.8 21.8 0 0 0-1-2.07c-.36-.7-.8-1.36-1.23-2.03a19 19 0 0 0-3.25-3.7 9.67 9.67 0 0 0-1-.8c-.33-.23-.66-.5-1-.7a20.34 20.34 0 0 0-2.15-1.2 25.88 25.88 0 0 0-4.37-1.62 43.46 43.46 0 0 0-8.64-1.32 73.48 73.48 0 0 0-8.44 0 135.92 135.92 0 0 0-16.35 2.02 269.23 269.23 0 0 0-31.5 7.92c-10.3 3.2-20.43 6.86-30.45 10.76-2.8 1.1-5.55 2.3-8.32 3.44q9.48-4.54 18.8-9.47 9.77-5.23 19.3-10.97c3.17-1.9 6.3-3.9 9.4-5.95s6.16-4.16 9.17-6.36a140.02 140.02 0 0 0 17.26-14.5 68.9 68.9 0 0 0 7.5-8.8 41.76 41.76 0 0 0 3.1-5.17c.47-.9.84-1.88 1.24-2.83a26.64 26.64 0 0 0 .92-3.06 18.3 18.3 0 0 0 .42-6.66 17.96 17.96 0 0 0-2.16-6.5 21.87 21.87 0 0 0-4.22-5.14c-.43-.36-.87-.68-1.3-1.02l-.66-.5c-.22-.16-.45-.3-.68-.43l-1.38-.85c-.47-.25-.94-.47-1.4-.7a40.6 40.6 0 0 0-11.6-3.3 80.23 80.23 0 0 0-11.53-.77 161.06 161.06 0 0 0-22.5 1.8c-7.4 1.1-14.7 2.5-21.96 4.13-14.5 3.28-28.75 7.3-42.82 11.84q-8.87 2.87-17.66 5.95 9-3.97 17.95-8.1l10.15-4.75q5.06-2.42 10.08-4.9c6.72-3.3 13.36-6.75 19.97-10.3a374.85 374.85 0 0 0 38.6-23.33c3.08-2.2 6.12-4.5 9.08-6.94a86.68 86.68 0 0 0 8.53-7.92c.66-.76 1.34-1.45 1.97-2.26l.95-1.18c.3-.4.6-.84.9-1.25a24.9 24.9 0 0 0 3.1-5.67c.18-.55.4-1.06.54-1.65s.26-1.2.37-1.8l.16-1.55a15.07 15.07 0 0 0 .1-1.57v-1.58c0-.52-.05-1.05-.08-1.58a28.33 28.33 0 0 0-.4-3.13 32.7 32.7 0 0 0-4.66-11.47 47.56 47.56 0 0 0-7.8-9.08 86.77 86.77 0 0 0-19.2-12.85c-13.57-6.92-27.97-11.53-42.48-15.28-2.34-.58-4.7-1.1-7.04-1.64 2.38.13 4.76.3 7.15.32 3.75.03 7.53-.08 11.3-.33s7.52-.67 11.27-1.3a104.65 104.65 0 0 0 22.03-6.02 80.48 80.48 0 0 0 20-11.6 74.63 74.63 0 0 0 15.65-17.15 77.6 77.6 0 0 0 5.67-10.14c.86-1.73 1.58-3.52 2.32-5.3a36.64 36.64 0 0 0 1.76-5.9 49.81 49.81 0 0 0 .95-11.92A78.2 78.2 0 0 0 209 245a133.33 133.33 0 0 0-6.35-21.95c-2.67-7.08-5.76-13.95-9.08-20.68-3.33-6.72-6.9-13.3-10.66-19.77q-5.65-9.7-11.75-19.07c-2.03-3.13-4.07-6.25-6.17-9.33s-4.23-6.13-6.38-9.17c-4.32-6.08-8.68-12.1-13.22-18s-9.1-11.78-13.83-17.52c-4.7-5.75-9.5-11.44-14.47-16.96q13.24 17.92 25.7 36.35c4.12 6.15 8.24 12.3 12.23 18.54q3 4.68 5.92 9.4c1.95 3.14 3.9 6.3 5.8 9.46q5.7 9.5 10.97 19.23c3.5 6.48 6.88 13.02 10 19.68 3.13 6.64 6 13.4 8.48 20.24a129.84 129.84 0 0 1 5.83 20.84c1.28 7 1.74 14.15.35 20.74a29.4 29.4 0 0 1-1.4 4.77c-.7 1.64-1.35 3.3-2.13 4.9a76.14 76.14 0 0 1-5.12 9.3 70.67 70.67 0 0 1-13.98 15.85 77.56 77.56 0 0 1-18.14 11.18 99.57 99.57 0 0 1-20.6 6.58 143.17 143.17 0 0 1-21.72 2.8c-3.66.18-7.34.28-11.02.25s-7.38-.16-11.06-.4c-2.5-.16-5.02-.42-7.53-.68-4.84-.76-9.68-1.45-14.54-1.94a139.06 139.06 0 0 0 17.15 4c1.54.37 3.08.72 4.6 1.13 7.2 1.9 14.37 3.9 21.43 6.17 7.07 2.24 14.07 4.68 20.9 7.46a178.76 178.76 0 0 1 19.92 9.36 103.56 103.56 0 0 1 9.22 5.76 70 70 0 0 1 8.28 6.75 43.02 43.02 0 0 1 6.55 8 25.93 25.93 0 0 1 3.54 9.16 20.92 20.92 0 0 1 .25 2.4c.02.4.07.8.05 1.23l-.02 1.2a9.2 9.2 0 0 1-.1 1.23l-.12 1.2c-.08.32-.15.63-.22.95s-.23.66-.34 1a18.18 18.18 0 0 1-2.32 4.06c-.25.35-.47.7-.74 1.02l-.82 1c-.5.65-1.15 1.27-1.72 1.92a82.54 82.54 0 0 1-7.88 7.24c-2.8 2.3-5.72 4.48-8.7 6.6-6 4.24-12.2 8.23-18.5 12.06-6.3 3.86-12.75 7.55-19.22 11.16-12.95 7.25-26.14 14.1-39.38 20.88-26.55 13.42-53.43 26.28-80.4 39.1 13.97-4.77 27.93-9.45 41.95-13.88q10.5-3.37 21.06-6.55c7.05-2.1 14.08-4.2 21.15-6.18 14.14-3.9 28.34-7.58 42.64-10.54 7.15-1.46 14.32-2.78 21.5-3.75a157.24 157.24 0 0 1 21.52-1.65 74.26 74.26 0 0 1 10.5.66 34.08 34.08 0 0 1 9.6 2.65c.34.17.7.33 1.06.5l.98.6c.16.1.34.2.5.3l.43.33c.3.23.6.44.9.67a15.14 15.14 0 0 1 2.8 3.32 10.96 10.96 0 0 1 1.35 3.9 12 12 0 0 1-.23 4.3 19.58 19.58 0 0 1-.6 2.23c-.33.73-.57 1.5-.96 2.22a35.66 35.66 0 0 1-2.5 4.37 67.12 67.12 0 0 1-6.6 8.13c-2.43 2.6-5.05 5.06-7.74 7.45s-5.5 4.72-8.35 6.97c-5.7 4.5-11.7 8.7-17.73 12.8s-12.25 8.05-18.52 11.88c-12.5 7.7-25.3 14.96-38.27 21.98 10.23-3.27 20.43-6.54 30.7-9.6q15.33-4.66 30.83-8.65c10.3-2.63 20.68-5 31.1-6.64a140.03 140.03 0 0 1 15.56-1.64 71.44 71.44 0 0 1 7.64.06 36.74 36.74 0 0 1 7.2 1.13 14.75 14.75 0 0 1 5.75 2.8 11.8 11.8 0 0 1 2.05 2.3 15.73 15.73 0 0 1 .85 1.4c.13.26.28.5.4.76l.36.8a31 31 0 0 1 2.05 6.9 63.24 63.24 0 0 1 .9 7.53 119.47 119.47 0 0 1-.16 15.6c-.2 2.62-.44 5.25-.72 7.87s-.6 5.26-.98 7.88c-.73 5.25-1.6 10.5-2.55 15.74s-2 10.47-3.14 15.7c-2.18 10.44-4.7 20.84-7.3 31.26 4.12-9.92 7.56-20.12 10.72-30.4a317.78 317.78 0 0 0 7.83-31.4z"/><path d="M141.86 110.66q3.2 2.14 6.43 4.23 3.24 2.05 6.52 4.05c4.38 2.67 8.8 5.28 13.3 7.76a246.1 246.1 0 0 0 27.94 13.35 150 150 0 0 0 14.8 5.04 96.23 96.23 0 0 0 15.52 3.14 54.2 54.2 0 0 0 16.3-.4 35.54 35.54 0 0 0 8.1-2.6 29.3 29.3 0 0 0 3.8-2.1c.6-.4 1.15-.83 1.73-1.23.56-.43 1.1-.85 1.65-1.3a47.7 47.7 0 0 0 5.83-5.87 61.55 61.55 0 0 0 4.74-6.58 73.72 73.72 0 0 0 3.87-7c1.14-2.4 2.2-4.8 3.16-7.25A127.75 127.75 0 0 0 280.3 99c.63-2.53 1.2-5.05 1.72-7.6.5-2.52.95-5.07 1.35-7.62s.77-5.1 1.05-7.66.5-5.12.72-7.68c.35-5.1.56-10.22.4-15.33 1.58 3.6 3.3 7.12 5.13 10.6 1.9 3.57 3.9 7.1 6.03 10.57a135.37 135.37 0 0 0 14.43 19.8 71.06 71.06 0 0 0 9.1 8.6 35.52 35.52 0 0 0 11.5 6.24 20.7 20.7 0 0 0 6.96.9 19.06 19.06 0 0 0 3.57-.5c1.02-.24 2.05-.5 3.14-.82a26 26 0 0 0 6.26-2.9 32.36 32.36 0 0 0 5.24-4.16 61.1 61.1 0 0 0 8.14-9.86 118.35 118.35 0 0 0 6.4-10.67 203.8 203.8 0 0 0 10.03-22.4 308.73 308.73 0 0 0 13.7-46.65c-.86 1.84-1.68 3.7-2.5 5.55-.78 1.86-1.6 3.7-2.4 5.56-1.56 3.73-3.23 7.4-4.78 11.12-3.2 7.4-6.38 14.77-9.7 22.04-1.67 3.64-3.38 7.25-5.1 10.83-1.8 3.55-3.56 7.1-5.5 10.55-1.9 3.46-3.92 6.82-6.07 10.05-.55.8-1.08 1.6-1.65 2.37-.57.78-1.14 1.55-1.74 2.28a47.5 47.5 0 0 1-3.7 4.24 29.74 29.74 0 0 1-4.1 3.5 19.22 19.22 0 0 1-4.6 2.36c-.82.3-1.73.6-2.67.86a12.84 12.84 0 0 1-2.38.43 15 15 0 0 1-5-.46 30.52 30.52 0 0 1-9.88-4.8 70.8 70.8 0 0 1-8.92-7.5 160.95 160.95 0 0 1-15.53-18.12c-4.78-6.45-9.34-13.1-13.6-19.96.04.1.1.22.15.33q-2.53 15.13-6.26 29.83a190.3 190.3 0 0 1-9.6 28.5 91.25 91.25 0 0 1-6.97 12.97 54.73 54.73 0 0 1-4.34 5.75 41 41 0 0 1-4.98 4.95c-.44.37-.9.72-1.35 1.07-.47.33-.95.68-1.4.98a22.9 22.9 0 0 1-2.88 1.62 28.27 28.27 0 0 1-6.45 2.08 49.45 49.45 0 0 1-14.2.48 98.28 98.28 0 0 1-14.5-2.68c-2.42-.62-4.82-1.3-7.2-2.06s-4.77-1.55-7.13-2.4a288.2 288.2 0 0 1-27.85-11.9q-6.85-3.3-13.6-6.86-3.37-1.78-6.72-3.62-3.35-1.8-6.68-3.68c-8.88-5.02-17.67-10.18-26.35-15.6 3.97 3.23 8.05 6.32 12.2 9.33q6.2 4.54 12.6 8.8z"/></g><g><g fill="#6140ff"><path d="M788.45 156.7q-1.64-4.1-8.07-7.25a198 198 0 0 0-19.83-7.86q-10.08-3.38-19.17-5.87-7.76-2.25-12.75-1.83a15.67 15.67 0 0 0-9 3.84 38.38 38.38 0 0 0-7.82 9.95q-3.8 6.52-8.95 16.7-5.16 8.87-10.63 18.83-5.5 9.96-10.64 19.93t-9.97 19.5q-4.8 9.5-8.4 17.5-3.43-22.9-5.37-36t-2.9-20.2q-.97-7.1-1.3-9.9a40.38 40.38 0 0 1-.3-4.77q-.87-4.23-1.63-7.56a19.52 19.52 0 0 0-2.53-6.12 19.87 19.87 0 0 0-4.86-5.12 34.25 34.25 0 0 0-8.4-4.37q-8.42-3.15-16.74-5.4a188.3 188.3 0 0 0-20.3-4.1q-7.75-1.14-11.42.73t-5.7 9.4q-2.04 10.44-4.22 24.07t-4.35 28.95q-2.18 15.3-4.03 31.06-1.74 14.86-3.18 28.73-.6-7.92-1.16-15.83-1.55-22.15-2.5-42.56t-1.02-36.24q.08-6.47-2.16-10.28t-9.3-5.62q-5.2-.87-10.32-1.97t-11.1-1.9q-5.98-.8-13.14-1.16t-16.26.03q-10.47.05-15.44 4.28a29.1 29.1 0 0 0-7.75 10.52q-7.8 17.4-16.14 39.67-6.75 17.97-13.18 36.28a85.96 85.96 0 0 0-.75-9.94 73.92 73.92 0 0 0-8.46-25.98q-7.72-14.9-18.62-23.7a75 75 0 0 0-23.55-13.04 86.3 86.3 0 0 0-26.1-4.42 129.74 129.74 0 0 0-26.25 2.25A141.98 141.98 0 0 0 299 176.1l-8.65 133.6q-2.57-21.56-4.82-43.06-2.3-22.08-3.95-42.46T279.3 188q-.13-6.46-2.5-10.2t-9.5-5.3q-5.22-.7-10.37-1.6t-11.15-1.53q-6-.6-13.17-.7t-16.25.56q-10.46.42-15.28 4.82a29.05 29.05 0 0 0-7.38 10.76q-7.2 17.7-14.8 40.2t-14.67 45.57q-7.1 23.03-13 44.57t-9.34 37.4a25.22 25.22 0 0 0-.3 7.53 8.45 8.45 0 0 0 5.23 6.96q2.14.96 5 2.4 3.75 1.33 7.34 2.33t6.6 1.75q5.28 1.13 7.73.16t3.75-4.94q2.2-7.43 4.58-15.22t5.72-16.93a256.58 256.58 0 0 1 28.27-9.23q16.1-4.35 32.36-8.62 1.8 8.95 3.4 16.47t3.28 13.78q1.65 6.06 4.05 8.22t7.88 3.04a38.25 38.25 0 0 0 10.17.86q4.88-.27 10.62-.98t7.18-2.47q1.46-1.74.97-5.7-1.15-8.42-2.3-17.5a18.86 18.86 0 0 0 2.05 2.17c1.37 1.23 2.8 2.48 4.32 3.78q6.1 4.28 10.84 7.15a116.8 116.8 0 0 0 11.03 5.8q12.6 5.67 23.8 1.38a163.6 163.6 0 0 0 39.28-17.7 146.63 146.63 0 0 0 29.66-24.32 132.68 132.68 0 0 0 10.97-13.47q-4.23 14.16-7.05 25.45a25.2 25.2 0 0 0-.55 7.5 8.45 8.45 0 0 0 4.98 7.14q2.1 1.04 4.9 2.57 3.7 1.44 7.27 2.57t6.53 1.97q5.24 1.32 7.72.42t3.92-4.8q2.44-7.36 5.1-15.06t6.3-16.73a256.94 256.94 0 0 1 28.56-8.25q16.26-3.8 32.64-7.5 1.48 9 2.83 16.56t2.8 13.9q1.45 6.12 3.77 8.35t7.77 3.32a38.4 38.4 0 0 0 10.13 1.2q4.9-.1 10.64-.62t7.27-2.2q1.53-1.7 1.17-5.7-.26-2.5-.5-5.05l.03.02a67.2 67.2 0 0 0 9.64 3.93q5.2 1.7 10.3 2.82 5.33 1.14 7.33-.07t2.9-5.2q.94-9.54 2.67-21.75t4-26.17q2.28-13.98 5.02-29.06t5.68-30.16q3.23 22.2 7.24 43.1t8.38 36.88c.73 2.53 1.42 4.6 2.08 6.23a16.6 16.6 0 0 0 2.3 4.1 10.56 10.56 0 0 0 3.1 2.7 28.42 28.42 0 0 0 4.2 1.9 130.67 130.67 0 0 0 15.53 4.07 17.02 17.02 0 0 0 4.66.57 6.33 6.33 0 0 0 2.9-.77 5.3 5.3 0 0 0 1.9-2.1q.77-1.44 1.9-3.88 3.57-7.75 9.5-19.38t13-24.68q7.05-13.08 14.55-26.58t14.2-25.02q-3.82 13.08-7.1 27.05t-6 26.72q-2.73 12.75-4.78 23.28t-2.96 17.2q-1.14 5.53.5 8.87t6.76 5.8a44.88 44.88 0 0 0 9.3 3.82q5.32 1.57 10.42 2.7 5.76 1.37 7.77-.4a14.87 14.87 0 0 0 3.57-5.75q1.8-7.77 4.97-19.52t7.1-25.72q3.96-13.97 8.36-29.26t8.8-30.15q4.4-14.85 8.68-28.37t7.66-23.94q2.45-7.32.8-11.44zM221.87 288q-9.9 2.34-19.6 5.12 7.74-22.2 15.55-42.98t14.62-37.95q1.76 17.67 4.22 35.6t5.15 35.92q-10.05 1.92-19.93 4.27zm175.3-52.55a80.2 80.2 0 0 1-4.1 21.2 93.26 93.26 0 0 1-11.4 22.95 113.53 113.53 0 0 1-19.84 22.17 118.35 118.35 0 0 1-29.27 18.43q4.78-29 10.03-57.44t12.23-57.73q14.3-5.04 24.38-1.53t14.3 10.95q4.18 7.44 3.66 21zm103.28 27.45q-9.96 2.02-19.77 4.46 8.5-21.94 17.02-42.43t15.9-37.43q1.15 17.73 3 35.72t3.92 36.1q-10.12 1.57-20.07 3.58z"/><path d="M713.24 370.88q-3.83-3-9.18-6.75a51.58 51.58 0 0 0-10.67-5.83 18.3 18.3 0 0 0-9.7-1.36q-4.4.73-5.9 6.44-9.64 21.6-19.35 42.52t-19.93 41.02q-7.68-18.47-14.74-35t-13.34-29.33a52.12 52.12 0 0 0-7.47-9.92q-3.3-3.16-10.06-4.1a46.38 46.38 0 0 0-13.03-.06q-6.27.9-13.1 1.95-5.63 1.63-6.66 3.83a4.35 4.35 0 0 0-.12 2.6q-2.7-.52-5.38-1.1-5.12-1.1-11.1-1.9t-13.14-1.15q-7.17-.36-16.27 0-10.48.07-15.45 4.3a29.05 29.05 0 0 0-7.74 10.5q-7.8 17.42-16.14 39.68-3.77 10.04-7.44 20.2a46.23 46.23 0 0 0-2.04-15.22 77.9 77.9 0 0 0-11.96-22.65 139.74 139.74 0 0 0-15.66-16.76 41.47 41.47 0 0 0-23.7-9.58 82.4 82.4 0 0 0-27.38 2.9 149.03 149.03 0 0 0-28.64 11.17q-14.38 7.3-27.53 14.73-2.72 1.8-4.8 8.35a98.8 98.8 0 0 0-3.44 16.35q-.67 4.88-1.23 10.35v-.1q-.4-5.75-1.05-10.38a57.73 57.73 0 0 0-5.63-15.54 34.83 34.83 0 0 0-11.78-12.08 58.27 58.27 0 0 0-9.5-5.28 78.22 78.22 0 0 0-11.05-3.9 118.47 118.47 0 0 0-11.94-2.6 86.4 86.4 0 0 0-11.9-1.16 52.24 52.24 0 0 0-8.7.1 67.76 67.76 0 0 0-9.33 1.52 43.26 43.26 0 0 0-9.18 3.28 33.43 33.43 0 0 0-8.18 5.64 109.9 109.9 0 0 0-20.26 23.9 162.34 162.34 0 0 0-14.55 29.04 169.64 169.64 0 0 0-8.66 31.32 164.93 164.93 0 0 0-2.56 31.1 120.6 120.6 0 0 0 3.67 28.3 68.88 68.88 0 0 0 10.06 22.6 41.66 41.66 0 0 0 9.54 10.63 51.66 51.66 0 0 0 11.9 7.3 121.7 121.7 0 0 0 34 6.3 62.96 62.96 0 0 0 18.57-1.8 51.57 51.57 0 0 0 16.3-7.37q11.7-8.4 21.1-22.85 9.24-14.2 15.57-34.38 0 1.75-.03 3.45-.1 11.27-.08 20.18t0 13.6q.08 5.78 1.93 9.07a13.3 13.3 0 0 0 6.27 5.34 31.55 31.55 0 0 0 9.12 2.3q4.7.47 10.82 1.5 5.18.63 6.96-.64t2.57-4.9q1.36-12.17 2.78-24.78t3.3-26.37a170.9 170.9 0 0 0 14.1 12.9q7.7 6.32 15.35 12.1t14.76 10.47q7.1 4.7 12.52 7.8 8.15 3.94 14.06 3.96a30.16 30.16 0 0 0 10.65-1.73q3.92-1.03 6.63-1.83c.08-.02.16-.05.24-.08.23.06.45.14.68.2q3.56 1.14 6.53 2 5.24 1.3 7.72.4t3.92-4.8q2.45-7.35 5.1-15.06t6.3-16.73a255.84 255.84 0 0 1 28.56-8.24q16.26-3.8 32.64-7.5 1.48 9 2.83 16.56t2.8 13.9q1.45 6.12 3.77 8.36t7.77 3.3a38.4 38.4 0 0 0 10.13 1.2q4.9-.1 10.65-.6t7.26-2.22q1.53-1.7 1.17-5.68-1.93-19-3.82-41.22t-3.44-44.38q-1.54-22.14-2.48-42.56-.35-7.44-.58-14.26 4.64 10.2 9.48 20.7 6.64 14.45 13.28 28.78t12.47 27.17q-1.28 15.5-1.48 28.1t-.9 22.27q.07 5.8 1.9 8.63t6.95 5.5q5.04 1.56 10.96 2.92t11.35 2.2q5.86.82 7.78-.25t2.62-5.58q1.35-12.17 2.86-25.12t3.94-28.1q8.48-14.8 17.5-31t17-31.4q8-15.2 14.3-28.24a206.84 206.84 0 0 0 9.28-21.78q1.22-3.68 1.88-6.3a12.73 12.73 0 0 0 .35-4.83 10.42 10.42 0 0 0-1.6-4.2 28.23 28.23 0 0 0-3.5-4.25zM317.72 509.9q-.07 3.47-.14 6.82a22.58 22.58 0 0 0-3.67-5.36q-2.22-2.48-4.8-5.36a77.67 77.67 0 0 0-5.53-5.52 17.82 17.82 0 0 0-9.13-4.86q-4.75-.8-12.17.98-6.3 1.7-15.06 3.48a171.9 171.9 0 0 0-16.76 4.3q-4.37 1.06-7.85 1.93a27.1 27.1 0 0 0-5.84 2.1 6.84 6.84 0 0 0-3.2 2.95q-.84 1.75.3 4.55 5.34 12.22 13 16.88t20.88 2.8a139.9 139.9 0 0 1-6.3 14.27 69.54 69.54 0 0 1-7.2 11.46 28.6 28.6 0 0 1-7.94 7.2 11 11 0 0 1-8.24 1.4q-4.78-1.13-8.04-7.64a51.06 51.06 0 0 1-4.55-15.97 107.5 107.5 0 0 1-.65-20.8 116.5 116.5 0 0 1 3.45-22.25 188.88 188.88 0 0 1 7.87-26.45 174.05 174.05 0 0 1 10.33-22.66 67.07 67.07 0 0 1 11.1-15.38q5.64-5.52 10.17-4.6a4.56 4.56 0 0 1 3.3 3.28q1.04 2.8 2.3 6.92c.28 1.47.56 2.93.84 4.38s.5 3 .64 4.63a31.7 31.7 0 0 0 .3 4.54 29.88 29.88 0 0 0 .94 4.27q2.12 11.18 9.93 17.38t23.46 7.02q5.57-.04 7.54-1.68a6.87 6.87 0 0 0 1.56-2c0 .36-.03.72-.04 1.08q-.52 12.97-.8 25.92zm75.12-34.5a126.27 126.27 0 0 1-25.96 14.92q2.88-14.97 5.05-28.1t4.68-24.7a68.66 68.66 0 0 1 15.86-7.22 73.1 73.1 0 0 1 14-2.82q13.05-1.18 16.26 4.77 1.66 3.65-1.25 10.8t-10.2 15.53a123 123 0 0 1-18.43 16.8zm65.7-3.14q-7.88 22.78-14.53 44.1-4.8 15.42-8.2 27.92-4-3.24-8.05-6.62-7-5.83-13.64-11.7t-12.25-11.15q23.76-13.27 40.4-27.7a89.58 89.58 0 0 0 18.64-21.58c-.8 2.25-1.58 4.5-2.36 6.74zm57 19.38q-9.95 2.02-19.76 4.46 8.5-21.94 17.02-42.43t15.9-37.42q1.15 17.73 3 35.72t3.92 36.1q-10.1 1.56-20.07 3.57z"/></g><g><g><path fill="#fff" d="M802.65 140.93q-1.64-4.1-8.07-7.25a197 197 0 0 0-19.83-7.86q-10.08-3.38-19.17-5.86-7.76-2.25-12.76-1.84a15.67 15.67 0 0 0-9 3.85 38.38 38.38 0 0 0-7.82 9.95q-3.8 6.53-8.96 16.72-5.15 8.85-10.63 18.8-5.48 9.98-10.62 19.94t-9.97 19.5q-4.8 9.52-8.4 17.5-3.43-22.9-5.37-36t-2.9-20.2q-.97-7.1-1.3-9.9a40.4 40.4 0 0 1-.3-4.76q-.87-4.22-1.63-7.56a19.46 19.46 0 0 0-2.53-6.1 19.82 19.82 0 0 0-4.86-5.14 34.26 34.26 0 0 0-8.4-4.37q-8.43-3.15-16.74-5.4a188.3 188.3 0 0 0-20.3-4.1q-7.76-1.13-11.42.73t-5.7 9.4q-2.05 10.44-4.22 24.08T587.37 184q-2.18 15.3-4.03 31.06-1.74 14.87-3.2 28.73-.6-7.93-1.14-15.83-1.55-22.15-2.5-42.57t-1.03-36.23q.1-6.48-2.15-10.3t-9.3-5.6q-5.22-.88-10.32-1.98t-11.1-1.9q-5.98-.8-13.14-1.17t-16.27.02q-10.48.06-15.45 4.3a29.1 29.1 0 0 0-7.74 10.5q-7.8 17.4-16.14 39.67-6.75 17.97-13.18 36.3a85.95 85.95 0 0 0-.76-9.96 73.92 73.92 0 0 0-8.46-25.98q-7.72-14.9-18.6-23.7a75 75 0 0 0-23.56-13.05 86.42 86.42 0 0 0-26.1-4.4 129.46 129.46 0 0 0-26.25 2.24 141.85 141.85 0 0 0-43.77 16.14l-8.64 133.62q-2.57-21.57-4.8-43.06-2.32-22.08-3.96-42.46t-2.27-36.18q-.13-6.46-2.5-10.2t-9.5-5.3q-5.22-.7-10.37-1.6t-11.15-1.53q-6-.6-13.17-.7t-16.25.56q-10.46.4-15.28 4.82a29.05 29.05 0 0 0-7.38 10.76q-7.2 17.67-14.8 40.2t-14.68 45.55q-7.1 23.02-13 44.56t-9.33 37.4a24.96 24.96 0 0 0-.3 7.53 9.2 9.2 0 0 0 1.78 4.36 9.3 9.3 0 0 0 3.45 2.6q2.13.95 5 2.4 3.74 1.3 7.34 2.3t6.6 1.76q5.27 1.14 7.73.16t3.74-4.94q2.2-7.43 4.6-15.23t5.7-16.92a256.6 256.6 0 0 1 28.27-9.23q16.12-4.36 32.37-8.62 1.8 8.95 3.4 16.47t3.3 13.8q1.63 6.05 4.03 8.2t7.87 3.05a38.25 38.25 0 0 0 10.18.86q4.88-.26 10.6-.98t7.2-2.46q1.46-1.74.96-5.7-1.14-8.43-2.3-17.5a18.85 18.85 0 0 0 2.07 2.17q2.04 1.84 4.32 3.78 6.1 4.3 10.83 7.16a116.78 116.78 0 0 0 11.04 5.8q12.58 5.67 23.8 1.38a163.52 163.52 0 0 0 39.27-17.7 146.76 146.76 0 0 0 29.67-24.32 133.56 133.56 0 0 0 10.96-13.48q-4.22 14.16-7.05 25.45a25.2 25.2 0 0 0-.54 7.5 9.2 9.2 0 0 0 1.62 4.43 9.3 9.3 0 0 0 3.37 2.7q2.1 1.04 4.9 2.57 3.7 1.45 7.26 2.58t6.54 1.97q5.25 1.3 7.73.42t3.9-4.8q2.47-7.36 5.12-15.07t6.3-16.72a255.87 255.87 0 0 1 28.55-8.26q16.26-3.8 32.65-7.5 1.47 9 2.83 16.57t2.8 13.9q1.45 6.1 3.77 8.34t7.76 3.3a38.4 38.4 0 0 0 10.14 1.22q4.9-.1 10.64-.63t7.27-2.2q1.52-1.7 1.17-5.7-.26-2.5-.5-5.05l.03.03a67.2 67.2 0 0 0 9.64 3.93q5.2 1.7 10.3 2.83 5.32 1.13 7.33-.08t2.9-5.2q.94-9.54 2.66-21.74t4-26.18q2.28-13.97 5.02-29.05t5.7-30.15q3.22 22.2 7.23 43.1t8.37 36.88q1.1 3.78 2.08 6.22a16.6 16.6 0 0 0 2.3 4.13 10.62 10.62 0 0 0 3.1 2.68 28.4 28.4 0 0 0 4.22 1.9 129.8 129.8 0 0 0 15.52 4.07 16.98 16.98 0 0 0 4.66.58 6.33 6.33 0 0 0 2.9-.76 5.3 5.3 0 0 0 1.9-2.1q.77-1.43 1.9-3.87 3.57-7.75 9.5-19.38t13-24.7q7.05-13.07 14.55-26.57t14.2-25.02q-3.82 13.1-7.1 27.06t-6.02 26.72q-2.72 12.75-4.77 23.28t-2.97 17.2q-1.14 5.54.5 8.87t6.76 5.8a44.88 44.88 0 0 0 9.3 3.82q5.3 1.57 10.4 2.7 5.77 1.37 7.78-.4a14.87 14.87 0 0 0 3.58-5.75q1.8-7.76 4.97-19.5t7.1-25.72q3.95-13.97 8.36-29.27t8.78-30.13q4.4-14.85 8.68-28.37t7.66-23.94q2.47-7.32.83-11.43zM236.07 272.2q-9.9 2.36-19.6 5.14 7.73-22.2 15.55-42.98t14.62-37.95q1.76 17.7 4.22 35.6t5.14 35.94q-10.05 1.92-19.93 4.27zm175.28-52.53a80.17 80.17 0 0 1-4.1 21.2 93.28 93.28 0 0 1-11.38 22.94 113.53 113.53 0 0 1-19.84 22.2 118.47 118.47 0 0 1-29.27 18.42q4.78-29 10.03-57.44t12.23-57.73q14.3-5.04 24.38-1.53t14.3 10.95q4.18 7.44 3.65 21zm103.3 27.46q-9.97 2-19.78 4.45 8.5-21.94 17.02-42.43t15.9-37.42q1.15 17.72 3 35.72t3.9 36.08q-10.1 1.58-20.06 3.6z"/><path fill="#6140ff" d="M184.8 360.28a25.6 25.6 0 0 1-5.25-.65h-.07c-1.98-.5-4.22-1.1-6.64-1.78-2.45-.68-4.96-1.48-7.47-2.37l-.22-.1c-1.88-.93-3.53-1.72-4.93-2.36a10.38 10.38 0 0 1-6.35-8.4 26.67 26.67 0 0 1 .3-8.16v-.1c2.26-10.54 5.4-23.16 9.36-37.5 3.92-14.3 8.3-29.3 13.03-44.64 4.67-15.2 9.6-30.55 14.7-45.6 5.04-15 10.03-28.58 14.8-40.33a31.2 31.2 0 0 1 7.9-11.48c3.53-3.23 9.08-5.02 16.48-5.32 6.1-.45 11.6-.65 16.4-.57 4.8.07 9.3.3 13.33.7 4.02.4 7.82.93 11.3 1.55 3.4.6 6.85 1.15 10.3 1.6l.16.03c5.33 1.2 8.84 3.2 10.73 6.18 1.76 2.8 2.7 6.56 2.8 11.2.42 10.5 1.18 22.63 2.27 36.07 1.1 13.53 2.42 27.8 3.94 42.4.74 7.1 1.52 14.28 2.33 21.5l7.3-113 .9-.52a143.9 143.9 0 0 1 44.38-16.38 132.18 132.18 0 0 1 26.65-2.28 88.6 88.6 0 0 1 26.7 4.5 77.32 77.32 0 0 1 24.15 13.38c7.44 6.03 13.87 14.2 19.12 24.33a76.13 76.13 0 0 1 8.66 26.62c.03.24.07.5.1.74 3.33-9.32 6.7-18.54 10.07-27.5 5.56-14.83 11-28.2 16.2-39.8a31.15 31.15 0 0 1 8.26-11.2c3.64-3.1 9.25-4.7 16.65-4.75 6.1-.26 11.63-.26 16.4-.02 4.82.24 9.3.63 13.32 1.17 4 .53 7.78 1.18 11.24 1.93 3.37.72 6.8 1.37 10.24 1.94l.16.04c5.3 1.36 8.73 3.5 10.5 6.53 1.68 2.84 2.5 6.63 2.43 11.28.06 10.5.4 22.66 1.03 36.12.55 11.77 1.25 24.12 2.1 36.8q.42-3.63.84-7.27c1.24-10.55 2.6-21.02 4.04-31.1 1.45-10.22 2.92-19.97 4.35-29 1.43-9.02 2.85-17.14 4.22-24.12l.03-.12c1.52-5.64 3.7-9.12 6.7-10.64 2.85-1.45 6.97-1.75 12.6-.92a191.04 191.04 0 0 1 20.53 4.14c5.56 1.5 11.25 3.35 16.9 5.46a36.32 36.32 0 0 1 8.9 4.64 21.9 21.9 0 0 1 5.34 5.64 21.6 21.6 0 0 1 2.78 6.72c.5 2.2 1.04 4.68 1.64 7.6l.05.2v.2a38.98 38.98 0 0 0 .3 4.54c.2 1.84.62 5.06 1.27 9.85.64 4.74 1.6 11.34 2.9 20.2 1.13 7.7 2.6 17.6 4.4 29.52 1.74-3.67 3.65-7.57 5.7-11.63 3.3-6.55 6.67-13.1 9.98-19.5 3.44-6.66 7.02-13.38 10.66-19.98 3.66-6.64 7.23-12.96 10.63-18.8 3.44-6.8 6.47-12.45 9-16.78a40.37 40.37 0 0 1 8.22-10.46 17.65 17.65 0 0 1 10.12-4.3c3.6-.3 8 .32 13.46 1.9 6.07 1.66 12.55 3.65 19.25 5.9a201.45 201.45 0 0 1 20.03 7.92c4.76 2.33 7.8 5.1 9.07 8.3 1.3 3.22 1.03 7.4-.8 12.78-2.3 7.17-4.9 15.22-7.63 23.9-2.8 8.85-5.72 18.4-8.67 28.34-2.93 9.9-5.9 20.03-8.8 30.13-3.1 10.86-5.84 20.43-8.34 29.26-2.62 9.27-5 17.92-7.1 25.7s-3.76 14.32-4.95 19.45l-.1.27a16.62 16.62 0 0 1-4.1 6.5c-1.85 1.64-4.97 1.92-9.5.85-3.4-.76-6.95-1.68-10.53-2.74a47.22 47.22 0 0 1-9.66-3.96c-3.76-1.82-6.3-4.07-7.6-6.67s-1.52-6-.7-10.08c.63-4.44 1.6-10.08 3-17.23 1.34-6.98 2.95-14.82 4.76-23.33s3.84-17.5 6.02-26.76q1.44-6.17 3.02-12.23-3.2 5.63-6.5 11.6c-4.9 8.83-9.8 17.76-14.55 26.56-4.72 8.76-9.1 17.05-12.96 24.65-3.95 7.7-7.14 14.2-9.5 19.3-.78 1.7-1.42 3-1.96 4a7.25 7.25 0 0 1-2.62 2.84 8.3 8.3 0 0 1-3.78 1.04 18.68 18.68 0 0 1-5.22-.63 131.4 131.4 0 0 1-15.7-4.12 30.1 30.1 0 0 1-4.54-2.05 12.53 12.53 0 0 1-3.67-3.16 18.48 18.48 0 0 1-2.58-4.6c-.7-1.7-1.4-3.86-2.15-6.42-2.9-10.68-5.75-23.14-8.42-37.06-1.98-10.3-3.84-21-5.55-31.94-1.2 6.3-2.38 12.66-3.53 19-1.84 10.12-3.53 19.9-5 29-1.52 9.2-2.86 18-4 26.14-1.16 8.1-2.04 15.4-2.65 21.65l-.04.25c-.74 3.23-1.98 5.34-3.8 6.44s-4.6 1.2-8.75.32c-3.48-.78-7-1.74-10.5-2.88-2.37-.76-4.64-1.62-6.8-2.57.07.55.12 1.1.17 1.62.3 3.27-.24 5.6-1.65 7.18-1.38 1.55-4.1 2.46-8.54 2.86-3.85.34-7.48.55-10.77.62a40.48 40.48 0 0 1-10.6-1.25c-4.03-.8-6.87-2.05-8.7-3.82s-3.25-4.8-4.3-9.3c-.98-4.22-1.93-8.93-2.84-14-.8-4.48-1.64-9.37-2.5-14.56-10.33 2.33-20.62 4.7-30.6 7.04a259.33 259.33 0 0 0-27.53 7.9c-2.25 5.6-4.25 10.92-5.93 15.8-1.84 5.37-3.5 10.3-5.1 15.05-1.18 3.2-2.9 5.22-5.1 6.02-2.05.73-4.95.6-8.87-.36l-.06-.02c-1.97-.57-4.2-1.24-6.57-2-2.4-.76-4.9-1.64-7.38-2.6l-.22-.12c-1.84-1-3.47-1.85-4.85-2.53a11.32 11.32 0 0 1-4.05-3.3 11.17 11.17 0 0 1-2-5.33 26.65 26.65 0 0 1 .57-8.14l.02-.1c1.2-4.77 2.6-9.98 4.17-15.58q-2.3 2.74-4.75 5.4A149.34 149.34 0 0 1 400 322.9a166.15 166.15 0 0 1-39.7 17.9c-7.92 3-16.4 2.52-25.23-1.45a118.52 118.52 0 0 1-11.24-5.92c-3.2-1.94-6.9-4.38-10.95-7.22l-.15-.1c-.88-.75-1.7-1.46-2.46-2.13.53 4.12 1.07 8.1 1.6 11.92.4 3.24-.07 5.6-1.4 7.22-1.35 1.6-4.03 2.6-8.46 3.14-3.84.5-7.45.82-10.73 1a40.31 40.31 0 0 1-10.65-.88c-4.05-.66-6.94-1.8-8.82-3.52-1.9-1.7-3.4-4.7-4.62-9.16-1.12-4.17-2.23-8.85-3.3-13.9-.96-4.43-1.96-9.3-3-14.45-10.26 2.7-20.45 5.4-30.35 8.1a259.7 259.7 0 0 0-27.24 8.82c-2.07 5.7-3.88 11.07-5.4 16-1.6 5.32-3.16 10.43-4.58 15.22-1.06 3.24-2.7 5.3-4.9 6.2a9.73 9.73 0 0 1-3.6.58zm-4.4-4.46c3.86.82 5.7.58 6.57.24 1.06-.43 1.94-1.68 2.6-3.74 1.42-4.74 2.96-9.86 4.6-15.18 1.6-5.25 3.53-10.97 5.74-17.03l.3-.8.82-.33a259.95 259.95 0 0 1 28.48-9.3c10.55-2.85 21.45-5.75 32.38-8.62l2-.53.4 2.04c1.2 5.9 2.33 11.43 3.4 16.43 1.06 4.98 2.16 9.6 3.26 13.7 1.24 4.54 2.57 6.46 3.47 7.27 1.3 1.18 3.62 2.04 6.88 2.57h.1a36.5 36.5 0 0 0 9.66.83c3.2-.18 6.72-.5 10.48-.97 4.6-.58 5.7-1.5 5.93-1.78.6-.7.77-2.2.53-4.22-.76-5.5-1.53-11.38-2.32-17.48l-.87-6.78 4.32 5.3a17.16 17.16 0 0 0 1.85 1.95c1.28 1.14 2.66 2.34 4.22 3.67 3.95 2.78 7.54 5.14 10.65 7.03a114.94 114.94 0 0 0 10.85 5.72c7.83 3.52 15.33 3.97 22.26 1.3l.13-.03a162.46 162.46 0 0 0 38.8-17.5 145.66 145.66 0 0 0 29.27-24 132.34 132.34 0 0 0 10.8-13.27l6.86-9.7-3.4 11.4c-2.8 9.37-5.16 17.9-7 25.3a23.23 23.23 0 0 0-.53 6.85 6.5 6.5 0 0 0 3.9 5.62c1.4.7 3.04 1.55 4.9 2.55 2.35.92 4.7 1.76 7 2.5 2.34.73 4.5 1.4 6.44 1.94 3.84.94 5.7.77 6.56.45 1.08-.38 2-1.6 2.75-3.64 1.57-4.7 3.24-9.63 5.1-15 1.77-5.2 3.9-10.86 6.32-16.83l.33-.8.82-.3a258.66 258.66 0 0 1 28.78-8.33c10.66-2.5 21.65-5.02 32.66-7.5l2.02-.47.34 2.05c.97 5.94 1.92 11.5 2.82 16.55.9 5 1.84 9.66 2.8 13.8 1.07 4.58 2.34 6.54 3.2 7.38 1.27 1.23 3.55 2.17 6.8 2.8l.1.03a36.7 36.7 0 0 0 9.6 1.14c3.2-.06 6.75-.27 10.52-.6 4.62-.43 5.75-1.32 6-1.6.6-.67.84-2.16.66-4.2-.17-1.63-.34-3.32-.5-5.02l-.36-3.53 3.17 1.58a66.07 66.07 0 0 0 9.4 3.84c3.4 1.1 6.8 2.02 10.14 2.76 4.2.9 5.58.35 5.9.16.57-.35 1.38-1.3 1.98-3.84.6-6.28 1.5-13.6 2.65-21.7 1.15-8.16 2.5-17 4-26.22 1.5-9.14 3.2-18.92 5.03-29.1 1.83-10.07 3.74-20.23 5.7-30.17l2.2-11.26 1.64 11.34c2.15 14.77 4.58 29.24 7.23 43 2.65 13.83 5.46 26.2 8.34 36.74.7 2.4 1.37 4.44 2 6a14.88 14.88 0 0 0 2.04 3.65 8.6 8.6 0 0 0 2.52 2.2 26.7 26.7 0 0 0 3.92 1.76 128.34 128.34 0 0 0 15.24 4 15.46 15.46 0 0 0 4.15.53 4.58 4.58 0 0 0 2.02-.5 3.46 3.46 0 0 0 1.17-1.36c.48-.9 1.1-2.16 1.83-3.75 2.4-5.16 5.6-11.7 9.56-19.45 3.88-7.62 8.26-15.94 13-24.73 4.76-8.8 9.66-17.76 14.56-26.6 4.97-8.94 9.76-17.37 14.23-25.04l8.07-13.86-4.5 15.4c-2.55 8.65-4.94 17.7-7.1 26.93s-4.2 18.2-6 26.7-3.4 16.3-4.76 23.23c-1.36 7-2.35 12.76-2.94 17.1l-.02.1c-.67 3.25-.55 5.8.35 7.63s2.85 3.47 5.83 4.9l.1.07a43.53 43.53 0 0 0 8.9 3.65c3.5 1.03 6.96 1.93 10.3 2.67 4.46 1.05 5.76.3 6.05.03a12.92 12.92 0 0 0 3-4.87c1.2-5.14 2.87-11.67 4.96-19.42 2.1-7.8 4.5-16.46 7.1-25.74 2.5-8.84 5.24-18.4 8.36-29.27 2.9-10.12 5.88-20.27 8.8-30.16 2.96-9.97 5.88-19.53 8.7-28.4 2.74-8.7 5.32-16.75 7.65-23.95 1.5-4.42 1.8-7.8.88-10.1-.9-2.26-3.3-4.36-7.12-6.22a197.47 197.47 0 0 0-19.58-7.76c-6.62-2.22-13.04-4.18-19.07-5.83-4.95-1.43-9-2.03-12.07-1.77a13.6 13.6 0 0 0-7.9 3.38 36.7 36.7 0 0 0-7.4 9.45c-2.5 4.28-5.5 9.87-8.9 16.62l-.05.1c-3.4 5.83-6.96 12.15-10.6 18.77-3.63 6.57-7.2 13.26-10.62 19.88-3.3 6.4-6.65 12.95-9.95 19.47-3.18 6.3-6 12.15-8.36 17.42l-2.74 6.06-1-6.57c-2.22-14.82-4.03-26.93-5.37-36-1.32-8.87-2.28-15.48-2.92-20.23-.66-4.8-1.08-8.06-1.3-9.92a43.94 43.94 0 0 1-.3-4.8c-.6-2.8-1.1-5.2-1.6-7.3a17.6 17.6 0 0 0-2.27-5.52 17.98 17.98 0 0 0-4.37-4.6 32.5 32.5 0 0 0-7.93-4.1c-5.53-2.08-11.1-3.87-16.55-5.36a186.7 186.7 0 0 0-20.08-4.04c-4.73-.7-8.18-.52-10.25.53-1.88.97-3.5 3.78-4.7 8.12-1.34 6.92-2.75 14.97-4.18 23.93-1.43 9-2.9 18.72-4.35 28.92-1.44 10.06-2.8 20.5-4.02 31-1.15 9.77-2.22 19.43-3.2 28.7l-3.88-.04c-.46-6.06-.82-11.1-1.15-15.84-1.04-14.72-1.88-29.06-2.5-42.62-.63-13.52-.98-25.74-1.04-36.32.06-3.96-.57-7.08-1.87-9.3-1.2-2.05-3.9-3.63-8.03-4.7-3.47-.58-6.94-1.24-10.32-1.97-3.37-.74-7.05-1.36-10.94-1.88-3.92-.53-8.3-.9-13-1.15-4.65-.23-10.07-.22-16.08.02h-.06c-6.48.02-11.25 1.3-14.2 3.8a27.3 27.3 0 0 0-7.2 9.8c-5.16 11.55-10.58 24.86-16.1 39.6-4.43 11.76-8.86 23.96-13.17 36.24l-3.6 10.23-.2-10.84a83.72 83.72 0 0 0-.74-9.7 72.3 72.3 0 0 0-8.25-25.3c-5.02-9.7-11.1-17.46-18.13-23.14a73.42 73.42 0 0 0-22.94-12.7 84.53 84.53 0 0 0-25.5-4.33 128.06 128.06 0 0 0-25.86 2.2 136.44 136.44 0 0 0-23.8 6.77 139.1 139.1 0 0 0-18.45 8.64l-8.57 132.56-3.9.1c-1.72-14.45-3.34-28.95-4.8-43.1-1.54-14.63-2.87-28.93-3.97-42.5-1.1-13.47-1.86-25.67-2.28-36.24-.08-3.97-.82-7.06-2.2-9.24-1.27-2-4.02-3.5-8.18-4.42-3.5-.46-6.98-1-10.4-1.62-3.37-.6-7.07-1.1-11-1.5-3.92-.38-8.3-.62-13-.7-4.68-.07-10.1.12-16.08.57h-.08c-6.47.25-11.2 1.7-14.04 4.3a27.3 27.3 0 0 0-6.9 10.04c-4.74 11.7-9.7 25.18-14.73 40.1-5.07 15.03-10 30.34-14.66 45.5-4.72 15.3-9.1 30.28-13 44.52-3.94 14.26-7.06 26.8-9.3 37.24a23.3 23.3 0 0 0-.28 6.86 7.37 7.37 0 0 0 1.37 3.46 7.25 7.25 0 0 0 2.73 2.04c1.42.64 3.08 1.44 4.96 2.38 2.38.84 4.77 1.6 7.1 2.25 2.36.65 4.55 1.23 6.5 1.72zm163.84-48.1l.6-3.62c3.16-19.16 6.53-38.5 10.03-57.48 3.5-18.93 7.6-38.4 12.26-57.82l.25-1.04 1-.35c9.9-3.5 18.55-4 25.67-1.53 7.16 2.5 12.3 6.48 15.34 11.84 2.95 5.26 4.27 12.67 3.9 22.04a82.45 82.45 0 0 1-4.2 21.72 95.53 95.53 0 0 1-11.6 23.45 116 116 0 0 1-20.2 22.56 120.95 120.95 0 0 1-29.74 18.74zm26.43-116.96c-4.52 19-8.55 38.04-11.96 56.57-3.26 17.74-6.42 35.8-9.4 53.74a114.47 114.47 0 0 0 25.44-16.55 112.16 112.16 0 0 0 19.5-21.8 91.5 91.5 0 0 0 11.15-22.45 78.67 78.67 0 0 0 4-20.68c.34-8.64-.82-15.36-3.4-19.97-2.56-4.5-7-7.9-13.23-10.06-6.03-2.1-13.46-1.7-22.1 1.2zm-157.3 89.5l1.24-3.56c5.15-14.73 10.4-29.2 15.6-43.03 5.18-13.8 10.1-26.58 14.62-37.98l2.96-7.5.8 8.02c1.16 11.68 2.57 23.63 4.2 35.52 1.63 11.84 3.36 23.92 5.15 35.9l.28 1.87-1.84.36c-6.6 1.26-13.28 2.7-19.84 4.26-6.53 1.55-13.1 3.27-19.52 5.1zm32.15-75.68c-3.68 9.4-7.6 19.62-11.68 30.47-4.77 12.68-9.57 25.92-14.3 39.4 5.32-1.48 10.7-2.86 16.07-4.14 6.02-1.42 12.13-2.74 18.2-3.92-1.7-11.4-3.35-22.87-4.88-34.1-1.27-9.25-2.4-18.53-3.4-27.7zm246.17 49.8l1.35-3.5c5.64-14.56 11.37-28.85 17.04-42.48 5.64-13.6 11-26.2 15.9-37.46l3.23-7.38.52 8.04c.76 11.7 1.76 23.7 3 35.65s2.53 24.08 3.9 36.06l.22 1.87-1.86.3c-6.65 1.04-13.37 2.24-19.97 3.57-6.58 1.33-13.2 2.82-19.7 4.43zm34.7-74.52c-4 9.28-8.26 19.35-12.7 30.04-5.2 12.5-10.46 25.57-15.65 38.9 5.37-1.3 10.8-2.5 16.2-3.6 6.05-1.2 12.2-2.32 18.3-3.3-1.3-11.4-2.55-22.9-3.7-34.26-.95-9.28-1.77-18.6-2.44-27.78z"/></g><g><path fill="#fff" d="M727.54 356.2q-3.84-3-9.2-6.74a51.48 51.48 0 0 0-10.65-5.84 18.35 18.35 0 0 0-9.7-1.35q-4.4.73-5.9 6.43-9.65 21.6-19.35 42.53t-19.93 41.02q-7.7-18.47-14.74-35t-13.34-29.33a52.28 52.28 0 0 0-7.46-9.92q-3.3-3.15-10.07-4.1a46.38 46.38 0 0 0-13.03-.06q-6.28.9-13.1 1.96-5.64 1.63-6.66 3.83a4.35 4.35 0 0 0-.12 2.6c-1.8-.35-3.6-.7-5.38-1.1q-5.12-1.1-11.1-1.9t-13.14-1.16q-7.16-.35-16.26.02-10.48.05-15.44 4.28a29.1 29.1 0 0 0-7.75 10.5q-7.78 17.42-16.14 39.68-3.77 10.04-7.44 20.2a46.25 46.25 0 0 0-2.04-15.23 77.83 77.83 0 0 0-11.96-22.65 139.48 139.48 0 0 0-15.66-16.76 41.43 41.43 0 0 0-23.7-9.57 82.37 82.37 0 0 0-27.38 2.9 148.77 148.77 0 0 0-28.63 11.17q-14.4 7.3-27.54 14.74-2.73 1.8-4.8 8.34a98.9 98.9 0 0 0-3.44 16.36q-.67 4.88-1.23 10.35v-.1q-.4-5.75-1.05-10.37a57.76 57.76 0 0 0-5.63-15.54 34.87 34.87 0 0 0-11.8-12.1 57.97 57.97 0 0 0-9.5-5.27 78.4 78.4 0 0 0-11.04-3.9 120.5 120.5 0 0 0-11.92-2.6 86.96 86.96 0 0 0-11.92-1.17 53.15 53.15 0 0 0-8.68.1 68.4 68.4 0 0 0-9.34 1.52 43.36 43.36 0 0 0-9.17 3.28 33.62 33.62 0 0 0-8.2 5.64 110 110 0 0 0-20.23 23.9 162.2 162.2 0 0 0-14.55 29.05 170.12 170.12 0 0 0-8.67 31.3 164.94 164.94 0 0 0-2.54 31.1 120.54 120.54 0 0 0 3.65 28.32 68.9 68.9 0 0 0 10.06 22.6 41.6 41.6 0 0 0 9.54 10.63 51.5 51.5 0 0 0 11.9 7.28 121.53 121.53 0 0 0 34 6.3 62.7 62.7 0 0 0 18.57-1.78 51.64 51.64 0 0 0 16.3-7.37q11.7-8.4 21.1-22.85 9.25-14.2 15.57-34.38c0 1.16-.02 2.3-.03 3.45q-.1 11.26-.08 20.17t0 13.6q.08 5.8 1.94 9.07a13.32 13.32 0 0 0 6.27 5.34 31.86 31.86 0 0 0 9.12 2.3q4.7.46 10.82 1.47 5.2.66 6.96-.6t2.57-4.92q1.36-12.16 2.8-24.77t3.3-26.37a170.94 170.94 0 0 0 14.07 12.88q7.7 6.34 15.36 12.1t14.76 10.5q7.1 4.7 12.5 7.78 8.17 3.95 14.07 3.97a30.07 30.07 0 0 0 10.67-1.73c2.6-.7 4.82-1.3 6.63-1.83.08-.03.16-.06.23-.1l.68.23c2.4.76 4.56 1.4 6.54 1.98q5.24 1.32 7.73.43t3.9-4.8q2.47-7.36 5.1-15.07t6.3-16.72a256.75 256.75 0 0 1 28.58-8.25q16.25-3.82 32.64-7.52 1.47 9 2.82 16.57t2.8 13.9q1.45 6.1 3.77 8.35t7.76 3.3a38.43 38.43 0 0 0 10.13 1.22q4.9-.1 10.64-.62t7.26-2.22q1.52-1.7 1.16-5.68-1.94-19-3.82-41.2t-3.44-44.4q-1.55-22.13-2.5-42.55-.34-7.44-.57-14.26 4.63 10.17 9.47 20.7 6.66 14.42 13.3 28.76t12.47 27.18q-1.28 15.5-1.48 28.1T624 528q.07 5.8 1.9 8.63t6.95 5.5q5.03 1.55 10.96 2.9t11.35 2.22q5.86.82 7.78-.25t2.6-5.6q1.37-12.14 2.88-25.1t3.94-28.1q8.47-14.8 17.5-31t17-31.38q8-15.2 14.28-28.26a207.85 207.85 0 0 0 9.3-21.78q1.23-3.67 1.88-6.3a12.64 12.64 0 0 0 .35-4.82 10.3 10.3 0 0 0-1.6-4.2 27.87 27.87 0 0 0-3.5-4.25zM332.02 495.24q-.08 3.46-.14 6.8a22.7 22.7 0 0 0-3.67-5.35q-2.22-2.47-4.82-5.36a76.81 76.81 0 0 0-5.5-5.52 17.83 17.83 0 0 0-9.14-4.86q-4.75-.8-12.17.98-6.3 1.7-15.06 3.48a172 172 0 0 0-16.77 4.3q-4.36 1.06-7.85 1.93a26.85 26.85 0 0 0-5.83 2.1 6.8 6.8 0 0 0-3.18 2.95c-.57 1.16-.47 2.68.3 4.54q5.33 12.23 13 16.88t20.87 2.8a140.46 140.46 0 0 1-6.3 14.28 69.55 69.55 0 0 1-7.2 11.45 28.4 28.4 0 0 1-7.94 7.18 10.97 10.97 0 0 1-8.23 1.42q-4.8-1.12-8.04-7.63a51.2 51.2 0 0 1-4.56-15.98 107.5 107.5 0 0 1-.65-20.8 116.5 116.5 0 0 1 3.46-22.25 188.16 188.16 0 0 1 7.86-26.45 174.82 174.82 0 0 1 10.33-22.66 67.18 67.18 0 0 1 11.1-15.37q5.63-5.53 10.17-4.6a4.58 4.58 0 0 1 3.3 3.26q1.03 2.8 2.3 6.92.4 2.2.84 4.38t.64 4.63a31.17 31.17 0 0 0 .3 4.53 29.68 29.68 0 0 0 .94 4.26q2.12 11.17 9.92 17.37t23.48 7.03q5.56-.06 7.53-1.68a6.87 6.87 0 0 0 1.56-2c-.02.36-.03.7-.05 1.07q-.5 12.98-.78 25.93zm75.12-34.5a126.2 126.2 0 0 1-25.96 14.92q2.88-14.97 5.05-28.1t4.68-24.7a68.58 68.58 0 0 1 15.85-7.22 73 73 0 0 1 14-2.82q13.06-1.17 16.27 4.78 1.66 3.65-1.26 10.8t-10.2 15.53a123.18 123.18 0 0 1-18.42 16.82zm65.7-3.14q-7.87 22.77-14.53 44.1-4.8 15.42-8.2 27.9-4-3.23-8.05-6.6-7-5.84-13.64-11.7t-12.25-11.16q23.76-13.3 40.4-27.7a89.62 89.62 0 0 0 18.64-21.6c-.8 2.26-1.6 4.5-2.37 6.75zm57 19.38q-9.95 2-19.75 4.45 8.5-21.93 17-42.43t15.9-37.42q1.16 17.73 3 35.72t3.92 36.1q-10.1 1.56-20.07 3.57z"/><path fill="#6140ff" d="M263.4 584.4q-1.66 0-3.34-.07a124.26 124.26 0 0 1-34.53-6.4l-.15-.06a53.7 53.7 0 0 1-12.36-7.56 43.84 43.84 0 0 1-9.95-11.05 71.35 71.35 0 0 1-10.32-23.2 123.08 123.08 0 0 1-3.72-28.77 167.87 167.87 0 0 1 2.58-31.47 173.1 173.1 0 0 1 8.76-31.66 165.23 165.23 0 0 1 14.73-29.4 112.33 112.33 0 0 1 20.6-24.3 35.54 35.54 0 0 1 8.6-5.94 45.4 45.4 0 0 1 9.6-3.42 69.74 69.74 0 0 1 9.6-1.56 55.2 55.2 0 0 1 8.96-.12 88.73 88.73 0 0 1 12.13 1.2 121.1 121.1 0 0 1 12.12 2.63 80.46 80.46 0 0 1 11.33 4 60.46 60.46 0 0 1 9.82 5.46 36.83 36.83 0 0 1 12.4 12.74 57.22 57.22 0 0 1 4.87 12.24 90.58 90.58 0 0 1 2.9-12.57c1.53-4.83 3.37-7.9 5.6-9.37l.1-.07c8.8-4.96 18.08-9.93 27.62-14.78a151.42 151.42 0 0 1 29-11.3 84.7 84.7 0 0 1 28.03-2.97 43.58 43.58 0 0 1 24.8 10l.07.08a142.35 142.35 0 0 1 15.88 17 80.2 80.2 0 0 1 12.27 23.2l.03.12a60.3 60.3 0 0 1 1.5 6.4c1.45-3.95 2.86-7.77 4.27-11.52 5.57-14.82 11.02-28.2 16.2-39.8a31.15 31.15 0 0 1 8.26-11.2c3.65-3.1 9.26-4.7 16.66-4.74 6.1-.25 11.63-.25 16.42 0 4.8.22 9.28.62 13.3 1.16 4 .53 7.78 1.18 11.24 1.92.96.2 1.97.42 3 .62a4.6 4.6 0 0 1 .32-1.02c.96-2.07 3.48-3.62 7.9-4.9l.25-.05c4.62-.7 9.03-1.38 13.1-1.96a48.5 48.5 0 0 1 13.6.06c4.9.7 8.65 2.25 11.14 4.64a53.18 53.18 0 0 1 7.8 10.3l.08.16c4.18 8.54 8.7 18.43 13.38 29.43 4.27 9.98 8.67 20.43 13.12 31.1 6.1-12.1 12.15-24.6 17.98-37.18 6.44-13.9 12.93-28.15 19.28-42.36 1.52-5.6 4.86-7.3 7.4-7.7a20.3 20.3 0 0 1 10.75 1.45 53.7 53.7 0 0 1 11.06 6.07c3.58 2.5 6.7 4.8 9.27 6.8l.2.18a30.08 30.08 0 0 1 3.74 4.56 12.38 12.38 0 0 1 1.9 5 14.7 14.7 0 0 1-.4 5.57c-.43 1.78-1.1 3.95-1.9 6.44a211.6 211.6 0 0 1-9.4 22.03c-4.2 8.7-9.02 18.24-14.3 28.3-5.28 10.04-11 20.6-17.04 31.45-5.96 10.7-11.8 21.02-17.33 30.7-1.57 9.84-2.87 19.15-3.86 27.67-1.07 9.1-2 17.3-2.87 25.1v.08c-.6 3.68-1.76 5.96-3.6 7-1.7.93-4.56 1.1-9 .48-3.66-.57-7.52-1.32-11.52-2.24-4-.92-7.72-1.9-11.1-2.95l-.32-.12c-3.78-1.95-6.3-3.97-7.72-6.18-1.4-2.23-2.13-5.4-2.18-9.67v-.16c.46-6.4.76-13.84.9-22.15.13-8.28.62-17.6 1.44-27.72-3.77-8.3-7.9-17.28-12.26-26.7q-6.64-14.34-13.3-28.8c-1.78-3.9-3.58-7.8-5.35-11.68q.1 2.15.2 4.34c.62 13.52 1.45 27.83 2.5 42.52 1 14.64 2.16 29.55 3.42 44.34 1.25 14.7 2.53 28.56 3.82 41.2.3 3.26-.26 5.6-1.66 7.17-1.4 1.54-4.1 2.45-8.55 2.85-3.87.35-7.5.56-10.78.63a40.47 40.47 0 0 1-10.6-1.25c-4.03-.8-6.87-2.05-8.7-3.82s-3.25-4.8-4.3-9.3c-.98-4.22-1.93-8.92-2.83-14-.8-4.44-1.64-9.32-2.5-14.55-10.37 2.35-20.66 4.72-30.6 7.05a258.3 258.3 0 0 0-27.54 7.9c-2.25 5.6-4.25 10.92-5.93 15.8-1.84 5.37-3.5 10.3-5.1 15.05-1.18 3.22-2.9 5.23-5.1 6.03-2.05.73-4.95.6-8.86-.36l-.07-.02c-1.98-.57-4.2-1.23-6.58-2l-.1-.02c-1.74.5-3.8 1.07-6.27 1.72a31.92 31.92 0 0 1-11.25 1.82c-4.22-.02-9.23-1.42-14.9-4.16l-.12-.06c-3.58-2.04-7.83-4.7-12.63-7.86s-9.78-6.72-14.86-10.56-10.26-7.9-15.43-12.15c-4.06-3.33-7.9-6.76-11.43-10.2-1.04 7.72-1.97 15.24-2.77 22.4q-1.43 12.62-2.8 24.77l-.02.2c-.64 2.93-1.73 4.92-3.34 6.08-1.63 1.17-4.3 1.48-8.34.98h-.07c-4.04-.68-7.64-1.17-10.7-1.48a33.8 33.8 0 0 1-9.7-2.44l-.07-.03a15.26 15.26 0 0 1-7.15-6.14c-1.4-2.5-2.13-5.78-2.2-10 .03-3.05.03-7.48 0-13.62 0-3.7 0-7.66.03-11.86a128.9 128.9 0 0 1-11.86 23.66c-6.36 9.78-13.64 17.64-21.6 23.37a53.9 53.9 0 0 1-16.94 7.7 63.66 63.66 0 0 1-15.8 1.9zm-36.56-10.15a120 120 0 0 0 33.38 6.17 61.3 61.3 0 0 0 18-1.72 49.9 49.9 0 0 0 15.65-7.1c7.55-5.4 14.5-12.92 20.6-22.3 6-9.26 11.17-20.66 15.33-33.9l2.47-7.87-2.17-4.67a20.77 20.77 0 0 0-3.36-4.88l-4.82-5.35a75.32 75.32 0 0 0-5.37-5.38 16.05 16.05 0 0 0-8.14-4.38c-2.9-.5-6.72-.17-11.38.95-4.15 1.1-9.25 2.3-15.13 3.5a170.64 170.64 0 0 0-16.6 4.24l-.12.03q-4.36 1.05-7.83 1.92a25.24 25.24 0 0 0-5.4 1.93 5.02 5.02 0 0 0-2.33 2.07 4.1 4.1 0 0 0 .35 2.95c3.35 7.7 7.46 13.07 12.2 15.95 4.7 2.86 11.27 3.7 19.58 2.54l3.27-.46-1.17 3.1a143.2 143.2 0 0 1-6.38 14.46 71.87 71.87 0 0 1-7.42 11.78 30.53 30.53 0 0 1-8.5 7.66 12.93 12.93 0 0 1-9.65 1.6c-3.76-.87-6.9-3.8-9.34-8.64a53.25 53.25 0 0 1-4.75-16.6 110.08 110.08 0 0 1-.65-21.14 119.3 119.3 0 0 1 3.5-22.6 190.97 190.97 0 0 1 7.95-26.7 177.63 177.63 0 0 1 10.45-22.9 69.25 69.25 0 0 1 11.44-15.83c4.2-4.16 8.23-5.87 11.92-5.12 1.52.3 3.58 1.34 4.75 4.5.7 1.9 1.48 4.27 2.33 7.03l.05.22c.27 1.46.56 2.92.84 4.38.28 1.54.5 3.16.65 4.82v.17a30.46 30.46 0 0 0 .3 4.25 28.3 28.3 0 0 0 .87 4l.05.18c1.3 6.94 4.4 12.4 9.2 16.2 4.85 3.87 12.36 6.1 22.3 6.6 4.2-.03 5.73-.78 6.26-1.22a4.9 4.9 0 0 0 1.1-1.42l4-7.22-.38 9.32c-.33 8.44-.6 17.15-.78 25.9-.05 2.3-.1 4.57-.14 6.8l-.14 7.3-.08 6.62c0 1.17-.02 2.32-.04 3.45-.06 7.33-.1 14.1-.07 20.15.02 6.16.02 10.6 0 13.62a17.32 17.32 0 0 0 1.68 8.1 11.48 11.48 0 0 0 5.37 4.5 29.95 29.95 0 0 0 8.52 2.16c3.15.3 6.82.8 10.92 1.48 4.07.5 5.27-.1 5.54-.28.52-.38 1.25-1.3 1.77-3.64q1.36-12.1 2.78-24.67c.95-8.4 2.07-17.28 3.3-26.42l.56-3.97 2.8 2.88a170.37 170.37 0 0 0 13.92 12.73c5.12 4.2 10.26 8.25 15.3 12.04 5 3.8 9.93 7.3 14.65 10.42 4.7 3.1 8.87 5.7 12.36 7.68 5.1 2.48 9.54 3.74 13.16 3.75a27.76 27.76 0 0 0 9.96-1.63l.2-.06c2.6-.66 4.8-1.27 6.56-1.8l.78-.26 1.28.42c2.34.74 4.5 1.4 6.44 1.95 3.84.96 5.7.8 6.56.48 1.08-.4 2-1.6 2.74-3.65 1.58-4.72 3.25-9.64 5.1-15 1.78-5.2 3.9-10.86 6.33-16.84l.33-.82.8-.3a259.15 259.15 0 0 1 28.8-8.3c10.62-2.5 21.6-5.03 32.66-7.53l2.02-.46.34 2.04c.98 5.98 1.93 11.55 2.82 16.55.9 5 1.83 9.65 2.8 13.8 1.07 4.57 2.34 6.53 3.2 7.37 1.27 1.22 3.55 2.17 6.8 2.8l.1.03a36.7 36.7 0 0 0 9.6 1.14c3.2-.07 6.75-.28 10.52-.62 4.62-.4 5.75-1.3 5.98-1.57.62-.68.86-2.18.67-4.2-1.27-12.63-2.56-26.5-3.8-41.23-1.27-14.8-2.43-29.74-3.45-44.4-1.03-14.73-1.87-29.06-2.5-42.6-.23-4.92-.42-9.73-.58-14.3l-.33-9.8 4.07 8.93c3.1 6.8 6.3 13.76 9.48 20.7q6.65 14.44 13.3 28.77c4.44 9.6 8.64 18.76 12.47 27.2l.2.45-.03.5c-.85 10.24-1.35 19.65-1.48 28s-.44 15.82-.9 22.26c.06 3.44.6 5.97 1.6 7.53s3.03 3.16 6.05 4.74c3.22 1 6.8 1.94 10.64 2.82 3.9.9 7.68 1.64 11.2 2.2 4.8.65 6.22.13 6.53-.04.25-.14 1.1-.85 1.63-4.14.87-7.77 1.8-15.98 2.86-25.07 1.02-8.68 2.34-18.16 3.95-28.2l.06-.34.18-.3c5.6-9.76 11.46-20.2 17.48-30.98s11.73-21.36 17-31.35c5.26-10.04 10.05-19.52 14.24-28.2a207.55 207.55 0 0 0 9.2-21.57c.8-2.38 1.42-4.45 1.84-6.14a10.82 10.82 0 0 0 .3-4.1 8.4 8.4 0 0 0-1.3-3.4 25.9 25.9 0 0 0-3.17-3.83c-2.5-1.95-5.52-4.17-9-6.6a49.72 49.72 0 0 0-10.26-5.63 16.5 16.5 0 0 0-8.66-1.24c-1.34.22-3.26.98-4.3 5l-.1.3c-6.4 14.28-12.9 28.6-19.38 42.55-6.46 13.94-13.18 27.76-19.96 41.1l-1.92 3.76-1.62-3.9c-5-12-9.96-23.78-14.74-35-4.65-10.88-9.1-20.7-13.25-29.14a50.26 50.26 0 0 0-7.1-9.45c-1.9-1.8-4.92-3-9-3.57a44.68 44.68 0 0 0-12.5-.06c-4 .58-8.36 1.23-12.92 1.94-4.34 1.28-5.17 2.43-5.32 2.76a2.6 2.6 0 0 0 .02 1.4l.53 2.8-2.8-.52c-1.9-.36-3.72-.73-5.44-1.1-3.37-.72-7.05-1.35-10.95-1.87-3.92-.53-8.3-.9-12.98-1.15-4.67-.23-10.1-.22-16.1.02h-.06c-6.47.03-11.24 1.32-14.17 3.82a27.28 27.28 0 0 0-7.23 9.8c-5.15 11.53-10.57 24.84-16.1 39.58-2.4 6.4-4.84 13-7.44 20.17l-4.5 12.44.72-13.2a44.41 44.41 0 0 0-1.96-14.52 76.34 76.34 0 0 0-11.63-22.04 138.45 138.45 0 0 0-15.4-16.48 39.7 39.7 0 0 0-22.58-9.1 80.8 80.8 0 0 0-26.72 2.85 147.4 147.4 0 0 0-28.27 11.02c-9.46 4.8-18.67 9.74-27.4 14.66-.97.68-2.45 2.5-3.97 7.27a97.69 97.69 0 0 0-3.36 16.03c-.44 3.2-.85 6.67-1.22 10.28l-3.9-.06v-.06c-.26-3.75-.6-7.18-1.02-10.2a55.9 55.9 0 0 0-5.42-14.94 33.07 33.07 0 0 0-11.15-11.4 56.75 56.75 0 0 0-9.23-5.12 76.58 76.58 0 0 0-10.77-3.8 117.84 117.84 0 0 0-11.74-2.57 85.23 85.23 0 0 0-11.64-1.13h-.1a51.37 51.37 0 0 0-8.36.1 67.4 67.4 0 0 0-9.07 1.48 41.46 41.46 0 0 0-8.78 3.13 31.7 31.7 0 0 0-7.7 5.3 108.68 108.68 0 0 0-19.93 23.5 161.3 161.3 0 0 0-14.38 28.7 168.98 168.98 0 0 0-8.56 30.97 163.6 163.6 0 0 0-2.52 30.72 119.26 119.26 0 0 0 3.6 27.85 67.28 67.28 0 0 0 9.76 21.98l.07.1a39.82 39.82 0 0 0 9.1 10.12 49.8 49.8 0 0 0 11.37 6.98zm53.87-152.93c-2.14 0-4.65 1.4-7.47 4.17a65.2 65.2 0 0 0-10.76 14.9 173.85 173.85 0 0 0-10.2 22.4 188.13 188.13 0 0 0-7.8 26.2l-.02.05a115.34 115.34 0 0 0-3.4 21.9 106.03 106.03 0 0 0 .63 20.4 49.46 49.46 0 0 0 4.37 15.35c1.9 3.78 4.16 6 6.75 6.6a9.06 9.06 0 0 0 6.8-1.2 26.8 26.8 0 0 0 7.38-6.7 68.11 68.11 0 0 0 7-11.13c1.78-3.47 3.47-7.18 5.04-11.08-7.73.64-14.07-.5-18.88-3.44-5.44-3.3-10.08-9.28-13.78-17.77q-1.5-3.65-.26-6.2a8.75 8.75 0 0 1 4.05-3.83 28.73 28.73 0 0 1 6.25-2.24q3.47-.87 7.8-1.93a173.85 173.85 0 0 1 16.9-4.32c5.8-1.2 10.84-2.35 14.96-3.45 5.22-1.25 9.57-1.6 13-1.02a19.8 19.8 0 0 1 10.13 5.36c1.96 1.78 3.86 3.7 5.63 5.65l4.83 5.37c.12.15.26.3.38.44l.02-.62c.16-7.54.38-15.06.65-22.4a19.22 19.22 0 0 1-6.94 1.07h-.12c-10.8-.56-19.1-3.06-24.6-7.44-5.52-4.4-9.1-10.6-10.6-18.44a32.1 32.1 0 0 1-.97-4.45 33.56 33.56 0 0 1-.32-4.72c-.14-1.5-.34-2.96-.6-4.34q-.4-2.14-.82-4.28c-.8-2.65-1.57-4.9-2.23-6.72-.6-1.6-1.34-1.92-1.86-2.03a4.6 4.6 0 0 0-.93-.08zm170.5 111.7l-2.33-1.9c-2.83-2.28-5.47-4.45-8.08-6.63-4.66-3.9-9.26-7.84-13.7-11.74s-8.57-7.68-12.3-11.2l-1.94-1.83 2.32-1.3c15.66-8.75 29.15-18 40.1-27.48a88.03 88.03 0 0 0 18.22-21.1l3.52 1.64-.6 1.7c-.58 1.67-1.17 3.34-1.75 5.02-5.23 15.13-10.1 29.95-14.5 44.05-3.2 10.2-5.95 19.57-8.2 27.84zm-31.78-32.5c3.18 2.98 6.62 6.1 10.27 9.3 4.4 3.9 8.97 7.8 13.6 11.67 1.86 1.55 3.75 3.1 5.7 4.7 2.1-7.58 4.6-16 7.44-25.1 3.84-12.32 8.06-25.2 12.55-38.36a105.37 105.37 0 0 1-11.17 11.17 240.55 240.55 0 0 1-38.4 26.63zm87.47-16.3l1.35-3.5c5.66-14.6 11.4-28.88 17.04-42.47s11-26.2 15.9-37.46l3.23-7.4.52 8.04c.76 11.7 1.77 23.7 3 35.65 1.2 11.88 2.52 24.02 3.9 36.06l.22 1.86-1.86.3c-6.65 1.03-13.37 2.24-19.97 3.57-6.58 1.32-13.2 2.8-19.68 4.42zm34.7-74.52c-4 9.3-8.26 19.36-12.7 30.05-5.2 12.48-10.44 25.54-15.64 38.9 5.36-1.3 10.8-2.5 16.2-3.6 6.04-1.2 12.2-2.33 18.3-3.3-1.3-11.45-2.55-22.97-3.7-34.26-.96-9.3-1.78-18.6-2.45-27.8zm-163.04 69.22l.7-3.64c1.92-10 3.62-19.44 5.04-28.04 1.44-8.77 3.03-17.12 4.7-24.8l.18-.84.72-.43a70.84 70.84 0 0 1 16.3-7.42 75.82 75.82 0 0 1 14.4-2.9c9.5-.85 15.6 1.1 18.14 5.8l.05.12c1.35 2.96.95 7-1.23 12.36-2.02 4.96-5.56 10.36-10.53 16.06a125.44 125.44 0 0 1-18.72 17.07 128.84 128.84 0 0 1-26.36 15.17zm14.08-54.83c-1.6 7.4-3.1 15.4-4.48 23.77-1.25 7.57-2.7 15.78-4.35 24.45a121.65 121.65 0 0 0 22.15-13.16 121.87 121.87 0 0 0 18.15-16.54c4.68-5.37 8-10.4 9.85-14.97 1.7-4.14 2.14-7.32 1.32-9.2-1.76-3.16-6.58-4.4-14.33-3.7a71.36 71.36 0 0 0-13.63 2.75 65.96 65.96 0 0 0-14.66 6.6z"/></g></g></g></svg>