<svg xmlns="http://www.w3.org/2000/svg" width="1953.662" height="1271.248" viewBox="0 0 1953.662 1271.248">
  <g id="Component_10_1" data-name="Component 10 – 1" transform="translate(0 1.609)">
    <g id="Rectangle_390" data-name="Rectangle 390" transform="translate(17.731 17.929)" fill="#00c691" stroke="#707070" stroke-width="1">
      <rect width="1920" height="1045" stroke="none"/>
      <rect x="0.5" y="0.5" width="1919" height="1044" fill="none"/>
    </g>
    <g id="Group_1086" data-name="Group 1086" transform="translate(0 1269.638) rotate(-90)">
      <g id="Group_863" data-name="Group 863" transform="translate(364.96 495.164)">
        <path id="Path_2257" data-name="Path 2257" d="M0,0V77.932H76.826" transform="translate(68.789 0)" fill="none" stroke="#fff28b" stroke-miterlimit="10" stroke-width="11.339"/>
        <line id="Line_107" data-name="Line 107" x1="68.789" y2="68.789" transform="translate(0 77.932)" fill="none" stroke="#fff28b" stroke-miterlimit="10" stroke-width="11.339"/>
      </g>
      <g id="Group_864" data-name="Group 864" transform="translate(265.352 1575.956)">
        <path id="Path_2258" data-name="Path 2258" d="M0,76.826H77.858V0" transform="translate(0 0)" fill="none" stroke="#fff28b" stroke-miterlimit="10" stroke-width="11.339"/>
        <line id="Line_108" data-name="Line 108" x2="68.789" y2="68.789" transform="translate(77.858 76.826)" fill="none" stroke="#fff28b" stroke-miterlimit="10" stroke-width="11.339"/>
      </g>
      <g id="Group_865" data-name="Group 865" transform="translate(436.699 13.271)">
        <path id="Path_2259" data-name="Path 2259" d="M109.414,55.076,54.338,0,0,54.338" transform="translate(0 97.322)" fill="none" stroke="#fff28b" stroke-miterlimit="10" stroke-width="11.339"/>
        <line id="Line_109" data-name="Line 109" y1="97.322" transform="translate(54.338 0)" fill="none" stroke="#fff28b" stroke-miterlimit="10" stroke-width="11.339"/>
      </g>
      <g id="Group_866" data-name="Group 866" transform="translate(855.553 834.98)">
        <path id="Path_2260" data-name="Path 2260" d="M77.858,0V58.983H0" transform="translate(0 0)" fill="none" stroke="#fff28b" stroke-miterlimit="10" stroke-width="11.339"/>
        <line id="Line_110" data-name="Line 110" x2="68.789" y2="68.863" transform="translate(77.858 58.983)" fill="none" stroke="#fff28b" stroke-miterlimit="10" stroke-width="11.339"/>
      </g>
      <path id="Path_2261" data-name="Path 2261" d="M0,70.78H85.231v88.549L244.559,0" transform="translate(479.609 463.387)" fill="none" stroke="#00c691" stroke-miterlimit="10" stroke-width="11.339"/>
      <circle id="Ellipse_136" data-name="Ellipse 136" cx="14.377" cy="14.377" r="14.377" transform="translate(575.604 699.467)" fill="#00c691"/>
      <circle id="Ellipse_137" data-name="Ellipse 137" cx="37.823" cy="37.823" r="37.823" transform="translate(696.814 834.98)" fill="none" stroke="#fff28b" stroke-miterlimit="10" stroke-width="11.339"/>
      <circle id="Ellipse_138" data-name="Ellipse 138" cx="22.782" cy="22.782" r="22.782" transform="translate(327.211 812.641)" fill="none" stroke="#00c691" stroke-miterlimit="10" stroke-width="11.339"/>
      <circle id="Ellipse_139" data-name="Ellipse 139" cx="22.782" cy="22.782" r="22.782" transform="translate(241.907 477.026)" fill="none" stroke="#00c691" stroke-miterlimit="10" stroke-width="11.339"/>
      <circle id="Ellipse_140" data-name="Ellipse 140" cx="5.382" cy="5.382" r="5.382" transform="translate(471.499 648.962)" fill="#fff28b"/>
      <circle id="Ellipse_141" data-name="Ellipse 141" cx="5.382" cy="5.382" r="5.382" transform="translate(268.375 648.962)" fill="#fff28b"/>
      <circle id="Ellipse_142" data-name="Ellipse 142" cx="5.382" cy="5.382" r="5.382" transform="translate(165.892 898.461)" fill="#fff"/>
      <circle id="Ellipse_143" data-name="Ellipse 143" cx="5.382" cy="5.382" r="5.382" transform="translate(417.382 1180.474)" fill="#fff28b"/>
      <circle id="Ellipse_144" data-name="Ellipse 144" cx="5.382" cy="5.382" r="5.382" transform="translate(816.403 1037.145)" fill="#fff"/>
      <circle id="Ellipse_145" data-name="Ellipse 145" cx="5.382" cy="5.382" r="5.382" transform="translate(685.239 1498.32)" fill="rgba(0,0,0,0)"/>
      <circle id="Ellipse_146" data-name="Ellipse 146" cx="5.382" cy="5.382" r="5.382" transform="translate(1076.076 1242.038)" fill="#fff"/>
      <circle id="Ellipse_147" data-name="Ellipse 147" cx="5.382" cy="5.382" r="5.382" transform="translate(997.481 1740.077)" fill="#fff"/>
      <circle id="Ellipse_148" data-name="Ellipse 148" cx="5.382" cy="5.382" r="5.382" transform="translate(553.854 951.988)" fill="#fff28b"/>
      <circle id="Ellipse_149" data-name="Ellipse 149" cx="5.382" cy="5.382" r="5.382" transform="translate(1171.408 1492.938)" fill="#fff28b"/>
      <circle id="Ellipse_150" data-name="Ellipse 150" cx="5.382" cy="5.382" r="5.382" transform="translate(1124.737 714.95)" fill="#fff28b"/>
      <circle id="Ellipse_151" data-name="Ellipse 151" cx="5.382" cy="5.382" r="5.382" transform="translate(1058.455 928.395)" fill="#fff"/>
      <circle id="Ellipse_152" data-name="Ellipse 152" cx="5.382" cy="5.382" r="5.382" transform="translate(674.474 1793.825)" fill="#fff"/>
      <circle id="Ellipse_153" data-name="Ellipse 153" cx="5.382" cy="5.382" r="5.382" transform="translate(685.239 191.843)" fill="#00c691"/>
      <circle id="Ellipse_154" data-name="Ellipse 154" cx="5.382" cy="5.382" r="5.382" transform="translate(781.234 378.303)" fill="#fff"/>
      <circle id="Ellipse_155" data-name="Ellipse 155" cx="5.382" cy="5.382" r="5.382" transform="translate(528.934 336.868)" fill="#00c691"/>
      <circle id="Ellipse_156" data-name="Ellipse 156" cx="5.382" cy="5.382" r="5.382" transform="translate(160.436 100.566)" fill="#00c691"/>
      <circle id="Ellipse_157" data-name="Ellipse 157" cx="5.382" cy="5.382" r="5.382" transform="translate(570.222 452.917)" fill="#00c691"/>
      <circle id="Ellipse_158" data-name="Ellipse 158" cx="5.382" cy="5.382" r="5.382" transform="translate(747.392 584.966)" fill="#00c691"/>
      <circle id="Ellipse_159" data-name="Ellipse 159" cx="5.382" cy="5.382" r="5.382" transform="translate(1126.507 1132.034)" fill="#fff28b"/>
      <circle id="Ellipse_160" data-name="Ellipse 160" cx="5.382" cy="5.382" r="5.382" transform="translate(1084.152 1355.029)" fill="#fff28b"/>
      <circle id="Ellipse_161" data-name="Ellipse 161" cx="5.382" cy="5.382" r="5.382" transform="translate(922.572 1487.26)" fill="#00c691"/>
      <circle id="Ellipse_162" data-name="Ellipse 162" cx="5.382" cy="5.382" r="5.382" transform="translate(520.233 1697.167)" fill="#00c691"/>
      <circle id="Ellipse_163" data-name="Ellipse 163" cx="5.382" cy="5.382" r="5.382" transform="translate(648.448 1013.552)" fill="#00c691"/>
      <circle id="Ellipse_164" data-name="Ellipse 164" cx="5.382" cy="5.382" r="5.382" transform="translate(1171.408 910.626)" fill="#00c691"/>
      <circle id="Ellipse_165" data-name="Ellipse 165" cx="5.382" cy="5.382" r="5.382" transform="translate(175.698 1429.383)" fill="#00c691"/>
      <circle id="Ellipse_166" data-name="Ellipse 166" cx="5.382" cy="5.382" r="5.382" transform="translate(246.699 1768.758)" fill="#00c691"/>
      <circle id="Ellipse_167" data-name="Ellipse 167" cx="5.382" cy="5.382" r="5.382" transform="translate(827.831 751.077)" fill="#00c691"/>
      <circle id="Ellipse_168" data-name="Ellipse 168" cx="5.382" cy="5.382" r="5.382" transform="translate(1160.569 636.502)" fill="#00c691"/>
      <circle id="Ellipse_169" data-name="Ellipse 169" cx="5.382" cy="5.382" r="5.382" transform="translate(199.807 386.413)" fill="#00c691"/>
      <g id="Group_867" data-name="Group 867" transform="translate(855.553 758.155)">
        <path id="Path_2262" data-name="Path 2262" d="M0,76.825H77.858V0" transform="translate(0 0)" fill="none" stroke="#00c691" stroke-miterlimit="10" stroke-width="11.339"/>
        <line id="Line_111" data-name="Line 111" x2="68.789" y2="68.863" transform="translate(77.858 76.826)" fill="none" stroke="#00c691" stroke-miterlimit="10" stroke-width="11.339"/>
      </g>
      <rect id="Rectangle_181" data-name="Rectangle 181" width="17.842" height="175.77" transform="translate(713.786 713.404) rotate(45)" fill="#00c691"/>
      <path id="Path_2263" data-name="Path 2263" d="M0,164.268,154.831,9.438l89.95,89.949L344.167,0" transform="translate(821.785 490.076)" fill="none" stroke="#fff28b" stroke-miterlimit="10" stroke-width="11.339"/>
      <path id="Path_2264" data-name="Path 2264" d="M135.809,16.663,86.3,66.176,76.236,76.236,0,0" transform="translate(45.654 1465.461)" fill="#00c691" stroke="#fff" stroke-miterlimit="10" stroke-width="11.339"/>
      <path id="Path_2265" data-name="Path 2265" d="M0,0,64.439,128.731l68.715-68.716Z" transform="translate(72.035 963.269)" fill="#fff28b"/>
      <path id="Path_2266" data-name="Path 2266" d="M37.6,0,0,112.953H80.438Z" transform="translate(377.126 232.615)" fill="#fff28b"/>
      <path id="Path_2267" data-name="Path 2267" d="M37.6,0,0,113.027H80.438Z" transform="translate(377.126 296.759)" fill="none" stroke="#00c691" stroke-miterlimit="10" stroke-width="11.339"/>
      <line id="Line_112" data-name="Line 112" x1="191.253" y2="191.327" transform="translate(41.511 150.923)" fill="none" stroke="#00c691" stroke-miterlimit="10" stroke-width="11.339"/>
      <line id="Line_113" data-name="Line 113" x1="191.253" y2="191.253" transform="translate(6.49 260.853)" fill="none" stroke="#fff28b" stroke-miterlimit="10" stroke-width="11.339"/>
      <circle id="Ellipse_170" data-name="Ellipse 170" cx="6.857" cy="6.857" r="6.857" transform="translate(299.71 225.758)" fill="#fff28b"/>
      <circle id="Ellipse_171" data-name="Ellipse 171" cx="6.857" cy="6.857" r="6.857" transform="translate(1202.964 103.589)" fill="#fff28b"/>
      <circle id="Ellipse_172" data-name="Ellipse 172" cx="6.857" cy="6.857" r="6.857" transform="translate(855.553 144.066)" fill="#fff28b"/>
      <circle id="Ellipse_173" data-name="Ellipse 173" cx="6.857" cy="6.857" r="6.857" transform="translate(960.911 358.765)" fill="#fff28b"/>
      <circle id="Ellipse_174" data-name="Ellipse 174" cx="55.223" cy="55.223" r="55.223" transform="translate(907.458 0)" fill="#fff28b"/>
      <circle id="Ellipse_175" data-name="Ellipse 175" cx="55.223" cy="55.223" r="55.223" transform="translate(989.592 0)" fill="#00c691"/>
      <path id="Path_2268" data-name="Path 2268" d="M250.383,85.3l-73.8-73.8L94.078,94,0,0" transform="translate(593.078 243.084)" fill="none" stroke="#00c691" stroke-miterlimit="10" stroke-width="11.339"/>
      <path id="Path_2269" data-name="Path 2269" d="M0,0,87,87l68.273-68.2,65.1,65.1" transform="translate(821.785 248.467)" fill="none" stroke="#fff28b" stroke-miterlimit="10" stroke-width="11.339"/>
      <line id="Line_114" data-name="Line 114" y2="99.755" transform="translate(908.785 335.467)" fill="none" stroke="#fff28b" stroke-miterlimit="10" stroke-width="11.339"/>
      <circle id="Ellipse_176" data-name="Ellipse 176" cx="23.077" cy="23.077" r="23.077" transform="translate(1035.304 412.145)" fill="none" stroke="#00c691" stroke-miterlimit="10" stroke-width="11.339"/>
      <path id="Path_2270" data-name="Path 2270" d="M0,0H69.969V65.914" transform="translate(1072.684 365.622)" fill="none" stroke="#00c691" stroke-miterlimit="10" stroke-width="11.339"/>
      <circle id="Ellipse_177" data-name="Ellipse 177" cx="12.681" cy="12.681" r="12.681" transform="translate(248.395 450.705)" fill="none" stroke="#fff28b" stroke-miterlimit="10" stroke-width="11.339"/>
      <rect id="Rectangle_182" data-name="Rectangle 182" width="149.596" height="28.164" transform="translate(940.672 1088.627) rotate(45)" fill="none" stroke="#00c691" stroke-miterlimit="10" stroke-width="11.339"/>
      <circle id="Ellipse_178" data-name="Ellipse 178" cx="42.984" cy="42.984" r="42.984" transform="translate(841.987 1207.164)" fill="#00c691"/>
      <rect id="Rectangle_183" data-name="Rectangle 183" width="149.596" height="28.164" transform="translate(822.158 1293.063) rotate(-45)" fill="#fff28b"/>
      <path id="Path_2271" data-name="Path 2271" d="M18.285,104.253,86.263,35.832,0,0" transform="translate(165.818 975.508)" fill="none" stroke="#00c691" stroke-miterlimit="10" stroke-width="11.339"/>
      <path id="Path_2272" data-name="Path 2272" d="M0,0V103.516H107.054V207.178H200.4V157.264" transform="translate(457.564 951.988)" fill="none" stroke="#fff28b" stroke-miterlimit="10" stroke-width="11.339"/>
      <path id="Path_2273" data-name="Path 2273" d="M0,0V103.515H107.128V207.178h93.341" transform="translate(390.544 1018.934)" fill="none" stroke="#00c691" stroke-miterlimit="10" stroke-width="11.339"/>
      <circle id="Ellipse_179" data-name="Ellipse 179" cx="30.524" cy="30.524" r="30.524" transform="translate(427.04 921.464)" fill="#00c691"/>
      <path id="Path_2274" data-name="Path 2274" d="M0,0H114.87V101.377Z" transform="translate(71.685 621.904) rotate(45)" fill="#00c691"/>
      <path id="Path_2275" data-name="Path 2275" d="M52.643,54.78H89.286V0H0" transform="translate(181.08 727.705)" fill="none" stroke="#fff28b" stroke-miterlimit="10" stroke-width="11.339"/>
      <path id="Path_2276" data-name="Path 2276" d="M0,0,80.439,80.438,160.582.369,316.371,156.232" transform="translate(842.06 1540.935)" fill="none" stroke="#00c691" stroke-miterlimit="10" stroke-width="11.339"/>
      <path id="Path_2277" data-name="Path 2277" d="M0,64.661,64.661,0l62.153,62.154" transform="translate(939.456 1602.204)" fill="none" stroke="#fff28b" stroke-miterlimit="10" stroke-width="11.339"/>
      <rect id="Rectangle_184" data-name="Rectangle 184" width="68.126" height="73.434" transform="translate(236.156 1540.935)" fill="none" stroke="#fff" stroke-miterlimit="10" stroke-width="11.339"/>
      <path id="Path_2278" data-name="Path 2278" d="M1.769,0,30.892,29.123,0,60.016" transform="translate(460.292 764.348)" fill="none" stroke="#fff" stroke-miterlimit="10" stroke-width="11.339"/>
      <path id="Path_2279" data-name="Path 2279" d="M5.087,58.688,31.851,31.851,0,0" transform="translate(1067.818 1341.793)" fill="rgba(0,0,0,0)" stroke="#fff" stroke-miterlimit="10" stroke-width="11.339"/>
      <path id="Path_2280" data-name="Path 2280" d="M0,3.17,15.778,18.949,34.726,0" transform="translate(335.248 1341.646)" fill="none" stroke="#fff" stroke-miterlimit="10" stroke-width="11.339"/>
      <path id="Path_2281" data-name="Path 2281" d="M0,3.17,15.852,18.948,34.8,0" transform="translate(1131.889 1033.016)" fill="rgba(0,0,0,0)" stroke="#fff" stroke-miterlimit="10" stroke-width="11.339"/>
      <path id="Path_2282" data-name="Path 2282" d="M15.852,0,0,15.778,18.948,34.726" transform="translate(209.318 1134.173)" fill="none" stroke="#fff" stroke-miterlimit="10" stroke-width="11.339"/>
      <path id="Path_2283" data-name="Path 2283" d="M0,16.736l12.976,13.05L42.763,0" transform="translate(711.56 1209.376)" fill="rgba(0,0,0,0)" stroke="#fff" stroke-miterlimit="10" stroke-width="11.339"/>
      <path id="Path_2284" data-name="Path 2284" d="M64.66,30.524,34.21,0,0,34.211" transform="translate(548.103 1597.264)" fill="rgba(0,0,0,0)" stroke="#fff" stroke-miterlimit="10" stroke-width="11.339"/>
      <path id="Path_2285" data-name="Path 2285" d="M0,37.454,37.528,0l17.4,17.4" transform="translate(657.959 97.248)" fill="rgba(0,0,0,0)" stroke="#fff" stroke-miterlimit="10" stroke-width="11.339"/>
      <path id="Path_2286" data-name="Path 2286" d="M0,38.929,38.929,0,64,25.068" transform="translate(1118.47 166.406)" fill="none" stroke="#fff" stroke-miterlimit="10" stroke-width="11.339"/>
      <path id="Path_2287" data-name="Path 2287" d="M0,202.754,202.829,0,400.864,198.036" transform="translate(696.814 1745.238)" fill="none" stroke="#fff28b" stroke-miterlimit="10" stroke-width="11.339"/>
      <circle id="Ellipse_180" data-name="Ellipse 180" cx="39.15" cy="39.15" r="39.15" transform="translate(858.133 1869.692)" fill="none" stroke="#00c691" stroke-miterlimit="10" stroke-width="11.339"/>
      <circle id="Ellipse_181" data-name="Ellipse 181" cx="39.15" cy="39.15" r="39.15" transform="translate(322.419 1869.692)" fill="#00c691"/>
      <circle id="Ellipse_182" data-name="Ellipse 182" cx="67.757" cy="67.757" r="67.757" transform="translate(361.569 1812.553)" fill="#fff28b"/>
      <circle id="Ellipse_183" data-name="Ellipse 183" cx="39.887" cy="39.887" r="39.887" transform="translate(548.103 1355.433)" fill="#00c691"/>
      <path id="Path_2288" data-name="Path 2288" d="M47.334,0H94.742L71.075,40.993,47.334,81.987,23.667,40.993,0,0Z" transform="translate(493.101 1386.547)" fill="none" stroke="#fff28b" stroke-miterlimit="10" stroke-width="11.339"/>
      <path id="Path_2289" data-name="Path 2289" d="M47.334,0H94.668L71,40.993,47.334,82.06,23.667,40.993,0,0Z" transform="translate(1129.456 1472.293)" fill="none" stroke="#fff28b" stroke-miterlimit="10" stroke-width="11.339"/>
      <path id="Path_2291" data-name="Path 2291" d="M0,0H164.121V90.613l86.115,86.115" transform="translate(72.035 1280.525)" fill="none" stroke="#fff28b" stroke-miterlimit="10" stroke-width="11.339"/>
      <path id="Path_2292" data-name="Path 2292" d="M89.138,90.981V0H0" transform="translate(181.08 1242.996)" fill="none" stroke="#00c691" stroke-miterlimit="10" stroke-width="11.339"/>
      <circle id="Ellipse_184" data-name="Ellipse 184" cx="26.893" cy="26.893" r="26.893" transform="translate(116.332 1725.174)" fill="#00c691"/>
      <circle id="Ellipse_187" data-name="Ellipse 187" cx="26.911" cy="26.911" r="26.911" transform="translate(747.024 1392.076)" fill="rgba(0,0,0,0)" stroke="#fff" stroke-miterlimit="10" stroke-width="11.339"/>
      <line id="Line_115" data-name="Line 115" x2="62.891" transform="translate(773.935 1418.988)" fill="none" stroke="#fff28b" stroke-miterlimit="10" stroke-width="11.339"/>
      <path id="Path_2293" data-name="Path 2293" d="M0,50.21,45.048,5.16,79.922,40.035,119.957,0" transform="translate(668.945 1665.095)" fill="none" stroke="#fff28b" stroke-miterlimit="10" stroke-width="11.339"/>
      <circle id="Ellipse_188" data-name="Ellipse 188" cx="32.367" cy="32.367" r="32.367" transform="translate(760.516 1627.935)" fill="none" stroke="#00c691" stroke-miterlimit="10" stroke-width="11.339"/>
      <circle id="Ellipse_189" data-name="Ellipse 189" cx="17.4" cy="17.4" r="17.4" transform="translate(698.436 1716.041)" fill="#00c691"/>
      <line id="Line_116" data-name="Line 116" x2="104.105" y2="30.819" transform="translate(1165.533 628.88)" fill="none" stroke="#fff" stroke-miterlimit="10" stroke-width="11.339"/>
      <circle id="Ellipse_190" data-name="Ellipse 190" cx="33.473" cy="33.473" r="33.473" transform="translate(1164.551 1784.683)" fill="none" stroke="#fff" stroke-miterlimit="10" stroke-width="11.339"/>
      <path id="Path_2294" data-name="Path 2294" d="M48.809,48.809,0,0" transform="translate(1149.215 1769.348)" fill="none" stroke="#fff28b" stroke-miterlimit="10" stroke-width="11.339"/>
      <circle id="Ellipse_191" data-name="Ellipse 191" cx="10.838" cy="10.838" r="10.838" transform="translate(1204.512 1740.003)" fill="#fff28b"/>
      <path id="Path_2295" data-name="Path 2295" d="M0,33.178,23.962,9.216l27.5,27.575L88.254,0" transform="translate(942.184 180.931)" fill="none" stroke="#00c691" stroke-miterlimit="10" stroke-width="11.339"/>
      <line id="Line_117" data-name="Line 117" x1="46.081" y1="46.081" transform="translate(534.979 245.886)" fill="none" stroke="#fff28b" stroke-miterlimit="10" stroke-width="11.339"/>
    </g>
  </g>
</svg>
