<svg xmlns="http://www.w3.org/2000/svg" width="1920" height="983"><defs><clipPath id="a"><path fill="#bef7ff" d="M-859-7629h1920v983H-859z"/></clipPath></defs><path fill="#2ad9b1" d="M0 0h1920v983H0z"/><g transform="translate(1061 -6646) rotate(180)" clip-path="url(#a)"><g><path fill="#6140ff" d="M1140.48-7279.94c-35.63-5.73-67.6-26.15-103.54-30.26-17.6-2.02-35.5-.05-53-2.48-15.56-2.2-30.3-7.8-44.92-13.48-53.35-20.77-108.3-44.43-144.53-87.7-7.7-9.2-14.58-22.2-8.13-32.22 2.92-4.57 8.12-7.34 13.43-8.9 15.15-4.4 31.4.1 47.2.1s34.5-7.86 35.98-23.13c1.2-12.04-8.95-22.1-18.68-29.74-85.87-67.45-203.5-96.43-272.24-180.3-6.26-7.63-12.23-16.25-12.6-26.03-.52-13.88 11-26.03 24.24-31.18 13.3-5.15 28.1-4.8 42.37-4.28 38.3 1.45 76.62 3.64 115 5.1a2907.34 2907.34-90 0 0 331.5-6.43"/><path fill="#6140ff" d="M-623-7728.34c-32.22 9.94-64.9 20.58-92.68 40.13-41.24 29.05-69.3 79.83-65.17 131.27 4.2 51.44 44.76 99.64 94.63 104.33 45.25 4.25 87.48-24.7 132.8-27.05 40.6-2.1 80.07 17.56 111.4 44.53s56.06 60.98 82 93.5c11.93 14.96 29.8 31.3 46.95 23.76 6.66-2.92 11.58-9.04 14.95-15.68 13.46-25.97 6.7-58.86-8.16-84.1-14.92-25.22-36.9-45.04-56.5-66.57-31.02-34.13-67.1-99.5-85.8-142.06"/><path fill="#6140ff" d="M-345-7750.4q67.3 64.64 134.68 129.28c39.62 38.06 83.72 78.27 139.16 84.23 13 1.4 26.73.7 38.3-5.26 19.53-10 28.7-33.2 27.58-54.6-1.13-21.35-10.8-41.36-20.88-60.34a906.24 906.24-90 0 0-62.9-101.17"/><path fill="#aeffd6" d="M-8.8-7746.76a912.63 912.63-90 0 1 55.26 116.85c21.96 56.5 37.42 122.5 6.62 175.03-19.75 33.72-55.13 55.42-87.36 78.44-32.22 22.96-64.4 51.48-72.15 89.54-7.87 38.94 12.06 78.34 37.54 109.4s57 57.5 78.78 91.1c13.2 20.37 22.44 42.87 34.8 63.64 12.4 20.82 28.75 40.55 51.25 50.6s52.1 8.1 68.75-9.65c16.23-17.36 16.23-43.4 15.33-66.76q-1.95-48.33-3.86-96.72c-.66-15.96-1.08-32.8 6.68-46.9 12-21.82 41.47-30.6 66.3-24.94s45.23 23.02 60.93 42.5 27.68 41.55 42.66 61.56c11.23 15.04 25.9 29.85 44.95 32.1 16.1 1.9 31.63-5.6 45.9-13.13 32.45-17 67.36-38.75 75.6-73.63 8.35-35.57-14.44-70.28-36.17-100.07-11.45-15.73-22.97-31.58-37.23-45-9.67-9.14-20.53-17-30.44-25.92-55.66-49.8-77.92-125.35-88.96-198-3.58-23.48-6.2-47.78-.18-70.8 9.3-35.8 39.08-69.53 28.76-105.1"/><path fill="#6140ff" d="M-346.62-7541.52a23.35 23.35-90 0 0 6.2 4.74 18.62 18.62-90 0 0 6.63 1.68 28.5 28.5-90 0 0 23.4-9.02 26.6 26.6-90 0 0 6.1-23.66 17.52 17.52-90 0 0-4.36-8.45c-3-3-7.17-4.5-11.34-5.44-8.95-2.02-18.92-1.67-26.68 3.07-16.1 9.9-10.68 26.2.06 37.08z"/><path fill="#6140ff" d="M77.9-6845.52a15.85 15.85-90 0 0 4.3 3.3 12.5 12.5-90 0 0 4.6 1.15 19.84 19.84-90 0 0 16.18-6.24 18.3 18.3-90 0 0 4.23-16.38 12.35 12.35-90 0 0-3.03-5.84c-2.03-2.1-4.95-3.13-7.88-3.76-6.2-1.4-13.08-1.16-18.45 2.13-11.16 6.77-7.34 18.05.06 25.63z"/><path fill="#6140ff" d="M830.17-7249.86a15.85 15.85-90 0 0 4.3 3.3 12.48 12.48-90 0 0 4.6 1.16 19.84 19.84-90 0 0 16.17-6.25 18.48 18.48-90 0 0 4.24-16.37 12.34 12.34-90 0 0-3.04-5.84c-2.03-2.1-4.96-3.13-7.88-3.76-6.2-1.4-13.07-1.16-18.44 2.14-11.17 6.82-7.35 18.1.05 25.62z"/><path fill="#6140ff" d="M725.08-7500.1a7.18 7.18-90 0 0 2.15 1.62 6.23 6.23-90 0 0 2.27.57 9.77 9.77-90 0 0 8.05-3.13 9.08 9.08-90 0 0 2.1-8.16 5.66 5.66-90 0 0-1.5-2.88 7.5 7.5-90 0 0-3.94-1.85c-3.1-.7-6.55-.58-9.24 1.04-5.5 3.36-3.58 9.04.12 12.8z"/><path fill="#6140ff" d="M515.2-7422.94a7.2 7.2-90 0 0 2.15 1.62 6.24 6.24-90 0 0 2.27.58 9.77 9.77-90 0 0 8.06-3.12 9.08 9.08-90 0 0 2.1-8.16 5.67 5.67-90 0 0-1.5-2.9 7.52 7.52-90 0 0-3.95-1.84c-3.1-.7-6.56-.58-9.25 1.04-5.48 3.35-3.58 8.96.12 12.78z"/><path fill="#6140ff" d="M507.83-6993.12a7.18 7.18-90 0 0 2.15 1.62 6.24 6.24-90 0 0 2.27.57 9.77 9.77-90 0 0 8.05-3.12 9.08 9.08-90 0 0 2.1-8.16 5.67 5.67-90 0 0-1.5-2.9 7.52 7.52-90 0 0-3.94-1.85c-3.1-.7-6.56-.58-9.25 1.04-5.48 3.34-3.57 9.02.13 12.78z"/><path fill="#6140ff" d="M950.83-7278.73a7.18 7.18-90 0 0 2.15 1.62 6.25 6.25-90 0 0 2.27.57 9.77 9.77-90 0 0 8.05-3.13 9.08 9.08-90 0 0 2.1-8.15 5.66 5.66-90 0 0-1.5-2.9 7.5 7.5-90 0 0-3.94-1.85c-3.1-.7-6.56-.58-9.25 1.04-5.47 3.34-3.57 9 .13 12.77z"/><path fill="#6140ff" d="M306.22-6976.14a7.18 7.18-90 0 0 2.15 1.62 6.25 6.25-90 0 0 2.27.58 9.77 9.77-90 0 0 8.06-3.13 9.08 9.08-90 0 0 2.1-8.15 5.66 5.66-90 0 0-1.5-2.9 7.52 7.52-90 0 0-3.95-1.84c-3.1-.7-6.56-.58-9.25 1.04-5.55 3.35-3.64 9.02.12 12.78z"/><path fill="#6140ff" d="M386.78-7552.86a7.2 7.2-90 0 0 2.15 1.62 6.25 6.25-90 0 0 2.27.58 9.77 9.77-90 0 0 8.06-3.12 9.08 9.08-90 0 0 2.08-8.16 5.66 5.66-90 0 0-1.5-2.9 7.5 7.5-90 0 0-3.93-1.84c-3.1-.7-6.55-.58-9.24 1.04-5.48 3.35-3.58 9.02.12 12.78z"/><path fill="#6140ff" d="M-14.95-7511.73a7.18 7.18-90 0 0 2.15 1.62 6.24 6.24-90 0 0 2.27.57 9.77 9.77-90 0 0 8.05-3.13 9.08 9.08-90 0 0 2.1-8.15 5.67 5.67-90 0 0-1.5-2.9 7.5 7.5-90 0 0-3.94-1.85c-3.1-.7-6.56-.58-9.25 1.04-5.5 3.4-3.58 9 .12 12.77z"/><path fill="#6140ff" d="M-31.3-7469.5a7.18 7.18-90 0 0 2.15 1.62 6.24 6.24-90 0 0 2.27.57 9.77 9.77-90 0 0 8.05-3.13 9.08 9.08-90 0 0 2.1-8.15 5.66 5.66-90 0 0-1.5-2.9 7.5 7.5-90 0 0-3.94-1.85c-3.1-.7-6.56-.58-9.25 1.04-5.5 3.36-3.58 9.04.12 12.8z"/><path fill="#6140ff" d="M119.32-6925.18a7.2 7.2-90 0 0 2.15 1.62 6.25 6.25-90 0 0 2.27.58 9.77 9.77-90 0 0 8.05-3.13 9.08 9.08-90 0 0 2.08-8.16 5.67 5.67-90 0 0-1.5-2.9 7.52 7.52-90 0 0-3.93-1.84c-3.1-.7-6.56-.58-9.25 1.04-5.5 3.35-3.58 9.02.12 12.78z"/><path fill="#6140ff" d="M-157.7-7121.56a7.2 7.2-90 0 0 2.16 1.62 6.25 6.25-90 0 0 2.27.57 9.77 9.77-90 0 0 8.05-3.12 9.08 9.08-90 0 0 2.1-8.15 5.67 5.67-90 0 0-1.5-2.9 7.52 7.52-90 0 0-3.94-1.84c-3.1-.68-6.56-.57-9.25 1.05-5.5 3.35-3.65 9.03.1 12.8z"/><path fill="#6140ff" d="M-22.1-6994.48a7.2 7.2-90 0 0 2.14 1.62 6.24 6.24-90 0 0 2.27.58 9.77 9.77-90 0 0 8.06-3.12 9.08 9.08-90 0 0 2.1-8.16 5.67 5.67-90 0 0-1.5-2.9 7.5 7.5-90 0 0-3.94-1.84c-3.1-.7-6.56-.58-9.25 1.04-5.5 3.35-3.58 9.02.12 12.78z"/><path fill="#6140ff" d="M-334.57-7010.5a7.2 7.2-90 0 0 2.15 1.62 6.25 6.25-90 0 0 2.27.58 9.77 9.77-90 0 0 8.05-3.13 9.08 9.08-90 0 0 2.1-8.15 5.67 5.67-90 0 0-1.5-2.9 7.5 7.5-90 0 0-3.94-1.84c-3.1-.7-6.56-.58-9.25 1.04-5.47 3.35-3.57 9.02.13 12.78z"/><path fill="#6140ff" d="M-258.66-7561.94a7.2 7.2-90 0 0 2.15 1.62 6.2 6.2-90 0 0 2.25.58 9.77 9.77-90 0 0 8.06-3.13 9.08 9.08-90 0 0 2.1-8.15 5.67 5.67-90 0 0-1.5-2.9 7.52 7.52-90 0 0-3.93-1.85c-3.1-.7-6.57-.57-9.25 1.05-5.5 3.35-3.58 9.02.12 12.78z"/><path fill="#6140ff" d="M950.83-6986.2a7.2 7.2-90 0 0 2.15 1.6 6.25 6.25-90 0 0 2.27.6 9.77 9.77-90 0 0 8.05-3.13 9.08 9.08-90 0 0 2.1-8.16 5.66 5.66-90 0 0-1.5-2.88 7.5 7.5-90 0 0-3.94-1.85c-3.1-.7-6.56-.58-9.25 1.04-5.47 3.36-3.57 9.04.13 12.8z"/><path fill="#6140ff" d="M1016.77-7232.68a7.2 7.2-90 0 0 2.15 1.62 6.24 6.24-90 0 0 2.27.57 9.77 9.77-90 0 0 8.04-3.1 9.08 9.08-90 0 0 2.1-8.17 5.67 5.67-90 0 0-1.5-2.9 7.5 7.5-90 0 0-3.94-1.84c-3.1-.7-6.56-.6-9.25 1.03-5.48 3.42-3.58 9.03.12 12.8z"/><path fill="#6140ff" d="M447.96-7413.9a15.85 15.85-90 0 0 4.3 3.3 12.5 12.5-90 0 0 4.6 1.15 19.84 19.84-90 0 0 16.17-6.25 18.3 18.3-90 0 0 4.24-16.37 12.35 12.35-90 0 0-3.05-5.85c-2.03-2.08-4.95-3.12-7.88-3.75-6.2-1.4-13.06-1.16-18.43 2.13-11.22 6.77-7.4 18.1.06 25.63z"/><path fill="#6140ff" d="M468.08-6901.74a21.23 21.23-90 0 0 5.6 4.34 17.8 17.8-90 0 0 6.03 1.57 25.86 25.86-90 0 0 21.2-8.22 24.16 24.16-90 0 0 5.55-21.46 16.02 16.02-90 0 0-3.94-7.64c-2.68-2.72-6.5-4.1-10.3-4.92-8.13-1.8-17.14-1.5-24.24 2.78-14.62 8.84-9.67 23.65.12 33.54z"/><path fill="#fff" d="M918.9-7393.6a21.2 21.2-90 0 0 5.62 4.33 17.8 17.8-90 0 0 6.03 1.56 25.86 25.86-90 0 0 21.18-8.23 24.16 24.16-90 0 0 5.55-21.46 16.02 16.02-90 0 0-3.94-7.62c-2.68-2.72-6.5-4.1-10.32-4.92-8.12-1.8-17.13-1.5-24.23 2.78-14.57 8.85-9.62 23.66.1 33.55z"/><path fill="#6140ff" d="M286.05-7029a21.22 21.22-90 0 0 5.6 4.33 17.8 17.8-90 0 0 6.04 1.56 25.86 25.86-90 0 0 21.18-8.22 24.16 24.16-90 0 0 5.55-21.47 16.02 16.02-90 0 0-3.94-7.62c-2.7-2.72-6.5-4.1-10.34-4.92-8.1-1.8-17.12-1.5-24.22 2.78-14.56 8.85-9.6 23.72.12 33.55z"/><path fill="#6140ff" d="M-176-7168.88c-10.45-2.66-21.55-3.24-31.58-7.3a46.62 46.62-90 0 1-23.27-20.3c-2.33-4.04-4-8.84-2.57-13.3 2.1-6.58 9.73-9.65 16.6-11.67 7.8-2.38 16.94-4.4 23.7.1 3.86 2.6 6.2 7 10 9.73 6.16 4.4 14.57 3.64 21.85 5.9 15.28 4.74 22.56 22.04 23.04 37.54.83 28.86-25.3 2.48-37.78-.7z"/><path fill="#aeffd6" d="M1124-6888.85c-94.16-83.7-169.7-187.02-219.9-300.9-4.76-10.77-8.46-25.24.9-32.64 3.23-2.6 7.53-3.63 11.7-4.04 21.8-2.14 41.43 11.8 58.6 25q42.7 32.7 85.47 65.47c26.37 20.2 52.93 40.6 74.65 65.42 20.6 23.5 36.58 50.62 49.6 78.73"/><path fill="#6140ff" d="M423.55-7717.78a190.5 190.5-90 0 1 7.28 129.3c-5.37 17.8-13.5 35.62-11.4 54.07 3.52 30.82 35.26 52.4 66.77 57.72 10.74 1.8 22.32 2.14 32.05-2.77s16.47-16.32 12.9-26.27c-3.65-9.94-16.48-18.45-11.95-28.05 1.8-3.82 6.03-6.07 10.27-6.7 13.36-1.98 24.46 9.13 34.2 18.33a174.7 174.7-90 0 0 29.7 22.6c9.8 5.97 20.6 11.06 32.1 11.35s23.88-5.37 28.18-15.72c2.26-5.38 2.14-11.45 1.07-17.12-4.36-22.27-23.2-39.05-42.43-51.95s-40.53-24.17-54.43-42.4c-8.48-11.04-13.67-24.05-18.8-36.9l-34.02-85.03"/><path fill="#fff" d="M185.68-7285.27c-38.5 5.67-76.38 30.08-86.23 66.6-2.74 10.1-3.82 21.85-12.17 28.5-10.33 8.33-27.5 3.42-34.9-7.46s-6.88-25.28-2.88-37.7c9.55-29.57 36.64-51.5 66.54-62.43s62.54-12.26 94.53-11.8c16.88.23 135.46 7.87 121.08 37.3-8.6 17.65-48.64-3.17-61.4-6.3-27.52-6.7-56.22-10.93-84.57-6.7z"/><path fill="#fff" d="M385.18-7198.32c7.93 11.1 25.72 14.92 36.82 6.65s10.86-27.6-1.26-34.3c-6.26-3.47-13.9-3.35-21.12-3.12-2.5.06-5.2.18-7.22 1.57a11.7 11.7-90 0 0-3.7 5.03 44.05 44.05-90 0 0-2.27 28.86"/><path fill="#fff" d="M197.26-7453.25c-9.9-.17-20.35-1.85-27.75-8.27-12.58-10.93-10.13-32.5 2.28-43.67 52.7-47.02 125.86 53.63 25.48 51.95z"/><path fill="#fff" d="M-429.45-7301.35c-9.9-.17-20.35-1.85-27.75-8.27-12.6-10.93-10.14-32.5 2.27-43.67 52.63-47.02 125.8 53.63 25.48 51.95z"/><path fill="#fff" d="M210.63-7540.42c7.75 1.5 15.7 4.16 23.4 2.37 4.4-6.6 1.3-15.9-4.9-21s-14.5-6.77-22.56-7.75c-19.8-2.43-40.46-1.4-58.72 6.42-12.95 5.55-58.36 47.5-19.63 46 13.24-.53 23.4-14.47 34.97-19.8 14.72-6.76 31.43-9.37 47.43-6.24z"/><path fill="#fff" d="M276.7-7410.2c10.6-6.03 19.2-14.76 27.68-23.32 4.05-4.1 8.4-9.2 7.34-14.75-1.2-6.25-8.78-9.43-15.34-9.37-17.3.1-31.1 14.28-47.92 18.16-11.52 2.66-25.36.92-33.42 9.25a16.83 16.83-90 0 0-2.92 18.92c9.72 19.13 50.48 9.13 64.57 1.1z"/><path fill="#fff" d="M-197.9-7705.28a302.16 302.16-90 0 0 56.8 55.42c7.1 5.32 15.4 10.58 24.35 9.7 11.46-1.14 19.63-12.7 19.8-23.88s-5.84-21.63-13.12-30.3-16-16.2-22.73-25.3"/><path fill="#fff" d="M1006.45-7603.13c-10.14-20.42-12.3-43.55-14.32-66.17-.96-10.53-1.6-22.16 5.07-30.6 9.97-12.55 29.42-10.76 45.77-10.6 16.65.2 33.84-2.65 49.6 2.5 27.5 8.97 41.47 38.8 46.18 66.58 4.54 26.6 9.9 114.53-30.97 113.6-35.8-.74-86.9-46.27-101.33-75.3z"/><path fill="#fff" d="M950.83-7166.45a7.2 7.2-90 0 0 2.15 1.62 6.25 6.25-90 0 0 2.27.58 9.77 9.77-90 0 0 8.05-3.13 9.08 9.08-90 0 0 2.1-8.15 5.66 5.66-90 0 0-1.5-2.9 7.5 7.5-90 0 0-3.94-1.84c-3.1-.7-6.56-.58-9.25 1.04-5.47 3.4-3.57 9.02.13 12.78z"/><path fill="#fff" d="M1021.43-7095.94a7.2 7.2-90 0 0 2.15 1.62 6.25 6.25-90 0 0 2.27.58 9.77 9.77-90 0 0 8.05-3.12 9.08 9.08-90 0 0 2.1-8.16 5.67 5.67-90 0 0-1.5-2.9 7.52 7.52-90 0 0-3.94-1.84c-3.1-.7-6.56-.58-9.25 1.04-5.48 3.35-3.63 9.02.13 12.78z"/><path fill="#fff" d="M1039.8-7010.5a7.2 7.2-90 0 0 2.16 1.62 6.25 6.25-90 0 0 2.26.58 9.77 9.77-90 0 0 8.06-3.13 9.08 9.08-90 0 0 2.1-8.15 5.66 5.66-90 0 0-1.5-2.9 7.5 7.5-90 0 0-3.94-1.84c-3.1-.7-6.57-.58-9.25 1.04-5.5 3.35-3.6 9.02.1 12.78z"/><path fill="#fff" d="M119.32-7104.2a7.2 7.2-90 0 0 2.15 1.6 6.25 6.25-90 0 0 2.27.6 9.77 9.77-90 0 0 8.05-3.14 9.08 9.08-90 0 0 2.08-8.15 5.67 5.67-90 0 0-1.5-2.88 7.52 7.52-90 0 0-3.93-1.85c-3.1-.7-6.56-.58-9.25 1.04-5.5 3.36-3.58 9.03.12 12.8z"/><path fill="#fff" d="M26.47-7303.6a7.2 7.2-90 0 0 2.15 1.62 6.24 6.24-90 0 0 2.27.58 9.77 9.77-90 0 0 8.04-3.13 9.08 9.08-90 0 0 2.1-8.15 5.67 5.67-90 0 0-1.5-2.9 7.5 7.5-90 0 0-3.94-1.85c-3.1-.7-6.56-.58-9.25 1.04-5.5 3.36-3.64 9.04.12 12.8z"/><path fill="#fff" d="M504.46-7552.86a7.2 7.2-90 0 0 2.15 1.62 6.25 6.25-90 0 0 2.28.58 9.77 9.77-90 0 0 8.05-3.12 9.08 9.08-90 0 0 2.1-8.16 5.66 5.66-90 0 0-1.5-2.9 7.5 7.5-90 0 0-3.94-1.84c-3.1-.7-6.57-.58-9.26 1.04-5.48 3.35-3.58 9.02.12 12.78z"/><path fill="#fff" d="M453.56-7535.16a7.18 7.18-90 0 0 2.15 1.62 6.25 6.25-90 0 0 2.28.58 9.77 9.77-90 0 0 8.05-3.12 9.08 9.08-90 0 0 2.1-8.16 5.66 5.66-90 0 0-1.5-2.9 7.5 7.5-90 0 0-3.94-1.84c-3.1-.7-6.57-.58-9.26 1.04-5.5 3.35-3.58 9.02.12 12.78z"/><path fill="#fff" d="M497.9-7621.64a7.18 7.18-90 0 0 2.15 1.62 6.25 6.25-90 0 0 2.26.58 9.77 9.77-90 0 0 8.07-3.12 9.08 9.08-90 0 0 2.1-8.16 5.67 5.67-90 0 0-1.5-2.9 7.52 7.52-90 0 0-3.94-1.84c-3.1-.7-6.57-.58-9.25 1.04-5.5 3.35-3.58 8.97.12 12.78z"/><path fill="#fff" d="M815.25-7593.35a7.2 7.2-90 0 0 2.15 1.62 6.25 6.25-90 0 0 2.27.58 9.77 9.77-90 0 0 8.05-3.13 9.08 9.08-90 0 0 2.1-8.15 5.67 5.67-90 0 0-1.5-2.9 7.52 7.52-90 0 0-3.94-1.85c-3.1-.7-6.56-.57-9.25 1.05-5.5 3.4-3.58 9.02.12 12.78z"/><path fill="#fff" d="M909.24-7543.43a7.2 7.2-90 0 0 2.15 1.62 6.24 6.24-90 0 0 2.25.57 9.77 9.77-90 0 0 8.06-3.13 9.08 9.08-90 0 0 2.1-8.15 5.67 5.67-90 0 0-1.5-2.9 7.52 7.52-90 0 0-3.93-1.85c-3.1-.7-6.57-.58-9.25 1.04-5.5 3.34-3.58 9 .12 12.77z"/><path fill="#fff" d="M733.98-7641.25a7.17 7.17-90 0 0 2.14 1.62 6.24 6.24-90 0 0 2.27.58 9.77 9.77-90 0 0 8.05-3.12 9.08 9.08-90 0 0 2.1-8.16 5.66 5.66-90 0 0-1.5-2.9 7.52 7.52-90 0 0-3.94-1.84c-3.1-.7-6.56-.58-9.24 1.04-5.56 3.35-3.64 9.02.12 12.78z"/><path fill="#fff" d="M420.56-7143.6a7.2 7.2-90 0 0 2.15 1.62 6.24 6.24-90 0 0 2.28.58 9.77 9.77-90 0 0 8.05-3.13 9.08 9.08-90 0 0 2.1-8.15 5.66 5.66-90 0 0-1.5-2.9 7.5 7.5-90 0 0-3.94-1.85c-3.1-.7-6.57-.57-9.26 1.04-5.5 3.37-3.58 9.04.12 12.8z"/><path fill="#fff" d="M201.25-7613.36a7.18 7.18-90 0 0 2.15 1.6 6.24 6.24-90 0 0 2.27.6 9.77 9.77-90 0 0 8.06-3.13 9.08 9.08-90 0 0 2.08-8.15 5.66 5.66-90 0 0-1.48-2.9 7.5 7.5-90 0 0-3.94-1.84c-3.1-.68-6.56-.57-9.25 1.05-5.48 3.35-3.58 8.97.12 12.78z"/><path fill="#fff" d="M-371.4-7129.2a7.18 7.18-90 0 0 2.16 1.62 6.25 6.25-90 0 0 2.27.58 9.77 9.77-90 0 0 8.06-3.13 9.08 9.08-90 0 0 2.07-8.15 5.66 5.66-90 0 0-1.5-2.9 7.5 7.5-90 0 0-3.93-1.84c-3.1-.7-6.56-.58-9.25 1.04-5.5 3.35-3.6 9.02.1 12.78z"/><path fill="#fff" d="M137.76-7403.4a7.18 7.18-90 0 0 2.15 1.63 6.25 6.25-90 0 0 2.28.58 9.77 9.77-90 0 0 8.05-3.1 9.08 9.08-90 0 0 2.1-8.17 5.67 5.67-90 0 0-1.5-2.9 7.5 7.5-90 0 0-3.94-1.84c-3.1-.7-6.57-.6-9.26 1.03-5.5 3.35-3.58 9.02.12 12.78z"/><path fill="#fff" d="M-48.84-7585.08a7.2 7.2-90 0 0 2.14 1.62 6.23 6.23-90 0 0 2.27.58 9.77 9.77-90 0 0 8.06-3.12 9.08 9.08-90 0 0 2.1-8.16 5.67 5.67-90 0 0-1.5-2.9 7.5 7.5-90 0 0-3.94-1.84c-3.1-.7-6.58-.58-9.26 1.04-5.5 3.4-3.58 9.02.12 12.78z"/><path fill="#fff" d="M-292.62-7368a7.2 7.2-90 0 0 2.15 1.63 6.24 6.24-90 0 0 2.27.58 9.77 9.77-90 0 0 8.06-3.1 9.08 9.08-90 0 0 2.08-8.17 5.67 5.67-90 0 0-1.5-2.9 7.5 7.5-90 0 0-3.93-1.84c-3.1-.7-6.55-.6-9.24 1.03-5.48 3.35-3.58 9.03.12 12.8z"/><path fill="#fff" d="M-235.03-7431.27a7.2 7.2-90 0 0 2.15 1.62 6.25 6.25-90 0 0 2.27.58 9.77 9.77-90 0 0 8.04-3.12 9.08 9.08-90 0 0 2.1-8.15 5.67 5.67-90 0 0-1.5-2.9 7.5 7.5-90 0 0-3.94-1.84c-3.1-.7-6.56-.57-9.25 1.05-5.5 3.4-3.58 9.02.12 12.78z"/><path fill="#fff" d="M-357.24-7210.53a7.2 7.2-90 0 0 2.14 1.62 6.25 6.25-90 0 0 2.27.57 9.77 9.77-90 0 0 8.06-3.13 9.08 9.08-90 0 0 2.1-8.15 5.67 5.67-90 0 0-1.5-2.9 7.5 7.5-90 0 0-3.94-1.85c-3.1-.7-6.58-.58-9.26 1.04-5.5 3.4-3.58 9 .12 12.77z"/><path fill="#fff" d="M976.67-7143.6a7.2 7.2-90 0 0 2.15 1.62 6.24 6.24-90 0 0 2.27.58 9.77 9.77-90 0 0 8.04-3.13 9.08 9.08-90 0 0 2.1-8.15 5.66 5.66-90 0 0-1.5-2.9 7.52 7.52-90 0 0-3.94-1.85c-3.1-.7-6.56-.57-9.25 1.04-5.5 3.37-3.58 9.04.12 12.8z"/><path fill="#fff" d="M947-7129.84a7.2 7.2-90 0 0 2.16 1.62 6.24 6.24-90 0 0 2.27.58 9.77 9.77-90 0 0 8.05-3.12 9.08 9.08-90 0 0 2.1-8.16 5.66 5.66-90 0 0-1.5-2.9 7.5 7.5-90 0 0-3.94-1.84c-3.1-.7-6.56-.58-9.25 1.04-5.5 3.35-3.6 9.02.1 12.78z"/><path fill="#6140ff" d="M397.26-6626.36c-10.8-27.26-23.53-54.2-35.5-81.03a690.54 690.54-90 0 1-44.6-134.8c-3.23-14.8-5.53-31.3 4.9-43.68 11.2-13.32 33.96-17.35 53.58-14.3s36.88 11.76 54.36 19.56c29.67 13.26 61.4 24.4 95.06 27.57s69.6-2.47 95.9-19.76c32.52-21.4 45.63-57.5 43.87-91.33s-16.4-66.3-30.9-98.08q-50.95-112.08-101.97-224.1c-10.5-23.1-20.93-49.37-7.43-71.5 12.2-20 43.93-37.1 68.53-45.78 10.58-3.72 22.16-6.26 33.66-5.26 18.94 1.67 34.65 12.76 46 25.15 67.3 73.68 114.77 160.72 162.22 243.37 44.77 78 86.48 159.47 148.2 229.9a418.18 418.18-90 0 0 178.1 120.27c48.98 17.16 91.14 43.43 119.43 80.35 25.9 33.88 37.64 78.36 22.7 117.02-9.28 24.16-40.94 43.06-67.55 54.52-30.6 13.14-65.3 18.65-99.9 20.57-37.4 2.05-77.12-.55-108-17.7-39.03-21.63-58.9-63.5-102.97-77.33-40.25-12.57-84.8 3.16-123.43 18.6-79.35 31.83-159.47 64-245.56 80.53-33.58 6.44-71.3 9.97-100.66-4.7-28.9-14.38-34.96-36.2-41.86-60.97a478.45 478.45-90 0 0-16.18-47.1z"/><path fill="#fff" d="M649.18-7207.93c-1.97-5.14-4-10.4-3.94-15.9s2.68-11.34 7.82-13.7c8.53-3.95 17.96 3.17 24.16 10.05a226.82 226.82-90 0 1 51.74 98.17c2.15 8.9 3.64 18.6-.18 26.94-15.8 34.36-38.67-10.8-44.8-23.37-13.26-26.67-24.06-54.5-34.8-82.2z"/><path fill="#6140ff" d="M169.72-6793.33c-3.15-8.24-6.4-16.67-6.3-25.47s4.3-18.15 12.5-21.94c13.67-6.3 28.76 5.1 38.7 16.1a363.07 363.07-90 0 1 82.82 157.14c3.44 14.26 5.82 29.82-.3 43.15-25.3 55-61.9-17.32-71.73-37.4-21.2-42.7-38.48-87.23-55.68-131.58z"/><path fill="#fff" d="M764.9-6961.4c-8.25.18-17.8-.4-22.7-6.82s-2.38-16.13 3.47-21.8 14.14-8.16 22.14-10.13c15.6-3.87 55.15-7.57 53 17.88-1.97 23.66-39.92 20.6-55.9 20.88z"/><path fill="#fff" d="M985.4-6631.7c-.35-6.2-.17-13.4 4.54-17.25s12.1-2.23 16.52 2.03 6.5 10.44 8.2 16.4c3.33 11.64 7.17 41.34-12.06 40.4-17.87-.86-16.56-29.53-17.2-41.57z"/><path fill="#fff" d="M796.8-6821.52c6.8 3.12 13.68 6.7 21.14 7.64 7.52.92 16-1.45 19.8-7.75 3.3-5.5 2.28-12.67-1.06-18.1s-8.66-9.5-14.03-13.08c-35.03-23.33-79.24-33.2-121.26-27.1-33.48 4.87-38.56 36.92-2.8 40.8 34.96 3.8 65.04 2.37 98.2 17.58z"/><path fill="#fff" d="M947-6773.68a7.2 7.2-90 0 0 2.16 1.62 6.24 6.24-90 0 0 2.27.58 9.77 9.77-90 0 0 8.05-3.13 9.08 9.08-90 0 0 2.1-8.16 5.66 5.66-90 0 0-1.5-2.9 7.5 7.5-90 0 0-3.94-1.84c-3.1-.7-6.56-.58-9.25 1.04-5.5 3.35-3.6 9.02.1 12.78z"/><path fill="#fff" d="M691.66-7051.74a7.18 7.18-90 0 0 2.15 1.6 6.24 6.24-90 0 0 2.28.6 9.77 9.77-90 0 0 8.06-3.13 9.08 9.08-90 0 0 2.08-8.16 5.66 5.66-90 0 0-1.5-2.9 7.52 7.52-90 0 0-3.93-1.84c-3.1-.7-6.57-.58-9.26 1.04-5.48 3.35-3.58 9.03.12 12.8z"/><path fill="#fff" d="M622.8-6810.2a7.2 7.2-90 0 0 2.13 1.62 6.25 6.25-90 0 0 2.27.58 9.77 9.77-90 0 0 8.06-3.12 9.08 9.08-90 0 0 2.1-8.16 5.67 5.67-90 0 0-1.5-2.9 7.52 7.52-90 0 0-3.94-1.84c-3.1-.7-6.57-.58-9.25 1.04-5.5 3.35-3.58 9.02.12 12.78z"/><path fill="#fff" d="M682.47-7282.2a7.2 7.2-90 0 0 2.15 1.62 6.24 6.24-90 0 0 2.27.58 9.77 9.77-90 0 0 8.05-3.13 9.08 9.08-90 0 0 2.08-8.15 5.67 5.67-90 0 0-1.5-2.9 7.52 7.52-90 0 0-3.93-1.84c-3.1-.7-6.56-.58-9.25 1.04-5.48 3.35-3.58 9.02.12 12.78z"/><path fill="#2de8f5" d="M462.57-6707.48a21.23 21.23-90 0 0 5.6 4.34 17.8 17.8-90 0 0 6.03 1.56 25.86 25.86-90 0 0 21.2-8.2 24.16 24.16-90 0 0 5.54-21.47 16.02 16.02-90 0 0-3.94-7.64c-2.7-2.7-6.5-4.1-10.32-4.9-8.12-1.8-17.13-1.5-24.23 2.77-14.62 8.85-9.67 23.66.12 33.55z"/><path fill="#fff" d="M627.77-6653.24a14.54 14.54-90 0 0 3.84 2.97 12.2 12.2-90 0 0 4.14 1.07 17.72 17.72-90 0 0 14.5-5.62 16.55 16.55-90 0 0 3.8-14.7 10.98 10.98-90 0 0-2.7-5.23 13.8 13.8-90 0 0-7.06-3.37c-5.56-1.23-11.73-1.03-16.6 1.9-10 6.06-6.62 16.2.1 22.98z"/><path fill="#fff" d="M493.04-6659.13a6.14 6.14-90 0 0 1.62 1.26 5.15 5.15-90 0 0 1.74.45 7.48 7.48-90 0 0 6.13-2.38 7 7-90 0 0 1.6-6.2 4.63 4.63-90 0 0-1.14-2.2 5.82 5.82-90 0 0-3-1.43 9.65 9.65-90 0 0-7 .8c-4.22 2.56-2.8 6.84.04 9.7z"/><path fill="#2de8f5" d="M418-6772.02a6.48 6.48-90 0 0 1.73 1.33 5.43 5.43-90 0 0 1.84.5 7.9 7.9-90 0 0 6.46-2.52 7.37 7.37-90 0 0 1.7-6.55 4.9 4.9-90 0 0-1.2-2.33 6.14 6.14-90 0 0-3.15-1.5 10.2 10.2-90 0 0-7.4.84c-4.46 2.7-2.95 7.23.04 10.24z"/><path fill="#6140ff" d="M-283.87-6873.5c-32.22-56.04-62.47-114.05-86.9-172.75-8.4-16.88-20.16-36.18-38.96-36.98-21.34-.93-40.57 20.9-54.24 34.7-69.2 69.76-177.88 78.85-264.15 125.85-10.4 5.7-20.66 12-28.7 20.66-12 12.87-18.43 29.88-22.64 46.95-20.22 82.5 8.23 172.92 65.2 235.88 11.62 12.88 24.6 24.88 40.2 32.55 44.4 21.83 97.84 3.64 140.94-20.6s85.17-55.23 134.4-59.8c50.53-4.7 98.65 19.23 147.76 31.97 19.97 5.2 41.68 8.4 60.8.62 32.96-13.36 31.72-45.15 13.66-69.34-24.36-32.65-46.07-67.72-67.35-102.42-13.5-22.08-26.9-44.53-40.02-67.3z"/><path fill="#fff" d="M-195.9-6757.38a12.75 12.75-90 0 0 3 2.32 10.13 10.13-90 0 0 3.2.8 13.54 13.54-90 0 0 11.3-4.4 13.14 13.14-90 0 0 2.97-11.45 8.57 8.57-90 0 0-2.1-4.05 10.5 10.5-90 0 0-5.48-2.6c-4.36-1-9.14-.8-12.9 1.5-7.82 4.74-5.2 12.6 0 17.87z"/><path fill="#fff" d="M-182.58-6934.6a12.75 12.75-90 0 0 3 2.32 10.13 10.13-90 0 0 3.2.8 13.54 13.54-90 0 0 11.3-4.4 13.14 13.14-90 0 0 2.97-11.45 8.57 8.57-90 0 0-2.1-4.05 10.5 10.5-90 0 0-5.5-2.6c-4.34-.98-9.12-.8-12.88 1.5-7.8 4.7-5.2 12.62 0 17.88z"/><path fill="#00c691" d="M-81.23-6800.09a12.75 12.75-90 0 0 2.98 2.33 10.13 10.13-90 0 0 3.23.8 13.54 13.54-90 0 0 11.27-4.4 13.14 13.14-90 0 0 3-11.44 8.57 8.57-90 0 0-2.1-4.06 10.5 10.5-90 0 0-5.5-2.6c-4.35-1-9.12-.8-12.88 1.5-7.82 4.74-5.2 12.6 0 17.88z"/><path fill="#fff" d="M-156.52-6854.7a12.75 12.75-90 0 0 3 2.32 10.13 10.13-90 0 0 3.2.8 13.54 13.54-90 0 0 11.3-4.4 13.14 13.14-90 0 0 2.97-11.44 8.57 8.57-90 0 0-2.08-4.05 10.5 10.5-90 0 0-5.5-2.6c-4.35-.98-9.12-.8-12.88 1.5-7.9 4.7-5.2 12.6-.02 17.88z"/><path fill="#fff" d="M-411.07-6797.54c37.06-38.47 90.83-56.34 137.6-83.13 2.22-1.27 4.6-2.77 5.56-5.1 1.25-3.23-.66-6.7-2.5-9.6-4.67-7.33-9.98-15.26-18.4-17.92-6.74-2.13-14.02-.4-20.82 1.57-52.45 15.5-97.98 50.1-128.3 94.17a227.05 227.05-90 0 0-33.06 71.56c-2.15 8.16-10.92 33.78-4.18 40.84 7.34 7.7 16.3 1.97 21.25-5.5 7.86-11.92 8.16-32.92 14.8-46.5a155.1 155.1-90 0 1 28.03-40.38z"/><path fill="#00dea3" d="M-332.05-6618.2a17.3 17.3-90 0 0 4.57 3.54 14.5 14.5-90 0 0 4.92 1.27 21.07 21.07-90 0 0 17.26-6.7 19.7 19.7-90 0 0 4.53-17.48 13.06 13.06-90 0 0-3.2-6.22c-2.2-2.22-5.3-3.35-8.43-4-6.6-1.47-13.96-1.24-19.74 2.25-11.92 7.22-7.88 19.3.1 27.35z"/><path fill="#00dea3" d="M-243.86-6692.42c37.13 38.36 53.1 92.7 78.22 140.38 1.2 2.25 2.62 4.7 4.9 5.72 3.2 1.37 6.72-.42 9.67-2.17 7.5-4.38 15.6-9.4 18.56-17.72 2.36-6.66.88-14-.84-20.86-13.65-52.94-46.62-99.64-89.6-131.47a226.97 226.97 2 0 0-70.3-35.54c-8.1-2.42-33.38-12.08-40.66-5.6-7.95 7.08-2.54 16.22 4.74 21.43 11.63 8.28 32.6 9.32 45.95 16.4a155.02 155.02 2 0 1 39.34 29.45z"/></g></g></svg>