<svg xmlns="http://www.w3.org/2000/svg" width="2116.882" height="870.328"><g data-name="Component 14 – 1"><path fill="#242d53" d="M58.53 0h1920v870.33h-1920z" data-name="Path 2337"/><g data-name="Group 1051" transform="translate(.029 38.4)"><path fill="none" stroke="#a2f4fc" stroke-linecap="round" stroke-miterlimit="10" stroke-width="5.109" d="M397.2 751.5h-33.1a4.22 4.22 0 00-4.2 4.2v30.2a4.22 4.22 0 004.2 4.2h33.1a4.22 4.22 0 004.2-4.2v-30.2a4.22 4.22 0 00-4.2-4.2z" data-name="Path 2430"/><path fill="none" stroke="#a2f4fc" stroke-linecap="round" stroke-miterlimit="10" stroke-width="5.109" d="M370.8 766.4v9.5" data-name="Line 528"/><path fill="none" stroke="#a2f4fc" stroke-linecap="round" stroke-miterlimit="10" stroke-width="5.109" d="M381 763.9v14.5" data-name="Line 529"/><path fill="none" stroke="#a2f4fc" stroke-linecap="round" stroke-miterlimit="10" stroke-width="5.109" d="M391.2 766.4v9.5" data-name="Line 530"/><path fill="none" stroke="#a2f4fc" stroke-linecap="round" stroke-miterlimit="10" stroke-width="5.109" d="M397.2 710.8h-33.1a4.22 4.22 0 00-4.2 4.2v30.2a4.22 4.22 0 004.2 4.2h33.1a4.22 4.22 0 004.2-4.2V715a4.22 4.22 0 00-4.2-4.2z" data-name="Path 2431"/><path fill="none" stroke="#a2f4fc" stroke-linecap="round" stroke-miterlimit="10" stroke-width="5.109" d="M370.8 725.7v9.5" data-name="Line 531"/><path fill="none" stroke="#a2f4fc" stroke-linecap="round" stroke-miterlimit="10" stroke-width="5.109" d="M381 723.2v14.6" data-name="Line 532"/><path fill="none" stroke="#a2f4fc" stroke-linecap="round" stroke-miterlimit="10" stroke-width="5.109" d="M391.2 725.7v9.5" data-name="Line 533"/><path fill="none" stroke="#a2f4fc" stroke-linecap="round" stroke-miterlimit="10" stroke-width="5.109" d="M450.8 751.5h-33.1a4.22 4.22 0 00-4.2 4.2v30.2a4.22 4.22 0 004.2 4.2h33.1a4.22 4.22 0 004.2-4.2v-30.2a4.22 4.22 0 00-4.2-4.2z" data-name="Path 2432"/><path fill="none" stroke="#a2f4fc" stroke-linecap="round" stroke-miterlimit="10" stroke-width="5.109" d="M424.4 766.4v9.5" data-name="Line 534"/><path fill="none" stroke="#a2f4fc" stroke-linecap="round" stroke-miterlimit="10" stroke-width="5.109" d="M434.6 763.9v14.5" data-name="Line 535"/><path fill="none" stroke="#a2f4fc" stroke-linecap="round" stroke-miterlimit="10" stroke-width="5.109" d="M444.8 766.4v9.5" data-name="Line 536"/><g fill="none" stroke="#a2f4fc" stroke-linecap="round" stroke-miterlimit="10" stroke-width="5.109" data-name="Group 1037"><path d="M450.8 710.8h-33.1a4.22 4.22 0 00-4.2 4.2v30.2a4.22 4.22 0 004.2 4.2h33.1a4.22 4.22 0 004.2-4.2V715a4.22 4.22 0 00-4.2-4.2z" data-name="Path 2433"/><path d="M424.4 725.7v9.5" data-name="Line 537"/><path d="M434.6 723.2v14.6" data-name="Line 538"/><path d="M444.8 725.7v9.5" data-name="Line 539"/></g><path fill="none" stroke="#a2f4fc" stroke-linecap="round" stroke-miterlimit="10" stroke-width="5.109" d="M305.6 274.6h-54.5" data-name="Line 540"/><path fill="none" stroke="#a2f4fc" stroke-linecap="round" stroke-miterlimit="10" stroke-width="5.109" d="M501.5 274.6h-11.1" data-name="Line 541"/><path fill="none" stroke="#a2f4fc" stroke-linecap="round" stroke-miterlimit="10" stroke-width="5.109" d="M272 486.2h231.2" data-name="Line 542"/><path fill="none" stroke="#a2f4fc" stroke-linecap="round" stroke-miterlimit="10" stroke-width="5.109" d="M365.7 444.9h44.7" data-name="Line 543"/><path fill="none" stroke="#a2f4fc" stroke-linecap="round" stroke-miterlimit="10" stroke-width="5.109" d="M328.4 464.3h123.7" data-name="Line 544"/><path fill="none" stroke="#a2f4fc" stroke-linecap="round" stroke-miterlimit="10" stroke-width="5.109" d="M144.3 441.2h59.6" data-name="Line 545"/><path fill="none" stroke="#a2f4fc" stroke-linecap="round" stroke-miterlimit="10" stroke-width="5.109" d="M145.5 466.8h59.6" data-name="Line 546"/><path fill="none" stroke="#a2f4fc" stroke-linecap="round" stroke-miterlimit="10" stroke-width="5.109" d="M146.7 492.3h59.6" data-name="Line 547"/><path fill="none" stroke="#a2f4fc" stroke-linecap="round" stroke-miterlimit="10" stroke-width="5.109" d="M123.6 523.2h-18.3l-49 49v216" data-name="Path 2434"/><path fill="none" stroke="#a2f4fc" stroke-linecap="round" stroke-miterlimit="10" stroke-width="5.109" d="M74.1 572.6h49.5" data-name="Line 548"/><path fill="none" stroke="#a2f4fc" stroke-linecap="round" stroke-miterlimit="10" stroke-width="5.109" d="M74.1 598.5h49.5" data-name="Line 549"/><path fill="none" stroke="#a2f4fc" stroke-linecap="round" stroke-miterlimit="10" stroke-width="5.109" d="M74.1 624.4h49.5" data-name="Line 550"/><path fill="none" stroke="#a2f4fc" stroke-linecap="round" stroke-miterlimit="10" stroke-width="5.109" d="M74.1 650.3h49.5" data-name="Line 551"/><path fill="none" stroke="#a2f4fc" stroke-linecap="round" stroke-miterlimit="10" stroke-width="5.109" d="M74.1 676.1h49.5" data-name="Line 552"/><path fill="none" stroke="#a2f4fc" stroke-linecap="round" stroke-miterlimit="10" stroke-width="5.109" d="M74.1 702h49.5" data-name="Line 553"/><path fill="none" stroke="#a2f4fc" stroke-linecap="round" stroke-miterlimit="10" stroke-width="5.109" d="M56.7 727.9h66.9" data-name="Line 554"/><path fill="none" stroke="#a2f4fc" stroke-linecap="round" stroke-miterlimit="10" stroke-width="5.109" d="M188.4 593.3h-26.2a5.7 5.7 0 01-5.7-5.7v-26.2a5.7 5.7 0 015.7-5.7h26.2a5.7 5.7 0 015.7 5.7v26.2a5.57 5.57 0 01-5.7 5.7z" data-name="Path 2435"/><path fill="none" stroke="#a2f4fc" stroke-linecap="round" stroke-miterlimit="10" stroke-width="5.109" d="M194.2 789.2h-37.7V739a7.13 7.13 0 017.1-7.1h23.6a7.13 7.13 0 017.1 7.1v50.2z" data-name="Path 2436"/><path fill="none" stroke="#a2f4fc" stroke-linecap="round" stroke-miterlimit="10" stroke-width="5.109" d="M159.1 339.6v52.7a6.27 6.27 0 01-6.3 6.3H130a6.27 6.27 0 00-6.3 6.3v39.9" data-name="Path 2437"/><path fill="none" stroke="#a2f4fc" stroke-linecap="round" stroke-miterlimit="10" stroke-width="5.109" d="M123.6 486.2v302" data-name="Line 555"/><path fill="none" stroke="#a2f4fc" stroke-linecap="round" stroke-miterlimit="10" stroke-width="5.109" d="M191.2 339v54.5a6.27 6.27 0 006.3 6.3h24.4a6.27 6.27 0 016.3 6.3v382" data-name="Path 2438"/><path fill="none" stroke="#a2f4fc" stroke-linecap="round" stroke-miterlimit="10" stroke-width="5.109" d="M265.4 759.2h57.5" data-name="Line 556"/><path fill="none" stroke="#a2f4fc" stroke-linecap="round" stroke-miterlimit="10" stroke-width="5.109" d="M266.5 789v-26.2a1.71 1.71 0 00-1.7-1.8h0a1.77 1.77 0 01-1.7-1.8v-13.1a1.71 1.71 0 011.7-1.8h57.9a1.77 1.77 0 011.7 1.8v11.7a1.71 1.71 0 01-1.7 1.8h0a1.77 1.77 0 00-1.7 1.8V789" data-name="Path 2439"/><path fill="none" stroke="#a2f4fc" stroke-linecap="round" stroke-miterlimit="10" stroke-width="5.109" d="M310.4 705.3h-33.1a4.22 4.22 0 00-4.2 4.2v30.2a4.22 4.22 0 004.2 4.2h33.1a4.22 4.22 0 004.2-4.2v-30.2a4.22 4.22 0 00-4.2-4.2z" data-name="Path 2440"/><path fill="none" stroke="#a2f4fc" stroke-linecap="round" stroke-miterlimit="10" stroke-width="5.109" d="M284 720.2v9.5" data-name="Line 557"/><path fill="none" stroke="#a2f4fc" stroke-linecap="round" stroke-miterlimit="10" stroke-width="5.109" d="M294.2 717.7v14.5" data-name="Line 558"/><path fill="none" stroke="#a2f4fc" stroke-linecap="round" stroke-miterlimit="10" stroke-width="5.109" d="M304.4 720.2v9.5" data-name="Line 559"/><path fill="none" stroke="#a2f4fc" stroke-linecap="round" stroke-miterlimit="10" stroke-width="5.109" d="M339.4 330.5v26.6a5.12 5.12 0 005.1 5.1H430a5.12 5.12 0 005.1-5.1v-26.6" data-name="Path 2441"/><path fill="none" stroke="#a2f4fc" stroke-linecap="round" stroke-miterlimit="10" stroke-width="5.058" d="M332.9 296.4H24.1a6.36 6.36 0 00-6.4 6.3v20.9a6.36 6.36 0 006.4 6.3h494.6a6.36 6.36 0 006.4-6.3v-20.9a6.36 6.36 0 00-6.4-6.3H384" data-name="Path 2442"/><circle cx="30.4" cy="30.4" r="30.4" fill="#242d53" stroke="#a2f4fc" stroke-linecap="round" stroke-miterlimit="10" stroke-width="5.058" data-name="Ellipse 228" transform="translate(144.3 283.1)"/><path fill="none" stroke="#a2f4fc" stroke-linecap="round" stroke-miterlimit="10" stroke-width="5.058" d="M38.6 599.3v35.3" data-name="Line 560"/><path fill="none" stroke="#a2f4fc" stroke-linecap="round" stroke-miterlimit="10" stroke-width="5.058" d="M38.6 648.2v14.9" data-name="Line 561"/><path fill="none" stroke="#a2f4fc" stroke-linecap="round" stroke-miterlimit="10" stroke-width="5.058" d="M2.5 313v24.5a6.38 6.38 0 006.5 6.3h34.2" data-name="Path 2443"/><path fill="none" stroke="#a2f4fc" stroke-linecap="round" stroke-miterlimit="10" stroke-width="5.109" d="M308.5 506.9v86.4" data-name="Line 562"/><path fill="none" stroke="#a2f4fc" stroke-linecap="round" stroke-miterlimit="10" stroke-width="5.109" d="M339 506.9v86.4" data-name="Line 563"/><path fill="none" stroke="#a2f4fc" stroke-linecap="round" stroke-miterlimit="10" stroke-width="5.109" d="M369.4 506.9v86.4" data-name="Line 564"/><path fill="none" stroke="#a2f4fc" stroke-linecap="round" stroke-miterlimit="10" stroke-width="5.109" d="M399.8 506.9v86.4" data-name="Line 565"/><path fill="none" stroke="#a2f4fc" stroke-linecap="round" stroke-miterlimit="10" stroke-width="5.109" d="M430.2 506.9v86.4" data-name="Line 566"/><path fill="none" stroke="#a2f4fc" stroke-linecap="round" stroke-miterlimit="10" stroke-width="5.109" d="M460.7 506.9v86.4" data-name="Line 567"/><path fill="none" stroke="#a2f4fc" stroke-linecap="round" stroke-miterlimit="10" stroke-width="5.109" d="M278.5 610.3h217.4" data-name="Line 568"/><path fill="none" stroke="#a2f4fc" stroke-linecap="round" stroke-miterlimit="10" stroke-width="5.109" d="M387.2 362.1v57.2a3.7 3.7 0 01-3.7 3.7h-8.1a3.7 3.7 0 00-3.7 3.7v14.6a3.7 3.7 0 01-3.7 3.7h-25.6a3.7 3.7 0 00-3.7 3.7v12.2a3.7 3.7 0 01-3.7 3.7h-59.6a3.7 3.7 0 00-3.7 3.7v18.3a3.7 3.7 0 003.7 3.7h0a3.7 3.7 0 013.7 3.7v114.4a3.7 3.7 0 01-3.7 3.7h0a3.7 3.7 0 00-3.7 3.7v18.3a3.7 3.7 0 003.7 3.7H374" data-name="Path 2444"/><path fill="none" stroke="#a2f4fc" stroke-linecap="round" stroke-miterlimit="10" stroke-width="5.109" d="M387.6 363.3v56.1a3.7 3.7 0 003.7 3.7h8.1a3.7 3.7 0 013.7 3.7v14.6a3.7 3.7 0 003.7 3.7h25.6a3.7 3.7 0 013.7 3.7V461a3.7 3.7 0 003.7 3.7h59.6a3.7 3.7 0 013.7 3.7v18.3a3.7 3.7 0 01-3.7 3.7h0a3.7 3.7 0 00-3.7 3.7v114.4a3.7 3.7 0 003.7 3.7h0a3.7 3.7 0 013.7 3.7v18.3a3.7 3.7 0 01-3.7 3.7h-77.5" data-name="Path 2445"/><path fill="none" stroke="#a2f4fc" stroke-linecap="round" stroke-miterlimit="10" stroke-width="4.906" d="M687.9 622.2h-6.5a4.22 4.22 0 00-4.2 4.2v130.1a4.22 4.22 0 004.2 4.2h6.5a4.22 4.22 0 004.2-4.2V626.4a4.16 4.16 0 00-4.2-4.2z" data-name="Path 2446"/><path fill="none" stroke="#a2f4fc" stroke-linecap="round" stroke-miterlimit="10" stroke-width="4.906" d="M1005.6 766.6H895.2a2.69 2.69 0 01-2.7-2.7v-17a2.69 2.69 0 012.7-2.7h215.3a2.69 2.69 0 012.7 2.7v17a2.69 2.69 0 01-2.7 2.7h-85.8" data-name="Path 2447"/><circle cx="13.6" cy="13.6" r="13.6" fill="#fff" stroke="#a2f4fc" stroke-linecap="round" stroke-miterlimit="10" stroke-width="4.906" data-name="Ellipse 230" transform="translate(1066.3 759.8)"/><circle cx="13.6" cy="13.6" r="13.6" fill="#fff" stroke="#a2f4fc" stroke-linecap="round" stroke-miterlimit="10" stroke-width="4.906" data-name="Ellipse 231" transform="translate(913.7 759.8)"/><circle cx="2.7" cy="2.7" r="2.7" fill="#1b4eff" data-name="Ellipse 232" transform="translate(924.9 771.1)"/><circle cx="2.7" cy="2.7" r="2.7" fill="#1b4eff" data-name="Ellipse 233" transform="translate(1078.2 771.1)"/><path fill="none" stroke="#a2f4fc" stroke-linecap="round" stroke-miterlimit="10" stroke-width="4.906" d="M1048.6 744.1v-24.5a1.67 1.67 0 00-1.6-1.7h0a1.67 1.67 0 01-1.6-1.7v-12.3a1.67 1.67 0 011.6-1.7h54.1a1.67 1.67 0 011.6 1.7v10.9a1.67 1.67 0 01-1.6 1.7h0a1.67 1.67 0 00-1.6 1.7v25.9" data-name="Path 2448"/><path fill="none" stroke="#a2f4fc" stroke-linecap="round" stroke-miterlimit="10" stroke-width="4.906" d="M1067.6 728.4h17" data-name="Line 569"/><path fill="none" stroke="#a2f4fc" stroke-linecap="round" stroke-miterlimit="10" stroke-width="4.906" d="M1045 716.2h56.3" data-name="Line 570"/><path fill="none" stroke="#a2f4fc" stroke-linecap="round" stroke-miterlimit="10" stroke-width="4.906" d="M977.7 744.1v-24.5a1.67 1.67 0 00-1.6-1.7h0a1.67 1.67 0 01-1.6-1.7v-12.3a1.67 1.67 0 011.6-1.7h54.1a1.67 1.67 0 011.6 1.7v10.9a1.67 1.67 0 01-1.6 1.7h0a1.67 1.67 0 00-1.6 1.7v25.9" data-name="Path 2449"/><path fill="none" stroke="#a2f4fc" stroke-linecap="round" stroke-miterlimit="10" stroke-width="4.906" d="M996.8 728.4h17" data-name="Line 571"/><path fill="none" stroke="#a2f4fc" stroke-linecap="round" stroke-miterlimit="10" stroke-width="4.906" d="M975.4 716.2h55.1" data-name="Line 572"/><path fill="none" stroke="#a2f4fc" stroke-linecap="round" stroke-miterlimit="10" stroke-width="4.906" d="M906.9 744.1v-24.5a1.67 1.67 0 00-1.6-1.7h0a1.67 1.67 0 01-1.6-1.7v-12.3a1.67 1.67 0 011.6-1.7h54.1a1.67 1.67 0 011.6 1.7v10.9a1.67 1.67 0 01-1.6 1.7h0a1.67 1.67 0 00-1.6 1.7v25.9" data-name="Path 2450"/><path fill="none" stroke="#a2f4fc" stroke-linecap="round" stroke-miterlimit="10" stroke-width="4.906" d="M925.9 728.4h17" data-name="Line 573"/><path fill="none" stroke="#a2f4fc" stroke-linecap="round" stroke-miterlimit="10" stroke-width="4.906" d="M904.5 716.2h55.1" data-name="Line 574"/><path fill="none" stroke="#a2f4fc" stroke-linecap="round" stroke-miterlimit="10" stroke-width="4.906" d="M1018.7 665.8h-31a3.9 3.9 0 00-3.9 3.9v28.2a3.9 3.9 0 003.9 3.9h31a3.9 3.9 0 003.9-3.9v-28.2a3.84 3.84 0 00-3.9-3.9z" data-name="Path 2451"/><path fill="none" stroke="#a2f4fc" stroke-linecap="round" stroke-miterlimit="10" stroke-width="4.906" d="M1089.6 665.8h-31a3.9 3.9 0 00-3.9 3.9v28.2a3.9 3.9 0 003.9 3.9h31a3.9 3.9 0 003.9-3.9v-28.2a3.9 3.9 0 00-3.9-3.9z" data-name="Path 2452"/><path fill="none" stroke="#a2f4fc" stroke-linecap="round" stroke-miterlimit="10" stroke-width="4.906" d="M994 679.7v8.9" data-name="Line 575"/><path fill="none" stroke="#a2f4fc" stroke-linecap="round" stroke-miterlimit="10" stroke-width="4.906" d="M1003.6 677.3V691" data-name="Line 576"/><path fill="none" stroke="#a2f4fc" stroke-linecap="round" stroke-miterlimit="10" stroke-width="4.906" d="M1013.1 679.7v8.9" data-name="Line 577"/><path fill="none" stroke="#a2f4fc" stroke-linecap="round" stroke-miterlimit="10" stroke-width="4.906" d="M1064.9 679.7v8.9" data-name="Line 578"/><path fill="none" stroke="#a2f4fc" stroke-linecap="round" stroke-miterlimit="10" stroke-width="4.906" d="M1074.4 677.3V691" data-name="Line 579"/><path fill="none" stroke="#a2f4fc" stroke-linecap="round" stroke-miterlimit="10" stroke-width="4.906" d="M1084 679.7v8.9" data-name="Line 580"/><path fill="none" stroke="#a2f4fc" stroke-linecap="round" stroke-miterlimit="10" stroke-width="5.109" d="M1704.1 537.1h-43.8a5.6 5.6 0 00-5.6 5.6v39.9a5.6 5.6 0 005.6 5.6h43.8a5.6 5.6 0 005.6-5.6v-39.9a5.6 5.6 0 00-5.6-5.6z" data-name="Path 2453"/><path fill="none" stroke="#a2f4fc" stroke-linecap="round" stroke-miterlimit="10" stroke-width="5.109" d="M1669.2 556.9v12.5" data-name="Line 581"/><path fill="none" stroke="#a2f4fc" stroke-linecap="round" stroke-miterlimit="10" stroke-width="5.109" d="M1682.7 553.5v19.3" data-name="Line 582"/><path fill="none" stroke="#a2f4fc" stroke-linecap="round" stroke-miterlimit="10" stroke-width="5.109" d="M1696.2 556.9v12.5" data-name="Line 583"/><path fill="none" stroke="#a2f4fc" stroke-linecap="round" stroke-miterlimit="10" stroke-width="4.906" d="M665.5 760.9h23.9a2.48 2.48 0 012.5 2.5v10.3a2.48 2.48 0 01-2.5 2.5H621a2.48 2.48 0 01-2.5-2.5v-10.3a2.48 2.48 0 012.5-2.5h24" data-name="Path 2454"/><path fill="none" stroke="#a2f4fc" stroke-linecap="round" stroke-miterlimit="10" stroke-width="4.906" d="M677.2 760.9V625.1a2.58 2.58 0 012.6-2.6h9.4a2.58 2.58 0 012.6 2.6v137.6" data-name="Path 2455"/><path fill="none" stroke="#a2f4fc" stroke-linecap="round" stroke-miterlimit="10" stroke-width="4.906" d="M691.9 744.2h13.2v-64.3" data-name="Path 2456"/><path fill="none" stroke="#a2f4fc" stroke-linecap="round" stroke-miterlimit="10" stroke-width="4.906" d="M691.9 713.3h13.2" data-name="Line 584"/><path fill="none" stroke="#a2f4fc" stroke-linecap="round" stroke-miterlimit="10" stroke-width="4.906" d="M747.1 630.1h50.6a5.12 5.12 0 015.1 5.1v66.6a5.12 5.12 0 005.1 5.1H851a5.12 5.12 0 015.1 5.1v45a3.9 3.9 0 01-3.9 3.9h-1.4" data-name="Path 2457"/><path fill="none" stroke="#a2f4fc" stroke-linecap="round" stroke-miterlimit="10" stroke-width="4.906" d="M813.1 706.9V663a4.8 4.8 0 014.8-4.8h28.2a4.8 4.8 0 014.8 4.8v43.9" data-name="Path 2458"/><path fill="none" stroke="#a2f4fc" stroke-linecap="round" stroke-miterlimit="10" stroke-width="4.906" d="M850.9 671.1h-16.4" data-name="Line 585"/><path fill="none" stroke="#a2f4fc" stroke-linecap="round" stroke-miterlimit="10" stroke-width="4.906" d="M850.9 682.9h-16.4" data-name="Line 586"/><path fill="none" stroke="#a2f4fc" stroke-linecap="round" stroke-miterlimit="10" stroke-width="4.906" d="M850.9 694.6h-16.4" data-name="Line 587"/><path fill="none" stroke="#a2f4fc" stroke-linecap="round" stroke-miterlimit="10" stroke-width="4.906" d="M787.2 727.5h-24" data-name="Line 588"/><path fill="none" stroke="#a2f4fc" stroke-linecap="round" stroke-miterlimit="10" stroke-width="4.906" d="M787.2 739.2h-24" data-name="Line 589"/><path fill="none" stroke="#a2f4fc" stroke-linecap="round" stroke-miterlimit="10" stroke-width="4.906" d="M787.2 750.9h-24" data-name="Line 590"/><path fill="none" stroke="#a2f4fc" stroke-linecap="round" stroke-miterlimit="10" stroke-width="4.906" d="M769.9 630.1V619a8.75 8.75 0 018.8-8.8h0a8.75 8.75 0 018.8 8.8v11.1" data-name="Path 2459"/><path fill="none" stroke="#a2f4fc" stroke-linecap="round" stroke-miterlimit="10" stroke-width="4.906" d="M769.9 643h15.9a3.37 3.37 0 013.4 3.4v71.7H716v-57.8a17.24 17.24 0 0117.3-17.3h10.3" data-name="Path 2460"/><path fill="none" stroke="#a2f4fc" stroke-linecap="round" stroke-miterlimit="10" stroke-width="4.906" d="M743.5 718.1v-13.3a4.33 4.33 0 014.3-4.3h23.8a4.33 4.33 0 004.3-4.3v-24.9a4.33 4.33 0 014.3-4.3h9.2" data-name="Path 2461"/><path fill="none" stroke="#a2f4fc" stroke-linecap="round" stroke-miterlimit="10" stroke-width="4.906" d="M769.9 700.5h19.4" data-name="Line 591"/><path fill="none" stroke="#a2f4fc" stroke-linecap="round" stroke-miterlimit="10" stroke-width="4.906" d="M732.4 718.1v-25.8" data-name="Line 592"/><circle cx="25.8" cy="25.8" r="25.8" fill="none" stroke="#a2f4fc" stroke-linecap="round" stroke-miterlimit="10" stroke-width="4.906" data-name="Ellipse 234" transform="translate(701.9 735.1)"/><circle cx="25.8" cy="25.8" r="25.8" fill="none" stroke="#a2f4fc" stroke-linecap="round" stroke-miterlimit="10" stroke-width="4.906" data-name="Ellipse 235" transform="translate(799.3 735.1)"/><path fill="none" stroke="#a2f4fc" stroke-linecap="round" stroke-miterlimit="10" stroke-width="4.906" d="M753.5 760.9h45.8" data-name="Line 593"/><path fill="none" stroke="#a2f4fc" stroke-linecap="round" stroke-miterlimit="10" stroke-width="4.906" d="M856.2 751.6h36.3" data-name="Line 594"/><path fill="none" stroke="#a2f4fc" stroke-linecap="round" stroke-miterlimit="10" stroke-width="4.906" d="M880.2 751.6v5.6a2.8 2.8 0 002.8 2.8h9.4" data-name="Path 2462"/><circle cx="8.2" cy="8.2" r="8.2" fill="none" stroke="#a2f4fc" stroke-linecap="round" stroke-miterlimit="10" stroke-width="4.906" data-name="Ellipse 236" transform="translate(719.5 752.7)"/><circle cx="8.2" cy="8.2" r="8.2" fill="none" stroke="#a2f4fc" stroke-linecap="round" stroke-miterlimit="10" stroke-width="4.906" data-name="Ellipse 237" transform="translate(816.9 752.7)"/><path fill="none" stroke="#a2f4fc" stroke-linecap="round" stroke-miterlimit="10" stroke-width="4.906" d="M21 790.7h495.4" data-name="Line 595"/><path fill="none" stroke="#a2f4fc" stroke-linecap="round" stroke-miterlimit="10" stroke-width="4.906" d="M855.9 790.7h-201" data-name="Line 596"/><path fill="none" stroke="#a2f4fc" stroke-linecap="round" stroke-miterlimit="10" stroke-width="4.906" d="M1138.9 790.7H886.3" data-name="Line 597"/><path fill="none" stroke="#a2f4fc" stroke-linecap="round" stroke-miterlimit="10" stroke-width="4.906" d="M1410.4 790.7h-111.5" data-name="Line 598"/><path fill="none" stroke="#a2f4fc" stroke-linecap="round" stroke-miterlimit="10" stroke-width="4.906" d="M1644.7 790.7h-201" data-name="Line 599"/><path fill="none" stroke="#a2f4fc" stroke-linecap="round" stroke-miterlimit="10" stroke-width="4.906" d="M1882.9 790.7h-189.6" data-name="Line 600"/><path fill="none" stroke="#a2f4fc" stroke-linecap="round" stroke-miterlimit="10" stroke-width="4.906" d="M2114.4 790.7h-189.6" data-name="Line 601"/><circle cx="10.5" cy="10.5" r="10.5" fill="none" stroke="#a2f4fc" stroke-linecap="round" stroke-miterlimit="10" stroke-width="5.109" data-name="Ellipse 238" transform="translate(672.7 550.6)"/><circle cx="10.5" cy="10.5" r="10.5" fill="none" stroke="#a2f4fc" stroke-linecap="round" stroke-miterlimit="10" stroke-width="5.109" data-name="Ellipse 239" transform="translate(536.4 691.6)"/><circle cx="10.5" cy="10.5" r="10.5" fill="none" stroke="#a2f4fc" stroke-linecap="round" stroke-miterlimit="10" stroke-width="5.109" data-name="Ellipse 240" transform="translate(1573.3 666.8)"/><circle cx="10.5" cy="10.5" r="10.5" fill="none" stroke="#a2f4fc" stroke-linecap="round" stroke-miterlimit="10" stroke-width="5.109" data-name="Ellipse 241" transform="translate(1955.3 434.3)"/><circle cx="10.5" cy="10.5" r="10.5" fill="none" stroke="#a2f4fc" stroke-linecap="round" stroke-miterlimit="10" stroke-width="5.109" data-name="Ellipse 242" transform="translate(914.6 36)"/><circle cx="10.5" cy="10.5" r="10.5" fill="none" stroke="#a2f4fc" stroke-linecap="round" stroke-miterlimit="10" stroke-width="5.109" data-name="Ellipse 243" transform="translate(372.6 224.7)"/><circle cx="10.5" cy="10.5" r="10.5" fill="none" stroke="#a2f4fc" stroke-linecap="round" stroke-miterlimit="10" stroke-width="5.109" data-name="Ellipse 244" transform="translate(452.6 202.7)"/><path fill="none" stroke="#a2f4fc" stroke-linecap="round" stroke-miterlimit="10" stroke-width="5.109" d="M611.7 488.7h32.4" data-name="Line 602"/><path fill="none" stroke="#a2f4fc" stroke-linecap="round" stroke-miterlimit="10" stroke-width="5.109" d="M699.4 509.1v20.5" data-name="Line 603"/><path fill="none" stroke="#a2f4fc" stroke-linecap="round" stroke-miterlimit="10" stroke-width="5.109" d="M895.6 554.9v20.5" data-name="Line 604"/><path fill="none" stroke="#a2f4fc" stroke-linecap="round" stroke-miterlimit="10" stroke-width="5.109" d="M905.9 565.1h-20.5" data-name="Line 605"/><g fill="none" stroke="#a2f4fc" stroke-linecap="round" stroke-miterlimit="10" stroke-width="5.109" data-name="Group 1038"><path d="M294.5 189v20.5" data-name="Line 606"/><path d="M304.7 199.3h-20.5" data-name="Line 607"/></g><g fill="none" stroke="#a2f4fc" stroke-linecap="round" stroke-miterlimit="10" stroke-width="5.109" data-name="Group 1039"><path d="M705.5 36v20.5" data-name="Line 608"/><path d="M715.7 46.3h-20.5" data-name="Line 609"/></g><g data-name="Group 1041"><path fill="none" stroke="#a2f4fc" stroke-linecap="round" stroke-miterlimit="10" stroke-width="5.109" d="M1167.1 652v20.5" data-name="Line 610"/><g data-name="Group 1040"><path fill="none" stroke="#a2f4fc" stroke-linecap="round" stroke-miterlimit="10" stroke-width="5.109" d="M1177.4 662.3h-20.5" data-name="Line 611"/></g></g><g data-name="Group 1043"><path fill="none" stroke="#a2f4fc" stroke-linecap="round" stroke-miterlimit="10" stroke-width="5.109" d="M1486.1 134.5V155" data-name="Line 612"/><g data-name="Group 1042"><path fill="none" stroke="#a2f4fc" stroke-linecap="round" stroke-miterlimit="10" stroke-width="5.109" d="M1496.3 144.8h-20.4" data-name="Line 613"/></g></g><path fill="none" stroke="#a2f4fc" stroke-linecap="round" stroke-miterlimit="10" stroke-width="5.109" d="M1640.7 676.6h-20.5" data-name="Line 614"/><path fill="none" stroke="#a2f4fc" stroke-linecap="round" stroke-miterlimit="10" stroke-width="5.109" d="M2032.3 445.1h-36" data-name="Line 615"/><path fill="none" stroke="#a2f4fc" stroke-linecap="round" stroke-miterlimit="10" stroke-width="5.109" d="M1319.9 442.9h95.6a8.28 8.28 0 018.3 8.3v67" data-name="Path 2463"/><circle cx="10.5" cy="10.5" r="10.5" fill="none" stroke="#a2f4fc" stroke-linecap="round" stroke-miterlimit="10" stroke-width="5.109" data-name="Ellipse 245" transform="translate(1413.2 518.2)"/><circle cx="10.5" cy="10.5" r="10.5" fill="none" stroke="#a2f4fc" stroke-linecap="round" stroke-miterlimit="10" stroke-width="5.109" data-name="Ellipse 246" transform="translate(1298.9 432.4)"/><path fill="none" stroke="#a2f4fc" stroke-linecap="round" stroke-miterlimit="10" stroke-width="5.109" d="M1352.3 456.3h32.4" data-name="Line 616"/><path fill="none" stroke="#a2f4fc" stroke-linecap="round" stroke-miterlimit="10" stroke-width="5.109" d="M1439.9 476.7v20.5" data-name="Line 617"/><path fill="none" stroke="#a2f4fc" stroke-linecap="round" stroke-miterlimit="10" stroke-width="5.109" d="M152.5 90.4h34.3" data-name="Line 618"/><path fill="none" stroke="#a2f4fc" stroke-linecap="round" stroke-miterlimit="10" stroke-width="5.109" d="M422.4 30.1h34.3" data-name="Line 619"/><g data-name="Group 1045"><g fill="none" stroke="#a2f4fc" stroke-linecap="round" stroke-miterlimit="10" stroke-width="5.109" data-name="Group 1044"><path d="M170.1 60.9h-4" data-name="Line 620"/><path stroke-dasharray="8.003 10.004" d="M156.1 60.9h-67" data-name="Line 621"/><path d="M84.1 60.9h-4" data-name="Line 622"/></g></g><path fill="#a2f4fc" d="M173.3 231.1L159 216.8a2.33 2.33 0 013.3-3.3l12.7 12.7 12.7-12.7a2.33 2.33 0 013.3 3.3l-14.3 14.3a2.29 2.29 0 01-1.6.7 2.98 2.98 0 01-1.8-.7zm0 0" data-name="Path 2464"/><circle cx="4.3" cy="4.3" r="4.3" fill="#a2f4fc" data-name="Ellipse 247" transform="translate(171.1 190.9)"/><circle cx="4.3" cy="4.3" r="4.3" fill="#a2f4fc" data-name="Ellipse 248" transform="translate(171.1 170.9)"/><circle cx="4.3" cy="4.3" r="4.3" fill="#a2f4fc" data-name="Ellipse 249" transform="translate(171.1 150.9)"/><path fill="#a2f4fc" d="M1585.9 435.7l14.3 14.3a2.33 2.33 0 01-3.3 3.3l-12.7-12.7-12.7 12.7a2.33 2.33 0 01-3.3-3.3l14.3-14.3a2.29 2.29 0 011.6-.7 2.41 2.41 0 011.8.7zm0 0" data-name="Path 2465"/><g fill="#a2f4fc" data-name="Group 1046"><circle cx="4.3" cy="4.3" r="4.3" data-name="Ellipse 250" transform="translate(1579.5 467.2)"/><circle cx="4.3" cy="4.3" r="4.3" data-name="Ellipse 251" transform="translate(1579.5 487.2)"/><circle cx="4.3" cy="4.3" r="4.3" data-name="Ellipse 252" transform="translate(1579.5 507.2)"/></g><path fill="none" stroke="#a2f4fc" stroke-linecap="round" stroke-miterlimit="10" stroke-width="5.109" d="M1704.8 307.6h25a3.58 3.58 0 013.6 3.6v47.2a3.58 3.58 0 01-3.6 3.6h-91.9a3.58 3.58 0 01-3.6-3.6v-8.1a3.58 3.58 0 00-3.6-3.6h-38.6a3.58 3.58 0 01-3.6-3.6v-17.6a4.48 4.48 0 014.5-4.5h41.2" data-name="Path 2466"/><path fill="none" stroke="#a2f4fc" stroke-linecap="round" stroke-miterlimit="10" stroke-width="5.109" d="M1662.8 307.6h-28.5v39.1" data-name="Path 2467"/><path fill="none" stroke="#a2f4fc" stroke-linecap="round" stroke-miterlimit="10" stroke-width="5.109" d="M1659.5 323.8h51.5" data-name="Line 623"/><path fill="none" stroke="#a2f4fc" stroke-linecap="round" stroke-miterlimit="10" stroke-width="5.109" d="M1659.5 341.9h51.5" data-name="Line 624"/><path fill="none" stroke="#a2f4fc" stroke-linecap="round" stroke-miterlimit="10" stroke-width="5.109" d="M1661.6 361.9v17.7a3.33 3.33 0 003.3 3.3h38.6a3.33 3.33 0 003.3-3.3v-16.8" data-name="Path 2468"/><path fill="none" stroke="#a2f4fc" stroke-linecap="round" stroke-miterlimit="10" stroke-width="5.109" d="M1684.1 382.9v91.5" data-name="Line 625"/><path fill="none" stroke="#a2f4fc" stroke-linecap="round" stroke-miterlimit="10" stroke-width="5.109" d="M1665.7 506.8V482a4.8 4.8 0 014.8-4.8h25.7a4.8 4.8 0 014.8 4.8v24.8" data-name="Path 2469"/><path fill="none" stroke="#a2f4fc" stroke-linecap="round" stroke-miterlimit="10" stroke-width="5.109" d="M1646.7 537.2v-23.9a4.59 4.59 0 014.6-4.6h65a4.59 4.59 0 014.6 4.6v23.9" data-name="Path 2470"/><path fill="none" stroke="#a2f4fc" stroke-linecap="round" stroke-miterlimit="10" stroke-width="5.109" d="M1628.6 537.2h107.6" data-name="Line 626"/><path fill="none" stroke="#a2f4fc" stroke-linecap="round" stroke-miterlimit="10" stroke-width="5.109" d="M1733.4 320.5h180v28.1h-180" data-name="Path 2471"/><path fill="none" stroke="#a2f4fc" stroke-linecap="round" stroke-miterlimit="10" stroke-width="5.109" d="M1957 307.6h-39.6a4.01 4.01 0 00-4 4V356a4.01 4.01 0 004 4h39.6a4.01 4.01 0 004-4v-44.4a3.95 3.95 0 00-4-4z" data-name="Path 2472"/><path fill="none" stroke="#a2f4fc" stroke-linecap="round" stroke-miterlimit="10" stroke-width="5.109" d="M1983.9 320H1965a3.9 3.9 0 00-3.9 3.9v18.9a3.9 3.9 0 003.9 3.9h18.9a3.9 3.9 0 003.9-3.9v-18.9a4.04 4.04 0 00-3.9-3.9z" data-name="Path 2473"/><circle cx="28.6" cy="28.6" r="28.6" fill="#242d53" stroke="#a2f4fc" stroke-linecap="round" stroke-miterlimit="10" stroke-width="5.109" data-name="Ellipse 256" transform="translate(1835.7 305.2)"/><circle cx="4.3" cy="4.3" r="4.3" fill="#a1f2fb" data-name="Ellipse 257" transform="translate(1859.6 329.1)"/><path fill="none" stroke="#a2f4fc" stroke-linecap="round" stroke-miterlimit="10" stroke-width="5.109" d="M1850.5 401v-42.1" data-name="Line 627"/><path fill="none" stroke="#a2f4fc" stroke-linecap="round" stroke-miterlimit="10" stroke-width="5.109" d="M1876.3 401v-42.1" data-name="Line 628"/><path fill="none" stroke="#a2f4fc" stroke-linecap="round" stroke-miterlimit="10" stroke-width="5.109" d="M1903.9 423.9V401h-79.1v180.1" data-name="Path 2474"/><path fill="none" stroke="#a2f4fc" stroke-linecap="round" stroke-miterlimit="10" stroke-width="5.109" d="M1854.8 433.4h21" data-name="Line 629"/><path fill="none" stroke="#a2f4fc" stroke-linecap="round" stroke-miterlimit="10" stroke-width="5.109" d="M1850.5 453.4h29.6" data-name="Line 630"/><path fill="none" stroke="#a2f4fc" stroke-linecap="round" stroke-miterlimit="10" stroke-width="5.109" d="M1854.8 473.4h21" data-name="Line 631"/><path fill="none" stroke="#a2f4fc" stroke-linecap="round" stroke-miterlimit="10" stroke-width="5.109" d="M1854.8 615.4h21" data-name="Line 632"/><path fill="none" stroke="#a2f4fc" stroke-linecap="round" stroke-miterlimit="10" stroke-width="5.109" d="M1850.5 635.4h29.6" data-name="Line 633"/><path fill="none" stroke="#a2f4fc" stroke-linecap="round" stroke-miterlimit="10" stroke-width="5.109" d="M1854.8 655.4h21" data-name="Line 634"/><path fill="none" stroke="#a2f4fc" stroke-linecap="round" stroke-miterlimit="10" stroke-width="5.109" d="M1873.2 549.6h-17.7a3.12 3.12 0 01-3.1-3.1v-17.7a3.12 3.12 0 013.1-3.1h17.7a3.12 3.12 0 013.1 3.1v17.7a3.12 3.12 0 01-3.1 3.1z" data-name="Path 2475"/><path fill="none" stroke="#a2f4fc" stroke-linecap="round" stroke-miterlimit="10" stroke-width="5.109" d="M1903.9 462v299.1" data-name="Line 635"/><path fill="none" stroke="#a2f4fc" stroke-linecap="round" stroke-miterlimit="10" stroke-width="5.109" d="M1969.6 787.8V768a6.91 6.91 0 00-6.9-6.9h-194.8a6.91 6.91 0 00-6.9 6.9v19.8" data-name="Path 2476"/><path fill="none" stroke="#a2f4fc" stroke-linecap="round" stroke-miterlimit="10" stroke-width="5.109" d="M1736.2 787.8v-82.5a12.49 12.49 0 013.6-8.8l66.6-66.6a12.49 12.49 0 018.8-3.6h9.6" data-name="Path 2477"/><path fill="none" stroke="#a2f4fc" stroke-linecap="round" stroke-miterlimit="10" stroke-width="5.109" d="M1992.5 787.8v-82.5a12.49 12.49 0 00-3.6-8.8l-66.6-66.6a12.49 12.49 0 00-8.8-3.6h-9.6" data-name="Path 2478"/><path fill="none" stroke="#a2f4fc" stroke-linecap="round" stroke-miterlimit="10" stroke-width="5.109" d="M1824.8 612.5v146.7" data-name="Line 636"/><path fill="none" stroke="#a2f4fc" stroke-linecap="round" stroke-miterlimit="10" stroke-width="5.109" d="M1768.1 690.2l22.4-22.4" data-name="Line 637"/><path fill="none" stroke="#a2f4fc" stroke-linecap="round" stroke-miterlimit="10" stroke-width="5.109" d="M1938.7 667.8l22.3 22.4" data-name="Line 638"/><path fill="none" stroke="#a2f4fc" stroke-linecap="round" stroke-miterlimit="10" stroke-width="5.109" d="M1858.2 771.6h16.2" data-name="Line 639"/><g data-name="Group 1047"><path fill="none" stroke="#a2f4fc" stroke-linecap="round" stroke-miterlimit="10" stroke-width="5.109" d="M663.2 91.7h-50a7.28 7.28 0 01-7.3-7.3V9.8a7.2 7.2 0 017.3-7.2h50a7.26 7.26 0 017.3 7.2v74.6a7.4 7.4 0 01-7.3 7.3z" data-name="Path 2479"/><circle cx="3.4" cy="3.4" r="3.4" fill="#1b4eff" data-name="Ellipse 258" transform="translate(635.2 80.1)"/><path fill="none" stroke="#a2f4fc" stroke-linecap="round" stroke-miterlimit="10" stroke-width="5.109" d="M631.4 10.5H645" data-name="Line 640"/><path fill="none" stroke="#a2f4fc" stroke-linecap="round" stroke-miterlimit="10" stroke-width="5.109" d="M657 75.5h-38.5a3.58 3.58 0 01-3.6-3.6V21.2a3.58 3.58 0 013.6-3.6H657a3.58 3.58 0 013.6 3.6V72a3.56 3.56 0 01-3.6 3.5z" data-name="Path 2480"/></g><g data-name="Group 1048"><path fill="none" stroke="#a2f4fc" stroke-linecap="round" stroke-miterlimit="10" stroke-width="5.109" d="M1510.2 91.7h-50a7.28 7.28 0 01-7.3-7.3V9.8a7.2 7.2 0 017.3-7.2h50a7.26 7.26 0 017.3 7.2v74.6a7.4 7.4 0 01-7.3 7.3z" data-name="Path 2481"/><circle cx="3.4" cy="3.4" r="3.4" fill="#1b4eff" data-name="Ellipse 259" transform="translate(1482.2 80.1)"/><path fill="none" stroke="#a2f4fc" stroke-linecap="round" stroke-miterlimit="10" stroke-width="5.109" d="M1478.4 10.5h13.6" data-name="Line 641"/><path fill="none" stroke="#a2f4fc" stroke-linecap="round" stroke-miterlimit="10" stroke-width="5.109" d="M1504 75.5h-38.5a3.58 3.58 0 01-3.6-3.6V21.2a3.58 3.58 0 013.6-3.6h38.5a3.58 3.58 0 013.6 3.6V72a3.56 3.56 0 01-3.6 3.5z" data-name="Path 2482"/></g><path fill="none" stroke="#a2f4fc" stroke-linecap="round" stroke-miterlimit="10" stroke-width="5.109" d="M638.9 119.7v28a8.02 8.02 0 01-8 8h-160a8.02 8.02 0 00-8 8v39" data-name="Path 2483"/><path fill="none" stroke="#a2f4fc" stroke-linecap="round" stroke-miterlimit="10" stroke-width="5.109" d="M818.4 46.2h96" data-name="Line 642"/><path fill="none" stroke="#a2f4fc" stroke-linecap="round" stroke-miterlimit="10" stroke-width="5.109" d="M794.9 45.7h-9" data-name="Line 643"/><path fill="none" stroke="#a2f4fc" stroke-linecap="round" stroke-miterlimit="10" stroke-width="5.109" d="M755.9 45.7h-9" data-name="Line 644"/><g fill="none" stroke="#a2f4fc" stroke-linecap="round" stroke-miterlimit="10" stroke-width="5.109" data-name="Group 1049"><path d="M1419.3 57V36.5" data-name="Line 645"/><path d="M1409 46.8h20.5" data-name="Line 646"/></g><path fill="none" stroke="#a2f4fc" stroke-linecap="round" stroke-miterlimit="10" stroke-width="5.109" d="M1329.8 47.4h9" data-name="Line 647"/><path fill="none" stroke="#a2f4fc" stroke-linecap="round" stroke-miterlimit="10" stroke-width="5.109" d="M1368.8 47.4h9" data-name="Line 648"/><circle cx="10" cy="10" r="10" fill="#a2b8fc" data-name="Ellipse 260" transform="translate(558.4 465.2)"/><circle cx="10" cy="10" r="10" fill="#a2b8fc" data-name="Ellipse 261" transform="translate(818.4 434.2)"/><path fill="none" stroke="#a2f4fc" stroke-linecap="round" stroke-miterlimit="10" stroke-width="5.109" d="M579.3 475.3h95.6a8.28 8.28 0 018.3 8.3v67" data-name="Path 2484"/><circle cx="10.5" cy="10.5" r="10.5" fill="none" stroke="#a2f4fc" stroke-linecap="round" stroke-miterlimit="10" stroke-width="5.109" data-name="Ellipse 262" transform="translate(558.3 464.8)"/><circle cx="10.5" cy="10.5" r="10.5" fill="none" stroke="#a2f4fc" stroke-linecap="round" stroke-miterlimit="10" stroke-width="5.109" data-name="Ellipse 263" transform="translate(818.4 433.4)"/><circle cx="10.5" cy="10.5" r="10.5" fill="none" stroke="#a2f4fc" stroke-linecap="round" stroke-miterlimit="10" stroke-width="5.109" data-name="Ellipse 264" transform="translate(714.6 379.1)"/><path fill="none" stroke="#a2f4fc" stroke-linecap="round" stroke-miterlimit="10" stroke-width="5.109" d="M778.2 454.6h-20.5" data-name="Line 649"/><path fill="none" stroke="#a2f4fc" stroke-linecap="round" stroke-miterlimit="10" stroke-width="5.109" d="M818.4 443.9h-85.7a7.6 7.6 0 01-7.6-7.6v-36.2" data-name="Path 2485"/><circle cx="12" cy="12" r="12" fill="#242d53" data-name="Ellipse 265" transform="translate(1360.9 707.7)"/><circle cx="12" cy="12" r="12" fill="#242d53" data-name="Ellipse 266" transform="translate(1460.4 708.2)"/><g fill="none" stroke="#a2f4fc" stroke-linecap="round" stroke-miterlimit="10" stroke-width="4.906" data-name="Group 1050"><path d="M1510 606.8v-29a2 2 0 00-2-2h-169.7a2 2 0 00-2 2v93a2 2 0 01-2 2h0a2 2 0 00-2 2v16.3a2 2 0 002 2h1a2 2 0 012 2V712a2 2 0 01-2 2h-1a2 2 0 00-2 2v40.1a2 2 0 002 2h2a2 2 0 012 2V785a2 2 0 002 2h22.4a2 2 0 002-2v-17.3" data-name="Path 2486"/><path d="M1351.2 575.8V629a2.22 2.22 0 01-2.2 2.2h0a2.22 2.22 0 00-2.2 2.2v112.3a2.04 2.04 0 01-.6 1.5l-1 1a2.2 2.2 0 00-.6 1.5v14.5a2.22 2.22 0 002.2 2.2h47.9" data-name="Path 2487"/><path d="M1346.9 746.6H1500a2.43 2.43 0 012.4 2.4v15a2.43 2.43 0 01-2.4 2.4h-89.6" data-name="Path 2488"/><path d="M1497.9 746.6V632.3a1.11 1.11 0 00-1.1-1.1h0a1.11 1.11 0 01-1.1-1.1v-54.3" data-name="Path 2489"/><path d="M1407.9 707.9v24" data-name="Line 650"/><path d="M1424.5 702.9v34" data-name="Line 651"/><path d="M1441 707.9v24" data-name="Line 652"/><path d="M1346.9 693.5h151" data-name="Line 653"/><path d="M1337.2 693.2h10.2" data-name="Line 654"/><path d="M1337.2 714.1h9.7" data-name="Line 655"/><path d="M1335.6 672.9h11.3" data-name="Line 656"/><path d="M1499.8 693.2h10.2" data-name="Line 657"/><path d="M1499.8 714.1h9.7" data-name="Line 658"/><path d="M1498.2 672.9h11.3" data-name="Line 659"/><path d="M1510 627.2v43.7a2 2 0 002 2h0a2 2 0 012 2v16.3a2 2 0 01-2 2h-1a2 2 0 00-2 2V712a2 2 0 002 2h1a2 2 0 012 2v40.1a2 2 0 01-2 2h-2a2 2 0 00-2 2V785a2 2 0 01-2 2h-22.4a2 2 0 01-2-2v-17.3" data-name="Path 2490"/><path d="M1510.6 672.9h-11.3" data-name="Line 660"/><path d="M1347.4 646h97.1" data-name="Line 661"/><path d="M1460.7 646h37.2" data-name="Line 662"/><path d="M1348.7 631.2h147.1" data-name="Line 663"/><path d="M1363.9 631.2v-55.4" data-name="Line 664"/><path d="M1482.1 631.2v-55.4" data-name="Line 665"/><path d="M1363.9 610.9h117.6" data-name="Line 666"/><path d="M1399.5 577.7V609" data-name="Line 667"/><path d="M1423.4 577.7V609" data-name="Line 668"/><path d="M1447.2 577.7V609" data-name="Line 669"/><circle cx="11.7" cy="11.7" r="11.7" data-name="Ellipse 267" transform="translate(1361.6 707.9)"/><circle cx="11.7" cy="11.7" r="11.7" data-name="Ellipse 268" transform="translate(1460.7 707.9)"/></g><circle cx="10" cy="10" r="10" fill="#242d53" data-name="Ellipse 269" transform="translate(282.4 87.2)"/><circle cx="10" cy="10" r="10" fill="#242d53" data-name="Ellipse 270" transform="translate(553.4 36.2)"/><circle cx="10.5" cy="10.5" r="10.5" fill="none" stroke="#a2f4fc" stroke-linecap="round" stroke-miterlimit="10" stroke-width="5.109" data-name="Ellipse 271" transform="translate(282.6 87)"/><circle cx="10.5" cy="10.5" r="10.5" fill="none" stroke="#a2f4fc" stroke-linecap="round" stroke-miterlimit="10" stroke-width="5.109" data-name="Ellipse 272" transform="translate(552.6 36)"/><path fill="none" stroke="#a2f4fc" stroke-linecap="round" stroke-miterlimit="10" stroke-width="5.109" d="M551.9 46.7h-251a8.02 8.02 0 00-8 8v32" data-name="Path 2491"/><circle cx="10" cy="10" r="10" fill="#242d53" data-name="Ellipse 273" transform="translate(373.4 138.2)"/><circle cx="10" cy="10" r="10" fill="#242d53" data-name="Ellipse 274" transform="translate(1189.4 36.2)"/><circle cx="10.5" cy="10.5" r="10.5" fill="none" stroke="#a2f4fc" stroke-linecap="round" stroke-miterlimit="10" stroke-width="5.109" data-name="Ellipse 275" transform="translate(1189.2 36)"/><path fill="none" stroke="#a2f4fc" stroke-linecap="round" stroke-miterlimit="10" stroke-width="5.109" d="M1306.3 46.9h-96" data-name="Line 670"/><circle cx="10.5" cy="10.5" r="10.5" fill="none" stroke="#a2f4fc" stroke-linecap="round" stroke-miterlimit="10" stroke-width="5.109" data-name="Ellipse 276" transform="translate(372.6 138)"/><path fill="none" stroke="#a2f4fc" stroke-linecap="round" stroke-miterlimit="10" stroke-width="5.109" d="M76.3 77.1h143.4a9.13 9.13 0 019.1 9.1v53.4a9.13 9.13 0 009.1 9.1h134.8" data-name="Path 2492"/><path fill="none" stroke="#a2f4fc" stroke-linecap="round" stroke-miterlimit="10" stroke-width="5.109" d="M383.1 159v65.8" data-name="Line 671"/><path fill="none" stroke="#a2f4fc" stroke-linecap="round" stroke-miterlimit="10" stroke-width="4.906" d="M563.9 790.7h21" data-name="Line 672"/><path fill="none" stroke="#a2f4fc" stroke-linecap="round" stroke-miterlimit="10" stroke-width="4.906" d="M1215.9 790.7h22" data-name="Line 673"/></g></g></svg>