<svg id="Component_13_1" data-name="Component 13 – 1" xmlns="http://www.w3.org/2000/svg" xmlns:xlink="http://www.w3.org/1999/xlink" width="1920" height="995" viewBox="0 0 1920 995">
  <defs>
    <clipPath id="clip-path">
      <rect id="Rectangle_395" data-name="Rectangle 395" width="1920" height="983" transform="translate(4046 -9819)" fill="#f26941"/>
    </clipPath>
  </defs>
  <rect id="Rectangle_394" data-name="Rectangle 394" width="1920" height="983" fill="#f26941"/>
  <g id="Mask_Group_16" data-name="Mask Group 16" transform="translate(-4046 9831)" clip-path="url(#clip-path)">
    <g id="Group_1127" data-name="Group 1127" transform="translate(5986.748 -10312.622) rotate(90)">
      <path id="Path_2871" data-name="Path 2871" d="M224.142,325.335c-8.2,6.9-16.491,13.894-22.6,22.482-7.471,10.525-11.206,22.987-13.211,35.534-8.746,54.985,17.311,113.59,65.325,147.019s116.073,40.5,170.921,17.6c6.286-2.61,12.573-5.726,16.946-10.778,10.66-12.378,5.375-30.4-.456-45.3q-31.979-81.846-64.05-163.776c-7.2-18.272-14.76-37.218-29.428-51.2C301.494,233.132,257.306,297.548,224.142,325.335Z" transform="translate(-18.145 -42.495)" fill="none" stroke="#6140ff" stroke-miterlimit="10" stroke-width="6"/>
      <path id="Path_2872" data-name="Path 2872" d="M308.548,471.108c8.2,6.652,18.04,11.873,28.882,13.136s22.6-1.937,29.519-9.768c7.835-8.757,8.2-21.135,8.291-32.418.091-19.872,0-40.5-9.293-58.353-17.493-33.681-58.857-38.4-77.534-4.379C272.014,409.3,281.58,449.131,308.548,471.108Z" transform="translate(-26.475 -57.333)" fill="#6140ff"/>
      <path id="Path_2873" data-name="Path 2873" d="M372.891,90.5c.82-19.956-12.026-40.586-32.253-47.491-10.2-3.452-21.32-3.452-32.162-2.779-18.951,1.179-38.448,4.379-54.028,14.4-37.81,24.251-37.9,90.687,10.842,103.991C309.024,170.581,371.16,132.521,372.891,90.5Z" transform="translate(-21.757 -7.395)" fill="none" stroke="#ffee7a" stroke-miterlimit="10" stroke-width="6"/>
      <path id="Path_2874" data-name="Path 2874" d="M499.684,1.3q-42.5,79.825-85.1,159.65c-13.757,25.85-27.879,53.132-26.422,81.846,3.007,57.6,65.872,98.434,78.536,154.85,10.66,47.575-17.037,95.739-52.3,131.863S335.6,594.513,303.435,632.91a243.422,243.422,0,0,0-36.9,59.532c-15.944,36.713-24.964,80.162-60.405,102.475-41.364,26.019-98.216,10.273-146.23,23.409" transform="translate(-6.874 -1.3)" fill="none" stroke="#ffee7a" stroke-miterlimit="10" stroke-width="6"/>
      <path id="Path_2875" data-name="Path 2875" d="M78.5,884.363c56.852-5.81,119.9,10.862,168.1-17.514,51.659-30.4,58.948-95.74,84-147.356,28.244-58.185,82.089-101.8,124.911-151.819s76.076-116.369,53.117-176.49c-11.389-29.977-35.442-54.311-49.928-83.109-24.782-49.512-18.768-109.212,7.471-157.966,26.33-48.838,70.974-87.572,120.811-116.79C599.371,25.993,612.4,19.173,626.7,16.31c29.155-5.894,59.768,5.726,82.636,23.409,75.62,58.521,76.349,168.912,142.221,236.7,32.617,33.6,82.271,58.858,90.562,103.318,12.938,69.131-84.185,121.842-79.629,191.815" transform="translate(-8.528 -3.427)" fill="none" stroke="#6140ff" stroke-miterlimit="10" stroke-width="6"/>
      <path id="Path_2876" data-name="Path 2876" d="M821.105,562.817c15.58-27.282,31.342-55.153,37.355-85.551,5.922-30.4.638-64.247-21.775-87.066-14.122-14.314-33.893-23.493-46.192-39.155-20.044-25.514-14.942-60.29-14.4-91.782.638-36.208-6.469-73.51-27.879-103.907-21.411-30.313-58.765-52.543-97.942-50.775-39.724,1.768-73.89,26.608-100.129,54.227-27.333,28.8-50.383,65.258-45.463,103.318,6.2,47.912,53.39,81.677,74.527,125.8,25.419,53.048,10.2,116.2-20.591,166.807S482.908,647.02,444,692.658c-38.812,45.638-72.887,98.349-75.62,156.366-.911,19.2,1.822,38.9,10.66,56.332,10.022,19.62,27.15,35.2,44.006,50.354q96.074,86.519,192.24,173.122" transform="translate(-34.287 -17.599)" fill="none" stroke="#fff" stroke-miterlimit="10" stroke-width="6"/>
      <path id="Path_2877" data-name="Path 2877" d="M768.653,560.4c17.128-37.471,34.257-80.414,15.944-117.38-19.771-39.912-75.438-59.448-87.92-101.8-7.562-25.682,3.189-52.543,7.835-78.814s-.182-58.69-26.057-70.394c-17.948-8.084-39.45-3.031-58.31,3.031-22.959,7.326-46.1,16.251-63.412,32s-27.788,39.66-20.5,61.047c9.749,28.545,44.643,41.512,67.238,62.816C626.8,372.967,636.909,404.459,639,435.277c2.916,43.617-8.929,87.908-33.528,125.21-28.517,43.2-72.341,75.531-110.151,112.243-37.719,36.713-71.339,82.351-70.427,132.957,1.093,63.658,54.939,114.6,105.049,158.218,26.877,23.408,59.312,48.5,95.756,43.533" transform="translate(-39.325 -30.764)" fill="rgba(0,0,0,0)" stroke="#ffee7a" stroke-miterlimit="10" stroke-width="6"/>
      <path id="Path_2878" data-name="Path 2878" d="M625.877,980.47C606.106,955.715,597,923.97,600.913,893.4s20.682-59.532,46.1-79.4" transform="translate(-54.896 -129.679)" fill="none" stroke="#6140ff" stroke-miterlimit="10" stroke-width="6"/>
      <path id="Path_2879" data-name="Path 2879" d="M693.269,567.723c5.649-9.768,12.3-19.283,21.866-25.85s22.5-9.852,33.71-5.894c15.671,5.473,22.686,22.651,23.415,38.144,1,21.135-7.38,43.7-26.057,55.827C690.809,665.9,672.041,604.436,693.269,567.723Z" transform="translate(-62.43 -85.49)" fill="none" stroke="#6140ff" stroke-miterlimit="10" stroke-width="6"/>
      <path id="Path_2880" data-name="Path 2880" d="M764.9,3.1c14.669,37.3,61.5,61.132,103.5,52.459,28.153-5.81,51.659-23.745,78.9-32.587s64.87-3.789,74.254,21.388c7.107,19.2-6.378,40.333-24.326,52.038s-39.724,17.009-59.494,25.935c-19.771,8.841-38.995,23.324-42.548,43.365-3.462,19.451,8.929,38.649,24.873,51.7s35.35,21.893,52.388,33.766c39.906,27.619,64.6,70.226,81.452,113.59,9.84,25.261,20.773,54.732,48.106,63.658,18.221,5.978,39.45.084,53.845-11.957,14.3-12.041,22.413-29.387,25.966-46.986,1.276-6.231,2.1-12.8,6.1-18.02,5.1-6.652,14.3-9.431,22.959-10.946,37.811-6.736,78.719,3.284,107.964,26.44,24.782,19.535,41.819,48,70.974,61.384,14.486,6.652,31.342,9.262,43.733,18.777,15.4,11.873,20.409,32.166,17.766,50.522s-11.844,35.2-20.955,51.7c-46.192,84.035-93.478,174.048-84,267.935.82,8.084,2.916,17.43,10.66,21.219,4.465,2.189,9.931,2.021,15.033,1.684,53.754-3.284,106.871-13.473,160.717-16.925,53.755-3.368,109.878.505,157.619,23.577" transform="translate(-69.555 -1.584)" fill="none" stroke="#f26941" stroke-miterlimit="10" stroke-width="6"/>
      <path id="Path_2881" data-name="Path 2881" d="M1080,630.334a925.55,925.55,0,0,1,172.925-34.944c28.973-3.031,61.5-3.7,83.274,14.231,16.946,13.978,23.051,36.292,23.506,57.258,1.094,48-21.775,93.382-44.1,136.662-9.111,17.6-18.4,35.534-33.346,49.259-38.54,35.45-100.493,32.839-154.521,27.787" transform="translate(-97.571 -94.884)" fill="none" stroke="#f26941" stroke-miterlimit="10" stroke-width="6"/>
      <path id="Path_2882" data-name="Path 2882" d="M1099.6,833.147c19.771,3.958,39.906,7.41,60.132,6.736,54.939-1.852,106.688-37.47,124.364-85.551,2.643-7.241,4.647-14.82,4.374-22.482-.638-17.935-13.757-34.018-30.157-43.617s-35.806-13.81-54.939-16.841c-13.575-2.189-27.515-3.873-41.09-1.684s-26.968,8.589-34.075,19.451" transform="translate(-99.313 -106.724)" fill="none" stroke="#f8f8f8" stroke-miterlimit="10" stroke-width="6"/>
      <path id="Path_2883" data-name="Path 2883" d="M1143.342,730.577a40.529,40.529,0,0,1,30.886-5.557c4.556,1.011,9.2,3.116,11.48,6.9,2.187,3.789,1.64,8.42,1.64,12.715,0,6.147,1.093,12.715-2,18.188-1.457,2.61-3.827,4.715-6.1,6.736-2.824,2.526-5.831,5.136-9.567,6.231-4.009,1.095-8.291.252-12.3,1.01-2.642.505-5.194,1.6-7.836,1.432-2.278-.084-4.373-1.179-6.377-2.189-3.917-1.936-7.836-3.957-10.933-6.989C1120.656,757.606,1131.953,738.155,1143.342,730.577Z" transform="translate(-101.782 -115.471)" fill="none" stroke="#ffee7a" stroke-miterlimit="10" stroke-width="6"/>
      <path id="Path_2884" data-name="Path 2884" d="M1145.288,17.5c29.792,10.357,55.668,39.407,46.557,67.531-3.007,9.262-9.384,17.262-15.762,25.008-24.691,30.145-51.568,61.805-55.212,99.528-1.913,19.451,5.284,42.1,24.782,49.6,23.415,8.926,47.741-8.252,70.61-18.1a125.956,125.956,0,0,1,49.836-10.02c5.831,0,11.753.505,17.129,2.526,6.469,2.442,11.753,6.9,16.673,11.452,26.24,24.587,45.191,55.069,69.608,81.172s57.216,49.006,94.571,49.933c8.473.168,17.311-.842,24.6-4.8,6.378-3.452,11.206-8.841,15.4-14.4,17.857-23.745,26.968-52.375,44.825-76.12,2.1-2.779,4.373-5.473,7.563-6.989,7.744-3.7,16.764,1.179,24.6,4.715a79.743,79.743,0,0,0,55.667,2.947" transform="translate(-101.178 -3.859)" fill="none" stroke="#fff" stroke-miterlimit="10" stroke-width="6"/>
      <path id="Path_2885" data-name="Path 2885" d="M1738.588,436.8a143.514,143.514,0,0,1-46.648,23.577c-14.212,4.21-29.519,6.315-42,13.894-12.481,7.494-21.41,22.9-14.759,35.281,7.106,13.22,26.056,15.072,41.272,19.451,38.54,11.031,62.865,45.133,84,76.878" transform="translate(-146.73 -70.094)" fill="none" stroke="#ffee7a" stroke-miterlimit="10" stroke-width="6"/>
      <path id="Path_2886" data-name="Path 2886" d="M1719.329,145.153c-24.509,22.061-61.863,30.987-94.844,22.819-16.947-4.21-32.253-12.462-47.377-20.63-20.681-11.2-41.364-22.314-62.137-33.513-17.219-9.262-34.894-18.946-47.012-33.513-12.117-14.651-17.4-35.618-7.653-51.617" transform="translate(-130.933 -5.628)" fill="none" stroke="#ffee7a" stroke-miterlimit="10" stroke-width="6"/>
      <path id="Path_2887" data-name="Path 2887" d="M1531.235,657.4c.729,60.121-35.714,115.106-47.559,174.217-3.735,18.44-4.281,39.491,9.02,53.721,13.029,13.894,34.986,16.588,54.848,17.767q40.59,2.4,81.361,1.937c36.444-.505,77.9-5.136,99.127-32.5" transform="translate(-133.257 -104.941)" fill="none" stroke="#2de8f5" stroke-miterlimit="10" stroke-width="6"/>
      <path id="Path_2888" data-name="Path 2888" d="M1688.889,768.867c4.1,12.378,8.2,25.935,3.1,37.976-2.642,6.4-7.653,11.7-12.572,16.925-10.751,11.283-21.411,22.567-32.162,33.85-6.1,6.4-12.391,12.883-20.591,16.672-7.471,3.452-15.944,4.295-24.235,5.137-13.21,1.347-27.333,2.61-39.177-3.031-18.4-8.673-24.508-30.145-25.055-49.259-1-36.712,11.753-73.678,35.624-103.065,5.01-6.147,10.751-12.21,18.313-15.409,7.016-2.947,15.033-3.284,22.687-2.526C1654.542,710.093,1678.047,736.2,1688.889,768.867Z" transform="translate(-138.304 -112.585)" fill="none" stroke="#fff" stroke-miterlimit="10" stroke-width="6"/>
      <path id="Path_2889" data-name="Path 2889" d="M1666.876,759.656c3.5,10.57,7,22.147,2.646,32.43-2.256,5.465-6.536,10-10.737,14.453-9.181,9.636-18.284,19.271-27.465,28.907-5.213,5.465-10.582,11-17.585,14.238-6.379,2.948-13.615,3.667-20.7,4.386-11.281,1.151-23.341,2.229-33.456-2.589-15.717-7.407-20.93-25.743-21.4-42.066-.855-31.352,10.037-62.919,30.422-88.015,4.279-5.249,9.181-10.427,15.639-13.159,5.991-2.517,12.838-2.8,19.373-2.157C1637.544,709.464,1657.617,731.755,1666.876,759.656Z" transform="translate(-245.689 -561.241)" fill="none" stroke="#f26941" stroke-miterlimit="10" stroke-width="6"/>
      <path id="Path_2890" data-name="Path 2890" d="M1093.3,972.1c20.135,10.273,44.552,8.336,67.421,9.431,39.45,1.852,77.807,13.473,112.975,29.808,27.515,12.8,54.21,29.3,70.519,53.469,18.13,26.861,21.319,59.869,22.686,91.445,2.277,55.575.273,112.328,17.766,165.46,10.023,30.566,26.513,59.7,29.793,91.445,1,9.262.729,19.03-3.918,27.282-8.382,15.072-28.153,20.882-45.828,25.345-63.685,16.167-132.473,37.976-166.73,90.1-11.935,18.188-18.677,38.817-29.428,57.6s-26.877,36.628-49.108,42.017" transform="translate(-98.753 -154.653)" fill="none" stroke="#6140ff" stroke-miterlimit="10" stroke-width="6"/>
      <path id="Path_2891" data-name="Path 2891" d="M1120.6,1348.852c64.505,33.85,137.666,53.637,211.737,57.174,3.645.169,7.472.253,10.478-1.684,2.46-1.6,3.827-4.379,4.738-6.989,11.115-31.071-11.024-62.9-19.862-94.56-7.744-27.871-5.1-57.6-13.667-85.3-11.479-36.965-42.275-67.278-51.75-104.749-3.735-14.651-4.1-30.145-11.024-43.7-9.2-18.1-28.973-30.061-49.745-35.618s-42.73-5.726-64.323-5.726" transform="translate(-101.18 -163.436)" fill="none" stroke="#fff" stroke-miterlimit="10" stroke-width="6"/>
      <path id="Path_2892" data-name="Path 2892" d="M1128.895,1075.1c29.884,18.1,51.933,46.9,60.5,78.9,6.742,25.093,6.833,54.479,27.606,71.825,9.931,8.421,23.232,12.463,34.712,19.03,19.133,10.947,33.073,29.3,37.72,49.68,1.64,7.241,2.1,14.988-.82,21.892-2,4.8-5.649,8.842-9.657,12.379-22.413,19.787-60.223,22.4-85.643,5.978-16.582-10.694-26.968-27.535-41.09-40.923s-35.715-23.577-54.119-15.914" transform="translate(-99.18 -170.924)" fill="none" stroke="#f26941" stroke-miterlimit="10" stroke-width="6"/>
      <path id="Path_2893" data-name="Path 2893" d="M602.777,1416.076c-2.915,16.083-15.58,28.966-27.879,40.755-15.671,14.9-31.8,29.808-51.294,40.165-19.5,10.441-42.821,16.082-64.687,11.283s-41.273-21.724-43.55-42.438c-1.093-10.189,1.913-20.377,5.649-30.061,11.48-29.219,30.977-55.742,56.123-76.457,8.655-7.073,18.131-13.725,23.871-22.9,15.489-24.84-2.733-57.006-27.515-74.183s-55.576-25.934-79.72-43.786c-14.851-11.031-26.6-25.093-39.632-37.892s-28.153-24.756-46.466-29.64-40.361-1.094-51.841,12.968c-10.842,13.388-9.749,31.829-7.107,48.333,11.753,71.994,44.643,143.4,31.251,215.139-4.373,23.493-13.758,46.06-18.86,69.468-11.3,51.7-1.913,105.086,7.653,157.124,3.1,17.093,6.651,35.029,18.4,48.5,14.031,16.167,37.173,22.9,59.4,26.271,56.852,8.589,114.889.674,171.832-7.241,15.306-2.1,31.433-4.547,43.641-13.472,11.753-8.588,17.948-21.977,24.964-34.271a241.787,241.787,0,0,1,41.364-53.553" transform="translate(-23.505 -182.58)" fill="none" stroke="#f26941" stroke-miterlimit="10" stroke-width="6"/>
      <path id="Path_2894" data-name="Path 2894" d="M491.211,1711.776c.729-10.357-4.555-20.882-13.484-27.029-8.747-6.063-20.044-7.831-30.886-7.747-4.464,0-9.02.42-12.937,2.357-7.471,3.789-10.386,12.462-10.2,20.293a40.582,40.582,0,0,0,15.306,30.145C459.961,1746.635,489.3,1739.731,491.211,1711.776Z" transform="translate(-39.219 -266.003)" fill="none" stroke="#6140ff" stroke-miterlimit="10" stroke-width="6"/>
      <path id="Path_2895" data-name="Path 2895" d="M1669.239,1112.558c-8.382-24.335-18.587-50.775-42.275-63.826-18.04-9.852-40.27-9.852-61.225-9.178-28.7.927-57.581,2.443-85.46,8.673-6.013,1.347-12.118,2.947-16.764,6.568-10.113,7.747-10.66,21.556-11.48,33.681a216.712,216.712,0,0,1-23.142,83.7c-16.035,31.576-40.543,62.732-36.262,97.423,4.738,38.565,43.095,65.09,63.322,99.107a114.752,114.752,0,0,1,15.306,72.5c-1.731,13.473-6.1,27.03-15.488,37.386-10.933,12.042-27.424,18.357-43.186,24.251-40.908,15.073-82.363,29.724-119.261,51.953s-69.334,53.048-83.73,91.445c-9.02,24.082-10.751,50.1-19.406,74.352-9.02,25.177-25.146,47.575-41.181,69.636-1.64,2.274-3.735,4.8-6.651,5.052-3.28.253-6.013-2.358-8.018-4.715-5.649-6.568-11.389-13.051-17.037-19.619" transform="translate(-100.887 -165.269)" fill="none" stroke="#fff" stroke-miterlimit="10" stroke-width="6"/>
      <path id="Path_2896" data-name="Path 2896" d="M1255.484,1781.425c5.205,1.249,10.31-2.082,14.114-5.6,14.314-13.322,21.822-31.455,28.979-49.031,4.555-11.194,9.159-22.851,8.358-34.785-.15-2.22-.6-4.579-2.2-6.244-1.7-1.711-4.354-2.267-6.807-2.267-6.006,0-11.611,2.776-16.716,5.736-17.618,10.223-34.635,25.025-40.591,43.99C1236.966,1744.559,1240.87,1777.863,1255.484,1781.425Z" transform="translate(-83.972 -226.753)" fill="#2de8f5"/>
      <path id="Path_2897" data-name="Path 2897" d="M1549.961,1282.249c12.755-11.282,25.875-23.155,31.8-38.48,1.094-2.694,2-5.726,4.555-7.41,4.191-2.779,10.022-.589,14.213,2.106a69.567,69.567,0,0,1,24.783,27.029c6.468,12.8,8.29,27.114,10.021,41.175q4.783,38.018,9.566,76.036c1.093,8.589,2,17.936-3.1,25.177-5.831,8.253-18.039,10.947-28.517,8.926s-19.5-7.831-28.062-13.725c-15.945-10.862-31.433-22.566-43.459-37.133-10.113-12.294-22.686-32.84-20.682-49.175C1523.084,1301.784,1538.846,1292.1,1549.961,1282.249Z" transform="translate(-136.768 -196.193)" fill="none" stroke="#f26941" stroke-miterlimit="10" stroke-width="6"/>
      <path id="Path_2898" data-name="Path 2898" d="M1532.615,1132.337c7.927-15.41,16.855-31.913,33.255-39.744,20.226-9.6,46.283-2.189,61.954,12.883s22.868,36.207,26.24,57.006c3.371,20.714,3.553,41.933,7.836,62.479,3.371,16.082,9.293,31.492,14.942,46.986,12.938,35.281,25.055,71.32,27.333,108.538,1.549,25.093-2.733,52.8-22.777,69.72-15.58,13.136-37.719,17.178-58.675,19.535-15.944,1.768-33.254,2.695-47.012-5.052-15.215-8.589-22.048-25.261-28.973-40.418a349.376,349.376,0,0,0-50.292-79.151c-12.391-14.735-31.16-30.65-37.719-48.67-6.013-16.588,4.464-28.966,12.117-43.786C1491.8,1212.836,1512.025,1172.5,1532.615,1132.337Z" transform="translate(-131.084 -173.007)" fill="none" stroke="#6140ff" stroke-miterlimit="10" stroke-width="6"/>
      <path id="Path_2899" data-name="Path 2899" d="M1586.075,1556.3c-15.307,20.124-38.357,33.934-60.77,47.154q-42.5,25.008-85,50.1c-18.678,11.031-37.537,22.146-58.31,29.219-26.6,9.094-55.667,11.368-81.36,22.4-44.37,19.03-71.612,60.879-91.473,102.223a629.74,629.74,0,0,0-25.055,59.784c-4.191,11.536-8.108,23.493-16.126,33.177-14.213,17.093-38.175,24-57.4,36.208" transform="translate(32.661 -246.937)" fill="none" stroke="#ffee7a" stroke-miterlimit="10" stroke-width="6"/>
      <path id="Path_2900" data-name="Path 2900" d="M1049.432,2141.686c13.393-5.557,27.332-11.62,35.988-22.481,14.031-17.684,9.931-42.439,2.187-63.154-13.393-35.618-35.806-68.2-64.961-94.561-18.586-16.757-47.1-31.408-69.061-18.693-9.931,5.81-15.762,15.914-20.955,25.766-11.662,22.062-22.231,44.628-31.706,67.531-10.114,24.419-19.042,49.933-18.131,76.036,1,28.292,15.307,65.089,50.748,62.732C974.086,2172.167,1012.9,2156.926,1049.432,2141.686Z" transform="translate(-80.031 -307.23)" fill="none" stroke="#2de8f5" stroke-miterlimit="10" stroke-width="6"/>
      <path id="Path_2901" data-name="Path 2901" d="M967.216,2129.226c5.1,1.095,10.386.674,15.58.506,9.839-.252,19.679.674,29.428-.506s19.68-4.884,25.328-12.293c5.376-6.989,6.1-16.082,5.193-24.588-3.826-32.839-35.168-61.889-70.883-63.152-7.106-.253-14.486.589-20.59,3.958-13.667,7.494-16.491,24.5-16.673,39.239C934.234,2093.692,940.247,2123.5,967.216,2129.226Z" transform="translate(-84.642 -321.631)" fill="none" stroke="#ffee7a" stroke-miterlimit="10" stroke-width="6"/>
      <path id="Path_2902" data-name="Path 2902" d="M784.749,2018.2c8.473-14.736,7.289-33.935-3.644-47.239s-31.068-19.535-48.288-14.4c-10.3,3.116-18.86,9.684-26.877,16.42-6.742,5.81-13.484,12.125-16.673,20.125a54.75,54.75,0,0,0-2.915,11.957c-3.736,22.145-3.1,62.563,31.706,57.427C741.473,2059.124,773.725,2037.23,784.749,2018.2Z" transform="translate(-62.436 -309.881)" fill="none" stroke="#6140ff" stroke-miterlimit="10" stroke-width="6"/>
      <path id="Path_2903" data-name="Path 2903" d="M628.553,1904.4c-11.024,19.283-37.719,24.251-57.945,35.534-18.222,10.189-31.979,26.44-40.726,44.46a115.283,115.283,0,0,0-5.558,86.477c5.922,17.682,16.126,33.85,22.96,51.28,14.942,37.807,14.76,82.266,43,112.917,27.971,30.313,74.709,37.386,117.257,43.786,8.655,1.263,17.675,2.778,24.508,7.83,7.38,5.389,10.933,14.062,13.666,22.4,16.673,51.2,12.208,106.012,7.562,159.313" transform="translate(-47.642 -301.924)" fill="none" stroke="#6140ff" stroke-miterlimit="10" stroke-width="6"/>
      <path id="Path_2904" data-name="Path 2904" d="M1.7,1156c28.062,18.946,64.961,22.819,95.118,38.733,58.219,30.9,78.809,98.181,91.656,159.145,8.747,41.6,16.217,86.056-1.093,125.379-9.293,21.052-25.055,39.071-35.715,59.532-16.035,30.734-19.953,65.679-19.68,99.781.364,64.079,21.5,136.915,83.82,164.786,41.09,18.356,93.387,13.641,128.646,40.586,13.12,10.02,22.5,23.661,30.431,37.555,26.968,47.07,40.27,99.613,60.679,149.461s50.2,99.276,99.309,127.063c20.773,11.788,44.279,19.2,64.6,31.829,50.839,31.661,73.434,97.255,51.75,150.3" transform="translate(-1.7 -183.703)" fill="none" stroke="#f26941" stroke-miterlimit="10" stroke-width="6"/>
      <path id="Path_2905" data-name="Path 2905" d="M633.665,2538.878c-13.484-36.292-29.611-75.615-65.325-95.15-23.142-12.631-52.115-15.325-73.434-30.4-7.744-5.473-14.213-12.378-22.413-17.262-28.335-16.588-65.325-2.947-95.391,10.862-13.849,6.4-27.7,12.715-41.546,19.114-3.553,1.684-7.289,3.369-9.749,6.231-5.558,6.484-2.824,16.588,3.462,22.483s15.124,8.757,23.415,11.789c44.643,16.082,85.1,41.933,117.075,74.941" transform="translate(-30.249 -378.387)" fill="none" stroke="#6140ff" stroke-miterlimit="10" stroke-width="6"/>
      <path id="Path_2906" data-name="Path 2906" d="M102.562,2175.571c19.224,16.673,48.2,17.936,74.527,18.356,55.577.843,111.426,1.6,166.183-6.9,4.373-.674,8.929-1.516,12.3-4.042,4.282-3.2,5.831-8.589,6.742-13.641,4.1-24.924-5.467-50.522-20.773-71.4s-35.988-37.808-56.67-54.312c-14.3-11.452-28.791-22.819-44.643-32.334-29.519-17.767-63.23-28.967-92.567-46.9S92.176,1919,90.9,1886.5" transform="translate(-9.631 -299.097)" fill="none" stroke="#6140ff" stroke-miterlimit="10" stroke-width="6"/>
      <path id="Path_2907" data-name="Path 2907" d="M209.277,2147.638c9.658,14.229,27.15,24.25,45.281,23.661,6.742-.168,13.758-2.021,18.586-6.4,4.647-4.21,6.651-10.356,7.471-16.335,2.278-17.261-6.2-36.376-23.142-43.954-8.473-3.789-47.741-9.936-55.577-3.62C191.42,2109.41,203.538,2139.134,209.277,2147.638Z" transform="translate(-19.133 -332.549)" fill="none" stroke="#f26941" stroke-miterlimit="10" stroke-width="6"/>
      <path id="Path_2908" data-name="Path 2908" d="M1180.067,1971.007c45.008-53.217,90.745-107.781,114.615-171.607,4.556-12.21,8.656-25.344,18.586-34.439,17.22-15.745,44.644-14.23,68.7-16.251,109.331-9.262,186.045-107.865,291.914-134.81" transform="translate(41.523 -256.036)" fill="none" stroke="#6140ff" stroke-miterlimit="10" stroke-width="6"/>
      <path id="Path_2909" data-name="Path 2909" d="M1054.584,2534.224c21.593-22.567,22.5-55.659,21.775-85.8-.274-13.051-2-28.292-14.122-35.112-3.735-2.1-8.109-3.115-12.391-4.042-14.213-3.2-28.517-6.4-43.095-6.569-14.578-.253-29.7,2.779-41.272,10.947-8.837,6.232-15.124,14.989-20.317,24.082-5.558,9.853-10.022,20.546-10.569,31.661-1.458,28.629,22.049,52.543,43.915,72.92" transform="translate(-84.637 -380.636)" fill="#fff" stroke="#fff" stroke-miterlimit="10" stroke-width="6"/>
      <path id="Path_2910" data-name="Path 2910" d="M1179.3,2473.072a183.42,183.42,0,0,1-11.207-141.63c6.742-20.209,17.4-39.829,33.892-54.479,13.12-11.7,29.428-19.788,45.463-27.872q60.132-30.439,118.26-64.078c17.037-9.851,34.166-20.041,47.923-33.513,13.12-12.8,22.869-28.208,31.888-43.7,11.207-19.03,21.684-38.733,26.331-59.953,5.375-25.093,2.369-51.365,9.749-76.036,7.744-25.766,27.333-48.248,52.844-60.879a116.827,116.827,0,0,1,84.185-6.653c24.417,7.41,45.008,22.651,65.052,37.555q40.588,30.187,81.178,60.542" transform="translate(-104.58 -301.13)" fill="none" stroke="#f26941" stroke-miterlimit="10" stroke-width="6"/>
      <path id="Path_2911" data-name="Path 2911" d="M1709.922,2049.9c-14.486.674-24.417-12.378-33.8-22.566-15.032-16.336-34.895-28.124-54.392-39.659-17.675-10.442-38.812-21.3-58.583-14.652-9.658,3.284-17.311,10.441-23.233,18.188-27.424,35.787-24.69,83.782-38.994,125.548-21.775,63.742-81.36,109.044-138.03,150.556q-38.676,28.293-77.352,56.669c-18.86,13.809-39.268,30.145-41.455,52.29-1.366,13.641,4.556,26.776,10.478,39.323q16.126,34.354,33.072,68.372" transform="translate(-112.141 -312.442)" fill="none" stroke="#f26941" stroke-miterlimit="10" stroke-width="6"/>
      <path id="Path_2912" data-name="Path 2912" d="M1363.2,2504.2c-7.015-9.684-14.122-19.452-21.137-29.135-14.76-20.377-30.156-45.638-19.133-67.952,3.827-7.747,10.478-13.978,16.946-20.04q29.655-27.536,59.312-55.153c66.054-61.3,135.206-127.99,152.608-212.951,3.371-16.5,5.649-35.027,19.407-46.143,13.3-10.693,33.984-10.442,49.928-3.452s28.152,19.534,39.45,32.165a622.283,622.283,0,0,1,90.563,132.62" transform="translate(-118.837 -327.201)" fill="none" stroke="#ffee7a" stroke-miterlimit="10" stroke-width="6"/>
      <path id="Path_2913" data-name="Path 2913" d="M1677.209,2518.067c-32.435-64.416-38.9-137.252-38.812-208.32,0-21.051.638-42.1,1.731-63.068,1.276-24.082,2.734-50.1-11.57-70.225-2.278-3.285-5.194-6.4-9.111-7.663-4.92-1.515-10.3.168-14.759,2.441-23.6,11.958-33.711,37.807-43.824,60.879a424.714,424.714,0,0,1-51.932,88.414c-23.233,30.145-51.112,57.343-71.795,89-20.681,31.745-33.892,70.057-23.87,105.843" transform="translate(-126.897 -343.598)" fill="none" stroke="#fff" stroke-miterlimit="10" stroke-width="6"/>
      <path id="Path_2914" data-name="Path 2914" d="M1490.7,2555.588c1.731-57.847,34.986-110.222,67.421-159.733,2.369-3.622,5.284-7.579,9.748-8.168,5.739-.757,10.2,4.295,13.21,8.925,10.57,15.915,19.315,33.261,21.958,51.785,1.549,11.031.911,22.23,2.369,33.261,1.184,8.924,3.735,17.6,6.377,26.271,4.01,13.388,7.927,26.777,11.936,40.165" transform="translate(-134.085 -378.255)" fill="none" stroke="#f26941" stroke-miterlimit="10" stroke-width="6"/>
      <path id="Path_2915" data-name="Path 2915" d="M771.3,1541.047c.091-7.073.456-14.314,3.007-21.05,3.735-9.768,11.662-17.6,19.862-24.672,24.509-21.051,55.759-38.65,89.2-36.46,32.8,2.189,61.5,23.661,77.625,50.185s21.593,57.427,23.962,87.74c1.913,24.335.638,51.785-18.4,68.626-18.039,16-45.737,16.841-70.792,16.841-34.8-.085-75.074,6.651-96.12-23.493C777.221,1626.851,770.934,1578.181,771.3,1541.047Z" transform="translate(-70.123 -231.516)" fill="none" stroke="#fff" stroke-miterlimit="10" stroke-width="6"/>
      <path id="Path_2916" data-name="Path 2916" d="M848.727,1622.625c12.208,13.641,31.615,20.8,50.748,20.713a16.945,16.945,0,0,0,6.56-.925c3.462-1.264,5.831-4.295,7.927-7.158,10.842-15.409,18.131-33.681,16.491-51.953C922.617,1491.857,795.338,1563.178,848.727,1622.625Z" transform="translate(-75.849 -244.299)" fill="#ffee7a"/>
      <path id="Path_2917" data-name="Path 2917" d="M842.514,1583.071c6.392,7.142,16.552,10.889,26.569,10.845a8.874,8.874,0,0,0,3.435-.484c1.812-.661,3.053-2.249,4.15-3.748,5.677-8.067,9.493-17.634,8.634-27.2C881.2,1514.606,814.561,1551.947,842.514,1583.071Z" transform="translate(237.122 -271.049)" fill="none" stroke="#2de8f5" stroke-miterlimit="10" stroke-width="6"/>
      <path id="Path_2918" data-name="Path 2918" d="M752.8,1405.647a179.349,179.349,0,0,1,88.832-25.682c19.224-.421,38.812,2.189,57.672-1.432,29.246-5.557,53.39-25.766,68.423-49.68,14.942-23.914,21.957-51.28,27.242-78.478,3.28-16.588,6.287-34.1,17.584-47.322s33.892-20.04,48.106-9.43" transform="translate(-68.479 -188.823)" fill="none" stroke="#6140ff" stroke-miterlimit="10" stroke-width="6"/>
      <path id="Path_2919" data-name="Path 2919" d="M1034.6,1158.513c-37.173-7.41-78.536,12.8-92.84,45.385-11.389,25.935-6.833,56.753-21.957,81-9.384,14.988-25.146,25.514-41.455,34.018C820.406,1349.15,750.07,1358.5,685.2,1344.687" transform="translate(-62.469 -183.858)" fill="none" stroke="#ffee7a" stroke-miterlimit="10" stroke-width="6"/>
      <path id="Path_2920" data-name="Path 2920" d="M774.566,1061.771c-10.113-17.767-23.688-33.766-32.708-52.038-22.049-44.8-12.3-101.3,23.688-137.589,18.5-18.609,42.548-31.576,66.236-44.291q53.162-28.545,106.233-57.09c6.287-3.368,13.029-6.9,20.317-6.568,7.106.253,13.484,4.21,18.677,8.757,27.151,24,27.059,63.995,19.953,98.1s-19.315,69.215-9.475,102.812c3.007,10.357,8.2,20.63,6.469,31.24-1.731,10.694-10.022,19.367-17.948,27.282q-42.776,42.818-85.46,85.635c-18.586,18.609-52.57,53.974-82.363,33.092C784.952,1134.775,788.232,1085.853,774.566,1061.771Z" transform="translate(-66.466 -121.808)" fill="none" stroke="#ffee7a" stroke-miterlimit="10" stroke-width="6"/>
      <path id="Path_2921" data-name="Path 2921" d="M803.874,1025.423c-4.92-9.6-9.293-19.62-10.3-30.229-3.1-33.176,27.06-60.627,57.034-79.151a452.031,452.031,0,0,1,48.835-26.187c5.011-2.358,10.569-4.631,16.126-3.789,9.749,1.431,15.033,11.873,15.033,20.967,0,9.178-3.462,18.019-3.553,27.2-.182,22.819,20.5,42.438,20.226,65.173-.364,24-48.2,83.7-72.159,92.2C843.689,1102.806,814.716,1046.642,803.874,1025.423Z" transform="translate(-72.086 -141.035)" fill="none" stroke="#f8f8f8" stroke-miterlimit="10" stroke-width="6"/>
      <path id="Path_2922" data-name="Path 2922" d="M748.9,807.118c58.492-48,138.668-72.836,216.657-66.942,4.373.337,9.02.758,13.12-.673a23.081,23.081,0,0,0,7.106-4.294,54.693,54.693,0,0,0,17.858-26.608" transform="translate(-68.133 -113.029)" fill="none" stroke="#2de8f5" stroke-miterlimit="10" stroke-width="6"/>
      <path id="Path_2923" data-name="Path 2923" d="M903.481,705.9c-19.679,3.7-39.359,7.494-58.948,11.2-21.684,4.126-44.643,8.841-60.861,22.735-6.56,5.642-11.844,12.631-19.406,17.177-8.473,5.137-18.951,6.568-29.064,7.073a169.958,169.958,0,0,1-75.8-14.315" transform="translate(-60.176 -112.603)" fill="none" stroke="#ffee7a" stroke-miterlimit="10" stroke-width="6"/>
      <path id="Path_2924" data-name="Path 2924" d="M1016.689,1502.9c23.961,34.693,25.966,78.142,27.241,119.232.547,18.525,1,37.976-7.926,54.648-11.753,21.892-36.99,34.271-60.588,45.217-17.584,8.168-35.168,16.251-52.752,24.419-12.937,5.979-26.239,12.21-36.171,21.893s-16.217,23.829-12.117,36.712" transform="translate(-79.176 -238.501)" fill="none" stroke="#ffee7a" stroke-miterlimit="10" stroke-width="6"/>
      <path id="Path_2925" data-name="Path 2925" d="M725.267,1796.2c-7.653,4.631-8.382,15.746-3.007,22.651s14.942,10.1,24.144,10.609a24.274,24.274,0,0,0,8.564-.758c11.116-3.2,14.4-18.188,7.106-26.692-7.2-8.421-21.228-9.937-31.888-5.558" transform="translate(-65.455 -284.495)" fill="none" stroke="#ffee7a" stroke-miterlimit="10" stroke-width="6"/>
      <path id="Path_2926" data-name="Path 2926" d="M1019.1,1747.21c4.555-18.44,22.777-30.65,37.81-43.617,26.695-23.072,46.465-54.564,47.286-88.329.273-10.441-1.276-20.883-2.733-31.24-4.647-31.66-9.293-63.405-18.04-94.224" transform="translate(-92.156 -236.432)" fill="none" stroke="#fff" stroke-miterlimit="10" stroke-width="6"/>
      <path id="Path_2927" data-name="Path 2927" d="M550.99,1397.3a106.622,106.622,0,0,0-47.1,42.186c-8.564,14.567-11.753,35.45,2.46,45.638,7.471,5.388,17.949,6.062,27.333,4.547,23.688-3.789,44.461-20.629,51.477-41.849" transform="translate(-45.699 -221.82)" fill="none" stroke="#6140ff" stroke-miterlimit="10" stroke-width="6"/>
      <path id="Path_2928" data-name="Path 2928" d="M363.837,1322.63c-7.38-13.3-20.044-27.029-14.76-41.091,14.213-5.221,29.155,5.221,40.361,14.9,10.751,9.262,21.5,18.609,32.161,27.871,3.918,3.368,7.927,6.989,9.658,11.62,3.28,9.093-3.189,18.44-9.293,26.187-6.286,7.831-13.029,15.914-22.777,19.535C361.742,1395.466,372.948,1338.965,363.837,1322.63Z" transform="translate(-32.473 -203.314)" fill="none" stroke="#ffee7a" stroke-miterlimit="10" stroke-width="6"/>
      <path id="Path_2929" data-name="Path 2929" d="M353.99,1131.124c-9.931-17.514-32.253-25.177-52.935-30.229-18.131-4.463-38.084-7.915-54.939-.5s-26.513,24-32.617,40.249" transform="translate(-20.531 -174.237)" fill="none" stroke="#ffee7a" stroke-miterlimit="10" stroke-width="6"/>
      <path id="Path_2930" data-name="Path 2930" d="M595.6,1110.2c16.855,3.116,34.439,2.105,51.386,5.136s34.348,11.368,40.453,26.271c7.2,17.515-4.282,37.471-20.226,49.091-18.86,13.725-48.926,18.356-65.781,2.526" transform="translate(-54.503 -176.468)" fill="none" stroke="#6140ff" stroke-miterlimit="10" stroke-width="6"/>
      <path id="Path_2931" data-name="Path 2931" d="M704.63,1524.3a76.52,76.52,0,0,0,1.549,70.647c6.469,11.7,16.217,22.146,19.588,34.944" transform="translate(-63.496 -241.882)" fill="none" stroke="#ffee7a" stroke-miterlimit="10" stroke-width="6"/>
      <path id="Path_2932" data-name="Path 2932" d="M713.8,1260.48v36.375c0,7.157.182,14.9,4.829,20.714,5.011,6.231,14.3,8.588,22.686,7.747s16.217-4.379,23.779-7.831c5.558-2.526,11.3-5.22,15.033-9.852,3.826-4.631,5.1-10.694,4.92-16.5-.365-14.988-10.387-29.64-25.146-35.7-14.851-6.062-33.71-2.947-44.734,8" transform="translate(-65.012 -198.927)" fill="none" stroke="#ffee7a" stroke-miterlimit="10" stroke-width="6"/>
      <path id="Path_2933" data-name="Path 2933" d="M539.747,958.674a478.513,478.513,0,0,1-7.562-67.279c-.82-19.282,1.184-41.6,18.222-52.8" transform="translate(-48.851 -133.565)" fill="none" stroke="#ffee7a" stroke-miterlimit="10" stroke-width="6"/>
      <path id="Path_2934" data-name="Path 2934" d="M4.7,124.029a510.076,510.076,0,0,1-4.7-69C-.037,35.2,2.792,12.152,19.8,0" transform="matrix(0.799, 0.602, -0.602, 0.799, 1157.358, 94.619)" fill="none" stroke="#ffee7a" stroke-miterlimit="10" stroke-width="6"/>
      <path id="Path_2935" data-name="Path 2935" d="M1642.941,749.641c2.851,8.605,5.7,18.03,2.153,26.4-1.837,4.449-5.32,8.137-8.74,11.766-7.474,7.844-14.885,15.688-22.359,23.533-4.244,4.449-8.615,8.956-14.315,11.59-5.194,2.4-11.085,2.986-16.849,3.571-9.184.937-19,1.815-27.235-2.107-12.794-6.03-17.039-20.957-17.419-34.245a109.764,109.764,0,0,1,24.766-71.651c3.484-4.273,7.474-8.488,12.731-10.712,4.877-2.049,10.451-2.283,15.771-1.756C1619.063,708.781,1635.4,726.928,1642.941,749.641Z" transform="translate(-114.44 -85.042)" fill="#f26941"/>
      <path id="Path_2936" data-name="Path 2936" d="M1265.476,1842.013c8.426,2.022,16.689-3.369,22.847-9.06,23.171-21.565,35.324-50.916,46.909-79.369,7.373-18.12,14.826-36.989,13.53-56.307-.243-3.594-.972-7.413-3.565-10.108-2.754-2.771-7.049-3.669-11.018-3.669-9.722,0-18.8,4.493-27.059,9.285-28.518,16.548-56.064,40.508-65.705,71.208C1235.5,1782.337,1241.818,1836.247,1265.476,1842.013Z" transform="translate(-104.913 -257.131)" fill="none" stroke="#2de8f5" stroke-miterlimit="10" stroke-width="6"/>
    </g>
  </g>
</svg>
