<svg xmlns="http://www.w3.org/2000/svg" width="1953.662" height="1271.248"><g><g fill="#00c691" stroke="#707070"><path stroke="none" d="M17.73 19.54h1920v1045h-1920z"/><path fill="none" d="M18.23 20.04h1919v1044h-1919z"/></g><g transform="matrix(0 -1 1 0 0 1271.247)"><g fill="none" stroke="#fff28b" stroke-width="11.339" stroke-miterlimit="10"><path d="M433.75 495.16v77.94h76.83"/><path d="M433.75 573.1l-68.8 68.78"/></g><g fill="none" stroke="#fff28b" stroke-width="11.339" stroke-miterlimit="10"><path d="M265.35 1652.78h77.86v-76.82"/><path d="M343.2 1652.78l68.8 68.8"/></g><g fill="none" stroke="#fff28b" stroke-width="11.339" stroke-miterlimit="10"><path d="M546.1 165.67l-55.06-55.08-54.34 54.33"/><path d="M491.04 110.6V13.26"/></g><g fill="none" stroke="#fff28b" stroke-width="11.339" stroke-miterlimit="10"><path d="M933.4 834.98v58.98h-77.85"/><path d="M933.4 893.96l68.8 68.87"/></g><path fill="none" stroke="#00c691" stroke-width="11.339" stroke-miterlimit="10" d="M479.6 534.17h85.24v88.55L724.17 463.4"/><circle cx="14.377" cy="14.377" r="14.377" fill="#00c691" transform="translate(575.604 699.467)"/><circle cx="37.823" cy="37.823" r="37.823" fill="none" stroke="#fff28b" stroke-width="11.339" stroke-miterlimit="10" transform="translate(696.814 834.98)"/><circle cx="22.782" cy="22.782" r="22.782" fill="none" stroke="#00c691" stroke-width="11.339" stroke-miterlimit="10" transform="translate(327.211 812.641)"/><circle cx="22.782" cy="22.782" r="22.782" fill="none" stroke="#00c691" stroke-width="11.339" stroke-miterlimit="10" transform="translate(241.907 477.026)"/><circle cx="5.382" cy="5.382" r="5.382" fill="#fff28b" transform="translate(471.499 648.962)"/><circle cx="5.382" cy="5.382" r="5.382" fill="#fff28b" transform="translate(268.375 648.962)"/><circle cx="5.382" cy="5.382" r="5.382" fill="#fff" transform="translate(165.892 898.461)"/><circle cx="5.382" cy="5.382" r="5.382" fill="#fff28b" transform="translate(417.382 1180.474)"/><circle cx="5.382" cy="5.382" r="5.382" fill="#fff" transform="translate(816.403 1037.145)"/><circle cx="5.382" cy="5.382" r="5.382" fill="rgba(0,0,0,0)" transform="translate(685.239 1498.32)"/><circle cx="5.382" cy="5.382" r="5.382" fill="#fff" transform="translate(1076.076 1242.038)"/><circle cx="5.382" cy="5.382" r="5.382" fill="#fff" transform="translate(997.481 1740.077)"/><circle cx="5.382" cy="5.382" r="5.382" fill="#fff28b" transform="translate(553.854 951.988)"/><circle cx="5.382" cy="5.382" r="5.382" fill="#fff28b" transform="translate(1171.408 1492.938)"/><circle cx="5.382" cy="5.382" r="5.382" fill="#fff28b" transform="translate(1124.737 714.95)"/><circle cx="5.382" cy="5.382" r="5.382" fill="#fff" transform="translate(1058.455 928.395)"/><circle cx="5.382" cy="5.382" r="5.382" fill="#fff" transform="translate(674.474 1793.825)"/><circle cx="5.382" cy="5.382" r="5.382" fill="#00c691" transform="translate(685.239 191.843)"/><circle cx="5.382" cy="5.382" r="5.382" fill="#fff" transform="translate(781.234 378.303)"/><circle cx="5.382" cy="5.382" r="5.382" fill="#00c691" transform="translate(528.934 336.868)"/><circle cx="5.382" cy="5.382" r="5.382" fill="#00c691" transform="translate(160.436 100.566)"/><circle cx="5.382" cy="5.382" r="5.382" fill="#00c691" transform="translate(570.222 452.917)"/><circle cx="5.382" cy="5.382" r="5.382" fill="#00c691" transform="translate(747.392 584.966)"/><circle cx="5.382" cy="5.382" r="5.382" fill="#fff28b" transform="translate(1126.507 1132.034)"/><circle cx="5.382" cy="5.382" r="5.382" fill="#fff28b" transform="translate(1084.152 1355.029)"/><circle cx="5.382" cy="5.382" r="5.382" fill="#00c691" transform="translate(922.572 1487.26)"/><circle cx="5.382" cy="5.382" r="5.382" fill="#00c691" transform="translate(520.233 1697.167)"/><circle cx="5.382" cy="5.382" r="5.382" fill="#00c691" transform="translate(648.448 1013.552)"/><circle cx="5.382" cy="5.382" r="5.382" fill="#00c691" transform="translate(1171.408 910.626)"/><circle cx="5.382" cy="5.382" r="5.382" fill="#00c691" transform="translate(175.698 1429.383)"/><circle cx="5.382" cy="5.382" r="5.382" fill="#00c691" transform="translate(246.699 1768.758)"/><circle cx="5.382" cy="5.382" r="5.382" fill="#00c691" transform="translate(827.831 751.077)"/><circle cx="5.382" cy="5.382" r="5.382" fill="#00c691" transform="translate(1160.569 636.502)"/><circle cx="5.382" cy="5.382" r="5.382" fill="#00c691" transform="translate(199.807 386.413)"/><g fill="none" stroke="#00c691" stroke-width="11.339" stroke-miterlimit="10"><path d="M855.55 834.98h77.86v-76.83"/><path d="M933.4 834.98l68.8 68.86"/></g><path fill="#00c691" d="M713.8 713.4l12.6 12.62L602.13 850.3l-12.6-12.63z"/><path fill="none" stroke="#fff28b" stroke-width="11.339" stroke-miterlimit="10" d="M821.8 654.34L976.6 499.5l89.95 89.96 99.38-99.38"/><path fill="#00c691" stroke="#fff" stroke-width="11.339" stroke-miterlimit="10" d="M181.46 1482.12l-49.5 49.52-10.07 10.06-76.25-76.24"/><path fill="#fff28b" d="M72.03 963.27L136.47 1092l68.72-68.72z"/><path fill="#fff28b" d="M414.73 232.62l-37.6 112.95h80.43z"/><path fill="none" stroke="#00c691" stroke-width="11.339" stroke-miterlimit="10" d="M414.73 296.76l-37.6 113.03h80.43z"/><path fill="none" stroke="#00c691" stroke-width="11.339" stroke-miterlimit="10" d="M232.76 150.92L41.5 342.25"/><path fill="none" stroke="#fff28b" stroke-width="11.339" stroke-miterlimit="10" d="M197.74 260.85L6.5 452.1"/><circle cx="6.857" cy="6.857" r="6.857" fill="#fff28b" transform="translate(299.71 225.758)"/><circle cx="6.857" cy="6.857" r="6.857" fill="#fff28b" transform="translate(1202.964 103.589)"/><circle cx="6.857" cy="6.857" r="6.857" fill="#fff28b" transform="translate(855.553 144.066)"/><circle cx="6.857" cy="6.857" r="6.857" fill="#fff28b" transform="translate(960.911 358.765)"/><circle cx="55.223" cy="55.223" r="55.223" fill="#fff28b" transform="translate(907.458)"/><circle cx="55.223" cy="55.223" r="55.223" fill="#00c691" transform="translate(989.592)"/><path fill="none" stroke="#00c691" stroke-width="11.339" stroke-miterlimit="10" d="M843.46 328.38l-73.8-73.8-82.5 82.5-94.08-94"/><path fill="none" stroke="#fff28b" stroke-width="11.339" stroke-miterlimit="10" d="M821.8 248.47l87 87 68.26-68.2 65.1 65.1"/><path fill="none" stroke="#fff28b" stroke-width="11.339" stroke-miterlimit="10" d="M908.8 335.47v99.75"/><circle cx="23.077" cy="23.077" r="23.077" fill="none" stroke="#00c691" stroke-width="11.339" stroke-miterlimit="10" transform="translate(1035.304 412.145)"/><path fill="none" stroke="#00c691" stroke-width="11.339" stroke-miterlimit="10" d="M1072.68 365.62h69.97v65.92"/><circle cx="12.681" cy="12.681" r="12.681" fill="none" stroke="#fff28b" stroke-width="11.339" stroke-miterlimit="10" transform="translate(248.395 450.705)"/><path fill="none" stroke="#00c691" stroke-width="11.339" stroke-miterlimit="10" d="M940.67 1088.63l105.77 105.76-19.92 19.9-105.76-105.76z"/><circle cx="42.984" cy="42.984" r="42.984" fill="#00c691" transform="translate(841.987 1207.164)"/><path fill="#fff28b" d="M822.16 1293.06l105.76-105.76 19.9 19.9-105.75 105.77z"/><path fill="none" stroke="#00c691" stroke-width="11.339" stroke-miterlimit="10" d="M184.1 1079.76l67.98-68.42-86.26-35.83"/><path fill="none" stroke="#fff28b" stroke-width="11.339" stroke-miterlimit="10" d="M457.56 952v103.5h107.06v103.67h93.34v-49.92"/><path fill="none" stroke="#00c691" stroke-width="11.339" stroke-miterlimit="10" d="M390.54 1018.93v103.52h107.13v103.66H591"/><circle cx="30.524" cy="30.524" r="30.524" fill="#00c691" transform="translate(427.04 921.464)"/><path fill="#00c691" d="M71.69 621.9l81.2 81.22-71.68 71.67z"/><path fill="none" stroke="#fff28b" stroke-width="11.339" stroke-miterlimit="10" d="M233.72 782.5h36.65v-54.8h-89.3"/><path fill="none" stroke="#00c691" stroke-width="11.339" stroke-miterlimit="10" d="M842.06 1540.93l80.44 80.44 80.14-80.07 155.8 155.87"/><path fill="none" stroke="#fff28b" stroke-width="11.339" stroke-miterlimit="10" d="M939.46 1666.87l64.66-64.67 62.15 62.16"/><path fill="none" stroke="#fff" stroke-width="11.339" stroke-miterlimit="10" d="M236.16 1540.93h68.12v73.44h-68.12z"/><path fill="none" stroke="#fff" stroke-width="11.339" stroke-miterlimit="10" d="M462.06 764.35l29.12 29.12-30.9 30.9"/><path fill="rgba(0,0,0,0)" stroke="#fff" stroke-width="11.339" stroke-miterlimit="10" d="M1072.9 1400.48l26.77-26.84-31.85-31.85"/><path fill="none" stroke="#fff" stroke-width="11.339" stroke-miterlimit="10" d="M335.25 1344.82l15.78 15.78 18.94-18.95"/><path fill="rgba(0,0,0,0)" stroke="#fff" stroke-width="11.339" stroke-miterlimit="10" d="M1131.9 1036.2l15.84 15.76 18.95-18.94"/><path fill="none" stroke="#fff" stroke-width="11.339" stroke-miterlimit="10" d="M225.17 1134.17l-15.85 15.78 18.95 18.95"/><path fill="rgba(0,0,0,0)" stroke="#fff" stroke-width="11.339" stroke-miterlimit="10" d="M711.56 1226.1l12.98 13.06 29.78-29.78"/><path fill="rgba(0,0,0,0)" stroke="#fff" stroke-width="11.339" stroke-miterlimit="10" d="M612.76 1627.8l-30.45-30.54-34.2 34.22"/><path fill="rgba(0,0,0,0)" stroke="#fff" stroke-width="11.339" stroke-miterlimit="10" d="M657.96 134.7l37.53-37.45 17.4 17.4"/><path fill="none" stroke="#fff" stroke-width="11.339" stroke-miterlimit="10" d="M1118.47 205.34l38.93-38.93 25.07 25.07"/><path fill="none" stroke="#fff28b" stroke-width="11.339" stroke-miterlimit="10" d="M696.8 1948l202.84-202.76 198.04 198.03"/><circle cx="39.15" cy="39.15" r="39.15" fill="none" stroke="#00c691" stroke-width="11.339" stroke-miterlimit="10" transform="translate(858.133 1869.692)"/><circle cx="39.15" cy="39.15" r="39.15" fill="#00c691" transform="translate(322.419 1869.692)"/><circle cx="67.757" cy="67.757" r="67.757" fill="#fff28b" transform="translate(361.569 1812.553)"/><circle cx="39.887" cy="39.887" r="39.887" fill="#00c691" transform="translate(548.103 1355.433)"/><path fill="none" stroke="#fff28b" stroke-width="11.339" stroke-miterlimit="10" d="M540.43 1386.55h47.4l-23.65 41-23.75 40.98-23.66-41-23.67-40.98z"/><path fill="none" stroke="#fff28b" stroke-width="11.339" stroke-miterlimit="10" d="M1176.8 1472.3h47.32l-23.66 41-23.67 41.05-23.68-41.06-23.66-41z"/><path fill="none" stroke="#fff28b" stroke-width="11.339" stroke-miterlimit="10" d="M72.03 1280.53h164.13v90.6l86.1 86.12"/><path fill="none" stroke="#00c691" stroke-width="11.339" stroke-miterlimit="10" d="M270.22 1333.98V1243h-89.14"/><circle cx="26.893" cy="26.893" r="26.893" fill="#00c691" transform="translate(116.332 1725.174)"/><circle cx="26.911" cy="26.911" r="26.911" fill="rgba(0,0,0,0)" stroke="#fff" stroke-width="11.339" stroke-miterlimit="10" transform="translate(747.024 1392.076)"/><path fill="none" stroke="#fff28b" stroke-width="11.339" stroke-miterlimit="10" d="M773.93 1419h62.9"/><path fill="none" stroke="#fff28b" stroke-width="11.339" stroke-miterlimit="10" d="M668.95 1715.3l45.04-45.04 34.87 34.87 40.03-40.03"/><circle cx="32.367" cy="32.367" r="32.367" fill="none" stroke="#00c691" stroke-width="11.339" stroke-miterlimit="10" transform="translate(760.516 1627.935)"/><circle cx="17.4" cy="17.4" r="17.4" fill="#00c691" transform="translate(698.436 1716.041)"/><path fill="none" stroke="#fff" stroke-width="11.339" stroke-miterlimit="10" d="M1165.53 628.88l104.1 30.82"/><circle cx="33.473" cy="33.473" r="33.473" fill="none" stroke="#fff" stroke-width="11.339" stroke-miterlimit="10" transform="translate(1164.551 1784.683)"/><path fill="none" stroke="#fff28b" stroke-width="11.339" stroke-miterlimit="10" d="M1198.02 1818.16l-48.8-48.8"/><circle cx="10.838" cy="10.838" r="10.838" fill="#fff28b" transform="translate(1204.512 1740.003)"/><path fill="none" stroke="#00c691" stroke-width="11.339" stroke-miterlimit="10" d="M942.18 214.1l23.97-23.95 27.5 27.57 36.8-36.8"/><path fill="none" stroke="#fff28b" stroke-width="11.339" stroke-miterlimit="10" d="M581.06 291.97l-46.08-46.08"/></g></g></svg>