<svg xmlns="http://www.w3.org/2000/svg" width="1920" height="995"><defs><clipPath id="a"><path fill="#f26941" d="M4046-9819h1920v983H4046z"/></clipPath></defs><path fill="#f26941" d="M0 0h1920v983H0z"/><g transform="translate(-4046 9831)" clip-path="url(#a)"><g><path fill="none" stroke="#6140ff" stroke-width="6" stroke-miterlimit="10" d="M5703.9-10106.63c-6.9-8.2-13.9-16.5-22.47-22.6-10.53-7.47-23-11.2-35.54-13.2-55-8.75-113.6 17.3-147.03 65.32s-40.5 116.06-17.6 170.9c2.6 6.3 5.73 12.58 10.78 16.96 12.38 10.66 30.4 5.37 45.3-.46q81.85-31.98 163.78-64.05c18.27-7.2 37.22-14.76 51.2-29.43 43.78-46.1-20.63-90.28-48.42-123.44z"/><path fill="#6140ff" d="M5572.97-10030.55c-6.65 8.2-11.87 18.04-13.13 28.88s1.93 22.6 9.76 29.52c8.76 7.84 21.14 8.2 32.42 8.3 19.87.08 40.5 0 58.36-9.3 33.68-17.5 38.4-58.86 4.37-77.53-29.97-16.4-69.8-6.84-91.78 20.13z"/><path fill="none" stroke="#ffee7a" stroke-width="6" stroke-miterlimit="10" d="M5903.64-9961.5c19.96.83 40.6-12 47.5-32.24 3.45-10.2 3.45-21.32 2.77-32.16-1.17-18.95-4.37-38.45-14.4-54.03-24.24-37.8-90.67-37.9-103.98 10.84-11.96 43.74 26.1 105.88 68.12 107.6z"/><path fill="none" stroke="#ffee7a" stroke-width="6" stroke-miterlimit="10" d="M5986.75-9819.8q-79.83-42.5-159.65-85.1c-25.85-13.77-53.13-27.9-81.85-26.43-57.6 3-98.43 65.87-154.85 78.53-47.57 10.66-95.74-17.04-131.86-52.3s-65-78.8-103.4-110.96a243.42 243.42 90 0 0-59.53-36.9c-36.7-15.95-80.16-24.97-102.47-60.4-26.02-41.37-10.27-98.22-23.4-146.24"/><path fill="none" stroke="#6140ff" stroke-width="6" stroke-miterlimit="10" d="M5105.8-10242.65c5.82 56.85-10.85 119.9 17.53 168.1 30.4 51.66 95.74 58.95 147.35 84 58.2 28.24 101.8 82.1 151.82 124.9s116.37 76.1 176.5 53.13c29.97-11.4 54.3-35.44 83.1-49.93 49.5-24.78 109.2-18.77 157.97 7.47 48.83 26.33 87.57 70.98 116.8 120.8 7.3 12.4 14.13 25.43 17 39.73 5.9 29.16-5.73 59.77-23.4 82.64-58.53 75.6-168.93 76.34-236.7 142.2-33.6 32.62-58.87 82.28-103.33 90.57-69.13 12.94-121.84-84.2-191.82-79.63"/><path fill="none" stroke="#fff" stroke-width="6" stroke-miterlimit="10" d="M5441.53-9525.8c27.28 15.58 55.15 31.34 85.55 37.35 30.4 5.92 64.25.64 87.07-21.77 14.3-14.13 23.5-33.9 39.15-46.2 25.52-20.04 60.3-14.94 91.78-14.4 36.2.64 73.5-6.46 103.9-27.87 30.32-21.4 52.55-58.76 50.8-97.94-1.78-39.72-26.62-73.9-54.24-100.13-28.8-27.33-65.26-50.38-103.32-45.46-47.9 6.2-81.68 53.4-125.8 74.53-53.05 25.42-116.2 10.2-166.8-20.6s-92.3-75.7-137.93-114.6c-45.65-38.82-98.36-72.9-156.38-75.63-19.2-.9-38.9 1.82-56.33 10.66-19.63 10.02-35.2 27.15-50.36 44q-86.52 96.08-173.13 192.25"/><path fill="rgba(0,0,0,0)" stroke="#ffee7a" stroke-width="6" stroke-miterlimit="10" d="M5457.1-9583.3c37.48 17.13 80.43 34.26 117.4 15.95 39.9-19.77 59.44-75.44 101.8-87.92 25.67-7.56 52.54 3.2 78.8 7.83s58.7-.18 70.4-26.05c8.08-17.94 3.03-39.44-3.03-58.3-7.33-22.96-16.25-46.1-32-63.4s-39.66-27.8-61.05-20.5c-28.54 9.73-41.5 44.63-62.8 67.22-22.07 23.33-53.57 33.44-84.38 35.53-43.62 2.92-87.9-8.93-125.2-33.53-43.2-28.5-75.55-72.34-112.26-110.15-36.7-37.72-82.35-71.34-132.95-70.42-63.66 1.1-114.6 54.94-158.22 105.05-23.4 26.87-48.5 59.3-43.53 95.75"/><path fill="none" stroke="#6140ff" stroke-width="6" stroke-miterlimit="10" d="M5135.96-9741.64c24.75-19.77 56.5-28.88 87.07-24.97s59.53 20.68 79.4 46.1"/><path fill="none" stroke="#6140ff" stroke-width="6" stroke-miterlimit="10" d="M5504.52-9681.78c9.76 5.65 19.28 12.3 25.84 21.86s9.86 22.5 5.9 33.7c-5.47 15.68-22.65 22.7-38.14 23.43-21.14 1-43.7-7.37-55.83-26.05-35.96-55.4 25.5-74.16 62.22-52.93z"/><path fill="none" stroke="#f26941" stroke-width="6" stroke-miterlimit="10" d="M5985.23-9617.28c-37.3 14.67-61.13 61.5-52.46 103.5 5.8 28.16 23.75 51.66 32.6 78.9s3.78 64.87-21.4 74.26c-19.2 7.1-40.33-6.38-52.04-24.33s-17-39.72-25.93-59.5c-8.84-19.76-23.32-39-43.37-42.54-19.45-3.45-38.64 8.94-51.7 24.88s-21.9 35.35-33.76 52.4c-27.62 39.9-70.23 64.6-113.6 81.44-25.25 9.84-54.72 20.78-63.65 48.1-5.98 18.23-.08 39.46 11.96 53.85 12.04 14.3 29.38 22.42 46.98 25.97 6.23 1.27 12.8 2.1 18.02 6.1 6.66 5.1 9.43 14.3 10.95 22.96 6.74 37.8-3.28 78.72-26.44 107.96-19.55 24.78-48 41.82-61.4 70.98-6.65 14.48-9.26 31.34-18.77 43.73-11.87 15.4-32.17 20.4-50.52 17.76s-35.2-11.84-51.7-20.95c-84.03-46.2-174.04-93.48-267.93-84-8.08.82-17.43 2.92-21.22 10.66-2.2 4.46-2.02 9.93-1.68 15.03 3.28 53.76 13.47 106.87 16.92 160.72 3.36 53.74-.5 109.87-23.58 157.6"/><path fill="none" stroke="#f26941" stroke-width="6" stroke-miterlimit="10" d="M5451.3-9330.2a925.55 925.55 90 0 1 34.94 172.93c3.03 28.98 3.7 61.5-14.23 83.28-13.97 16.95-36.28 23.06-57.25 23.5-48 1.1-93.38-21.76-136.66-44.1-17.6-9.1-35.54-18.4-49.27-33.33-35.45-38.54-32.84-100.5-27.78-154.53"/><path fill="none" stroke="#f8f8f8" stroke-width="6" stroke-miterlimit="10" d="M5260.32-9312.33c-3.95 19.77-7.4 39.9-6.73 60.13 1.84 54.94 37.46 106.7 85.54 124.36 7.24 2.64 14.82 4.65 22.48 4.38 17.94-.64 34.02-13.76 43.62-30.16s13.8-35.8 16.84-54.94c2.2-13.58 3.87-27.52 1.68-41.1s-8.58-26.96-19.45-34.07"/><path fill="none" stroke="#ffee7a" stroke-width="6" stroke-miterlimit="10" d="M5371.64-9271.06a40.53 40.53 90 0 1 5.56 30.88c-1 4.56-3.12 9.2-6.9 11.48-3.8 2.2-8.42 1.64-12.72 1.64-6.14 0-12.7 1.1-18.18-2-2.6-1.45-4.72-3.82-6.74-6.1-2.53-2.82-5.14-5.83-6.23-9.56-1.1-4-.25-8.3-1-12.3-.52-2.64-1.6-5.2-1.44-7.84.07-2.28 1.17-4.37 2.18-6.38 1.93-3.9 3.95-7.83 7-10.93 11.43-11.58 30.88-.28 38.46 11.1z"/><path fill="none" stroke="#fff" stroke-width="6" stroke-miterlimit="10" d="M5973.1-9268.5c-10.35 29.78-39.4 55.66-67.52 46.55-9.27-3-17.27-9.4-25-15.77-30.16-24.7-61.82-51.56-99.54-55.2-19.45-1.92-42.1 5.28-49.6 24.77-8.93 23.42 8.25 47.74 18.1 70.6a125.96 125.96 90 0 1 10.02 49.85c0 5.83-.5 11.75-2.53 17.13-2.44 6.47-6.9 11.75-11.45 16.67-24.58 26.24-55.07 45.2-81.17 69.6s-49 57.23-49.92 94.58c-.17 8.47.84 17.3 4.8 24.6 3.45 6.38 8.84 11.2 14.4 15.4 23.74 17.86 52.37 26.97 76.12 44.83 2.78 2.1 5.47 4.38 7 7.57 3.7 7.74-1.2 16.76-4.73 24.6a79.74 79.74 90 0 0-2.95 55.67"/><path fill="none" stroke="#ffee7a" stroke-width="6" stroke-miterlimit="10" d="M5620.04-8720.76a143.5 143.5 90 0 1-23.58-46.65c-4.2-14.22-6.3-29.53-13.9-42-7.48-12.5-22.9-21.42-35.27-14.77-13.23 7.1-15.08 26.05-19.46 41.27-11.03 38.54-45.13 62.87-76.88 84"/><path fill="none" stroke="#ffee7a" stroke-width="6" stroke-miterlimit="10" d="M5847.22-8724.23c-22.06-24.5-30.98-61.86-22.82-94.84 4.2-16.95 12.47-32.25 20.63-47.38 11.2-20.68 22.32-41.36 33.52-62.13 9.26-17.22 18.94-34.9 33.5-47.02 14.66-12.1 35.63-17.4 51.63-7.65"/><path fill="none" stroke="#2de8f5" stroke-width="6" stroke-miterlimit="10" d="M5434.3-8914.64c-60.13.72-115.12-35.72-174.23-47.56-18.44-3.74-39.5-4.28-53.72 9.02-13.9 13.03-16.6 34.98-17.77 54.85q-2.4 40.6-1.93 81.36c.5 36.44 5.13 77.9 32.5 99.12"/><path fill="none" stroke="#fff" stroke-width="6" stroke-miterlimit="10" d="M5330.47-8762.04c-12.38 4.1-25.94 8.2-37.98 3.1-6.4-2.64-11.7-7.65-16.94-12.57-11.28-10.76-22.56-21.42-33.85-32.17-6.4-6.1-12.87-12.4-16.66-20.6-3.45-7.46-4.3-15.94-5.13-24.23-1.34-13.2-2.6-27.33 3.04-39.17 8.67-18.4 30.14-24.5 49.26-25.06 36.7-1 73.67 11.75 103.06 35.62 6.15 5 12.2 10.75 15.4 18.3 2.96 7.02 3.3 15.04 2.54 22.7-3.96 39.72-30.07 63.22-62.73 74.06z"/><path fill="none" stroke="#f26941" stroke-width="6" stroke-miterlimit="10" d="M5788.33-8891.43c-10.57 3.5-22.14 7-32.43 2.64-5.46-2.24-10-6.52-14.45-10.73-9.64-9.18-19.27-18.28-28.9-27.46-5.47-5.2-11-10.57-14.25-17.58-2.94-6.37-3.66-13.6-4.38-20.7-1.15-11.28-2.23-23.34 2.6-33.45 7.4-15.72 25.73-20.93 42.05-21.4 31.36-.86 62.92 10.04 88.02 30.42 5.24 4.27 10.42 9.17 13.15 15.63 2.5 6 2.8 12.84 2.15 19.37-3.38 33.93-25.67 54-53.57 63.27z"/><path fill="none" stroke="#6140ff" stroke-width="6" stroke-miterlimit="10" d="M5169.3-9318.08c-10.27 20.14-8.34 44.56-9.43 67.43-1.85 39.45-13.47 77.8-29.8 112.97-12.8 27.52-29.3 54.2-53.48 70.52-26.87 18.13-59.88 21.32-91.45 22.7-55.58 2.26-112.33.26-165.46 17.75-30.58 10.02-59.7 26.5-91.46 29.8-9.26.98-19.03.7-27.28-3.93-15.07-8.4-20.88-28.16-25.34-45.83-16.17-63.7-37.98-132.47-90.1-166.73-18.2-11.93-38.82-18.67-57.6-29.42s-36.63-26.88-42.02-49.1"/><path fill="none" stroke="#fff" stroke-width="6" stroke-miterlimit="10" d="M4801.33-9293.2c-33.85 64.5-53.63 137.66-57.17 211.74-.17 3.64-.25 7.47 1.68 10.47 1.6 2.47 4.38 3.84 7 4.75 31.06 11.12 62.9-11.02 94.55-19.86 27.86-7.76 57.6-5.1 85.3-13.68 36.96-11.48 67.27-42.27 104.74-51.75 14.65-3.73 30.15-4.1 43.7-11.02 18.1-9.2 30.06-28.98 35.62-49.75s5.72-42.73 5.72-64.32"/><path fill="none" stroke="#f26941" stroke-width="6" stroke-miterlimit="10" d="M5082.57-9282.9c-18.1 29.88-46.9 51.93-78.9 60.5-25.1 6.74-54.48 6.83-71.82 27.6-8.42 9.93-12.47 23.23-19.03 34.7-10.95 19.14-29.3 33.08-49.68 37.73-7.24 1.64-15 2.1-21.9-.82-4.8-2-8.84-5.64-12.37-9.65-19.8-22.4-22.4-60.22-5.98-85.64 10.68-16.57 27.52-26.96 40.9-41.08s23.6-35.7 15.93-54.12"/><path fill="none" stroke="#f26941" stroke-width="6" stroke-miterlimit="10" d="M4753.25-9733.35c-16.08-2.92-28.96-15.58-40.75-27.88-14.9-15.67-29.8-31.8-40.17-51.3-10.44-19.5-16.08-42.8-11.28-64.68s21.72-41.28 42.44-43.56c10.18-1.1 20.36 1.9 30.05 5.65 29.22 11.47 55.74 30.97 76.45 56.1 7.08 8.67 13.73 18.14 22.9 23.88 24.85 15.5 57-2.73 74.2-27.5s25.92-55.6 43.77-79.73c11.03-14.85 25.1-26.6 37.9-39.63s24.75-28.16 29.64-46.47 1.1-40.36-12.96-51.84c-13.4-10.83-31.83-9.74-48.33-7.1-72 11.75-143.4 44.64-215.13 31.25-23.5-4.37-46.06-13.76-69.47-18.86-51.7-11.3-105.1-1.92-157.13 7.65-17.1 3.1-35.02 6.65-48.5 18.4-16.16 14.03-22.9 37.17-26.27 59.4-8.6 56.85-.67 114.88 7.24 171.83 2.1 15.3 4.55 31.43 13.48 43.64 8.58 11.75 21.97 17.95 34.27 24.96a241.8 241.8 90 0 1 53.54 41.37"/><path fill="none" stroke="#6140ff" stroke-width="6" stroke-miterlimit="10" d="M4540.98-9860.63c10.35.73 20.88-4.56 27.02-13.48 6.07-8.76 7.84-20.06 7.75-30.9 0-4.46-.42-9.02-2.36-12.94-3.8-7.47-12.47-10.38-20.3-10.2a40.58 40.58 90 0 0-30.14 15.3c-16.84 20.96-9.94 50.3 18.02 52.2z"/><path fill="none" stroke="#fff" stroke-width="6" stroke-miterlimit="10" d="M5039.46-8744.27c24.33-8.38 50.77-18.6 63.82-42.27 9.86-18.04 9.86-40.27 9.18-61.23-.92-28.7-2.44-57.58-8.67-85.46-1.36-6-2.96-12.12-6.58-16.76-7.75-10.1-21.55-10.65-33.68-11.47a216.7 216.7 90 0 1-83.7-23.15c-31.57-16.03-62.73-40.54-97.42-36.26-38.57 4.74-65.1 43.1-99.1 63.32a114.75 114.75 90 0 1-72.5 15.3c-13.48-1.72-27.04-6.1-37.4-15.48-12.04-10.93-18.35-27.42-24.25-43.18-15.07-40.9-29.72-82.37-51.95-119.26s-53.05-69.34-91.44-83.73c-24.1-9.03-50.1-10.77-74.36-19.42-25.17-9.02-47.57-25.15-69.63-41.18-2.3-1.64-4.8-3.74-5.06-6.65-.26-3.28 2.35-6.02 4.7-8.02 6.58-5.65 13.06-11.4 19.63-17.04"/><path fill="#2de8f5" d="M4432.08-9141.1c-1.25 5.2 2.08 10.3 5.6 14.1 13.32 14.32 31.45 21.83 49.03 28.98 11.2 4.56 22.86 9.16 34.8 8.36 2.2-.15 4.57-.6 6.24-2.2 1.7-1.7 2.26-4.35 2.26-6.8 0-6-2.77-11.62-5.73-16.72-10.23-17.62-25.03-34.64-44-40.6-11.33-3.65-44.63.26-48.2 14.87z"/><path fill="none" stroke="#f26941" stroke-width="6" stroke-miterlimit="10" d="M4900.7-8899.43c11.27 12.76 23.15 25.88 38.47 31.8 2.7 1.1 5.73 2 7.4 4.56 2.8 4.2.6 10.02-2.1 14.2a69.57 69.57 90 0 1-27.02 24.8c-12.8 6.46-27.12 8.28-41.18 10q-38.02 4.8-76.03 9.58c-8.6 1.1-17.94 2-25.18-3.1-8.25-5.82-10.95-18.03-8.93-28.5s7.83-19.5 13.73-28.07c10.86-15.95 22.56-31.43 37.13-43.46 12.28-10.1 32.83-22.7 49.17-20.68 15 2 24.67 17.76 34.52 28.87z"/><path fill="none" stroke="#6140ff" stroke-width="6" stroke-miterlimit="10" d="M5027.42-8911.1c15.4 7.94 31.9 16.86 39.74 33.26 9.6 20.23 2.2 46.3-12.88 61.96s-36.2 22.87-57 26.24c-20.72 3.37-41.94 3.55-62.5 7.83-16.07 3.36-31.48 9.3-46.97 14.94-35.27 12.93-71.3 25.05-108.53 27.33-25.1 1.55-52.8-2.73-69.72-22.78-13.14-15.6-17.18-37.73-19.54-58.68-1.75-15.95-2.68-33.26 5.07-47.02 8.6-15.2 25.26-22.04 40.4-28.97a349.38 349.38 90 0 0 79.17-50.3c14.73-12.38 30.65-31.15 48.67-37.7 16.6-6.02 28.97 4.45 43.8 12.1 39.82 20.96 80.15 41.2 120.32 61.78z"/><path fill="none" stroke="#ffee7a" stroke-width="6" stroke-miterlimit="10" d="M4677.4-8693.9c-20.14-15.3-33.95-38.34-47.17-60.76q-25-42.5-50.1-85c-11.03-18.67-22.15-37.53-29.22-58.3-9.08-26.6-11.36-55.67-22.4-81.37-19.02-44.37-60.87-71.6-102.2-91.47a629.74 629.74 90 0 0-59.8-25.05c-11.53-4.2-23.5-8.1-33.17-16.13-17.1-14.2-24-38.17-36.2-57.4"/><path fill="none" stroke="#2de8f5" stroke-width="6" stroke-miterlimit="10" d="M4152.3-9343.22c5.55 13.4 11.6 27.33 22.47 36 17.7 14.02 42.44 9.92 63.16 2.17 35.6-13.4 68.2-35.8 94.56-64.96 16.74-18.6 31.4-47.1 18.68-69.07-5.8-9.93-15.9-15.76-25.77-20.95-22.05-11.66-44.6-22.23-67.52-31.7-24.42-10.12-49.93-19.05-76.03-18.14-28.3 1-65.1 15.3-62.73 50.75 2.7 40.53 17.93 79.35 33.17 115.88z"/><path fill="none" stroke="#ffee7a" stroke-width="6" stroke-miterlimit="10" d="M4179.15-9430.05c-1.1 5.1-.67 10.4-.5 15.58.25 9.84-.68 19.68.5 29.43s4.9 19.68 12.3 25.33c7 5.36 16.08 6.1 24.58 5.18 32.84-3.82 61.9-35.17 63.16-70.88.24-7.1-.6-14.5-3.97-20.6-7.5-13.66-24.5-16.48-39.24-16.67-21.3-.36-51.12 5.65-56.85 32.62z"/><path fill="none" stroke="#6140ff" stroke-width="6" stroke-miterlimit="10" d="M4278.43-9590.3c14.73 8.46 33.93 7.28 47.24-3.65s19.53-31.07 14.4-48.3c-3.12-10.3-9.7-18.85-16.42-26.87-5.8-6.74-12.13-13.48-20.13-16.67a54.75 54.75 90 0 0-11.95-2.9c-22.15-3.74-62.57-3.1-57.43 31.7 3.36 23.4 25.26 55.67 44.3 66.7z"/><path fill="none" stroke="#6140ff" stroke-width="6" stroke-miterlimit="10" d="M4384.27-9731.7c-19.28-11.03-24.25-37.73-35.53-57.96-10.2-18.22-26.44-31.97-44.46-40.72a115.28 115.28 90 0 0-86.48-5.56c-17.68 5.92-33.85 16.13-51.28 22.96-37.8 14.94-82.27 14.76-112.92 43-30.3 27.97-37.38 74.7-43.78 117.26-1.27 8.65-2.78 17.67-7.83 24.5-5.4 7.38-14.07 10.94-22.4 13.67-51.2 16.67-106.02 12.2-159.33 7.56"/><path fill="none" stroke="#f26941" stroke-width="6" stroke-miterlimit="10" d="M5014.45-10312.62c-18.94 28.06-22.82 64.96-38.73 95.12-30.9 58.22-98.18 78.8-159.15 91.65-41.6 8.75-86.05 16.22-125.38-1.1-21.06-9.28-39.08-25.05-59.54-35.7-30.73-16.04-65.68-19.96-99.78-19.7-64.08.38-136.9 21.5-164.8 83.83-18.34 41.1-13.63 93.4-40.57 128.65-10 13.12-23.65 22.5-37.55 30.43-47.07 26.97-99.6 40.27-149.46 60.68s-99.28 50.2-127.07 99.3c-11.8 20.78-19.2 44.3-31.83 64.6-31.66 50.85-97.25 73.44-150.3 51.76"/><path fill="none" stroke="#6140ff" stroke-width="6" stroke-miterlimit="10" d="M3826.26-9709.2c36.3-13.5 75.6-29.62 95.15-65.33 12.64-23.14 15.33-52.12 30.4-73.43 5.48-7.75 12.4-14.22 17.27-22.42 16.6-28.33 2.95-65.32-10.86-95.4-6.4-13.84-12.7-27.7-19.1-41.53-1.7-3.57-3.38-7.3-6.24-9.76-6.48-5.56-16.6-2.83-22.48 3.46s-8.76 15.12-11.8 23.4c-16.07 44.66-41.92 85.1-74.93 117.1"/><path fill="none" stroke="#6140ff" stroke-width="6" stroke-miterlimit="10" d="M4110.27-10219.7c-16.67 19.23-17.93 48.2-18.35 74.54-.84 55.57-1.6 111.42 6.9 166.18.67 4.37 1.5 8.93 4.04 12.3 3.2 4.28 8.6 5.83 13.64 6.74 24.93 4.1 50.52-5.47 71.4-20.77s37.8-36 54.3-56.68c11.46-14.3 22.83-28.8 32.35-44.65 17.76-29.5 28.96-63.22 46.9-92.56s45.4-55.48 77.9-56.75"/><path fill="none" stroke="#f26941" stroke-width="6" stroke-miterlimit="10" d="M4171.66-10122.48c-14.23 9.66-24.25 27.15-23.66 45.28.17 6.75 2.02 13.76 6.4 18.6 4.2 4.64 10.35 6.64 16.33 7.46 17.26 2.28 36.38-6.2 43.96-23.14 3.78-8.47 9.92-47.74 3.6-55.58-8.4-10.47-38.14 1.64-46.64 7.38z"/><path fill="none" stroke="#6140ff" stroke-width="6" stroke-miterlimit="10" d="M4271.78-9091.03c53.2 45 107.78 90.74 171.6 114.6 12.2 4.57 25.35 8.67 34.44 18.6 15.75 17.22 14.23 44.64 16.25 68.7 9.27 109.33 107.87 186.04 134.8 291.9"/><path fill="#fff" stroke="#fff" stroke-width="6" stroke-miterlimit="10" d="M3833.16-9342.67c22.57 21.6 55.66 22.5 85.8 21.77 13.05-.27 28.3-2 35.1-14.12 2.1-3.74 3.13-8.1 4.05-12.4 3.2-14.2 6.4-28.5 6.58-43.1.26-14.57-2.78-29.7-10.94-41.26-6.24-8.84-15-15.12-24.1-20.32-9.84-5.55-20.53-10.02-31.65-10.57-28.64-1.45-52.55 22.05-72.93 43.92"/><path fill="none" stroke="#f26941" stroke-width="6" stroke-miterlimit="10" d="M3814.8-9237.9a183.42 183.42 90 0 1 141.64-11.2c20.2 6.73 39.82 17.4 54.47 33.88 11.7 13.12 19.8 29.43 27.9 45.47q30.43 60.13 64.06 118.26c9.86 17.04 20.05 34.17 33.52 47.93 12.8 13.12 28.2 22.87 43.7 31.9 19.03 11.2 38.73 21.67 59.95 26.32 25.1 5.37 51.37 2.37 76.04 9.75 25.76 7.74 48.25 27.33 60.88 52.84a116.83 116.83 90 0 1 6.65 84.2c-7.4 24.4-22.65 45-37.56 65.04q-30.18 40.6-60.54 81.18"/><path fill="none" stroke="#f26941" stroke-width="6" stroke-miterlimit="10" d="M4249.3-8714.84c-.68-14.5 12.37-24.42 22.56-33.8 16.33-15.03 28.12-34.9 39.65-54.4 10.46-17.67 21.3-38.8 14.67-58.58-3.3-9.65-10.44-17.3-18.2-23.23-35.78-27.42-83.77-24.7-125.54-39-63.74-21.77-109.04-81.35-150.56-138.02q-28.3-38.68-56.66-77.36c-13.8-18.86-30.14-39.26-52.28-41.45-13.65-1.37-26.78 4.56-39.33 10.48q-34.36 16.12-68.38 33.07"/><path fill="none" stroke="#ffee7a" stroke-width="6" stroke-miterlimit="10" d="M3809.75-9068.26c9.68-7 19.45-14.12 29.13-21.14 20.38-14.76 45.64-30.15 67.96-19.13 7.74 3.83 13.97 10.48 20.04 16.95q27.53 29.65 55.15 59.3c61.3 66.06 128 135.22 212.95 152.62 16.5 3.37 35.03 5.65 46.14 19.4 10.7 13.3 10.44 34 3.45 49.93s-19.53 28.15-32.16 39.45a622.28 622.28 90 0 1-132.6 90.56"/><path fill="none" stroke="#fff" stroke-width="6" stroke-miterlimit="10" d="M3812.28-8762.3c64.4-32.45 137.25-38.9 208.32-38.82 21.05 0 42.1.64 63.07 1.73 24.08 1.3 50.1 2.74 70.22-11.56 3.28-2.28 6.4-5.2 7.66-9.1 1.5-4.93-.17-10.3-2.45-14.77-11.94-23.6-37.8-33.7-60.87-43.83a424.7 424.7 90 0 1-88.4-51.93c-30.15-23.22-57.35-51.1-89-71.78-31.75-20.68-70.07-33.9-105.85-23.87"/><path fill="none" stroke="#f26941" stroke-width="6" stroke-miterlimit="10" d="M3809.4-8956c57.86 1.72 110.24 34.98 159.75 67.4 3.62 2.38 7.58 5.3 8.17 9.76.75 5.74-4.3 10.2-8.93 13.2-15.92 10.58-33.27 19.33-51.8 21.97-11.03 1.55-22.22.9-33.26 2.37-8.92 1.18-17.6 3.73-26.27 6.38-13.38 4-26.77 7.92-40.16 11.93"/><path fill="none" stroke="#fff" stroke-width="6" stroke-miterlimit="10" d="M4677.22-9611.45c7.07.1 14.3.46 21.05 3 9.77 3.75 17.6 11.67 24.67 19.87 21.05 24.5 38.65 55.76 36.46 89.2-2.2 32.8-23.66 61.5-50.2 77.63s-57.4 21.6-87.73 23.96c-24.33 1.92-51.78.65-68.62-18.4-16-18.03-16.84-45.73-16.84-70.78.1-34.8-6.64-75.08 23.5-96.12 31.9-22.42 80.58-28.7 117.72-28.35z"/><path fill="#ffee7a" d="M4608.42-9539.74c-13.64 12.2-20.8 31.6-20.7 50.74a16.95 16.95 90 0 0 .9 6.56c1.28 3.47 4.3 5.84 7.17 7.93 15.4 10.83 33.67 18.12 51.95 16.48 91.44-7.83 20.12-135.1-39.33-81.72z"/><path fill="none" stroke="#2de8f5" stroke-width="6" stroke-miterlimit="10" d="M4674.73-9233c-7.15 6.4-10.9 16.57-10.85 26.58a8.87 8.87 90 0 0 .48 3.44c.67 1.8 2.25 3.05 3.75 4.15 8.08 5.67 17.65 9.5 27.2 8.63 47.9-4.1 10.55-70.74-20.57-42.8z"/><path fill="none" stroke="#6140ff" stroke-width="6" stroke-miterlimit="10" d="M4769.92-9628.3a179.35 179.35 90 0 1 25.7 88.83c.4 19.22-2.2 38.8 1.42 57.67 5.55 29.25 25.76 53.4 49.68 68.43 23.9 14.94 51.28 21.95 78.48 27.24 16.58 3.28 34.1 6.28 47.32 17.58s20.04 33.9 9.43 48.1"/><path fill="none" stroke="#ffee7a" stroke-width="6" stroke-miterlimit="10" d="M5012.1-9340.5c7.4-37.16-12.8-78.53-45.4-92.83-25.93-11.4-56.75-6.83-81-21.96-14.98-9.37-25.5-25.13-34-41.44-30.24-57.95-39.6-128.28-25.78-193.15"/><path fill="none" stroke="#ffee7a" stroke-width="6" stroke-miterlimit="10" d="M5046.78-9604.52c17.77-10.1 33.77-23.7 52.04-32.7 44.8-22.06 101.3-12.3 137.6 23.68 18.6 18.5 31.57 42.55 44.28 66.23q28.55 53.16 57.1 106.23c3.36 6.28 6.9 13.03 6.56 20.3-.25 7.12-4.2 13.5-8.76 18.7-24 27.14-64 27.05-98.1 19.94s-69.2-19.3-102.8-9.47c-10.36 3-20.64 8.2-31.25 6.47-10.7-1.73-19.36-10.02-27.28-17.95q-42.82-42.78-85.64-85.46c-18.6-18.6-53.97-52.57-33.1-82.36 16.35-23.24 65.27-19.96 89.36-33.62z"/><path fill="none" stroke="#f8f8f8" stroke-width="6" stroke-miterlimit="10" d="M5102.36-9580.83c9.6-4.92 19.62-9.3 30.23-10.3 33.17-3.1 60.62 27.06 79.14 57.03a452.03 452.03 90 0 1 26.2 48.84c2.35 5 4.62 10.56 3.78 16.12-1.43 9.75-11.88 15.03-20.97 15.03-9.18 0-18.02-3.47-27.2-3.56-22.82-.18-42.44 20.5-65.17 20.23-24-.37-83.7-48.2-92.2-72.16-11.2-31.42 44.96-60.4 66.18-71.23z"/><path fill="none" stroke="#2de8f5" stroke-width="6" stroke-miterlimit="10" d="M5292.66-9631.85c48 58.5 72.83 138.66 66.94 216.65-.34 4.38-.76 9.02.67 13.12a23.08 23.08 90 0 0 4.3 7.1 54.7 54.7 90 0 0 26.6 17.87"/><path fill="none" stroke="#ffee7a" stroke-width="6" stroke-miterlimit="10" d="M5393.45-9469.32c-3.7-19.68-7.5-39.36-11.2-58.95-4.12-21.68-8.84-44.64-22.73-60.86-5.65-6.56-12.63-11.84-17.18-19.4-5.14-8.48-6.57-18.95-7.07-29.07a169.96 169.96 90 0 1 14.3-75.8"/><path fill="none" stroke="#ffee7a" stroke-width="6" stroke-miterlimit="10" d="M4722.35-9375.1c-34.7 23.95-78.14 25.96-119.23 27.23-18.53.55-37.98 1-54.65-7.92-21.9-11.75-34.27-36.98-45.22-60.58-8.17-17.6-16.25-35.17-24.42-52.75-5.98-12.94-12.2-26.24-21.9-36.18s-23.82-16.22-36.7-12.12"/><path fill="none" stroke="#ffee7a" stroke-width="6" stroke-miterlimit="10" d="M4475.04-9652.8c-4.63-7.66-15.74-8.4-22.65-3.02s-10.1 14.95-10.62 24.15a24.27 24.27 90 0 0 .76 8.56c3.2 11.1 18.2 14.4 26.7 7.1 8.4-7.2 9.93-21.23 5.55-31.9"/><path fill="none" stroke="#fff" stroke-width="6" stroke-miterlimit="10" d="M4475.97-9385.68c18.44 4.56 30.65 22.78 43.62 37.8 23.06 26.7 54.55 46.48 88.32 47.3 10.44.27 20.88-1.28 31.24-2.74 31.66-4.64 63.4-9.3 94.22-18.04"/><path fill="none" stroke="#6140ff" stroke-width="6" stroke-miterlimit="10" d="M4811.27-9807.33a106.62 106.62 90 0 0-42.2-47.1c-14.55-8.57-35.44-11.75-45.63 2.46-5.38 7.47-6.06 17.95-4.54 27.33 3.8 23.7 20.63 44.46 41.85 51.48"/><path fill="none" stroke="#ffee7a" stroke-width="6" stroke-miterlimit="10" d="M4867.43-9981.26c13.3-7.38 27.03-20.04 41.1-14.76 5.2 14.22-5.23 29.16-14.9 40.36-9.27 10.75-18.62 21.5-27.88 32.16-3.37 3.92-7 7.93-11.62 9.66-9.1 3.28-18.44-3.2-26.18-9.3-7.84-6.28-15.92-13.02-19.54-22.77-13.8-37.45 42.7-26.25 59.03-35.36z"/><path fill="none" stroke="#ffee7a" stroke-width="6" stroke-miterlimit="10" d="M5029.86-9979.16c17.52-9.93 25.18-32.26 30.23-52.94 4.45-18.13 7.9-38.08.5-54.94s-24-26.5-40.26-32.6"/><path fill="none" stroke="#6140ff" stroke-width="6" stroke-miterlimit="10" d="M5053.02-9771.52c-3.12 16.85-2.1 34.43-5.14 51.38s-11.37 34.35-26.27 40.45c-17.5 7.2-37.46-4.27-49.08-20.2-13.73-18.87-18.36-48.94-2.53-65.8"/><path fill="none" stroke="#ffee7a" stroke-width="6" stroke-miterlimit="10" d="M4704.33-9671.5a76.52 76.52 90 0 0-70.65 1.56c-11.7 6.47-22.14 16.22-34.94 19.6"/><path fill="none" stroke="#ffee7a" stroke-width="6" stroke-miterlimit="10" d="M4925.2-9663.83h-36.38c-7.16 0-14.9.18-20.7 4.82-6.25 5-8.6 14.3-7.76 22.68s4.38 16.22 7.83 23.78c2.52 5.56 5.2 11.3 9.84 15.03 4.63 3.82 10.7 5.1 16.5 4.9 15-.35 29.64-10.37 35.7-25.13 6.06-14.85 2.95-33.7-8-44.74"/><path fill="none" stroke="#ffee7a" stroke-width="6" stroke-miterlimit="10" d="M5161.64-9821.73a478.5 478.5 90 0 1 67.28-7.56c19.28-.8 41.6 1.2 52.8 18.23"/><path fill="none" stroke="#ffee7a" stroke-width="6" stroke-miterlimit="10" d="M5790.2-9226.17a510.28 510.28 127 0 1 57.96 37.78c15.87 11.92 32.58 28.05 32.05 48.96"/><path fill="#f26941" d="M5322.15-8784.12c-8.6 2.85-18.03 5.7-26.4 2.15-4.45-1.83-8.14-5.32-11.77-8.74-7.84-7.48-15.68-14.9-23.53-22.37-4.45-4.24-8.96-8.6-11.6-14.3-2.4-5.2-2.98-11.1-3.56-16.86-.95-9.2-1.83-19 2.1-27.24 6.03-12.8 20.95-17.04 34.24-17.42a109.76 109.76 90 0 1 71.65 24.78c4.27 3.5 8.48 7.48 10.7 12.73 2.05 4.9 2.3 10.46 1.76 15.78-2.75 27.62-20.9 43.96-43.6 51.5z"/><path fill="none" stroke="#2de8f5" stroke-width="6" stroke-miterlimit="10" d="M4401.87-9152.06c-2.03 8.43 3.37 16.7 9.06 22.85 21.56 23.16 50.9 35.3 79.37 46.9 18.1 7.37 36.98 14.82 56.3 13.53 3.6-.25 7.4-.97 10.1-3.57 2.78-2.75 3.68-7.05 3.68-11.02 0-9.72-4.5-18.8-9.3-27.05-16.53-28.53-40.5-56.08-71.2-65.72-18.34-5.9-72.25.4-78 24.06z"/></g></g></svg>