<svg xmlns="http://www.w3.org/2000/svg" width="1920" height="983"><defs><clipPath id="a"><path fill="#bef7ff" d="M0 0h1920v983H0z"/></clipPath></defs><path fill="#bef7ff" d="M0 0h1920v983H0z"/><g clip-path="url(#a)"><g><path fill="#69debc" d="M1502.7-210.33v257.9h-274.16v-257.9z"/><path fill="#6140ff" d="M1502.7-210.33l-274.16 257.9v-257.9z"/><path fill="#6140ff" d="M1750.9 35.53L1635.16 144.4V35.54z"/><path fill="#6140ff" d="M1841.97 121.13l-115.82 108.95V121.13z"/><path fill="#6140ff" d="M1986.74-47.47L1870.9 61.48V-47.47z"/><path fill="#69debc" d="M1932.97 206.8l-115.75 108.87V206.8z"/><path fill="#6140ff" d="M263.32 304.54L147.57 413.42V304.54z"/><path fill="#69debc" d="M1537.7 884l115.75-108.94v108.96z"/><path fill="#6140ff" d="M1632.74 973.5l115.83-108.96V973.5z"/><path fill="#69debc" d="M1519.33 433.5l115.83-108.97V433.5z"/><path fill="#69debc" d="M368.98 468.72L253.15 577.68V468.72z"/><g><path fill="#6140ff" d="M1358.98 433.5c-75.58 0-137.07-57.86-137.07-128.96a121.9 121.9 90 0 1 6.4-38.88 127.98 127.98 90 0 1 36.42-54.62 141.13 141.13 90 0 1 94.26-35.44z"/></g><g><path fill="#6140ff" d="M1025.6 175.6c75.58 0 137.07 57.85 137.07 128.94a121.9 121.9 90 0 1-6.38 38.88 127.98 127.98 90 0 1-36.44 54.63 141.13 141.13 90 0 1-94.26 35.44z"/></g><g><path fill="#69debc" d="M829.3 175.6c75.57 0 137.06 57.85 137.06 128.94a121.9 121.9 90 0 1-6.38 38.88 127.98 127.98 90 0 1-36.43 54.63 141.13 141.13 90 0 1-94.26 35.44z"/></g><g><path fill="#69debc" d="M626.67 175.6c75.58 0 137.08 57.85 137.08 128.94a121.9 121.9 90 0 1-6.4 38.88 127.98 127.98 90 0 1-36.4 54.63 141.13 141.13 90 0 1-94.28 35.44z"/></g><g><path fill="#69debc" d="M235 958.48c-75.6 0-137.1-57.84-137.1-128.94a121.9 121.9 90 0 1 6.4-38.88 127.98 127.98 90 0 1 36.42-54.62A141.13 141.13 90 0 1 235 700.6z"/></g><path fill="#69debc" d="M1358.98 1260.44H1066.3v-192.28H850v-313.6h292.67l216.3 192.27z"/><path fill="#6140ff" d="M850 1068.16l216.3 192.35v-192.34z"/><path fill="#6140ff" d="M2071.88 1214.6l2-279.85-149.45 131.08z"/><path fill="#69debc" d="M682.26 1054.68l-167.73 157.78-167.74-157.78 167.73-157.8z"/><path fill="#6140ff" d="M476.18 931.54l-113.8 107.06-113.82-107.06 113.8-107.06z"/><path fill="#69debc" d="M295.23-130.24L-.32 147.78v-278.02z"/><path fill="#6140ff" d="M703.6-221.9l87.94 82.73-304.1 286.06-87.95-82.73z"/><path fill="#69debc" d="M742.45-39.87L788.4 3.35l-85.46 80.4L657 40.52z"/><path fill="#69debc" d="M1116.5-277.46l45.95 43.23-255.8 240.6-45.94-43.2z"/><path fill="#6140ff" d="M1623.84 532.68l45.95 43.22L1414 816.52l-45.95-43.23z"/><path fill="#6140ff" d="M1023.02 8.53l45.95 43.22-67.7 63.68-45.94-43.23z"/><path fill="#69debc" d="M1491.73 505.18l45.95 43.23-67.7 63.68-45.94-43.22z"/><path fill="#69debc" d="M752.64 590l11.06 10.4-11.06 10.4-11.06-10.4z"/><path fill="#6140ff" d="M651.16 743.8l11.06 10.4-11.06 10.4-11.06-10.4z"/><path fill="#6140ff" d="M296.48 649.95l11.06 10.4-11.06 10.4-11.07-10.4z"/><path fill="#69debc" d="M171.77 147.78l11.07 10.4-11.07 10.4-11.06-10.4z"/><path fill="#69debc" d="M966.34 459.8l11.06 10.4-11.06 10.4-11.06-10.4z"/><path fill="#69debc" d="M695.23 494.48l11.06 10.4-11.07 10.4-11.06-10.4z"/><path fill="#69debc" d="M1466.9 348.6l11.07 10.4-11.06 10.4-11.05-10.4z"/><path fill="#6140ff" d="M1918.43 368.56l11.06 10.4-11.07 10.42-11.06-10.4z"/><path fill="#6140ff" d="M1445.52 873.63l11.06 10.4-11.06 10.4-11.07-10.4z"/><path fill="#69debc" d="M480.87 379.76l11.06 10.4-11.06 10.4-11.06-10.4z"/><path fill="#69debc" d="M136.4 532.12l11.06 10.4-11.06 10.4-11.06-10.4z"/><path fill="#69debc" d="M742.83 898.18l11.06 10.4L742.82 919l-11.06-10.4z"/><path fill="#6140ff" d="M296.45 8.1l11.06 10.42-11.05 10.4-11.06-10.4z"/><path fill="#fe564a" d="M1162.64 25.1l11.06 10.4-11.06 10.42-11.06-10.4z"/><path fill="#69debc" d="M1817.2-88.44l11.07 10.4-11.06 10.4-11.05-10.4z"/><path fill="#69debc" d="M1618.38-47.93l11.06 10.4-11.06 10.4-11.06-10.4z"/><path fill="#6140ff" d="M1496.1 206.73l11.05 10.4-11.06 10.4-11.08-10.4z"/><path fill="#69debc" d="M1761.98 368.57l11.06 10.4-11.06 10.4-11.06-10.4z"/><path fill="#fe564a" d="M1806.14 713.35l11.06 10.4-11.06 10.4-11.06-10.4z"/><path fill="#6140ff" d="M1943.62 816.73l11.06 10.4-11.06 10.4-11.06-10.4z"/><path fill="#69debc" d="M1508.22 963.07l11.07 10.4-11.08 10.4-11.06-10.4z"/><path fill="#6140ff" d="M247.67 101.66L274.2 76.7l100.98 95-26.53 24.96z"/><path fill="#69debc" d="M412.6 207.66l26.5-24.95 101 95-26.53 24.96z"/><path fill="#6140ff" d="M479.92 640.27l26.52-24.95 81 76.2-26.52 24.95z"/><path fill="#69debc" d="M645.18 958.62l26.52-24.96 153.32 144.23-26.52 24.94z"/><path fill="#6140ff" d="M737.62 825.54l-33.3 31.32-33.3-31.32 33.3-31.32z"/></g></g></svg>