<svg xmlns="http://www.w3.org/2000/svg" width="130.649" height="105.661"><path fill="#6c5ce6" d="M96.46 6.9s-7.15 17.6-3.48 20.3c3.53 2.6 20.42-5.96 20.42-5.96s-10.85 10.34-9.02 12.95 26.22 3.17 26.22 3.17-26.47 4.1-27.18 13.35c-.6 7.58 10.6 11.35 10.6 11.35s-11.5-1.23-14.27 3.08c-4.5 7.08 16.7 22.27 16.7 22.27s-25.1-12.65-27.84-5.98c-2.27 5.54 1.63 11.3 1.63 11.3s-5.94-10.04-12.1-6.8a19.5 19.5 0 0 0-10.2 14.95s-3.9-18.33-10.35-18c-7.5.36-17.68 22.76-17.68 22.76s6.07-23.74 3.43-24.06c-1.9-.24-10.2 12.78-10.2 12.78s4.93-14.54 1.5-17.33-19.4 3.8-19.4 3.8 19.18-8.9 15-13.5S.92 73 .92 73 27.5 62.16 28.17 57.2c1-7.1-17.08-9.73-17.08-9.73s14.9 3.96 19.18-6.92c2.96-7.55-12.9-26.82-12.9-26.82s14.68 10.74 20.1 7.07c4.3-2.9 4.85-12.9 4.85-12.9l-.02-.05s4.6 8.94 8.35 7.93c1.28-.34 3.72-.9 7.96-14 0 0 2.3 17.03 7.9 17.44 8.03.6 11.37-12.8 11.37-12.8s.85 9.8 6.5 10.68c4.8.76 12.14-10.26 12.14-10.26"/><g fill="#fff"><path d="M106.05 66.88c1.8.18 3.56.46 5.32.78s3.5.68 5.26 1.07 3.48.83 5.2 1.3 3.44.98 5.13 1.6c-1.8-.18-3.56-.46-5.32-.78s-3.5-.68-5.25-1.07-3.5-.83-5.2-1.3-3.45-1-5.15-1.6z"/><path d="M104.7 68.97c1.7.64 3.33 1.38 4.94 2.14s3.22 1.6 4.8 2.42 3.14 1.7 4.68 2.62 3.06 1.85 4.54 2.88c-1.68-.64-3.32-1.38-4.94-2.14s-3.2-1.58-4.8-2.42-3.13-1.7-4.67-2.6-3.06-1.86-4.54-2.9z"/></g><g fill="#fff"><path d="M98.67 16.7c.95-1.54 2-3 3.04-4.44S103.88 9.4 105 8s2.27-2.75 3.45-4.1 2.4-2.65 3.7-3.9c-.96 1.53-2 3-3.05 4.44s-2.15 2.85-3.28 4.24-2.27 2.76-3.46 4.1-2.4 2.66-3.7 3.9z"/><path d="M99.96 18.82c1.32-1.23 2.7-2.37 4.1-3.5s2.83-2.18 4.28-3.23 2.9-2.08 4.4-3.06 3.02-1.94 4.6-2.8c-1.32 1.22-2.7 2.36-4.1 3.48s-2.84 2.18-4.28 3.23-2.92 2.07-4.4 3.06-3.02 1.95-4.6 2.82z"/></g><g fill="#fff"><path d="M26.5 87c-.9 1.57-1.86 3.08-2.85 4.57s-2.03 2.94-3.1 4.38-2.13 2.86-3.25 4.26-2.28 2.77-3.52 4.08c.88-1.57 1.85-3.08 2.84-4.57s2.03-2.94 3.1-4.38 2.13-2.86 3.25-4.25S25.25 88.3 26.5 87z"/><path d="M25.1 84.93c-1.26 1.3-2.6 2.5-3.93 3.67s-2.73 2.32-4.13 3.43-2.8 2.2-4.26 3.25-2.92 2.07-4.46 3c1.26-1.27 2.6-2.48 3.94-3.65s2.72-2.32 4.12-3.43 2.82-2.2 4.27-3.25 2.92-2.08 4.45-3.02z"/></g><g fill="#fff"><path d="M21.06 36.74c-1.8-.13-3.58-.36-5.35-.62s-3.52-.56-5.27-.9-3.5-.72-5.25-1.14S1.7 33.2 0 32.65c1.8.12 3.57.35 5.34.6s3.54.58 5.3.92 3.5.72 5.23 1.13 3.47.88 5.2 1.44z"/><path d="M22.33 34.6c-1.7-.6-3.36-1.27-5-2s-3.26-1.46-4.86-2.25-3.2-1.6-4.77-2.46-3.12-1.76-4.63-2.75c1.7.6 3.36 1.27 5 2s3.26 1.46 4.87 2.25 3.2 1.6 4.76 2.46 3.12 1.76 4.63 2.74z"/></g><g fill="#6140ff"><path d="M60.35 11.28c.22.77.47 1.55.76 2.3a20.8 20.8 0 0 0 1 2.27 11.58 11.58 0 0 0 1.36 2.1 6.35 6.35 0 0 0 .93.93 4.32 4.32 0 0 0 1.18.68 3.32 3.32 0 0 0 .7.17 3.04 3.04 0 0 0 .33.03c.12 0 .23 0 .33 0a7.23 7.23 0 0 0 1.3-.1 7.43 7.43 0 0 0 2.42-.86 9.64 9.64 0 0 0 2-1.53 13.7 13.7 0 0 0 1.6-1.9c.24-.34.47-.68.68-1.03s.4-.7.6-1.07q.56-1.1 1.02-2.22c.3-.75.56-1.5.8-2.3a22.52 22.52 0 0 0 .58-2.33c-.13.38-.27.76-.42 1.13s-.28.74-.44 1.1c-.3.75-.64 1.48-1 2.2s-.73 1.4-1.15 2.07a21.13 21.13 0 0 1-1.32 1.95q-.36.46-.76.9t-.8.8a11.02 11.02 0 0 1-.9.74 8 8 0 0 1-.96.6 7.16 7.16 0 0 1-1.02.46 6.4 6.4 0 0 1-1.08.27 6.25 6.25 0 0 1-1.1.08c-.1 0-.2 0-.28 0a2.15 2.15 0 0 1-.26-.02 2.48 2.48 0 0 1-.48-.12 4.22 4.22 0 0 1-1.68-1.28 11.23 11.23 0 0 1-1.27-1.9 28.9 28.9 0 0 1-1.86-4.35c-.52-1.5-.97-3.04-1.38-4.6s-.77-3.1-1.12-4.67c.12 1.6.35 3.2.62 4.8a47.78 47.78 0 0 0 1.1 4.72z"/><path d="M78.06 9.23c.05.3.1.62.17.93a14.6 14.6 0 0 0 1.26 3.6 9.54 9.54 0 0 0 1.06 1.66 6.7 6.7 0 0 0 1.48 1.35 5.42 5.42 0 0 0 1.9.8c.16.02.32.06.5.07a3.74 3.74 0 0 0 .55.02 4.57 4.57 0 0 0 1.02-.18 7.6 7.6 0 0 0 1.8-.82 13.6 13.6 0 0 0 1.58-1.12 24.24 24.24 0 0 0 2.7-2.65c.84-.95 1.62-1.93 2.35-2.94.37-.5.72-1.02 1.07-1.54.3-.48.6-.96.9-1.44-.37.78-.7 1.57-1.04 2.36-.35.83-.67 1.67-1 2.5s-.6 1.7-.9 2.54q-.2.64-.4 1.28t-.4 1.3a34.9 34.9 0 0 0-1.14 5.32c-.05.45-.1.9-.1 1.38a9.84 9.84 0 0 0 .04 1.4 5.23 5.23 0 0 0 .35 1.46 2.96 2.96 0 0 0 .4.7 2.32 2.32 0 0 0 .66.56 3.7 3.7 0 0 0 1.5.43 8.02 8.02 0 0 0 1.42 0 17.48 17.48 0 0 0 2.73-.5 41.9 41.9 0 0 0 5.15-1.7q.63-.26 1.25-.52t1.24-.54c.8-.36 1.62-.75 2.43-1.14 1.6-.8 3.2-1.62 4.75-2.53-3.3 1.37-6.63 2.72-10 3.9a52.55 52.55 0 0 1-5.08 1.53q-.64.15-1.28.26c-.43.08-.86.14-1.3.17a7.57 7.57 0 0 1-1.23 0 2.7 2.7 0 0 1-1.08-.27 1.27 1.27 0 0 1-.36-.3 1.97 1.97 0 0 1-.28-.46 4.23 4.23 0 0 1-.28-1.16 12.18 12.18 0 0 1 0-2.57c.1-.87.22-1.74.4-2.6s.34-1.75.54-2.6q.16-.66.33-1.3t.34-1.3c.24-.87.5-1.72.75-2.58.5-1.7 1.04-3.4 1.6-5.07.02-.04.04-.07.06-.1l-.04.06v-.03s0 0 0 .02a63.22 63.22 0 0 1-4.85 5.5 27.22 27.22 0 0 1-2.74 2.43 13.2 13.2 0 0 1-1.5 1 6.8 6.8 0 0 1-1.6.67 3.8 3.8 0 0 1-.8.12 2.67 2.67 0 0 1-.4 0 3.85 3.85 0 0 1-.4-.1 4.67 4.67 0 0 1-1.53-.65 6.2 6.2 0 0 1-1.28-1.13 9.9 9.9 0 0 1-1.02-1.44 18.44 18.44 0 0 1-1.48-3.32 34.05 34.05 0 0 1-1-3.57 14.7 14.7 0 0 0 .1 1.9q.03.46.1.93z"/><path d="M105.86 28.95a17.53 17.53 0 0 0-1.5 2.3 6.86 6.86 0 0 0-.56 1.33 3.3 3.3 0 0 0-.13.8 1.92 1.92 0 0 0 .17.88 1.6 1.6 0 0 0 .12.22c.03.03.06.07.1.1s.04.07.07.1a2.12 2.12 0 0 0 .35.27 4.22 4.22 0 0 0 .68.35 10.62 10.62 0 0 0 1.34.45c.9.24 1.78.4 2.67.55 1.8.3 3.58.48 5.37.63.9.08 1.78.14 2.68.2s1.8.1 2.68.14c3.6.15 7.17.2 10.75.1-3.57-.3-7.14-.57-10.7-.88-.88-.1-1.77-.17-2.66-.26s-1.78-.18-2.67-.27c-1.77-.2-3.54-.4-5.28-.7-.87-.15-1.74-.32-2.58-.54a9.7 9.7 0 0 1-1.2-.4 3.3 3.3 0 0 1-.5-.25 1.12 1.12 0 0 1-.2-.14l-.02-.03s-.02 0-.02 0a.6.6 0 0 1-.05-.1.89.89 0 0 1-.08-.4 2.32 2.32 0 0 1 .1-.54 6.27 6.27 0 0 1 .44-1.15 18.4 18.4 0 0 1 1.35-2.2c.5-.74 1.03-1.45 1.57-2.15s1.1-1.4 1.7-2.07l.85-1.02q.44-.5.88-1t.9-1.02l.88-1c-1.38 1.15-2.7 2.38-3.95 3.66a42.87 42.87 0 0 0-3.57 4.05z"/><path d="M124.66 38.24c-1 .2-2 .4-2.97.64s-1.98.5-2.96.76a54.58 54.58 0 0 0-5.78 1.94 30.2 30.2 0 0 0-5.47 2.8c-.44.28-.86.6-1.27.92a13.9 13.9 0 0 0-1.16 1.06 10.14 10.14 0 0 0-1 1.24 6.7 6.7 0 0 0-.77 1.44 5.78 5.78 0 0 0-.36 1.6 7.67 7.67 0 0 0 .06 1.62 7.77 7.77 0 0 0 .4 1.55 8.83 8.83 0 0 0 .68 1.45 10.07 10.07 0 0 0 .9 1.28 11.72 11.72 0 0 0 1.08 1.13 17.1 17.1 0 0 0 2.44 1.88q.65.4 1.33.77c.44.26.9.48 1.36.7a21.44 21.44 0 0 0 2.83 1.07q-.7-.3-1.37-.63t-1.34-.7a24.45 24.45 0 0 1-2.52-1.62 16.86 16.86 0 0 1-2.25-1.94 11 11 0 0 1-1.75-2.34 7.44 7.44 0 0 1-.87-2.7 7.07 7.07 0 0 1-.02-1.4 4.8 4.8 0 0 1 .34-1.33 5.96 5.96 0 0 1 .67-1.2 9.1 9.1 0 0 1 .92-1.1 13.66 13.66 0 0 1 1.08-.97c.38-.3.77-.6 1.18-.86a24.77 24.77 0 0 1 2.56-1.5c.88-.45 1.8-.86 2.7-1.25s1.86-.75 2.8-1.1c.47-.18.94-.34 1.42-.5s.94-.33 1.42-.48c.96-.3 1.92-.6 2.88-.88s1.94-.55 2.9-.8c1.96-.53 3.92-1 5.9-1.44-2.03.2-4.02.55-6 .92z"/><path d="M108.44 61.63a19.64 19.64 0 0 0-5.6.83 7.66 7.66 0 0 0-2.6 1.38 5.27 5.27 0 0 0-.55.54 3.98 3.98 0 0 0-.46.64 4.5 4.5 0 0 0-.54 1.46 5.2 5.2 0 0 0-.05 1.54 7.98 7.98 0 0 0 .3 1.46 12 12 0 0 0 .54 1.36c.2.44.42.87.66 1.28a28.17 28.17 0 0 0 3.42 4.53q.95 1.05 1.96 2.03.5.5 1 .98t1.05.94c.7.63 1.4 1.24 2.1 1.83s1.47 1.18 2.2 1.75c1.5 1.12 3 2.22 4.57 3.22-1.43-1.2-2.85-2.4-4.23-3.63-.7-.6-1.4-1.23-2.07-1.86s-1.36-1.25-2.02-1.9c-1.32-1.3-2.6-2.63-3.8-4.02-.6-.7-1.2-1.4-1.75-2.13a22.62 22.62 0 0 1-1.52-2.27c-.23-.38-.43-.78-.63-1.2a11.04 11.04 0 0 1-.5-1.22 6.9 6.9 0 0 1-.27-1.26 4.35 4.35 0 0 1 0-1.24 3.5 3.5 0 0 1 .4-1.15 3.66 3.66 0 0 1 .78-.96 5.7 5.7 0 0 1 1.05-.74 8.73 8.73 0 0 1 1.2-.56 15.87 15.87 0 0 1 2.64-.7 26.73 26.73 0 0 1 2.73-.38c.92-.1 1.85-.14 2.77-.16q.7-.02 1.4-.02c.46 0 .93 0 1.4.02-.92-.14-1.85-.24-2.8-.3s-1.86-.08-2.8-.07z"/><path d="M107.06 82.72c-1.62-.7-3.26-1.32-4.93-1.88q-1.25-.43-2.52-.8c-.84-.23-1.7-.45-2.56-.63a24.87 24.87 0 0 0-2.64-.4 12.8 12.8 0 0 0-2.73-.02 6.64 6.64 0 0 0-1.38.32 3.85 3.85 0 0 0-1.3.73 3.07 3.07 0 0 0-.5.58l-.1.18c-.02.02-.04.05-.05.08l-.04.08-.07.18-.04.08-.04.08-.1.33c-.03.06-.05.1-.07.17l-.06.16-.1.33c-.03.1-.05.22-.08.34a9.96 9.96 0 0 0-.2 1.34 10.4 10.4 0 0 0-.02 1.36c0 .22.03.45.05.67 0 .1.02.22.03.34s.03.23.05.34l.06.33.06.33c.02.1.05.2.08.32s.05.22.08.33a15.26 15.26 0 0 0 .93 2.48c.02.08.07.16.1.24q-.53-.8-1.14-1.55a15.37 15.37 0 0 0-3.18-2.98 8.9 8.9 0 0 0-1.98-1.03 6.26 6.26 0 0 0-2.27-.37 5.9 5.9 0 0 0-2.26.52c-.17.08-.35.17-.5.26l-.48.27-.25.14-.23.15-.47.3a18.33 18.33 0 0 0-5.96 6.28c-.2.32-.36.64-.52.97s-.3.65-.46.98a20.14 20.14 0 0 0-.73 2.04 19.08 19.08 0 0 0-.5 2.1 13.28 13.28 0 0 0-.23 2.13c.06-.35.14-.7.22-1.04s.17-.68.27-1c.2-.7.44-1.36.7-2A21.75 21.75 0 0 1 71 93.06a19.6 19.6 0 0 1 5.83-5.84l.44-.27.22-.14.2-.13c.3-.17.62-.36.9-.5a4.95 4.95 0 0 1 1.87-.46 5.52 5.52 0 0 1 1.93.26 8.7 8.7 0 0 1 1.83.84 13.9 13.9 0 0 1 1.7 1.2 19.03 19.03 0 0 1 1.54 1.43c.5.5.97 1.02 1.43 1.56.23.27.45.54.67.82s.44.56.65.85c-.22-.38-.4-.77-.58-1.17s-.34-.8-.5-1.2-.27-.83-.4-1.24-.2-.85-.28-1.27a12.3 12.3 0 0 1-.24-2.54v-.33l.03-.3v-.17l.03-.16.04-.3a9.87 9.87 0 0 1 .25-1.24c.03-.1.05-.2.08-.3l.1-.3.05-.15c.02-.05.04-.1.06-.14l.12-.28.02-.08.04-.06.06-.12.03-.06c0-.02.02-.04.04-.05l.07-.12a2.13 2.13 0 0 1 .37-.4 3 3 0 0 1 1-.5 5.58 5.58 0 0 1 1.18-.25 12.28 12.28 0 0 1 2.5.05 24.57 24.57 0 0 1 2.53.42c.85.17 1.68.38 2.52.6s1.66.5 2.5.75c1.64.52 3.28 1.1 4.9 1.7.83.3 1.64.6 2.46.92s1.62.63 2.43.96c1.63.64 3.25 1.3 4.86 1.98-1.5-.88-3.07-1.68-4.64-2.46s-3.15-1.5-4.77-2.18z"/><path d="M66.53 94.56q-.46-1.55-1-3.08t-1.27-3c-.23-.5-.48-.98-.74-1.46s-.56-.95-.88-1.4a9.54 9.54 0 0 0-2.32-2.46 4.8 4.8 0 0 0-1.62-.75 3.9 3.9 0 0 0-.92-.1 4.6 4.6 0 0 0-.9.1 6.37 6.37 0 0 0-1.64.6 10.47 10.47 0 0 0-1.43.9 18.87 18.87 0 0 0-2.44 2.25q-1.1 1.2-2.1 2.5t-1.87 2.67c-.6.9-1.18 1.82-1.73 2.75s-1.08 1.87-1.6 2.82-1 1.9-1.5 2.86c-.94 1.93-1.84 3.88-2.64 5.88 1-1.9 2.04-3.78 3.1-5.64q.8-1.4 1.65-2.77c.55-.9 1.1-1.82 1.7-2.72 1.16-1.8 2.37-3.55 3.68-5.22.66-.83 1.34-1.64 2.07-2.4a18.2 18.2 0 0 1 2.3-2.1 9.55 9.55 0 0 1 1.3-.83 5.4 5.4 0 0 1 1.36-.5 3.66 3.66 0 0 1 .7-.1 2.8 2.8 0 0 1 .67.08 3.87 3.87 0 0 1 1.3.58 8.87 8.87 0 0 1 2.12 2.17c.3.42.58.86.85 1.3s.53.92.78 1.4c.5.93.93 1.9 1.35 2.88s.8 1.98 1.17 3c.73 2 1.37 4.05 1.96 6.12-.17-1.06-.4-2.12-.63-3.17s-.54-2.1-.84-3.14z"/><path d="M43.76 90.58c.3-1.7.6-3.4.74-5.15.04-.44.07-.88.08-1.32a10.74 10.74 0 0 0-.04-1.35 4.46 4.46 0 0 0-.13-.72 2.15 2.15 0 0 0-.14-.4 1.24 1.24 0 0 0-.34-.43.96.96 0 0 0-.3-.16.98.98 0 0 0-.18-.03c-.06 0-.12 0-.18 0a1.3 1.3 0 0 0-.27.06 1.46 1.46 0 0 0-.22.1 3.24 3.24 0 0 0-.64.4 10.14 10.14 0 0 0-.98.95c-.3.34-.58.67-.86 1-.56.7-1.08 1.38-1.6 2.08-1 1.4-1.96 2.85-2.9 4.3s-1.8 2.94-2.64 4.45c1.03-1.4 2.05-2.78 3.08-4.15s2.07-2.75 3.13-4.1c.54-.66 1.08-1.32 1.64-1.96q.43-.48.87-.93a9 9 0 0 1 .9-.84 2.43 2.43 0 0 1 .44-.28.46.46 0 0 1 .1-.04.38.38 0 0 1 .03.06 1.14 1.14 0 0 1 .07.2 3.4 3.4 0 0 1 .1.56 10.3 10.3 0 0 1 0 1.22c0 .42-.03.84-.06 1.26-.08.84-.18 1.7-.3 2.54s-.25 1.7-.38 2.53c-.28 1.7-.58 3.4-.9 5.1-.62 3.37-1.3 6.74-1.92 10.14 1.06-3.3 1.95-6.62 2.74-9.98q.6-2.53 1.08-5.08z"/><path d="M35.98 85.16c.15-.8.28-1.58.36-2.4a16.94 16.94 0 0 0 .1-2.44 9.44 9.44 0 0 0-.13-1.25 5.62 5.62 0 0 0-.34-1.26 3.23 3.23 0 0 0-.15-.3c-.05-.1-.1-.2-.18-.3a2.82 2.82 0 0 0-.48-.54 1.43 1.43 0 0 0-.15-.12c-.06-.04-.1-.08-.16-.1a3.02 3.02 0 0 0-.32-.18 3.85 3.85 0 0 0-.65-.25 6.47 6.47 0 0 0-1.28-.2 10.94 10.94 0 0 0-1.26 0 20.24 20.24 0 0 0-2.44.3 40.08 40.08 0 0 0-4.68 1.2c-1.53.46-3.04 1-4.52 1.6-.42.15-.83.33-1.24.5q1.4-.67 2.8-1.4 1.45-.78 2.86-1.63c.47-.28.94-.58 1.4-.88s.92-.63 1.37-.96a20.8 20.8 0 0 0 2.55-2.14 10.23 10.23 0 0 0 1.12-1.3 6.2 6.2 0 0 0 .45-.78c.08-.13.13-.28.2-.42a3.95 3.95 0 0 0 .13-.45 2.7 2.7 0 0 0 .06-1 2.66 2.66 0 0 0-.3-.95 3.25 3.25 0 0 0-.64-.77c-.06-.05-.13-.1-.2-.15l-.1-.07c-.03 0-.06-.03-.1-.06l-.2-.12c-.06-.04-.13-.07-.2-.1a6.04 6.04 0 0 0-1.73-.5 11.95 11.95 0 0 0-1.7-.1 24 24 0 0 0-3.36.26c-1.1.17-2.18.37-3.26.6-2.14.5-4.26 1.1-6.35 1.77q-1.32.43-2.63.88 1.34-.58 2.67-1.2l1.5-.7q.75-.36 1.5-.73c1-.5 2-1 2.97-1.53A55.74 55.74 0 0 0 25 61.5c.46-.32.9-.66 1.35-1.02a12.88 12.88 0 0 0 1.27-1.17c.1-.1.2-.2.3-.33l.14-.17c.04-.06.1-.13.13-.2a3.7 3.7 0 0 0 .45-.83c.03-.08.06-.16.08-.25s.04-.17.06-.26v-.23a2.23 2.23 0 0 0 .02-.24v-.24c0-.08 0-.16 0-.23a4.2 4.2 0 0 0-.07-.47 4.85 4.85 0 0 0-.7-1.7 7.06 7.06 0 0 0-1.16-1.36 12.9 12.9 0 0 0-2.86-1.9 30.76 30.76 0 0 0-6.32-2.27c-.34-.1-.7-.16-1.04-.24.35 0 .7.03 1.06.04.56 0 1.12-.02 1.68-.05s1.12-.1 1.67-.2a15.58 15.58 0 0 0 3.27-.9 11.97 11.97 0 0 0 2.97-1.73 11.08 11.08 0 0 0 2.33-2.54 11.5 11.5 0 0 0 .84-1.5c.14-.26.25-.53.36-.8a5.43 5.43 0 0 0 .26-.87 7.38 7.38 0 0 0 .14-1.77 11.58 11.58 0 0 0-.2-1.73 19.75 19.75 0 0 0-.94-3.25c-.4-1.05-.86-2.07-1.35-3.07s-1.02-1.98-1.58-2.93-1.15-1.9-1.76-2.83c-.3-.48-.6-.94-.9-1.4s-.64-.9-.96-1.36c-.64-.9-1.3-1.8-1.97-2.67s-1.34-1.75-2.04-2.6-1.4-1.7-2.15-2.52q1.98 2.66 3.83 5.4c.6.9 1.22 1.83 1.82 2.75q.44.7.87 1.4c.3.46.58.93.87 1.4q.83 1.4 1.62 2.85c.52.96 1.02 1.93 1.5 2.92s.88 2 1.25 3a19.24 19.24 0 0 1 .86 3.1 8.1 8.1 0 0 1 .05 3.07 4.36 4.36 0 0 1-.2.7c-.1.25-.2.5-.32.73a11.3 11.3 0 0 1-.76 1.4 10.5 10.5 0 0 1-2.08 2.34 11.53 11.53 0 0 1-2.7 1.67 14.82 14.82 0 0 1-3.06.97 21.32 21.32 0 0 1-3.23.42c-.55.02-1.1.04-1.64.03s-1.1-.03-1.65-.07c-.38-.02-.75-.06-1.12-.1-.72-.1-1.44-.2-2.17-.28a20.7 20.7 0 0 0 2.55.6c.24.04.47.1.7.16 1.07.3 2.13.58 3.18.92s2.1.7 3.1 1.1a26.6 26.6 0 0 1 2.97 1.4 15.4 15.4 0 0 1 1.37.85 10.4 10.4 0 0 1 1.23 1 6.4 6.4 0 0 1 .98 1.2 3.84 3.84 0 0 1 .52 1.35 3.1 3.1 0 0 1 .04.36c0 .06 0 .12 0 .18v.18a1.36 1.36 0 0 1 0 .18l-.03.18c0 .05-.03.1-.03.14s-.04.1-.06.15a2.7 2.7 0 0 1-.34.6c-.04.04-.07.1-.1.14l-.13.15c-.07.1-.16.18-.25.27a12.26 12.26 0 0 1-1.17 1.08c-.42.34-.85.66-1.3.97-.88.63-1.8 1.23-2.74 1.8s-1.9 1.1-2.86 1.65c-1.92 1.08-3.88 2.1-5.85 3.1-3.96 2-7.95 3.9-11.96 5.8 2.08-.7 4.15-1.4 6.24-2.06q1.57-.5 3.14-.96c1.04-.3 2.1-.62 3.14-.9 2.1-.6 4.2-1.14 6.34-1.58 1.06-.22 2.13-.4 3.2-.55a23.42 23.42 0 0 1 3.2-.24 11.06 11.06 0 0 1 1.56.1 5.07 5.07 0 0 1 1.43.4c.06.02.1.04.16.07l.15.1c.03 0 .06.02.08.03l.07.05c.04.05.1.08.13.1a2.25 2.25 0 0 1 .42.5 1.62 1.62 0 0 1 .2.58 1.78 1.78 0 0 1-.04.64 2.9 2.9 0 0 1-.1.33c-.04.1-.07.23-.13.33a5.3 5.3 0 0 1-.37.65 9.96 9.96 0 0 1-.98 1.2c-.36.4-.75.76-1.15 1.12s-.82.7-1.24 1.03c-.86.67-1.75 1.3-2.65 1.9s-1.83 1.2-2.76 1.76c-1.87 1.14-3.77 2.22-5.7 3.26 1.52-.5 3.04-.97 4.57-1.43s3.05-.9 4.58-1.28 3.07-.75 4.62-1a20.85 20.85 0 0 1 2.3-.24 10.65 10.65 0 0 1 1.15 0 5.47 5.47 0 0 1 1.07.17 2.2 2.2 0 0 1 .85.42 1.75 1.75 0 0 1 .3.34 2.33 2.33 0 0 1 .12.2c.02.04.04.07.06.1l.05.13a4.6 4.6 0 0 1 .3 1.02 9.37 9.37 0 0 1 .15 1.12 17.7 17.7 0 0 1-.03 2.32c-.02.38-.06.76-.1 1.15s-.1.78-.15 1.17c-.1.78-.24 1.56-.38 2.34s-.3 1.55-.46 2.33c-.32 1.54-.7 3.08-1.08 4.63.6-1.48 1.12-3 1.6-4.5a47.08 47.08 0 0 0 1.16-4.67z"/><path d="M21.1 16.45q.46.32.94.63t.97.6c.67.4 1.32.78 2 1.15a36.58 36.58 0 0 0 4.15 2 22.3 22.3 0 0 0 2.2.74 14.3 14.3 0 0 0 2.3.46 8.06 8.06 0 0 0 2.43-.06 5.28 5.28 0 0 0 1.2-.38 4.35 4.35 0 0 0 .56-.33c.1-.05.17-.12.26-.18s.16-.14.24-.2a7.1 7.1 0 0 0 .87-.87 9.15 9.15 0 0 0 .7-.98A10.96 10.96 0 0 0 40.5 18c.17-.35.33-.7.47-1.07a19 19 0 0 0 .7-2.22c.1-.36.18-.74.26-1.1s.15-.77.2-1.15.13-.76.17-1.14.07-.75.1-1.13c.06-.76.1-1.52.06-2.28.24.52.5 1.05.77 1.56.28.54.57 1.06.9 1.58a20.12 20.12 0 0 0 2.14 2.94 10.56 10.56 0 0 0 1.35 1.28 5.28 5.28 0 0 0 1.7.93 3.08 3.08 0 0 0 1.04.12 2.83 2.83 0 0 0 .53-.08c.15-.03.3-.07.47-.12a3.87 3.87 0 0 0 .93-.43 4.8 4.8 0 0 0 .78-.63 9.08 9.08 0 0 0 1.2-1.46 17.6 17.6 0 0 0 .96-1.58 30.3 30.3 0 0 0 1.5-3.32 45.9 45.9 0 0 0 2.04-6.94c-.13.28-.25.55-.37.83s-.24.54-.36.8c-.22.57-.47 1.1-.7 1.67-.47 1.1-.94 2.2-1.44 3.27-.24.54-.5 1.08-.76 1.6s-.52 1.07-.8 1.58-.6 1-.9 1.5c-.1.1-.17.23-.26.35s-.17.23-.26.34a7.06 7.06 0 0 1-.54.64 4.42 4.42 0 0 1-.6.5 2.86 2.86 0 0 1-.7.37c-.12.05-.25.1-.4.14a1.9 1.9 0 0 1-.35.06 2.23 2.23 0 0 1-.75-.07 4.54 4.54 0 0 1-1.47-.7 10.53 10.53 0 0 1-1.33-1.13 23.93 23.93 0 0 1-2.3-2.7c-.72-.95-1.4-1.94-2.03-2.96 0 .02.02.04.03.05q-.38 2.24-.94 4.43a28.3 28.3 0 0 1-1.4 4.24 13.56 13.56 0 0 1-1.05 1.92 8.14 8.14 0 0 1-.64.85 6.1 6.1 0 0 1-.73.73c-.07.06-.14.1-.2.16s-.14.1-.2.15a3.4 3.4 0 0 1-.44.23 4.2 4.2 0 0 1-.96.3 7.35 7.35 0 0 1-2.1.08 14.6 14.6 0 0 1-2.16-.4c-.35-.1-.7-.2-1.06-.3s-.7-.23-1.06-.36a42.84 42.84 0 0 1-4.14-1.77q-1.03-.48-2.03-1-.5-.28-1-.55t-.98-.55c-1.32-.74-2.63-1.5-3.92-2.3.6.47 1.2.93 1.8 1.37s1.26.9 1.9 1.3z"/></g><g><g fill="#6140ff"><path d="M117.18 23.22a2.27 2.27 0 0 0-1.2-1.08 29.43 29.43 0 0 0-2.95-1.17q-1.5-.5-2.85-.87a5.46 5.46 0 0 0-1.9-.27 2.33 2.33 0 0 0-1.34.57 5.7 5.7 0 0 0-1.16 1.48q-.56.97-1.33 2.48-.77 1.32-1.58 2.8t-1.58 2.97q-.78 1.48-1.5 2.9t-1.24 2.6q-.5-3.4-.8-5.35t-.43-3q-.15-1.06-.2-1.47a6 6 0 0 1-.04-.7q-.14-.63-.25-1.12a2.9 2.9 0 0 0-.38-.9 2.95 2.95 0 0 0-.72-.78 5.1 5.1 0 0 0-1.25-.65q-1.25-.46-2.5-.8a28 28 0 0 0-3-.6 2.97 2.97 0 0 0-1.7.1 2.1 2.1 0 0 0-.85 1.4q-.3 1.55-.63 3.58t-.65 4.3q-.32 2.28-.6 4.62-.26 2.2-.47 4.27-.1-1.18-.17-2.35-.23-3.3-.37-6.33t-.16-5.4a2.94 2.94 0 0 0-.32-1.52 2.13 2.13 0 0 0-1.38-.83q-.77-.14-1.53-.3t-1.65-.3q-.9-.1-1.96-.16t-2.4 0a3.52 3.52 0 0 0-2.3.64 4.33 4.33 0 0 0-1.16 1.56q-1.16 2.6-2.4 5.9-1 2.67-1.96 5.4a12.77 12.77 0 0 0-.1-1.48 12.24 12.24 0 0 0-4.04-7.4 11.15 11.15 0 0 0-3.5-1.93 12.83 12.83 0 0 0-3.87-.65 19.29 19.29 0 0 0-3.9.33 21.1 21.1 0 0 0-6.5 2.4l-1.3 19.86q-.38-3.2-.7-6.4-.35-3.28-.6-6.3t-.34-5.4a2.94 2.94 0 0 0-.38-1.5 2.13 2.13 0 0 0-1.4-.8q-.8-.1-1.55-.23t-1.66-.23q-.88-.1-1.95-.1t-2.4.08a3.5 3.5 0 0 0-2.3.72 4.32 4.32 0 0 0-1.1 1.6q-1.06 2.63-2.2 5.97t-2.17 6.78q-1.05 3.42-1.93 6.62t-1.4 5.56a3.75 3.75 0 0 0-.03 1.12 1.26 1.26 0 0 0 .78 1.03q.3.15.74.36.56.2 1.1.35t.97.25a2.14 2.14 0 0 0 1.16.02 1.1 1.1 0 0 0 .56-.74q.33-1.1.68-2.26t.85-2.52a38.14 38.14 0 0 1 4.2-1.37q2.4-.64 4.82-1.28.27 1.33.5 2.45t.5 2.05a2.57 2.57 0 0 0 .6 1.22 2.3 2.3 0 0 0 1.16.46 5.7 5.7 0 0 0 1.5.12q.74-.04 1.6-.14a1.76 1.76 0 0 0 1.06-.37 1.1 1.1 0 0 0 .13-.86q-.17-1.25-.34-2.6a2.8 2.8 0 0 0 .3.32c.2.2.4.37.64.57q.9.63 1.6 1.06a17.37 17.37 0 0 0 1.65.85 4.46 4.46 0 0 0 3.52.2 24.32 24.32 0 0 0 5.84-2.63 21.8 21.8 0 0 0 4.4-3.6 19.72 19.72 0 0 0 1.64-2q-.62 2.1-1.04 3.76a3.74 3.74 0 0 0-.08 1.12 1.25 1.25 0 0 0 .74 1.06q.3.16.73.38.55.22 1.08.4t.97.28a2.13 2.13 0 0 0 1.15.06 1.08 1.08 0 0 0 .58-.7q.36-1.1.76-2.25t.92-2.5a38.2 38.2 0 0 1 4.25-1.2q2.42-.58 4.85-1.13.22 1.34.42 2.46t.42 2.07a2.57 2.57 0 0 0 .56 1.24 2.3 2.3 0 0 0 1.15.5 5.7 5.7 0 0 0 1.5.17q.74 0 1.6-.1a1.76 1.76 0 0 0 1.07-.32 1.1 1.1 0 0 0 .17-.84q-.02-.37-.06-.76a10 10 0 0 0 1.44.6q.77.24 1.53.4a1.64 1.64 0 0 0 1.1 0 1.16 1.16 0 0 0 .43-.78q.14-1.4.4-3.23t.6-3.88q.33-2.08.74-4.32t.85-4.48q.48 3.3 1.07 6.4t1.24 5.5c.1.36.2.67.3.9a2.47 2.47 0 0 0 .35.62 1.57 1.57 0 0 0 .45.4 4.22 4.22 0 0 0 .63.3 19.42 19.42 0 0 0 2.3.6 2.53 2.53 0 0 0 .7.07.94.94 0 0 0 .43-.1.8.8 0 0 0 .3-.3q.1-.23.27-.6.53-1.14 1.42-2.87t1.92-3.67q1.05-1.94 2.16-3.95t2.1-3.7q-.56 1.93-1.05 4t-.9 3.98q-.4 1.9-.7 3.47T104.6 46a1.7 1.7 0 0 0 1.07 2.18 6.67 6.67 0 0 0 1.38.57q.8.23 1.55.4.86.2 1.16-.06a2.2 2.2 0 0 0 .53-.87q.26-1.15.73-2.9t1.06-3.82q.57-2.06 1.23-4.34t1.3-4.48q.66-2.2 1.3-4.22t1.13-3.56a2.54 2.54 0 0 0 .12-1.68zM32.96 42.74q-1.47.34-2.9.76 1.14-3.3 2.3-6.4t2.17-5.63q.26 2.62.63 5.3t.76 5.33q-1.5.28-2.96.63zM59 34.91a11.92 11.92 0 0 1-.6 3.16 13.86 13.86 0 0 1-1.7 3.4 16.88 16.88 0 0 1-2.94 3.3 17.6 17.6 0 0 1-4.35 2.74q.72-4.3 1.5-8.54t1.82-8.58a5.47 5.47 0 0 1 3.62-.22 3.7 3.7 0 0 1 2.13 1.62 5.95 5.95 0 0 1 .54 3.12zM74.38 39q-1.48.3-2.94.67 1.26-3.26 2.53-6.3t2.36-5.57q.17 2.63.45 5.3t.58 5.37q-1.5.24-2.98.54z"/><path d="M106 55.06q-.57-.45-1.37-1a7.67 7.67 0 0 0-1.58-.87 2.72 2.72 0 0 0-1.45-.2 1.12 1.12 0 0 0-.87.95q-1.43 3.2-2.88 6.32t-2.96 6.1q-1.15-2.75-2.2-5.2t-1.98-4.36a7.75 7.75 0 0 0-1.1-1.47 2.65 2.65 0 0 0-1.5-.6 6.9 6.9 0 0 0-1.95 0q-.93.12-1.95.28-.84.25-1 .58a.65.65 0 0 0 0 .38q-.4-.08-.8-.16-.77-.16-1.66-.28t-1.95-.18q-1.06-.05-2.4 0a3.5 3.5 0 0 0-2.3.64 4.32 4.32 0 0 0-1.16 1.56q-1.15 2.6-2.4 5.9-.56 1.5-1.1 3a6.87 6.87 0 0 0-.3-2.26 11.58 11.58 0 0 0-1.78-3.37 20.77 20.77 0 0 0-2.33-2.48 6.16 6.16 0 0 0-3.52-1.42 12.25 12.25 0 0 0-4.06.43A22.15 22.15 0 0 0 53.18 59q-2.13 1.07-4.1 2.18a2.33 2.33 0 0 0-.7 1.24 14.7 14.7 0 0 0-.5 2.43q-.1.73-.2 1.54v-.03q-.06-.85-.15-1.54a8.58 8.58 0 0 0-.84-2.3 5.18 5.18 0 0 0-1.76-1.8 8.66 8.66 0 0 0-1.4-.8 11.63 11.63 0 0 0-1.66-.57 17.6 17.6 0 0 0-1.77-.4 12.84 12.84 0 0 0-1.76-.16 7.76 7.76 0 0 0-1.3 0 10.07 10.07 0 0 0-1.38.24 6.43 6.43 0 0 0-1.37.5 4.97 4.97 0 0 0-1.22.82 16.34 16.34 0 0 0-3 3.56 24.13 24.13 0 0 0-2.17 4.3 25.22 25.22 0 0 0-1.28 4.67 24.52 24.52 0 0 0-.38 4.6 17.93 17.93 0 0 0 .54 4.22 10.24 10.24 0 0 0 1.5 3.36 6.2 6.2 0 0 0 1.42 1.58 7.68 7.68 0 0 0 1.77 1.08 18.1 18.1 0 0 0 5.06.94 9.36 9.36 0 0 0 2.76-.27 7.67 7.67 0 0 0 2.4-1.1 12.48 12.48 0 0 0 3.14-3.4 20.74 20.74 0 0 0 2.32-5.1q0 .26 0 .5-.02 1.7-.02 3t0 2.03a2.85 2.85 0 0 0 .3 1.35 1.98 1.98 0 0 0 .92.8 4.7 4.7 0 0 0 1.36.34q.7.07 1.6.22a1.6 1.6 0 0 0 1.04-.1 1.17 1.17 0 0 0 .38-.72q.2-1.8.42-3.7t.5-3.9a25.4 25.4 0 0 0 2.08 1.9q1.15.95 2.28 1.8t2.2 1.57q1.06.7 1.86 1.15a5.02 5.02 0 0 0 2.1.6 4.48 4.48 0 0 0 1.57-.27q.6-.15 1-.27h.02l.1.03q.53.16.97.3a2.14 2.14 0 0 0 1.15.05 1.08 1.08 0 0 0 .57-.7q.37-1.1.76-2.25t.94-2.5a38.03 38.03 0 0 1 4.25-1.2q2.4-.58 4.85-1.13.22 1.34.42 2.46t.4 2.07a2.57 2.57 0 0 0 .57 1.24 2.3 2.3 0 0 0 1.15.5 5.7 5.7 0 0 0 1.5.17q.73 0 1.6-.1a1.76 1.76 0 0 0 1.07-.32 1.1 1.1 0 0 0 .16-.84q-.3-2.82-.57-6.13t-.52-6.6q-.23-3.3-.37-6.33-.04-1.1-.08-2.12.7 1.52 1.4 3.08 1 2.15 2 4.28t1.84 4.04q-.2 2.3-.22 4.18t-.13 3.3a2.48 2.48 0 0 0 .3 1.3 2.63 2.63 0 0 0 1.02.8q.76.24 1.63.44t1.7.33a2.15 2.15 0 0 0 1.15-.04q.28-.15.4-.82.2-1.8.4-3.73t.6-4.18q1.26-2.2 2.6-4.6t2.52-4.67q1.2-2.26 2.13-4.2a30.75 30.75 0 0 0 1.38-3.24q.18-.55.28-.94a1.9 1.9 0 0 0 .06-.7 1.55 1.55 0 0 0-.24-.64 4.2 4.2 0 0 0-.52-.62zM47.2 75.72c0 .35 0 .68-.02 1.02a3.36 3.36 0 0 0-.54-.8l-.72-.8a11.56 11.56 0 0 0-.82-.83 2.65 2.65 0 0 0-1.36-.7 4.7 4.7 0 0 0-1.8.14q-.95.25-2.25.52a25.56 25.56 0 0 0-2.5.63q-.65.15-1.17.28a4.03 4.03 0 0 0-.86.3 1.02 1.02 0 0 0-.48.45.83.83 0 0 0 .04.68 5.3 5.3 0 0 0 1.93 2.52 4.66 4.66 0 0 0 3.1.4 20.8 20.8 0 0 1-.94 2.13 10.34 10.34 0 0 1-1.07 1.7 4.25 4.25 0 0 1-1.18 1.07 1.64 1.64 0 0 1-1.22.2 1.92 1.92 0 0 1-1.2-1.12 7.6 7.6 0 0 1-.68-2.38 15.98 15.98 0 0 1-.1-3.1 17.32 17.32 0 0 1 .52-3.3 28.08 28.08 0 0 1 1.17-3.93 25.87 25.87 0 0 1 1.53-3.38 9.97 9.97 0 0 1 1.65-2.28 1.76 1.76 0 0 1 1.5-.68.68.68 0 0 1 .5.48q.16.42.35 1.03c.04.22.08.44.12.65s.07.45.1.7a4.7 4.7 0 0 0 .04.67 4.44 4.44 0 0 0 .14.62 4.16 4.16 0 0 0 1.48 2.58 6.06 6.06 0 0 0 3.48 1.05A1.87 1.87 0 0 0 47.1 72a1.02 1.02 0 0 0 .22-.3c0 .05 0 .1 0 .16q-.08 1.94-.12 3.86zm11.17-5.13a18.77 18.77 0 0 1-3.86 2.2q.44-2.2.76-4.16t.7-3.68a10.2 10.2 0 0 1 2.36-1.07 10.87 10.87 0 0 1 2.08-.43q1.94-.17 2.42.7a2.13 2.13 0 0 1-.2 1.62 8.54 8.54 0 0 1-1.5 2.3 18.28 18.28 0 0 1-2.75 2.5zm9.77-.47q-1.17 3.38-2.16 6.55-.72 2.3-1.22 4.15-.6-.48-1.2-.98-1.04-.87-2.03-1.74t-1.82-1.65a35.88 35.88 0 0 0 6-4.12 13.32 13.32 0 0 0 2.78-3.2c-.1.33-.23.66-.34 1zM76.6 73q-1.47.3-2.93.67 1.26-3.26 2.53-6.3t2.37-5.57q.17 2.64.44 5.3t.6 5.38q-1.5.23-3 .53z"/></g><g><g><path fill="#fff" d="M119.3 20.87a2.27 2.27 0 0 0-1.2-1.07 29.3 29.3 0 0 0-2.96-1.17q-1.5-.5-2.85-.87a5.44 5.44 0 0 0-1.9-.28 2.33 2.33 0 0 0-1.35.57 5.7 5.7 0 0 0-1.16 1.48q-.58.97-1.34 2.5-.77 1.3-1.58 2.8t-1.58 2.95q-.77 1.48-1.48 2.9t-1.25 2.6q-.5-3.4-.8-5.35t-.43-3q-.15-1.05-.2-1.47a6 6 0 0 1-.04-.7q-.13-.63-.24-1.13a2.9 2.9 0 0 0-.38-.9 2.95 2.95 0 0 0-.72-.77 5.1 5.1 0 0 0-1.25-.65q-1.24-.46-2.48-.8a28 28 0 0 0-3-.6 2.97 2.97 0 0 0-1.7.1 2.1 2.1 0 0 0-.86 1.4q-.3 1.56-.63 3.6t-.65 4.3q-.32 2.26-.6 4.6-.26 2.2-.47 4.27-.08-1.17-.16-2.35-.23-3.3-.37-6.33t-.15-5.4a2.93 2.93 0 0 0-.32-1.53 2.13 2.13 0 0 0-1.38-.84q-.78-.13-1.54-.3t-1.64-.28q-.9-.1-1.96-.17t-2.42 0a3.52 3.52 0 0 0-2.3.64 4.33 4.33 0 0 0-1.15 1.56q-1.15 2.6-2.4 5.9-1 2.67-1.95 5.4a12.78 12.78 0 0 0-.1-1.48 12.24 12.24 0 0 0-4.03-7.4 11.15 11.15 0 0 0-3.5-1.92 12.85 12.85 0 0 0-3.88-.66 19.24 19.24 0 0 0-3.9.34 21.1 21.1 0 0 0-6.5 2.4l-1.3 19.86q-.38-3.2-.7-6.4-.35-3.3-.6-6.32t-.34-5.37a2.94 2.94 0 0 0-.37-1.52 2.13 2.13 0 0 0-1.4-.78q-.8-.1-1.55-.24t-1.66-.22q-.9-.1-1.96-.1t-2.4.08a3.5 3.5 0 0 0-2.28.72 4.32 4.32 0 0 0-1.1 1.6q-1.07 2.62-2.2 5.97t-2.2 6.77q-1.04 3.43-1.92 6.63t-1.38 5.55a3.7 3.7 0 0 0-.04 1.12 1.37 1.37 0 0 0 .26.65 1.38 1.38 0 0 0 .5.4q.33.13.76.34.55.2 1.1.34t.97.26a2.14 2.14 0 0 0 1.15.02 1.1 1.1 0 0 0 .55-.73q.33-1.1.7-2.28t.84-2.5a38.14 38.14 0 0 1 4.2-1.38q2.4-.65 4.8-1.3.27 1.35.5 2.46t.5 2.05a2.57 2.57 0 0 0 .6 1.22 2.3 2.3 0 0 0 1.16.46 5.7 5.7 0 0 0 1.52.12q.72-.04 1.57-.14a1.76 1.76 0 0 0 1.07-.36 1.1 1.1 0 0 0 .14-.85q-.18-1.26-.35-2.6a2.8 2.8 0 0 0 .3.32q.3.27.64.56.9.63 1.6 1.06a17.36 17.36 0 0 0 1.65.86 4.46 4.46 0 0 0 3.53.2 24.3 24.3 0 0 0 5.84-2.63 21.82 21.82 0 0 0 4.4-3.6 19.86 19.86 0 0 0 1.64-2q-.62 2.1-1.04 3.77a3.75 3.75 0 0 0-.08 1.12 1.37 1.37 0 0 0 .24.66 1.38 1.38 0 0 0 .5.4q.3.15.73.38.55.2 1.08.38t.97.3a2.13 2.13 0 0 0 1.15.06 1.08 1.08 0 0 0 .58-.72q.36-1.1.76-2.24t.92-2.48a38.04 38.04 0 0 1 4.25-1.23q2.42-.57 4.85-1.12.22 1.34.42 2.47t.42 2.06a2.58 2.58 0 0 0 .56 1.25 2.3 2.3 0 0 0 1.15.5 5.7 5.7 0 0 0 1.5.17q.74-.02 1.6-.1a1.76 1.76 0 0 0 1.07-.33 1.1 1.1 0 0 0 .17-.84q-.02-.37-.06-.75a10 10 0 0 0 1.44.58q.77.26 1.53.42a1.64 1.64 0 0 0 1.1 0 1.16 1.16 0 0 0 .43-.78q.14-1.42.4-3.23t.6-3.9q.33-2.07.74-4.3t.85-4.5q.48 3.3 1.07 6.4t1.24 5.5q.16.55.3.92a2.47 2.47 0 0 0 .35.6 1.58 1.58 0 0 0 .45.4 4.22 4.22 0 0 0 .63.28 19.3 19.3 0 0 0 2.3.6 2.52 2.52 0 0 0 .7.1.94.94 0 0 0 .43-.13.8.8 0 0 0 .3-.3q.1-.22.27-.58.53-1.16 1.42-2.9t1.92-3.66q1.05-1.93 2.16-3.94t2.1-3.7q-.56 1.93-1.05 4t-.9 3.98q-.4 1.9-.7 3.46t-.44 2.56a1.7 1.7 0 0 0 1.07 2.18 6.67 6.67 0 0 0 1.38.56q.8.24 1.55.4.86.2 1.16-.06a2.2 2.2 0 0 0 .53-.85q.26-1.16.73-2.9t1.05-3.83q.6-2.08 1.25-4.35t1.3-4.5q.66-2.2 1.3-4.2t1.13-3.56a2.54 2.54 0 0 0 .13-1.7zM35.06 40.4q-1.47.34-2.92.75 1.15-3.3 2.3-6.4t2.2-5.63q.25 2.63.6 5.3t.78 5.33q-1.5.3-2.96.64zm26.05-7.82a11.92 11.92 0 0 1-.6 3.15 13.87 13.87 0 0 1-1.7 3.4 16.88 16.88 0 0 1-2.95 3.3 17.6 17.6 0 0 1-4.35 2.75q.7-4.3 1.5-8.54t1.8-8.58a5.47 5.47 0 0 1 3.64-.23 3.7 3.7 0 0 1 2.12 1.63 5.95 5.95 0 0 1 .54 3.12zm15.36 4.08q-1.5.3-2.94.66 1.26-3.26 2.53-6.3t2.36-5.57q.17 2.64.45 5.3t.58 5.38q-1.5.23-2.98.53z"/><path fill="#6140ff" d="M27.45 53.48a3.8 3.8 0 0 1-.8-.1c-.3-.07-.62-.16-.98-.26s-.74-.22-1.1-.35l-.05-.02c-.28-.14-.52-.26-.73-.35a1.54 1.54 0 0 1-.95-1.25 3.96 3.96 0 0 1 .04-1.2v-.03c.32-1.56.8-3.44 1.38-5.57S25.5 40 26.22 37.7c.7-2.25 1.42-4.53 2.18-6.77s1.5-4.24 2.2-6a4.64 4.64 0 0 1 1.17-1.7 3.8 3.8 0 0 1 2.45-.78c.9-.07 1.73-.1 2.44-.1s1.38.06 1.98.12 1.16.13 1.68.23c.5.1 1.02.17 1.53.23h.03a2.38 2.38 0 0 1 1.6.92 3.23 3.23 0 0 1 .4 1.67c.07 1.55.18 3.36.35 5.36.16 2 .36 4.13.58 6.3.12 1.05.24 2.12.36 3.2l1.08-16.8.14-.1a21.4 21.4 0 0 1 6.6-2.42 19.65 19.65 0 0 1 3.96-.34 13.17 13.17 0 0 1 3.97.67 11.5 11.5 0 0 1 3.6 1.97 12.53 12.53 0 0 1 4.13 7.58c0 .03 0 .07 0 .1.5-1.38 1-2.75 1.5-4.08.84-2.2 1.65-4.2 2.42-5.92a4.63 4.63 0 0 1 1.23-1.64 3.8 3.8 0 0 1 2.47-.7c.9-.04 1.73-.04 2.44 0s1.37.1 1.97.17 1.16.18 1.67.3c.5.1 1 .2 1.52.28h.03a2.38 2.38 0 0 1 1.55.98 3.23 3.23 0 0 1 .36 1.67c.02 1.56.07 3.37.17 5.37.08 1.75.18 3.6.3 5.47q.07-.54.13-1.08c.2-1.57.4-3.12.6-4.62.22-1.52.44-2.97.65-4.3s.42-2.56.63-3.6v-.02a2.32 2.32 0 0 1 1-1.58 3.2 3.2 0 0 1 1.87-.13 28.4 28.4 0 0 1 3.05.62c.83.23 1.67.5 2.5.8a5.4 5.4 0 0 1 1.34.7 3.26 3.26 0 0 1 .8.84 3.2 3.2 0 0 1 .4 1c.08.33.16.7.25 1.13v.05a5.8 5.8 0 0 0 .04.67c.03.28.1.76.2 1.47s.23 1.67.42 3c.17 1.13.4 2.6.66 4.38.25-.55.54-1.13.84-1.73.5-.97 1-1.95 1.48-2.9.52-1 1.05-2 1.6-2.97s1.06-1.93 1.57-2.8c.52-1 .97-1.85 1.34-2.5a6 6 0 0 1 1.23-1.55 2.62 2.62 0 0 1 1.5-.64 5.68 5.68 0 0 1 2 .27c.9.25 1.86.55 2.86.88a29.95 29.95 0 0 1 2.98 1.18 2.56 2.56 0 0 1 1.36 1.23 2.77 2.77 0 0 1-.12 1.9c-.35 1.07-.73 2.27-1.14 3.56-.42 1.3-.85 2.73-1.3 4.2s-.86 2.98-1.3 4.5c-.46 1.6-.86 3.02-1.24 4.34-.4 1.37-.74 2.66-1.05 3.82s-.55 2.12-.73 2.9V46a2.47 2.47 0 0 1-.62.97 1.57 1.57 0 0 1-1.42.13c-.5-.1-1.03-.25-1.56-.4a7.02 7.02 0 0 1-1.44-.6 1.97 1.97 0 0 1-1.23-2.48c.1-.67.24-1.5.45-2.57.2-1.03.44-2.2.7-3.46s.58-2.6.9-4q.2-.9.45-1.8-.48.83-.97 1.7c-.73 1.33-1.45 2.65-2.16 3.96s-1.35 2.54-1.93 3.67c-.58 1.14-1.06 2.1-1.4 2.87-.12.25-.22.44-.3.6a1.08 1.08 0 0 1-.4.4 1.23 1.23 0 0 1-.55.17 2.78 2.78 0 0 1-.8-.1 19.53 19.53 0 0 1-2.32-.6 4.47 4.47 0 0 1-.68-.32 1.86 1.86 0 0 1-.54-.47 2.75 2.75 0 0 1-.4-.68c-.1-.25-.2-.57-.3-.95-.44-1.6-.86-3.44-1.26-5.5-.3-1.54-.57-3.14-.82-4.76-.18.93-.36 1.87-.53 2.8-.27 1.52-.52 2.97-.74 4.33s-.42 2.67-.6 3.88-.3 2.3-.38 3.23v.04a1.4 1.4 0 0 1-.57.95 1.83 1.83 0 0 1-1.3.05c-.52-.1-1.04-.26-1.56-.43-.37-.1-.7-.24-1.02-.38l.02.24a1.35 1.35 0 0 1-.24 1.07 1.93 1.93 0 0 1-1.27.42c-.6.05-1.13.08-1.6.1a6.02 6.02 0 0 1-1.6-.2 2.53 2.53 0 0 1-1.28-.56 2.8 2.8 0 0 1-.64-1.4c-.15-.6-.3-1.3-.43-2.07-.1-.66-.24-1.4-.37-2.16-1.53.36-3.06.7-4.55 1.05a38.55 38.55 0 0 0-4.1 1.18c-.32.83-.62 1.62-.87 2.35-.27.8-.52 1.53-.76 2.24a1.36 1.36 0 0 1-.76.9 2.37 2.37 0 0 1-1.3-.06h-.02c-.3-.08-.63-.18-.98-.3s-.73-.24-1.1-.4h-.03c-.27-.15-.5-.28-.7-.38a1.68 1.68 0 0 1-.6-.5 1.66 1.66 0 0 1-.3-.78 3.96 3.96 0 0 1 .07-1.2v-.03c.18-.7.4-1.48.62-2.3q-.35.4-.7.8a22.2 22.2 0 0 1-4.47 3.65 24.7 24.7 0 0 1-5.9 2.66 4.76 4.76 0 0 1-3.75-.2 17.62 17.62 0 0 1-1.67-.9c-.47-.28-1.02-.64-1.62-1.06l-.02-.02c-.13-.1-.25-.22-.37-.32.07.62.15 1.2.23 1.78a1.36 1.36 0 0 1-.2 1.07 1.93 1.93 0 0 1-1.26.47c-.58.07-1.1.12-1.6.15a6 6 0 0 1-1.6-.13 2.52 2.52 0 0 1-1.3-.53 2.8 2.8 0 0 1-.68-1.37c-.18-.62-.34-1.3-.5-2.06-.15-.66-.3-1.4-.45-2.15-1.53.4-3.04.8-4.5 1.2a38.6 38.6 0 0 0-4.06 1.3c-.32.86-.6 1.65-.8 2.4-.25.78-.48 1.54-.7 2.25a1.36 1.36 0 0 1-.72.92 1.45 1.45 0 0 1-.53.08zm-.66-.66a1.83 1.83 0 0 0 .97.03.83.83 0 0 0 .38-.55c.2-.7.44-1.47.7-2.26s.5-1.63.84-2.53l.04-.1.12-.06a38.64 38.64 0 0 1 4.23-1.38c1.56-.43 3.18-.86 4.8-1.28l.3-.08.06.3c.18.88.35 1.7.5 2.44s.33 1.43.5 2.04a2.26 2.26 0 0 0 .5 1.08 2.05 2.05 0 0 0 1.03.38 5.43 5.43 0 0 0 1.44.12c.47-.02 1-.07 1.55-.14.68-.1.84-.23.87-.27a.9.9 0 0 0 .08-.62c-.1-.82-.22-1.7-.34-2.6l-.12-1 .64.77a2.55 2.55 0 0 0 .28.3c.2.16.4.34.62.54.6.4 1.13.77 1.6 1.05a17.1 17.1 0 0 0 1.6.84 4.2 4.2 0 0 0 3.3.2h.03a24.15 24.15 0 0 0 5.77-2.6 21.65 21.65 0 0 0 4.35-3.58 19.68 19.68 0 0 0 1.6-1.97l1.02-1.45-.5 1.7c-.43 1.38-.78 2.65-1.05 3.75a3.45 3.45 0 0 0-.08 1.02.97.97 0 0 0 .58.84c.2.1.45.23.72.37.36.14.7.27 1.05.37s.67.2.96.3a1.82 1.82 0 0 0 .97.06c.16-.05.3-.24.4-.54.24-.7.5-1.43.77-2.23.26-.78.58-1.62.94-2.5l.05-.13.13-.04a38.45 38.45 0 0 1 4.28-1.24c1.6-.38 3.23-.76 4.87-1.13l.3-.06.05.3c.14.9.28 1.72.4 2.46s.3 1.44.43 2.06a2.25 2.25 0 0 0 .48 1.1 2.04 2.04 0 0 0 1 .4h.02a5.46 5.46 0 0 0 1.43.18c.47 0 1-.04 1.56-.1.7-.05.86-.18.9-.22a.9.9 0 0 0 .1-.63c-.03-.24-.06-.5-.08-.75l-.06-.52.48.23a9.82 9.82 0 0 0 1.4.6c.5.15 1 .3 1.5.4.63.13.83.05.88.02.08-.05.2-.2.3-.57.1-.93.22-2.02.4-3.23s.36-2.52.6-3.9.46-2.8.74-4.32.55-3 .84-4.5l.33-1.66.25 1.7c.32 2.18.68 4.33 1.07 6.38s.8 3.9 1.23 5.46c.1.36.2.66.3.9a2.2 2.2 0 0 0 .3.54 1.28 1.28 0 0 0 .38.32 3.96 3.96 0 0 0 .6.27 19.08 19.08 0 0 0 2.25.6 2.3 2.3 0 0 0 .62.08.68.68 0 0 0 .3-.07.5.5 0 0 0 .17-.2c.08-.13.17-.32.28-.55.35-.77.83-1.74 1.42-2.9.58-1.13 1.23-2.36 1.93-3.67s1.44-2.64 2.17-3.95c.74-1.33 1.45-2.6 2.1-3.73l1.2-2.06-.66 2.3c-.38 1.28-.73 2.63-1.05 4s-.62 2.7-.9 3.96-.5 2.43-.7 3.46-.35 1.9-.44 2.54v.02a1.4 1.4 0 0 0 .9 1.86h.03a6.47 6.47 0 0 0 1.32.55c.52.15 1.03.3 1.53.4.66.16.86.04.9 0a1.92 1.92 0 0 0 .45-.72c.18-.76.42-1.73.73-2.88s.67-2.45 1.06-3.83c.37-1.32.78-2.75 1.24-4.36.44-1.5.88-3 1.3-4.48s.88-2.9 1.3-4.23c.4-1.3.8-2.5 1.14-3.56a2.3 2.3 0 0 0 .13-1.5 2.02 2.02 0 0 0-1.06-.92 29.35 29.35 0 0 0-2.9-1.16c-1-.34-1.95-.63-2.84-.87a5.2 5.2 0 0 0-1.8-.26 2.02 2.02 0 0 0-1.18.5 5.46 5.46 0 0 0-1.1 1.4c-.37.63-.82 1.46-1.32 2.46v.02c-.5.87-1.05 1.8-1.6 2.8s-1.06 1.96-1.57 2.95c-.5.95-1 1.92-1.48 2.9-.47.93-.9 1.8-1.24 2.58l-.4.9-.15-.98c-.34-2.2-.6-4-.8-5.35-.2-1.3-.34-2.3-.44-3s-.16-1.2-.2-1.48a6.53 6.53 0 0 1-.04-.7c-.08-.43-.16-.8-.23-1.1a2.62 2.62 0 0 0-.35-.82 2.67 2.67 0 0 0-.65-.68 4.83 4.83 0 0 0-1.18-.6c-.82-.32-1.65-.6-2.46-.8a27.75 27.75 0 0 0-3-.6 2.73 2.73 0 0 0-1.5.07 1.88 1.88 0 0 0-.7 1.2c-.2 1.03-.42 2.23-.63 3.56s-.43 2.8-.65 4.3c-.2 1.5-.4 3.05-.6 4.6-.17 1.46-.33 2.9-.47 4.28h-.57c-.07-.9-.12-1.66-.17-2.36-.16-2.2-.28-4.32-.37-6.34s-.16-3.82-.17-5.4a2.7 2.7 0 0 0-.28-1.38 1.87 1.87 0 0 0-1.2-.7c-.5-.1-1.02-.2-1.53-.3s-1.04-.2-1.62-.27-1.23-.14-1.93-.17-1.5-.04-2.4 0a3.26 3.26 0 0 0-2.1.57 4.06 4.06 0 0 0-1.1 1.48c-.76 1.72-1.56 3.7-2.38 5.9-.67 1.74-1.33 3.55-1.97 5.37l-.53 1.52-.03-1.62a12.45 12.45 0 0 0-.1-1.44 11.95 11.95 0 0 0-3.93-7.2 10.9 10.9 0 0 0-3.4-1.9 12.57 12.57 0 0 0-3.8-.63 19.04 19.04 0 0 0-3.84.34 20.28 20.28 0 0 0-3.54 1 20.68 20.68 0 0 0-2.75 1.28l-1.27 19.72h-.58c-.25-2.14-.5-4.3-.7-6.4-.24-2.17-.44-4.3-.6-6.3s-.28-3.83-.34-5.4a2.68 2.68 0 0 0-.32-1.37 1.87 1.87 0 0 0-1.2-.66c-.53-.06-1.05-.14-1.56-.23s-1.05-.17-1.63-.23-1.25-.1-1.95-.1-1.5.02-2.4.1a3.27 3.27 0 0 0-2.08.63 4.06 4.06 0 0 0-1.03 1.5c-.7 1.73-1.44 3.74-2.2 5.95-.74 2.24-1.47 4.5-2.17 6.77-.7 2.26-1.35 4.5-1.93 6.6s-1.05 4-1.38 5.54a3.46 3.46 0 0 0-.04 1.02 1.1 1.1 0 0 0 .2.5 1.08 1.08 0 0 0 .4.3c.22.1.46.23.74.37.36.12.7.23 1.06.33s.68.2.97.26zm24.34-7.15l.1-.54c.46-2.85.96-5.72 1.48-8.54s1.14-5.72 1.83-8.6l.03-.17.15-.05a5.77 5.77 0 0 1 3.82-.23 4 4 0 0 1 2.28 1.76 6.25 6.25 0 0 1 .58 3.3 12.26 12.26 0 0 1-.6 3.2 14.2 14.2 0 0 1-1.74 3.5 17.25 17.25 0 0 1-3 3.36 17.98 17.98 0 0 1-4.42 2.78zm3.93-17.4c-.67 2.84-1.27 5.67-1.77 8.42-.5 2.63-.96 5.3-1.4 7.98a17.02 17.02 0 0 0 3.78-2.46 16.67 16.67 0 0 0 2.9-3.24 13.6 13.6 0 0 0 1.65-3.34 11.7 11.7 0 0 0 .6-3.07 5.7 5.7 0 0 0-.5-2.97 3.44 3.44 0 0 0-1.97-1.5 5.1 5.1 0 0 0-3.28.18zM31.7 41.58l.18-.5c.76-2.2 1.54-4.36 2.3-6.42s1.5-3.95 2.2-5.64l.43-1.1.13 1.2c.17 1.72.38 3.5.62 5.27s.5 3.56.77 5.34l.04.28-.28.06c-.98.18-1.97.4-2.95.63s-1.94.5-2.9.76zm4.77-11.23c-.55 1.4-1.13 2.9-1.73 4.52-.7 1.9-1.43 3.86-2.13 5.86.8-.22 1.6-.42 2.4-.61.9-.2 1.8-.4 2.7-.58-.25-1.7-.5-3.4-.73-5.07-.18-1.37-.35-2.75-.5-4.1zm36.6 7.4l.2-.53c.83-2.15 1.7-4.28 2.53-6.3s1.63-3.9 2.36-5.57l.48-1.1.08 1.2c.1 1.74.26 3.52.44 5.3s.38 3.58.6 5.36l.02.26-.28.05c-1 .16-2 .34-2.97.54-.98.2-1.96.42-2.93.66zm5.16-11.08c-.6 1.37-1.23 2.87-1.9 4.46-.77 1.86-1.55 3.8-2.32 5.78.8-.2 1.62-.37 2.42-.53.9-.18 1.8-.35 2.72-.5-.2-1.68-.38-3.4-.55-5.08-.15-1.4-.27-2.77-.38-4.14z"/></g><g><path fill="#fff" d="M108.12 52.88q-.57-.45-1.36-1a7.65 7.65 0 0 0-1.6-.87 2.73 2.73 0 0 0-1.43-.2 1.12 1.12 0 0 0-.87.96q-1.44 3.2-2.88 6.33t-2.96 6.1q-1.14-2.76-2.2-5.2t-1.98-4.38a7.77 7.77 0 0 0-1.1-1.48 2.66 2.66 0 0 0-1.5-.6 6.9 6.9 0 0 0-1.95 0q-.94.12-1.95.28-.84.24-1 .57a.65.65 0 0 0 0 .37c-.28-.05-.55-.1-.8-.16q-.77-.15-1.66-.27t-1.96-.17q-1.07-.06-2.42 0a3.52 3.52 0 0 0-2.3.63 4.33 4.33 0 0 0-1.15 1.56q-1.16 2.58-2.4 5.9-.56 1.5-1.1 3a6.88 6.88 0 0 0-.3-2.27 11.57 11.57 0 0 0-1.78-3.38 20.74 20.74 0 0 0-2.34-2.5 6.16 6.16 0 0 0-3.52-1.4 12.24 12.24 0 0 0-4.07.43 22.1 22.1 0 0 0-4.26 1.65q-2.13 1.1-4.08 2.2a2.33 2.33 0 0 0-.72 1.24 14.7 14.7 0 0 0-.5 2.42q-.1.73-.2 1.54-.05-.87-.15-1.56a8.6 8.6 0 0 0-.83-2.3 5.18 5.18 0 0 0-1.75-1.8 8.62 8.62 0 0 0-1.42-.8 11.66 11.66 0 0 0-1.64-.57 17.92 17.92 0 0 0-1.76-.4 12.93 12.93 0 0 0-1.77-.16 7.9 7.9 0 0 0-1.3.03 10.17 10.17 0 0 0-1.38.22 6.45 6.45 0 0 0-1.38.5 5 5 0 0 0-1.2.83 16.35 16.35 0 0 0-3.02 3.55 24.1 24.1 0 0 0-2.17 4.32 25.3 25.3 0 0 0-1.28 4.65 24.52 24.52 0 0 0-.38 4.62 17.92 17.92 0 0 0 .54 4.2 10.24 10.24 0 0 0 1.5 3.37 6.18 6.18 0 0 0 1.43 1.57 7.66 7.66 0 0 0 1.77 1.08 18.07 18.07 0 0 0 5.06.94 9.32 9.32 0 0 0 2.75-.27 7.68 7.68 0 0 0 2.43-1.1 12.5 12.5 0 0 0 3.14-3.4 20.73 20.73 0 0 0 2.32-5.12c0 .2 0 .36-.02.53q0 1.67 0 3t0 2.02a2.84 2.84 0 0 0 .28 1.35 1.98 1.98 0 0 0 .93.8 4.74 4.74 0 0 0 1.34.33q.7.07 1.6.22a1.6 1.6 0 0 0 1.05-.1 1.18 1.18 0 0 0 .37-.72q.2-1.8.42-3.68t.48-3.92a25.4 25.4 0 0 0 2.1 1.9q1.14.95 2.27 1.8t2.2 1.57q1.06.7 1.86 1.16a5 5 0 0 0 2.1.6 4.47 4.47 0 0 0 1.58-.27c.4-.1.72-.2 1-.28h.02l.1.02c.36.1.68.2.97.3a2.13 2.13 0 0 0 1.15.06 1.08 1.08 0 0 0 .6-.72q.35-1.1.74-2.24t.94-2.48a38.17 38.17 0 0 1 4.25-1.23q2.4-.57 4.85-1.12.22 1.35.42 2.48t.42 2.06a2.57 2.57 0 0 0 .56 1.24 2.3 2.3 0 0 0 1.15.5 5.7 5.7 0 0 0 1.5.18q.73-.02 1.6-.1a1.76 1.76 0 0 0 1.07-.33 1.1 1.1 0 0 0 .17-.84q-.3-2.83-.58-6.14t-.5-6.6q-.24-3.3-.38-6.32-.05-1.1-.08-2.12.68 1.5 1.4 3.07 1 2.14 1.98 4.27t1.85 4.04q-.2 2.3-.23 4.2t-.13 3.3a2.48 2.48 0 0 0 .28 1.28 2.63 2.63 0 0 0 1.04.82q.75.23 1.63.43t1.67.33a2.16 2.16 0 0 0 1.16-.04q.28-.16.4-.83.2-1.82.4-3.74t.6-4.18q1.26-2.2 2.6-4.6t2.53-4.67q1.18-2.25 2.12-4.2a30.9 30.9 0 0 0 1.38-3.23q.18-.55.28-.94a1.88 1.88 0 0 0 .05-.7 1.53 1.53 0 0 0-.25-.64 4.14 4.14 0 0 0-.53-.63zm-58.8 20.66q0 .5-.02 1a3.37 3.37 0 0 0-.54-.8l-.72-.8a11.42 11.42 0 0 0-.82-.8 2.65 2.65 0 0 0-1.36-.73 4.7 4.7 0 0 0-1.8.16q-.94.25-2.24.5a25.57 25.57 0 0 0-2.5.65q-.65.17-1.16.3a4 4 0 0 0-.87.3 1 1 0 0 0-.48.45.83.83 0 0 0 .04.67 5.28 5.28 0 0 0 1.93 2.5 4.66 4.66 0 0 0 3.1.43 20.88 20.88 0 0 1-.94 2.12 10.34 10.34 0 0 1-1.08 1.7 4.22 4.22 0 0 1-1.18 1.07 1.63 1.63 0 0 1-1.22.2 1.9 1.9 0 0 1-1.2-1.13 7.6 7.6 0 0 1-.68-2.36 15.98 15.98 0 0 1-.1-3.1 17.32 17.32 0 0 1 .52-3.3 27.97 27.97 0 0 1 1.17-3.93 26 26 0 0 1 1.52-3.36 10 10 0 0 1 1.65-2.28 1.77 1.77 0 0 1 1.5-.7.68.68 0 0 1 .5.5q.16.42.35 1.03.06.3.12.64t.1.7a4.63 4.63 0 0 0 .04.66 4.4 4.4 0 0 0 .14.64 4.16 4.16 0 0 0 1.48 2.58 6.07 6.07 0 0 0 3.5 1.04 1.88 1.88 0 0 0 1.1-.25 1.02 1.02 0 0 0 .24-.3v.17q-.07 1.95-.1 3.87zM60.5 68.4a18.76 18.76 0 0 1-3.87 2.23q.43-2.23.75-4.18t.7-3.67a10.2 10.2 0 0 1 2.36-1.07 10.85 10.85 0 0 1 2.08-.4q1.94-.2 2.42.7a2.13 2.13 0 0 1-.2 1.6 8.54 8.54 0 0 1-1.5 2.3 18.3 18.3 0 0 1-2.75 2.5zm9.76-.46q-1.17 3.4-2.16 6.56-.72 2.3-1.22 4.15-.6-.48-1.2-.98-1.04-.87-2.03-1.74t-1.82-1.66a35.93 35.93 0 0 0 6-4.12 13.32 13.32 0 0 0 2.78-3.2c-.1.33-.22.66-.34 1zm8.47 2.9q-1.48.3-2.94.65 1.26-3.27 2.52-6.32t2.37-5.56q.16 2.63.44 5.3t.58 5.37q-1.5.23-2.98.53z"/><path fill="#6140ff" d="M39.13 86.8q-.25 0-.5-.02a18.47 18.47 0 0 1-5.13-.95h-.02a7.98 7.98 0 0 1-1.84-1.13 6.52 6.52 0 0 1-1.48-1.64 10.6 10.6 0 0 1-1.53-3.45 18.3 18.3 0 0 1-.56-4.27 24.95 24.95 0 0 1 .4-4.68 25.73 25.73 0 0 1 1.3-4.7 24.56 24.56 0 0 1 2.18-4.37A16.7 16.7 0 0 1 35 57.96a5.28 5.28 0 0 1 1.3-.88 6.75 6.75 0 0 1 1.42-.5 10.37 10.37 0 0 1 1.42-.24 8.2 8.2 0 0 1 1.33-.02 13.2 13.2 0 0 1 1.8.18 18 18 0 0 1 1.8.4 11.96 11.96 0 0 1 1.7.6 9 9 0 0 1 1.45.8 5.47 5.47 0 0 1 1.84 1.9 8.5 8.5 0 0 1 .73 1.82 13.47 13.47 0 0 1 .4-1.87 2.55 2.55 0 0 1 .85-1.4c1.32-.74 2.7-1.48 4.12-2.2a22.5 22.5 0 0 1 4.3-1.7 12.6 12.6 0 0 1 4.17-.43 6.48 6.48 0 0 1 3.7 1.5 21.16 21.16 0 0 1 2.36 2.52 11.92 11.92 0 0 1 1.83 3.45 8.96 8.96 0 0 1 .22.96c.22-.6.43-1.15.64-1.7.82-2.2 1.63-4.2 2.4-5.93a4.63 4.63 0 0 1 1.23-1.66 3.8 3.8 0 0 1 2.47-.7c.9-.04 1.73-.04 2.44 0s1.38.1 1.98.17 1.16.17 1.67.28c.13.03.28.06.44.1a.68.68 0 0 1 .05-.16c.13-.3.5-.53 1.16-.72h.04c.68-.12 1.34-.2 1.95-.3a7.2 7.2 0 0 1 2.02 0 2.94 2.94 0 0 1 1.65.7 7.9 7.9 0 0 1 1.16 1.52v.03c.63 1.26 1.3 2.73 2 4.36.64 1.5 1.3 3.04 1.95 4.63.9-1.8 1.8-3.67 2.67-5.54.96-2.07 1.93-4.18 2.87-6.3a1.38 1.38 0 0 1 1.1-1.15 3.02 3.02 0 0 1 1.6.23 8 8 0 0 1 1.65.9c.53.37 1 .7 1.37 1l.02.04a4.47 4.47 0 0 1 .56.68 1.84 1.84 0 0 1 .28.74 2.2 2.2 0 0 1-.05.82c-.06.26-.16.58-.28.95a31.45 31.45 0 0 1-1.4 3.28c-.63 1.3-1.34 2.7-2.13 4.2s-1.64 3.07-2.54 4.68c-.9 1.6-1.75 3.12-2.58 4.56-.23 1.46-.42 2.84-.57 4.1-.15 1.36-.3 2.58-.42 3.74a1.34 1.34 0 0 1-.53 1.05 2.3 2.3 0 0 1-1.34.06c-.53-.08-1.1-.2-1.7-.33s-1.15-.3-1.65-.44l-.05-.03a2.87 2.87 0 0 1-1.14-.92 2.72 2.72 0 0 1-.33-1.44c.07-.96.1-2.07.13-3.3s.1-2.62.22-4.12c-.56-1.24-1.18-2.57-1.82-3.97q-1-2.13-1.98-4.27c-.27-.58-.53-1.16-.8-1.74q0 .3.03.63c.1 2 .23 4.14.38 6.32s.32 4.4.5 6.6.4 4.24.58 6.12a1.36 1.36 0 0 1-.25 1.07 1.93 1.93 0 0 1-1.26.42c-.57.05-1.1.1-1.6.1a6 6 0 0 1-1.57-.2 2.53 2.53 0 0 1-1.3-.56 2.8 2.8 0 0 1-.64-1.38c-.14-.63-.28-1.33-.42-2.08-.1-.66-.23-1.4-.36-2.17-1.54.35-3.07.7-4.55 1.05a38.4 38.4 0 0 0-4.1 1.18c-.33.83-.63 1.62-.88 2.35-.27.8-.52 1.52-.76 2.23a1.36 1.36 0 0 1-.76.9 2.37 2.37 0 0 1-1.32-.05c-.3-.08-.63-.18-.98-.3h-.02c-.26.07-.56.15-.93.25a4.75 4.75 0 0 1-1.67.27 5.32 5.32 0 0 1-2.22-.62c-.55-.3-1.18-.7-1.9-1.17s-1.45-1-2.2-1.57-1.53-1.2-2.3-1.82c-.6-.5-1.17-1-1.7-1.52-.15 1.15-.28 2.27-.4 3.33q-.22 1.87-.42 3.67v.04a1.43 1.43 0 0 1-.5.9 1.8 1.8 0 0 1-1.24.15c-.6-.1-1.15-.17-1.6-.22a5.03 5.03 0 0 1-1.44-.36 2.27 2.27 0 0 1-1.08-.9 3.1 3.1 0 0 1-.32-1.5c0-.45 0-1.1 0-2.02 0-.55 0-1.14 0-1.77a19.16 19.16 0 0 1-1.76 3.52 12.85 12.85 0 0 1-3.2 3.47 8 8 0 0 1-2.53 1.14 9.46 9.46 0 0 1-2.34.3zm-5.43-1.5a17.84 17.84 0 0 0 4.96.9 9.1 9.1 0 0 0 2.67-.25 7.42 7.42 0 0 0 2.33-1.06 12.25 12.25 0 0 0 3.06-3.32A20.54 20.54 0 0 0 49 76.54l.37-1.17-.32-.7a3.1 3.1 0 0 0-.5-.72l-.72-.8a11.2 11.2 0 0 0-.8-.8 2.38 2.38 0 0 0-1.2-.65 4.43 4.43 0 0 0-1.7.14c-.62.16-1.38.34-2.25.52a25.36 25.36 0 0 0-2.47.63q-.66.15-1.17.28a3.75 3.75 0 0 0-.8.28.75.75 0 0 0-.35.3.6.6 0 0 0 .05.45 5.02 5.02 0 0 0 1.82 2.38 4.4 4.4 0 0 0 2.9.38l.5-.07-.18.45a21.3 21.3 0 0 1-.95 2.15 10.68 10.68 0 0 1-1.1 1.75 4.54 4.54 0 0 1-1.26 1.14 1.92 1.92 0 0 1-1.44.23 2.2 2.2 0 0 1-1.4-1.3 7.92 7.92 0 0 1-.7-2.45 16.36 16.36 0 0 1-.1-3.15 17.73 17.73 0 0 1 .53-3.36 28.4 28.4 0 0 1 1.18-3.96 26.4 26.4 0 0 1 1.55-3.4 10.3 10.3 0 0 1 1.7-2.35 2.03 2.03 0 0 1 1.78-.76.95.95 0 0 1 .7.66c.1.28.22.63.35 1.04l.02.03c.04.22.08.44.12.65s.08.47.1.72v.03a4.53 4.53 0 0 0 .04.63 4.2 4.2 0 0 0 .13.6l.02.02a3.9 3.9 0 0 0 1.37 2.4 5.8 5.8 0 0 0 3.3 1 1.55 1.55 0 0 0 .93-.2.73.73 0 0 0 .17-.2l.6-1.08-.06 1.4c-.05 1.24-.1 2.54-.12 3.84 0 .34-.02.68-.02 1l-.02 1.1v.98c0 .17 0 .35-.02.5 0 1.1 0 2.1 0 3 0 .93 0 1.6 0 2.04a2.58 2.58 0 0 0 .24 1.2 1.7 1.7 0 0 0 .8.67 4.45 4.45 0 0 0 1.27.32c.46.04 1 .12 1.62.22.6.07.77 0 .8-.04a.88.88 0 0 0 .28-.54q.2-1.8.4-3.68c.15-1.25.32-2.57.5-3.93l.08-.6.42.43a25.32 25.32 0 0 0 2.07 1.9c.76.62 1.52 1.22 2.27 1.78s1.48 1.1 2.18 1.56 1.32.85 1.84 1.15a4.75 4.75 0 0 0 1.95.56 4.13 4.13 0 0 0 1.47-.24h.03c.4-.1.72-.2.98-.28l.1-.03.2.07c.35.1.67.2.96.3a1.82 1.82 0 0 0 .98.06c.16-.06.3-.24.4-.54.24-.7.5-1.45.76-2.25.27-.77.58-1.6.94-2.5l.05-.12.12-.04a38.53 38.53 0 0 1 4.27-1.25c1.58-.37 3.2-.74 4.86-1.12l.3-.06.05.3c.14.9.28 1.7.42 2.46s.27 1.43.4 2.05a2.26 2.26 0 0 0 .5 1.1 2.05 2.05 0 0 0 1 .4 5.46 5.46 0 0 0 1.44.18c.48 0 1-.04 1.56-.1.7-.05.86-.18.9-.22a.9.9 0 0 0 .1-.63c-.2-1.86-.4-3.93-.57-6.1s-.36-4.44-.52-6.6-.26-4.33-.36-6.35c-.03-.73-.06-1.44-.08-2.12l-.05-1.46.6 1.33c.47 1 .94 2.04 1.42 3.07q.98 2.15 1.97 4.28c.65 1.43 1.28 2.8 1.85 4.04l.03.06v.08c-.13 1.52-.2 2.92-.23 4.16s-.06 2.35-.13 3.3a2.22 2.22 0 0 0 .23 1.13 2.35 2.35 0 0 0 .9.7c.5.15 1.02.3 1.6.42s1.13.24 1.66.32c.72.1.93.02.98 0s.16-.13.24-.62c.13-1.15.27-2.37.42-3.72.15-1.3.35-2.7.6-4.2v-.05l.03-.04c.83-1.45 1.7-3 2.6-4.6s1.74-3.18 2.52-4.66 1.5-2.9 2.1-4.2a30.85 30.85 0 0 0 1.38-3.2c.1-.36.2-.66.27-.9a1.6 1.6 0 0 0 .05-.62 1.25 1.25 0 0 0-.2-.5 3.85 3.85 0 0 0-.47-.58c-.37-.3-.82-.62-1.34-.98a7.4 7.4 0 0 0-1.53-.84 2.45 2.45 0 0 0-1.3-.18c-.2.03-.48.14-.63.74l-.02.05c-.95 2.12-1.92 4.25-2.88 6.32s-1.96 4.12-2.96 6.1l-.3.56-.23-.58c-.75-1.8-1.48-3.54-2.2-5.2-.68-1.62-1.35-3.08-1.96-4.33a7.47 7.47 0 0 0-1.07-1.4 2.4 2.4 0 0 0-1.33-.54 6.64 6.64 0 0 0-1.86 0c-.6.1-1.25.2-1.92.3-.65.18-.77.35-.8.4a.4.4 0 0 0 0 .2l.08.43-.42-.08c-.28-.06-.55-.1-.8-.17-.5-.1-1.05-.2-1.63-.27s-1.23-.13-1.93-.16-1.5-.04-2.4 0a3.27 3.27 0 0 0-2.1.56 4.05 4.05 0 0 0-1.08 1.46c-.77 1.72-1.57 3.7-2.4 5.88-.35.96-.72 1.94-1.1 3l-.67 1.85.1-1.97a6.6 6.6 0 0 0-.28-2.16 11.35 11.35 0 0 0-1.74-3.27 20.58 20.58 0 0 0-2.3-2.45A5.9 5.9 0 0 0 63.63 55a12 12 0 0 0-3.98.42 21.9 21.9 0 0 0-4.2 1.63c-1.4.72-2.77 1.45-4.07 2.18a2.06 2.06 0 0 0-.6 1.08 14.52 14.52 0 0 0-.5 2.4c-.06.47-.12 1-.17 1.52h-.58v-.02c-.04-.55-.1-1.06-.15-1.5a8.3 8.3 0 0 0-.8-2.23 4.92 4.92 0 0 0-1.67-1.7 8.44 8.44 0 0 0-1.37-.75 11.38 11.38 0 0 0-1.6-.57 17.52 17.52 0 0 0-1.74-.38 12.67 12.67 0 0 0-1.74-.17h-.02a7.64 7.64 0 0 0-1.24.02 10.02 10.02 0 0 0-1.35.22 6.16 6.16 0 0 0-1.3.46 4.7 4.7 0 0 0-1.14.8 16.16 16.16 0 0 0-2.96 3.5 23.98 23.98 0 0 0-2.13 4.25 25.12 25.12 0 0 0-1.26 4.6 24.32 24.32 0 0 0-.38 4.57 17.73 17.73 0 0 0 .54 4.14 10 10 0 0 0 1.45 3.27 5.92 5.92 0 0 0 1.36 1.5 7.4 7.4 0 0 0 1.7 1.06zm8-22.75a1.75 1.75 0 0 0-1.1.62A9.7 9.7 0 0 0 39 65.4a25.84 25.84 0 0 0-1.53 3.32 27.96 27.96 0 0 0-1.15 3.9 17.14 17.14 0 0 0-.5 3.26 15.76 15.76 0 0 0 .1 3.03 7.35 7.35 0 0 0 .64 2.3 1.66 1.66 0 0 0 1 .97 1.35 1.35 0 0 0 1-.17 3.98 3.98 0 0 0 1.1-1 10.12 10.12 0 0 0 1.05-1.66c.28-.52.53-1.07.76-1.65a4.6 4.6 0 0 1-2.8-.52 5.58 5.58 0 0 1-2.05-2.64 1.1 1.1 0 0 1-.03-.92 1.3 1.3 0 0 1 .6-.57 4.27 4.27 0 0 1 .93-.33q.5-.13 1.16-.3a25.85 25.85 0 0 1 2.5-.63c.87-.2 1.62-.36 2.23-.52a5 5 0 0 1 1.92-.16 2.94 2.94 0 0 1 1.5.8c.3.27.6.55.85.84l.72.8.04.07v-.1c.03-1.12.06-2.23.1-3.33a2.86 2.86 0 0 1-1.03.16 6.36 6.36 0 0 1-3.66-1.1 4.45 4.45 0 0 1-1.58-2.74 4.77 4.77 0 0 1-.14-.67 5 5 0 0 1-.05-.7c-.02-.22-.05-.44-.1-.64s-.07-.4-.1-.63c-.14-.4-.25-.73-.35-1-.08-.23-.2-.28-.27-.3a.68.68 0 0 0-.15-.02zm25.35 16.6l-.35-.28c-.42-.34-.8-.66-1.2-.98-.7-.6-1.37-1.18-2.03-1.76S62.2 75 61.64 74.48l-.3-.28.36-.2a35.74 35.74 0 0 0 5.95-4.07 13.1 13.1 0 0 0 2.7-3.14l.54.23-.1.26c-.1.24-.18.5-.26.74-.78 2.24-1.5 4.45-2.16 6.54-.47 1.52-.88 2.9-1.2 4.14zm-4.73-4.82c.48.44 1 .9 1.53 1.38.65.6 1.33 1.17 2.02 1.74.28.24.56.47.85.7.3-1.12.68-2.37 1.1-3.73.57-1.82 1.2-3.73 1.87-5.7a15.66 15.66 0 0 1-1.67 1.67 35.76 35.76 0 0 1-5.7 3.96zm13-2.42l.2-.52c.84-2.16 1.7-4.3 2.54-6.3s1.63-3.9 2.36-5.58l.48-1.1.08 1.2c.1 1.74.26 3.52.44 5.3s.38 3.57.58 5.36l.04.28-.28.04c-1 .15-2 .33-2.97.53-1 .2-1.97.43-2.94.67zm5.16-11.07c-.6 1.38-1.23 2.87-1.9 4.46-.76 1.85-1.54 3.8-2.3 5.77.8-.2 1.6-.36 2.4-.53.9-.18 1.8-.34 2.72-.5-.2-1.7-.38-3.4-.55-5.08-.15-1.38-.26-2.77-.36-4.13zm-24.23 10.3l.1-.56c.28-1.48.54-2.88.75-4.16.2-1.3.45-2.54.7-3.68l.03-.13.1-.07a10.53 10.53 0 0 1 2.43-1.1A11.27 11.27 0 0 1 62.5 61c1.4-.13 2.32.16 2.7.86v.02a2.36 2.36 0 0 1-.18 1.84 8.86 8.86 0 0 1-1.56 2.38 18.65 18.65 0 0 1-2.8 2.54 19.15 19.15 0 0 1-3.9 2.26zm2.1-8.17c-.24 1.1-.47 2.3-.67 3.54-.2 1.12-.4 2.34-.65 3.63a18.08 18.08 0 0 0 3.3-1.95 18.1 18.1 0 0 0 2.7-2.46 8.3 8.3 0 0 0 1.46-2.23 1.96 1.96 0 0 0 .2-1.38c-.28-.46-1-.65-2.14-.55a10.6 10.6 0 0 0-2.03.4 9.8 9.8 0 0 0-2.2 1z"/></g></g></g></svg>