<svg xmlns="http://www.w3.org/2000/svg" width="90.424" height="72.14"><path fill="none" d="M12.86 52.03q-.14-.29-.28-.58l-.08-.17q-.14-.29-.26-.58l-.09-.19c-.08-.19-.16-.38-.24-.57a36.04 36.04 0 01-.31-.77c-.03-.06-.05-.12-.08-.19-.07-.2-.15-.4-.22-.6l-.04-.1q-.32-.9-.6-1.82C8.7 48.38 7.81 50 8.26 51.12s2.23 1.66 4.97 1.65q-.15-.3-.3-.59z" data-name="Path 1367"/><path fill="none" d="M82.15 21.02c-.46-1.13-2.22-1.66-4.96-1.65a35.85 35.85 0 012.57 6.3c1.96-1.91 2.85-3.52 2.39-4.65z" data-name="Path 1368"/><path fill="#6140ff" d="M65.65 9.62a36.03 36.03 0 00-29.64 15.51q2-.87 4.05-1.7c12.64-5.16 24.66-8.34 33.78-9.3A36.1 36.1 0 0054.76 1.28a36.05 36.05 0 0115.25 8.6 36.39 36.39 0 00-4.36-.26z" data-name="Path 1369"/><path fill="#708aff" d="M16.25 57.57c-.1-.14-.2-.29-.3-.43q.14.22.3.43z" data-name="Path 1370"/><path fill="#708aff" d="M51.43.54z" data-name="Path 1371"/><path fill="#708aff" d="M52.28.7q.35.06.69.14c-.23-.05-.46-.1-.7-.15z" data-name="Path 1372"/><path fill="#708aff" d="M53.95 1.07q.39.1.78.2-.39-.1-.78-.2z" data-name="Path 1373"/><path fill="#6140ff" d="M79.75 25.68a35.84 35.84 0 00-2.56-6.31c-6.97.01-20.3 3.5-34.93 9.46a196.05 196.05 0 00-10.56 4.66 36.09 36.09 0 009.15 38.38A36.05 36.05 0 0116.3 57.64c.08.1.15.2.23.3a36.07 36.07 0 0064.75-21.87 36.43 36.43 0 00-.26-4.32 35.82 35.82 0 00-1.27-6.07z" data-name="Path 1374"/><path fill="#708aff" d="M12.58 51.45q.14.3.28.58-.14-.29-.28-.58z" data-name="Path 1375"/><path fill="#708aff" d="M11.9 49.94z" data-name="Path 1376"/><path fill="#708aff" d="M11.6 49.17c.07.2.15.38.23.57-.08-.19-.16-.38-.23-.57z" data-name="Path 1377"/><path fill="#708aff" d="M11.3 48.39c.07.2.15.4.22.6-.07-.2-.15-.4-.22-.6z" data-name="Path 1378"/><path fill="#708aff" d="M15.68 56.78l-.04-.06z" data-name="Path 1379"/><path fill="#708aff" d="M12.24 50.7q.12.3.26.58-.14-.29-.26-.58z" data-name="Path 1380"/><path fill="#708aff" d="M10.67 46.47q.27.91.6 1.8-.33-.89-.6-1.8z" data-name="Path 1381"/><path fill="#708aff" d="M53.12.87q.37.09.74.18-.37-.1-.74-.18z" data-name="Path 1382"/><path fill="#708aff" d="M9.27 39.13c0-.13-.02-.26-.03-.38.01.12.02.25.03.38z" data-name="Path 1383"/><path fill="#708aff" d="M47.93.1c.16.01.32.03.48.04-.16-.01-.32-.03-.48-.04z" data-name="Path 1384"/><path fill="#708aff" d="M9.16 37.27c0-.1 0-.2 0-.3 0 .1 0 .2 0 .3z" data-name="Path 1385"/><path fill="#708aff" d="M47.03.05c.14 0 .29.01.43.02-.14 0-.29-.02-.43-.02z" data-name="Path 1386"/><path fill="#708aff" d="M46.12.01c.12 0 .23.01.35.02-.12 0-.23-.01-.35-.02z" data-name="Path 1387"/><path fill="#708aff" d="M13.24 52.77q-.16-.3-.3-.59.14.3.3.6z" data-name="Path 1388"/><path fill="#708aff" d="M50.57.4z" data-name="Path 1389"/><path fill="#708aff" d="M9.36 40.02c-.02-.13-.03-.26-.04-.4 0 .14.02.27.04.4z" data-name="Path 1390"/><path fill="#708aff" d="M49.7.28z" data-name="Path 1391"/><path fill="#708aff" d="M48.82.18c.18.02.35.04.53.06-.18-.02-.35-.04-.53-.06z" data-name="Path 1392"/><path fill="#708aff" d="M9.2 38.22c0-.12 0-.24-.01-.36 0 .12.01.24.02.36z" data-name="Path 1393"/><path fill="#4425d6" d="M40.85 71.87a36.09 36.09 0 01-9.15-38.38c-9.7 4.64-17.3 9.36-21.03 12.98q.27.92.6 1.81l.03.1c.08.2.15.4.23.6.02.07.05.14.07.2.07.19.15.38.23.57.03.07.05.14.08.2q.12.29.25.57l.08.2q.13.28.26.56l.08.18q.14.3.29.58l.07.15q.15.3.3.59h.02a37.1 37.1 0 002.39 3.95l.04.06c.08.12.17.24.25.36.1.14.2.28.31.42l.06.07a36.05 36.05 0 0024.54 14.23z" data-name="Path 1394"/><path fill="#4425d6" d="M36.01 25.13a35.97 35.97 0 0134-15.24 36.05 36.05 0 00-15.24-8.6l-.04-.02q-.38-.1-.78-.2l-.09-.02q-.36-.1-.73-.17l-.15-.04q-.34-.07-.7-.14l-.2-.04c-.2-.04-.42-.08-.64-.12L51.2.5c-.2-.04-.4-.07-.6-.1l-.3-.04c-.2-.03-.39-.06-.58-.08-.11-.02-.23-.03-.35-.04-.18-.02-.35-.04-.53-.06-.13-.01-.27-.02-.4-.04-.17-.01-.33-.02-.49-.04s-.31-.02-.47-.03-.28-.02-.42-.02c-.2-.01-.38-.02-.57-.02-.11 0-.23-.01-.34-.02q-.46 0-.91 0A36.07 36.07 0 009.16 36.06q0 .45 0 .9a27.85 27.85 0 00.03.9c.02.11.02.23.03.35.01.18.02.35.03.53.01.13.03.25.04.38 0 .17.02.34.04.5.01.13.03.26.04.4s.03.24.04.36c6.4-5.08 15.7-10.5 26.6-15.26z" data-name="Path 1395"/><path fill="#2de8f5" d="M90.13 17.77c-1.4-3.42-7.5-4.56-16.29-3.64-9.12.96-21.14 4.14-33.78 9.3q-2.06.83-4.05 1.7C25.11 29.9 15.81 35.31 9.4 40.39 2.47 45.87-1.1 50.94.3 54.37S7.8 58.93 16.58 58l-.05-.07c-.08-.1-.16-.2-.23-.3l-.05-.07q-.16-.21-.31-.42c-.09-.12-.17-.24-.26-.36l-.04-.06a37.08 37.08 0 01-2.38-3.95h-.02c-2.75 0-4.5-.53-4.97-1.66s.43-2.74 2.4-4.65C14.38 42.85 22 38.13 31.7 33.49a195 195 0 0110.56-4.66c14.64-5.96 27.96-9.45 34.93-9.46 2.74-.01 4.5.52 4.96 1.65s-.43 2.74-2.4 4.65v.01a35.83 35.83 0 011.27 6.07c6.92-5.48 10.5-10.55 9.1-13.98z" data-name="Path 1396"/></svg>